<svg width="60" height="19" viewBox="0 0 60 19" fill="none" xmlns="http://www.w3.org/2000/svg">
<path d="M6.36044 18.1308C5.14264 18.1308 4.04955 17.874 3.08118 17.3605C2.11281 16.847 1.35719 16.1354 0.814312 15.2257C0.271437 14.3013 0 13.2596 0 12.1005C0 10.9414 0.271437 9.90699 0.814312 8.99731C1.35719 8.08762 2.10547 7.37602 3.05917 6.86249C4.02755 6.34896 5.12797 6.09219 6.36044 6.09219C7.51955 6.09219 8.53194 6.32695 9.39761 6.79646C10.2779 7.26597 10.9382 7.9409 11.3784 8.82124L9.26556 10.0537C8.92809 9.51084 8.5026 9.10735 7.98907 8.84325C7.49021 8.56447 6.94 8.42509 6.33843 8.42509C5.31137 8.42509 4.46038 8.76255 3.78545 9.43747C3.11053 10.0977 2.77306 10.9854 2.77306 12.1005C2.77306 13.2156 3.10319 14.1106 3.76344 14.7855C4.43837 15.4458 5.2967 15.7759 6.33843 15.7759C6.94 15.7759 7.49021 15.6439 7.98907 15.3798C8.5026 15.101 8.92809 14.6902 9.26556 14.1473L11.3784 15.3798C10.9235 16.2601 10.2559 16.9424 9.3756 17.4265C8.50993 17.8961 7.50488 18.1308 6.36044 18.1308Z" fill="black"/>
<path d="M20.9118 6.09219C22.3937 6.09219 23.5822 6.52502 24.4772 7.39069C25.3722 8.25635 25.8197 9.54018 25.8197 11.2422V17.9768H23.0686V11.5943C23.0686 10.5672 22.8265 9.79695 22.3424 9.28342C21.8582 8.75521 21.1686 8.49111 20.2736 8.49111C19.2612 8.49111 18.4615 8.79923 17.8746 9.41547C17.2877 10.017 16.9943 10.89 16.9943 12.0345V17.9768H14.2432V1.64648H16.9943V7.58876C17.4491 7.10458 18.0067 6.73777 18.6669 6.48834C19.3419 6.22424 20.0902 6.09219 20.9118 6.09219Z" fill="black"/>
<path d="M34.3935 6.09219C36.1249 6.09219 37.4454 6.51035 38.355 7.34667C39.2794 8.16832 39.7416 9.41546 39.7416 11.0881V17.9768H37.1446V16.5462C36.8071 17.0597 36.3229 17.4559 35.692 17.7347C35.0758 17.9988 34.3275 18.1308 33.4472 18.1308C32.5668 18.1308 31.7965 17.9841 31.1363 17.6906C30.476 17.3825 29.9625 16.9644 29.5957 16.4362C29.2435 15.8933 29.0675 15.2844 29.0675 14.6095C29.0675 13.5531 29.4563 12.7094 30.2339 12.0785C31.0262 11.4329 32.266 11.1101 33.9534 11.1101H36.9905V10.934C36.9905 10.1124 36.7411 9.48149 36.2422 9.04132C35.758 8.60115 35.0318 8.38107 34.0634 8.38107C33.4031 8.38107 32.7502 8.48377 32.1046 8.68919C31.4737 8.8946 30.9382 9.18071 30.498 9.54752L29.4196 7.54475C30.0359 7.07523 30.7768 6.71576 31.6425 6.46633C32.5081 6.21691 33.4252 6.09219 34.3935 6.09219ZM34.0194 16.128C34.709 16.128 35.3179 15.974 35.8461 15.6659C36.389 15.3431 36.7704 14.8882 36.9905 14.3013V12.9368H34.1514C32.5668 12.9368 31.7745 13.4577 31.7745 14.4994C31.7745 14.9983 31.9726 15.3944 32.3687 15.6879C32.7649 15.9813 33.3151 16.128 34.0194 16.128Z" fill="black"/>
<path d="M43.8664 6.22424H46.6175V17.9768H43.8664V6.22424Z" fill="black"/>
<path d="M60 15.7759V17.9768H49.8541V16.2381L56.3026 8.42509H49.9862V6.22424H59.8239V7.96291L53.3535 15.7759H60Z" fill="black"/>
<path fill-rule="evenodd" clip-rule="evenodd" d="M53.2927 4.20581L37.4396 2.57497L37.6443 0.585601L53.4974 2.21644L53.2927 4.20581Z" fill="#22EF8D"/>
</svg>
