<svg width="120" height="120" viewBox="0 0 120 120" fill="none" xmlns="http://www.w3.org/2000/svg">
<g opacity="0.3">
<path d="M117.83 46.546C117.002 40.8462 114.444 35.538 110.502 31.3389C106.56 27.1397 101.424 24.252 95.7878 23.066C91.7853 22.2124 88.1799 20.0529 85.5384 16.927C81.3901 12.0286 75.9642 8.37689 69.8643 6.37812C63.7644 4.37935 57.2296 4.11183 50.9868 5.60531C44.7439 7.09879 39.0377 10.2947 34.5028 14.8377C29.9679 19.3806 26.7821 25.0925 25.2997 31.3379C24.6185 34.0816 23.3548 36.6464 21.5945 38.8583C19.8341 41.0702 17.6183 42.8773 15.0976 44.1569C1.81998 51.0555 -4.83215 68.9622 7.26957 85.7662C8.84828 87.7645 10.8932 89.3449 13.2249 90.3689C17.5112 92.4863 20.8586 96.1199 22.6182 100.565C24.13 104.27 26.4548 107.587 29.4209 110.273C32.3869 112.958 35.9185 114.943 39.7546 116.08C43.5907 117.217 47.6334 117.478 51.5838 116.843C55.5343 116.208 59.2916 114.694 62.5781 112.412C64.8193 110.847 67.3746 109.79 70.0661 109.313C72.7577 108.837 75.5207 108.953 78.1628 109.653C82.6436 110.874 87.3624 110.927 91.8694 109.807C96.3765 108.687 100.522 106.431 103.909 103.255C107.297 100.078 109.815 96.0865 111.222 91.6608C112.629 87.235 112.879 82.5225 111.949 77.9726C111.074 73.4174 111.912 68.6997 114.301 64.7242C117.508 59.2413 118.752 52.8303 117.83 46.546Z" fill="#2BC97E"/>
<path d="M46.7529 34.6881H22.3779V57.1881H46.7529V34.6881Z" fill="white"/>
<path d="M46.7529 58.1255H22.3779C22.1293 58.1255 21.8908 58.0267 21.715 57.8509C21.5392 57.6751 21.4404 57.4366 21.4404 57.188V34.688C21.4404 34.4393 21.5392 34.2009 21.715 34.0251C21.8908 33.8493 22.1293 33.7505 22.3779 33.7505H46.7529C47.0016 33.7505 47.24 33.8493 47.4158 34.0251C47.5916 34.2009 47.6904 34.4394 47.6904 34.688V57.188C47.6904 57.4366 47.5916 57.6751 47.4158 57.8509C47.24 58.0267 47.0016 58.1255 46.7529 58.1255ZM23.3154 56.2505H45.8154V35.6255H23.3154V56.2505Z" fill="#2BC97E"/>
<path d="M33.6279 47.8131H26.1279V53.4381H33.6279V47.8131Z" fill="white"/>
<path d="M33.6279 54.3755H26.1279C25.8793 54.3755 25.6408 54.2767 25.465 54.1009C25.2892 53.9251 25.1904 53.6866 25.1904 53.438V47.813C25.1904 47.5643 25.2892 47.3259 25.465 47.1501C25.6408 46.9743 25.8793 46.8755 26.1279 46.8755H33.6279C33.8766 46.8755 34.115 46.9743 34.2908 47.1501C34.4666 47.3259 34.5654 47.5644 34.5654 47.813V53.438C34.5654 53.6866 34.4666 53.9251 34.2908 54.1009C34.115 54.2767 33.8766 54.3755 33.6279 54.3755ZM27.0654 52.5005H32.6904V48.7505H27.0654V52.5005Z" fill="#2BC97E"/>
<path opacity="0.5" d="M30.8154 51.563H28.9404C28.6918 51.563 28.4533 51.4642 28.2775 51.2884C28.1017 51.1126 28.0029 50.8741 28.0029 50.6255C28.0029 50.3768 28.1017 50.1384 28.2775 49.9626C28.4533 49.7868 28.6918 49.688 28.9404 49.688H30.8154C31.0641 49.688 31.3025 49.7868 31.4783 49.9626C31.6542 50.1384 31.7529 50.3768 31.7529 50.6255C31.7529 50.8741 31.6542 51.1126 31.4783 51.2884C31.3025 51.4642 31.0641 51.563 30.8154 51.563Z" fill="#2BC97E"/>
<path d="M38.3154 34.6885H30.8154V41.251L32.6904 42.1885L34.5654 41.251L36.4404 42.1885L38.3154 41.251V34.6885Z" fill="#2BC97E"/>
<path d="M36.4404 43.1255C36.2949 43.1255 36.1513 43.0916 36.0211 43.0266L34.565 42.2988L33.1097 43.0266C32.9795 43.0916 32.836 43.1255 32.6904 43.1255C32.5449 43.1255 32.4013 43.0916 32.2711 43.0266L30.3961 42.0891C30.2404 42.0112 30.1094 41.8915 30.0179 41.7434C29.9263 41.5953 29.8779 41.4246 29.8779 41.2505V34.688C29.8779 34.4393 29.9767 34.2009 30.1525 34.0251C30.3283 33.8493 30.5668 33.7505 30.8154 33.7505H38.3154C38.5641 33.7505 38.8025 33.8493 38.9783 34.0251C39.1541 34.2009 39.2529 34.4394 39.2529 34.688V41.2505C39.253 41.4246 39.2045 41.5953 39.113 41.7434C39.0215 41.8915 38.8905 42.0112 38.7347 42.0891L36.8597 43.0266C36.7295 43.0917 36.586 43.1255 36.4404 43.1255ZM34.565 40.313C34.7105 40.313 34.8541 40.3468 34.9843 40.4119L36.4404 41.1397L37.3779 40.671V35.6255H31.7529V40.671L32.6904 41.1397L34.1457 40.4119C34.2759 40.3468 34.4194 40.3129 34.565 40.313Z" fill="#2BC97E"/>
<path d="M34.5654 35.6255C34.3168 35.6254 34.0783 35.5267 33.9025 35.3509C33.7267 35.175 33.6279 34.9366 33.6279 34.688V29.978C33.6279 29.7294 33.7267 29.4909 33.9025 29.3151C34.0783 29.1393 34.3168 29.0405 34.5654 29.0405C34.8141 29.0405 35.0525 29.1393 35.2283 29.3151C35.4042 29.4909 35.5029 29.7294 35.5029 29.978V34.688C35.5029 34.9366 35.4041 35.175 35.2283 35.3509C35.0525 35.5267 34.8141 35.6254 34.5654 35.6255Z" fill="#2BC97E"/>
<path d="M34.5645 30.9156C34.3916 30.9155 34.2222 30.8675 34.0749 30.777C33.9275 30.6866 33.8081 30.5571 33.7298 30.403C33.6514 30.2489 33.6172 30.0762 33.6309 29.9038C33.6446 29.7315 33.7057 29.5663 33.8074 29.4265L40.017 20.8897C40.1632 20.6886 40.3834 20.5539 40.629 20.5152C40.8746 20.4765 41.1256 20.5369 41.3266 20.6832C41.5277 20.8295 41.6624 21.0497 41.7011 21.2953C41.7398 21.5409 41.6794 21.7919 41.5331 21.9929L35.3235 30.5298C35.2365 30.6495 35.1223 30.7469 34.9904 30.814C34.8585 30.881 34.7125 30.9159 34.5645 30.9156Z" fill="#2BC97E"/>
<path d="M34.5658 30.916C34.3519 30.916 34.1443 30.8429 33.9776 30.7087C33.8109 30.5745 33.6952 30.3873 33.6495 30.1782C33.6039 29.9692 33.6311 29.7508 33.7267 29.5593C33.8222 29.3679 33.9804 29.2149 34.1749 29.1257L52.8032 20.5888C53.0292 20.4853 53.2871 20.4758 53.5202 20.5624C53.7533 20.649 53.9424 20.8247 54.046 21.0507C54.1495 21.2768 54.159 21.5347 54.0724 21.7678C53.9858 22.0009 53.8101 22.19 53.5841 22.2936L34.9558 30.8304C34.8336 30.8868 34.7005 30.916 34.5658 30.916Z" fill="#2BC97E"/>
<path d="M97.5 88.125H76.875V103.125H97.5V88.125Z" fill="white"/>
<path d="M97.5 104.062H76.875C76.6264 104.062 76.3879 103.964 76.2121 103.788C76.0363 103.612 75.9375 103.374 75.9375 103.125V88.125C75.9375 87.8764 76.0363 87.6379 76.2121 87.4621C76.3879 87.2863 76.6264 87.1875 76.875 87.1875H97.5C97.7486 87.1875 97.9871 87.2863 98.1629 87.4621C98.3387 87.6379 98.4375 87.8764 98.4375 88.125V103.125C98.4375 103.374 98.3387 103.612 98.1629 103.788C97.9871 103.964 97.7486 104.062 97.5 104.062ZM77.8125 102.188H96.5625V89.0625H77.8125V102.188Z" fill="#2BC97E"/>
<path d="M90.9375 88.125H83.4375V94.6875L85.3125 95.625L87.1875 94.6875L89.0625 95.625L90.9375 94.6875V88.125Z" fill="#2BC97E"/>
<path d="M89.0625 96.5625C88.917 96.5625 88.7734 96.5286 88.6432 96.4636L87.187 95.7358L85.7318 96.4636C85.6016 96.5287 85.458 96.5625 85.3125 96.5625C85.167 96.5625 85.0234 96.5287 84.8932 96.4636L83.0182 95.5261C82.8624 95.4483 82.7315 95.3286 82.6399 95.1804C82.5484 95.0323 82.5 94.8616 82.5 94.6875V88.125C82.5 87.8764 82.5988 87.6379 82.7746 87.4621C82.9504 87.2863 83.1889 87.1875 83.4375 87.1875H90.9375C91.1861 87.1875 91.4246 87.2863 91.6004 87.4621C91.7762 87.6379 91.875 87.8764 91.875 88.125V94.6875C91.875 94.8616 91.8266 95.0323 91.7351 95.1804C91.6435 95.3286 91.5126 95.4483 91.3568 95.5261L89.4818 96.4636C89.3516 96.5287 89.2081 96.5625 89.0625 96.5625ZM87.187 93.75C87.3326 93.75 87.4761 93.7839 87.6064 93.8489L89.0625 94.5767L90 94.108V89.0625H84.375V94.108L85.3125 94.5767L86.7677 93.8489C86.8979 93.7838 87.0415 93.75 87.187 93.75Z" fill="#2BC97E"/>
<path d="M105.938 9.37488H64.6875C63.652 9.37488 62.8125 10.2143 62.8125 11.2499V38.4374C62.8125 39.4729 63.652 40.3124 64.6875 40.3124H105.938C106.973 40.3124 107.812 39.4729 107.812 38.4374V11.2499C107.812 10.2143 106.973 9.37488 105.938 9.37488Z" fill="white"/>
<path d="M105.937 41.25H64.6865C63.9409 41.2492 63.226 40.9526 62.6987 40.4253C62.1714 39.8981 61.8748 39.1832 61.874 38.4375V11.25C61.8748 10.5043 62.1714 9.78943 62.6987 9.26216C63.226 8.73489 63.9409 8.43831 64.6865 8.4375H105.937C106.682 8.43831 107.397 8.73489 107.924 9.26216C108.452 9.78943 108.748 10.5043 108.749 11.25V38.4375C108.748 39.1832 108.452 39.8981 107.924 40.4253C107.397 40.9526 106.682 41.2492 105.937 41.25ZM64.6865 10.3125C64.438 10.3128 64.1997 10.4117 64.024 10.5874C63.8482 10.7632 63.7493 11.0015 63.749 11.25V38.4375C63.7493 38.686 63.8482 38.9243 64.024 39.1001C64.1997 39.2758 64.438 39.3747 64.6865 39.375H105.937C106.185 39.3747 106.423 39.2758 106.599 39.1001C106.775 38.9243 106.874 38.686 106.874 38.4375V11.25C106.874 11.0015 106.775 10.7632 106.599 10.5874C106.423 10.4117 106.185 10.3128 105.937 10.3125H64.6865Z" fill="#2BC97E"/>
<path d="M107.812 14.9999H62.8125V21.5624H107.812V14.9999Z" fill="#2BC97E"/>
<path d="M102.188 27.1874H68.4375V32.8124H102.188V27.1874Z" fill="white"/>
<path d="M102.187 33.75H68.4365C68.1879 33.75 67.9494 33.6512 67.7736 33.4754C67.5978 33.2996 67.499 33.0611 67.499 32.8125V27.1875C67.499 26.9389 67.5978 26.7004 67.7736 26.5246C67.9494 26.3488 68.1879 26.25 68.4365 26.25H102.187C102.435 26.25 102.674 26.3488 102.849 26.5246C103.025 26.7004 103.124 26.9389 103.124 27.1875V32.8125C103.124 33.0611 103.025 33.2996 102.849 33.4754C102.674 33.6512 102.435 33.75 102.187 33.75ZM69.374 31.875H101.249V28.125H69.374V31.875Z" fill="#2BC97E"/>
<g opacity="0.3">
<path d="M63.75 19.6875C63.6266 19.6887 63.5041 19.6653 63.3899 19.6186C63.2756 19.5719 63.1718 19.5029 63.0845 19.4156C62.9972 19.3283 62.9282 19.2245 62.8815 19.1102C62.8348 18.9959 62.8113 18.8735 62.8125 18.75C62.8138 18.6274 62.8392 18.5063 62.8872 18.3934C62.9303 18.2776 62.9975 18.1723 63.0844 18.0844C63.1935 17.974 63.3282 17.8924 63.4765 17.8467C63.6248 17.801 63.7821 17.7926 63.9344 17.8224C64.0867 17.8522 64.2293 17.9192 64.3494 18.0174C64.4696 18.1156 64.5636 18.242 64.6231 18.3853C64.6826 18.5286 64.7058 18.6844 64.6905 18.8388C64.6752 18.9932 64.622 19.1415 64.5356 19.2704C64.4492 19.3993 64.3323 19.5048 64.1952 19.5776C64.0581 19.6504 63.9052 19.6881 63.75 19.6875Z" fill="white"/>
<path d="M65.625 17.8125C65.5016 17.8137 65.3791 17.7902 65.2649 17.7435C65.1506 17.6969 65.0468 17.6278 64.9595 17.5405C64.8722 17.4533 64.8032 17.3494 64.7565 17.2351C64.7098 17.1209 64.6863 16.9984 64.6875 16.875C64.6888 16.7524 64.7142 16.6312 64.7622 16.5184C64.8075 16.4037 64.8745 16.2988 64.9594 16.2093C65.1407 16.042 65.3783 15.9491 65.625 15.9491C65.8717 15.9491 66.1093 16.042 66.2906 16.2093C66.3752 16.2989 66.4421 16.4038 66.4875 16.5183C66.5356 16.6311 66.5611 16.7523 66.5625 16.875C66.5637 16.9984 66.5403 17.1209 66.4936 17.2351C66.4469 17.3494 66.3779 17.4533 66.2906 17.5405C66.2033 17.6278 66.0995 17.6969 65.9852 17.7435C65.8709 17.7902 65.7485 17.8137 65.625 17.8125Z" fill="white"/>
<path d="M67.5 19.6875C67.3766 19.6887 67.2541 19.6653 67.1399 19.6186C67.0256 19.5719 66.9218 19.5029 66.8345 19.4156C66.7472 19.3283 66.6782 19.2245 66.6315 19.1102C66.5848 18.9959 66.5613 18.8735 66.5625 18.75C66.5638 18.6274 66.5892 18.5063 66.6372 18.3934C66.6803 18.2776 66.7475 18.1723 66.8344 18.0844C66.9435 17.974 67.0782 17.8924 67.2265 17.8467C67.3748 17.801 67.5321 17.7926 67.6844 17.8224C67.8367 17.8522 67.9793 17.9192 68.0994 18.0174C68.2196 18.1156 68.3136 18.242 68.3731 18.3853C68.4326 18.5286 68.4558 18.6844 68.4405 18.8388C68.4252 18.9932 68.372 19.1415 68.2856 19.2704C68.1992 19.3993 68.0823 19.5048 67.9452 19.5776C67.8081 19.6504 67.6552 19.6881 67.5 19.6875Z" fill="white"/>
<path d="M69.3755 17.8126C69.1611 17.8105 68.954 17.7342 68.7894 17.5968C68.6248 17.4593 68.5129 17.2691 68.4726 17.0585C68.4323 16.8479 68.4662 16.6298 68.5684 16.4414C68.6706 16.2529 68.835 16.1056 69.0335 16.0245C69.232 15.9434 69.4524 15.9335 69.6574 15.9966C69.8624 16.0596 70.0392 16.1916 70.1579 16.3702C70.2766 16.5487 70.3298 16.7629 70.3085 16.9763C70.2872 17.1896 70.1927 17.3891 70.0411 17.5407C69.8613 17.7118 69.6237 17.8089 69.3755 17.8126Z" fill="white"/>
<path d="M71.25 19.6875C71.1266 19.6887 71.0041 19.6653 70.8899 19.6186C70.7756 19.5719 70.6718 19.5029 70.5845 19.4156C70.4972 19.3283 70.4282 19.2245 70.3815 19.1102C70.3348 18.9959 70.3113 18.8735 70.3125 18.75C70.3138 18.6274 70.3392 18.5063 70.3872 18.3934C70.4303 18.2776 70.4975 18.1723 70.5844 18.0844C70.6935 17.974 70.8282 17.8924 70.9765 17.8467C71.1248 17.801 71.2821 17.7926 71.4344 17.8224C71.5867 17.8522 71.7293 17.9192 71.8494 18.0174C71.9696 18.1156 72.0636 18.242 72.1231 18.3853C72.1826 18.5286 72.2058 18.6844 72.1905 18.8388C72.1752 18.9932 72.122 19.1415 72.0356 19.2704C71.9492 19.3993 71.8323 19.5048 71.6952 19.5776C71.5581 19.6504 71.4052 19.6881 71.25 19.6875Z" fill="white"/>
<path d="M73.125 17.8125C73.0016 17.8137 72.8791 17.7903 72.7649 17.7436C72.6506 17.6969 72.5468 17.6279 72.4595 17.5406C72.3722 17.4533 72.3032 17.3495 72.2565 17.2352C72.2098 17.1209 72.1863 16.9984 72.1875 16.875C72.1888 16.7524 72.2142 16.6312 72.2622 16.5184C72.3075 16.4037 72.3745 16.2988 72.4594 16.2094C72.5913 16.0795 72.7587 15.9915 72.9405 15.9564C73.1223 15.9213 73.3103 15.9407 73.4811 16.0121C73.5948 16.0598 73.6995 16.1265 73.7907 16.2094C73.8753 16.2989 73.9421 16.4038 73.9875 16.5184C74.0356 16.6312 74.0611 16.7524 74.0625 16.875C74.0637 16.9984 74.0403 17.1209 73.9936 17.2352C73.9469 17.3495 73.8779 17.4533 73.7906 17.5406C73.7033 17.6279 73.5995 17.6969 73.4852 17.7436C73.3709 17.7903 73.2485 17.8137 73.125 17.8125Z" fill="white"/>
<path d="M75 19.6875C74.7519 19.6838 74.5142 19.5868 74.3344 19.4156C74.2496 19.326 74.1826 19.2209 74.1371 19.1062C74.0879 18.9938 74.0625 18.8725 74.0625 18.7498C74.0625 18.6272 74.0879 18.5058 74.1371 18.3935C74.1803 18.2776 74.2475 18.1723 74.3344 18.0844C74.4435 17.974 74.5782 17.8924 74.7265 17.8467C74.8748 17.801 75.0321 17.7926 75.1844 17.8224C75.3367 17.8522 75.4793 17.9192 75.5994 18.0174C75.7196 18.1156 75.8136 18.242 75.8731 18.3853C75.9326 18.5286 75.9557 18.6844 75.9405 18.8388C75.9252 18.9932 75.872 19.1415 75.7856 19.2704C75.6992 19.3993 75.5822 19.5048 75.4452 19.5776C75.3081 19.6504 75.1552 19.6881 75 19.6875Z" fill="white"/>
<path d="M76.8755 17.8126C76.6611 17.8105 76.454 17.7342 76.2894 17.5968C76.1248 17.4593 76.0129 17.2691 75.9726 17.0585C75.9323 16.8479 75.9662 16.6298 76.0684 16.4414C76.1706 16.2529 76.335 16.1056 76.5335 16.0245C76.732 15.9434 76.9524 15.9335 77.1574 15.9966C77.3624 16.0596 77.5392 16.1916 77.6579 16.3702C77.7766 16.5487 77.8298 16.7629 77.8085 16.9763C77.7872 17.1896 77.6927 17.3891 77.5411 17.5407C77.3613 17.7118 77.1237 17.8089 76.8755 17.8126Z" fill="white"/>
<path d="M78.75 19.6875C78.5019 19.6838 78.2642 19.5867 78.0844 19.4156C77.9996 19.3259 77.9326 19.2209 77.8871 19.1061C77.8379 18.9938 77.8125 18.8724 77.8125 18.7498C77.8125 18.6271 77.8379 18.5058 77.8871 18.3934C77.9303 18.2776 77.9975 18.1722 78.0844 18.0843C78.2657 17.917 78.5033 17.8241 78.75 17.8241C78.9967 17.8241 79.2343 17.917 79.4156 18.0843C79.5022 18.1724 79.5693 18.2776 79.6125 18.3933C79.662 18.5056 79.6875 18.627 79.6875 18.7497C79.6875 18.8724 79.662 18.9938 79.6125 19.1061C79.5669 19.2207 79.5002 19.3257 79.4156 19.4155C79.2358 19.5866 78.9982 19.6837 78.75 19.6875Z" fill="white"/>
<path d="M80.625 17.8125C80.3769 17.8088 80.1392 17.7118 79.9594 17.5406C79.8746 17.451 79.8076 17.3459 79.7621 17.2312C79.7129 17.1188 79.6875 16.9975 79.6875 16.8748C79.6875 16.7522 79.7129 16.6308 79.7621 16.5185C79.8075 16.4038 79.8745 16.2988 79.9594 16.2094C80.0685 16.099 80.2032 16.0174 80.3515 15.9717C80.4998 15.926 80.6571 15.9176 80.8094 15.9474C80.9617 15.9772 81.1043 16.0442 81.2244 16.1424C81.3446 16.2406 81.4386 16.367 81.4981 16.5103C81.5576 16.6536 81.5807 16.8094 81.5655 16.9638C81.5502 17.1182 81.497 17.2665 81.4106 17.3954C81.3242 17.5243 81.2072 17.6298 81.0702 17.7026C80.9331 17.7754 80.7802 17.8131 80.625 17.8125Z" fill="white"/>
<path d="M82.5 19.6875C82.3766 19.6887 82.2541 19.6652 82.1399 19.6185C82.0256 19.5719 81.9218 19.5028 81.8345 19.4155C81.7472 19.3283 81.6782 19.2244 81.6315 19.1101C81.5848 18.9959 81.5613 18.8734 81.5625 18.75C81.5638 18.6274 81.5892 18.5062 81.6372 18.3934C81.6803 18.2776 81.7475 18.1722 81.8344 18.0843C82.0157 17.917 82.2533 17.8241 82.5 17.8241C82.7467 17.8241 82.9843 17.917 83.1656 18.0843C83.2522 18.1724 83.3193 18.2776 83.3625 18.3933C83.4106 18.5061 83.4361 18.6273 83.4375 18.75C83.4387 18.8734 83.4153 18.9959 83.3686 19.1101C83.3219 19.2244 83.2529 19.3283 83.1656 19.4155C83.0783 19.5028 82.9745 19.5719 82.8602 19.6185C82.7459 19.6652 82.6235 19.6887 82.5 19.6875Z" fill="white"/>
<path d="M84.3752 17.8125C84.2206 17.8125 84.0684 17.7744 83.9321 17.7014C83.7957 17.6285 83.6795 17.5231 83.5937 17.3945C83.5078 17.2659 83.4551 17.1182 83.44 16.9643C83.425 16.8105 83.4481 16.6552 83.5074 16.5125C83.5667 16.3697 83.6603 16.2437 83.7799 16.1458C83.8995 16.0478 84.0414 15.9809 84.1931 15.9509C84.3447 15.921 84.5014 15.9289 84.6493 15.974C84.7972 16.019 84.9317 16.0999 85.0408 16.2094C85.1254 16.299 85.1923 16.4038 85.2377 16.5184C85.2858 16.6312 85.3112 16.7524 85.3127 16.875C85.3139 16.9985 85.2904 17.1209 85.2438 17.2352C85.1971 17.3495 85.1281 17.4533 85.0408 17.5406C84.9535 17.6279 84.8496 17.6969 84.7354 17.7436C84.6211 17.7903 84.4986 17.8137 84.3752 17.8125Z" fill="white"/>
<path d="M86.25 19.6875C86.1266 19.6887 86.0041 19.6652 85.8899 19.6185C85.7756 19.5719 85.6718 19.5028 85.5845 19.4155C85.4972 19.3283 85.4282 19.2244 85.3815 19.1101C85.3348 18.9959 85.3113 18.8734 85.3125 18.75C85.3138 18.6274 85.3392 18.5062 85.3872 18.3934C85.4303 18.2776 85.4975 18.1722 85.5844 18.0843C85.7657 17.917 86.0033 17.8241 86.25 17.8241C86.4967 17.8241 86.7343 17.917 86.9156 18.0843C87.0022 18.1724 87.0693 18.2776 87.1125 18.3933C87.1606 18.5061 87.1861 18.6273 87.1875 18.75C87.1887 18.8734 87.1653 18.9959 87.1186 19.1101C87.0719 19.2244 87.0029 19.3283 86.9156 19.4155C86.8283 19.5028 86.7245 19.5719 86.6102 19.6185C86.4959 19.6652 86.3735 19.6887 86.25 19.6875Z" fill="white"/>
<path d="M88.125 17.8125C88.0016 17.8137 87.8791 17.7903 87.7649 17.7436C87.6506 17.6969 87.5468 17.6279 87.4595 17.5406C87.3722 17.4533 87.3032 17.3495 87.2565 17.2352C87.2098 17.1209 87.1863 16.9984 87.1875 16.875C87.1888 16.7524 87.2142 16.6312 87.2622 16.5184C87.3075 16.4037 87.3745 16.2988 87.4594 16.2094C87.5473 16.1225 87.6526 16.0552 87.7684 16.0121C87.9392 15.9402 88.1275 15.9206 88.3095 15.9557C88.4914 15.9908 88.6589 16.0791 88.7907 16.2094C88.9229 16.3405 89.0131 16.508 89.0497 16.6906C89.0863 16.8732 89.0677 17.0625 88.9963 17.2345C88.9249 17.4065 88.8039 17.5533 88.6487 17.6562C88.4936 17.7592 88.3113 17.8136 88.125 17.8125Z" fill="white"/>
<path d="M90 19.6875C89.8766 19.6887 89.7541 19.6652 89.6399 19.6185C89.5256 19.5719 89.4218 19.5028 89.3345 19.4155C89.2472 19.3283 89.1782 19.2244 89.1315 19.1101C89.0848 18.9959 89.0613 18.8734 89.0625 18.75C89.0638 18.6274 89.0892 18.5062 89.1372 18.3934C89.1803 18.2776 89.2475 18.1722 89.3344 18.0843C89.5157 17.917 89.7533 17.8241 90 17.8241C90.2467 17.8241 90.4843 17.917 90.6656 18.0843C90.7522 18.1724 90.8193 18.2776 90.8625 18.3933C90.9106 18.5061 90.9361 18.6273 90.9375 18.75C90.9387 18.8734 90.9153 18.9959 90.8686 19.1101C90.8219 19.2244 90.7529 19.3283 90.6656 19.4155C90.5783 19.5028 90.4745 19.5719 90.3602 19.6185C90.2459 19.6652 90.1235 19.6887 90 19.6875Z" fill="white"/>
<path d="M91.8751 17.8125C91.6897 17.8118 91.5086 17.7563 91.3546 17.6531C91.2006 17.5498 91.0806 17.4034 91.0095 17.2322C90.9384 17.061 90.9194 16.8725 90.955 16.6906C90.9906 16.5086 91.0791 16.3412 91.2095 16.2094C91.3005 16.1265 91.405 16.0598 91.5185 16.0121C91.6897 15.9426 91.8774 15.9242 92.0588 15.9592C92.2403 15.9942 92.4077 16.0811 92.5407 16.2094C92.6729 16.3405 92.7631 16.5081 92.7997 16.6906C92.8364 16.8732 92.8178 17.0626 92.7464 17.2345C92.675 17.4065 92.554 17.5533 92.3988 17.6563C92.2436 17.7592 92.0613 17.8136 91.8751 17.8125Z" fill="white"/>
<path d="M93.75 19.6875C93.6266 19.6887 93.5041 19.6652 93.3899 19.6185C93.2756 19.5719 93.1718 19.5028 93.0845 19.4155C92.9972 19.3283 92.9282 19.2244 92.8815 19.1101C92.8348 18.9959 92.8113 18.8734 92.8125 18.75C92.8138 18.6274 92.8392 18.5062 92.8872 18.3934C92.9303 18.2776 92.9975 18.1722 93.0844 18.0843C93.2657 17.917 93.5033 17.8241 93.75 17.8241C93.9967 17.8241 94.2343 17.917 94.4156 18.0843C94.5022 18.1724 94.5693 18.2776 94.6125 18.3933C94.6606 18.5061 94.6861 18.6273 94.6875 18.75C94.6887 18.8734 94.6653 18.9959 94.6186 19.1101C94.5719 19.2244 94.5029 19.3283 94.4156 19.4155C94.3283 19.5028 94.2245 19.5719 94.1102 19.6185C93.9959 19.6652 93.8735 19.6887 93.75 19.6875Z" fill="white"/>
<path d="M95.625 17.8125C95.5016 17.8137 95.3791 17.7903 95.2649 17.7436C95.1506 17.6969 95.0468 17.6279 94.9595 17.5406C94.8722 17.4533 94.8032 17.3495 94.7565 17.2352C94.7098 17.1209 94.6863 16.9985 94.6875 16.875C94.6888 16.7524 94.7142 16.6313 94.7622 16.5184C94.8075 16.4037 94.8745 16.2988 94.9594 16.2094C95.0685 16.099 95.2032 16.0174 95.3515 15.9717C95.4998 15.926 95.6571 15.9176 95.8094 15.9474C95.9617 15.9772 96.1043 16.0442 96.2244 16.1424C96.3446 16.2406 96.4386 16.367 96.4981 16.5103C96.5576 16.6536 96.5808 16.8094 96.5655 16.9638C96.5502 17.1182 96.497 17.2665 96.4106 17.3954C96.3242 17.5243 96.2073 17.6298 96.0702 17.7026C95.9331 17.7754 95.7802 17.8131 95.625 17.8125Z" fill="white"/>
<path d="M97.5 19.6875C97.3766 19.6887 97.2541 19.6652 97.1399 19.6185C97.0256 19.5719 96.9218 19.5028 96.8345 19.4155C96.7472 19.3283 96.6782 19.2244 96.6315 19.1101C96.5848 18.9959 96.5613 18.8734 96.5625 18.75C96.5638 18.6274 96.5892 18.5062 96.6372 18.3934C96.6803 18.2776 96.7475 18.1722 96.8344 18.0843C97.0157 17.917 97.2533 17.8241 97.5 17.8241C97.7467 17.8241 97.9843 17.917 98.1656 18.0843C98.2522 18.1724 98.3193 18.2776 98.3625 18.3933C98.4106 18.5061 98.4361 18.6273 98.4375 18.75C98.4387 18.8734 98.4153 18.9959 98.3686 19.1101C98.3219 19.2244 98.2529 19.3283 98.1656 19.4155C98.0783 19.5028 97.9745 19.5719 97.8602 19.6185C97.7459 19.6652 97.6235 19.6887 97.5 19.6875Z" fill="white"/>
<path d="M99.3755 17.8126C99.1611 17.8105 98.954 17.7342 98.7894 17.5968C98.6248 17.4593 98.5129 17.2691 98.4726 17.0585C98.4323 16.8479 98.4662 16.6298 98.5684 16.4414C98.6706 16.2529 98.835 16.1056 99.0335 16.0245C99.232 15.9434 99.4524 15.9335 99.6574 15.9966C99.8624 16.0596 100.039 16.1916 100.158 16.3702C100.277 16.5487 100.33 16.7629 100.309 16.9763C100.287 17.1896 100.193 17.3891 100.041 17.5407C99.8613 17.7118 99.6237 17.8089 99.3755 17.8126Z" fill="white"/>
<path d="M101.25 19.6875C101.002 19.6838 100.764 19.5867 100.584 19.4156C100.5 19.3259 100.433 19.2209 100.387 19.1061C100.338 18.9938 100.312 18.8724 100.312 18.7498C100.312 18.6271 100.338 18.5058 100.387 18.3934C100.43 18.2776 100.498 18.1722 100.584 18.0843C100.766 17.917 101.003 17.8241 101.25 17.8241C101.497 17.8241 101.734 17.917 101.916 18.0843C102.002 18.1724 102.069 18.2776 102.112 18.3933C102.162 18.5056 102.188 18.627 102.188 18.7497C102.188 18.8724 102.162 18.9938 102.112 19.1061C102.067 19.2207 102 19.3257 101.916 19.4155C101.736 19.5866 101.498 19.6837 101.25 19.6875Z" fill="white"/>
<path d="M103.125 17.8125C103.002 17.8137 102.879 17.7903 102.765 17.7436C102.651 17.6969 102.547 17.6279 102.459 17.5406C102.372 17.4533 102.303 17.3495 102.256 17.2352C102.21 17.1209 102.186 16.9985 102.188 16.875C102.189 16.7524 102.214 16.6313 102.262 16.5184C102.308 16.4037 102.374 16.2988 102.459 16.2094C102.569 16.099 102.703 16.0174 102.852 15.9717C103 15.926 103.157 15.9176 103.309 15.9474C103.462 15.9772 103.604 16.0442 103.724 16.1424C103.845 16.2406 103.939 16.367 103.998 16.5103C104.058 16.6536 104.081 16.8094 104.065 16.9638C104.05 17.1182 103.997 17.2665 103.911 17.3954C103.824 17.5243 103.707 17.6298 103.57 17.7026C103.433 17.7754 103.28 17.8131 103.125 17.8125Z" fill="white"/>
<path d="M105 19.6876C104.786 19.6855 104.579 19.6092 104.414 19.4718C104.25 19.3343 104.138 19.1441 104.098 18.9335C104.057 18.7229 104.091 18.5048 104.193 18.3164C104.296 18.1279 104.46 17.9806 104.658 17.8995C104.857 17.8184 105.077 17.8085 105.282 17.8716C105.487 17.9346 105.664 18.0666 105.783 18.2452C105.902 18.4237 105.955 18.6379 105.934 18.8513C105.912 19.0646 105.818 19.2641 105.666 19.4157C105.486 19.5868 105.249 19.6839 105 19.6876Z" fill="white"/>
<path d="M106.875 17.8126C106.661 17.8105 106.454 17.7342 106.289 17.5968C106.125 17.4593 106.013 17.2691 105.973 17.0585C105.932 16.8479 105.966 16.6298 106.068 16.4414C106.171 16.2529 106.335 16.1056 106.533 16.0245C106.732 15.9434 106.952 15.9335 107.157 15.9966C107.362 16.0596 107.539 16.1916 107.658 16.3702C107.777 16.5487 107.83 16.7629 107.809 16.9763C107.787 17.1896 107.693 17.3891 107.541 17.5407C107.361 17.7118 107.124 17.8089 106.875 17.8126Z" fill="white"/>
<path d="M65.6248 21.5625C65.4383 21.5633 65.2558 21.5086 65.1004 21.4055C64.945 21.3023 64.8238 21.1554 64.7521 20.9832C64.6804 20.811 64.6614 20.6215 64.6976 20.4385C64.7338 20.2556 64.8235 20.0875 64.9554 19.9556C65.0873 19.8238 65.2553 19.734 65.4383 19.6978C65.6212 19.6616 65.8108 19.6806 65.983 19.7523C66.1551 19.824 66.3021 19.9453 66.4052 20.1006C66.5084 20.256 66.563 20.4385 66.5623 20.625C66.5608 20.7475 66.5353 20.8685 66.4872 20.9812C66.4417 21.0958 66.3749 21.2008 66.2903 21.2906C66.199 21.3732 66.0944 21.4398 65.9809 21.4875C65.8682 21.5355 65.7472 21.561 65.6248 21.5625Z" fill="white"/>
<path d="M69.375 21.5625C69.1268 21.5589 68.8892 21.4618 68.7094 21.2907C68.6245 21.201 68.5576 21.096 68.5121 20.9812C68.4642 20.8685 68.4388 20.7475 68.4375 20.625C68.4384 20.4713 68.4771 20.3201 68.5502 20.1848C68.6233 20.0495 68.7286 19.9343 68.8567 19.8493C68.9849 19.7643 69.132 19.7121 69.285 19.6973C69.4381 19.6826 69.5925 19.7057 69.7345 19.7647C69.8765 19.8236 70.0018 19.9166 70.0994 20.0355C70.1971 20.1543 70.2639 20.2953 70.2942 20.4461C70.3244 20.5969 70.3171 20.7528 70.2729 20.9C70.2287 21.0473 70.1489 21.1815 70.0406 21.2907C69.8618 21.4633 69.6235 21.5606 69.375 21.5625Z" fill="white"/>
<path d="M73.1249 21.5626C72.8764 21.5606 72.6381 21.4633 72.4593 21.2907C72.2828 21.1141 72.1836 20.8747 72.1836 20.6251C72.1836 20.3754 72.2828 20.136 72.4593 19.9594C72.6358 19.7829 72.8753 19.6837 73.1249 19.6837C73.3746 19.6837 73.614 19.7829 73.7906 19.9594C73.9632 20.1382 74.0605 20.3765 74.0624 20.6251C74.0609 20.7475 74.0354 20.8685 73.9874 20.9812C73.9418 21.0958 73.875 21.2008 73.7905 21.2906C73.6992 21.3732 73.5945 21.4398 73.481 21.4875C73.3684 21.5356 73.2474 21.5611 73.1249 21.5626Z" fill="white"/>
<path d="M76.875 21.5626C76.7524 21.5611 76.6312 21.5356 76.5184 21.4875C76.4027 21.4443 76.2974 21.3772 76.2094 21.2906C76.1246 21.2009 76.0576 21.0959 76.0121 20.9812C75.9642 20.8685 75.9389 20.7475 75.9375 20.6251C75.9392 20.3765 76.0366 20.1381 76.2094 19.9594C76.3859 19.7829 76.6253 19.6837 76.875 19.6837C77.1247 19.6837 77.3641 19.7829 77.5406 19.9594C77.7172 20.136 77.8163 20.3754 77.8163 20.6251C77.8163 20.8747 77.7172 21.1141 77.5406 21.2907C77.3618 21.4633 77.1235 21.5606 76.875 21.5626Z" fill="white"/>
<path d="M80.6254 21.5625C80.3769 21.5606 80.1386 21.4632 79.9598 21.2906C79.8025 21.1364 79.7037 20.9323 79.6802 20.7132C79.6567 20.4942 79.7101 20.2737 79.8311 20.0897C79.9522 19.9056 80.1334 19.7693 80.3439 19.704C80.5543 19.6388 80.7808 19.6486 80.9848 19.732C81.1888 19.8153 81.3574 19.9668 81.462 20.1607C81.5666 20.3547 81.6006 20.5789 81.5581 20.7951C81.5157 21.0112 81.3995 21.206 81.2294 21.346C81.0592 21.486 80.8458 21.5625 80.6254 21.5625Z" fill="white"/>
<path d="M84.375 21.5625C84.2524 21.5611 84.1312 21.5356 84.0184 21.4874C83.9027 21.4443 83.7974 21.3772 83.7094 21.2906C83.6246 21.2009 83.5576 21.0959 83.5121 20.9811C83.4642 20.8684 83.4389 20.7475 83.4375 20.625C83.4368 20.4385 83.4914 20.256 83.5946 20.1006C83.6977 19.9453 83.8447 19.824 84.0168 19.7523C84.189 19.6806 84.3786 19.6616 84.5615 19.6978C84.7445 19.734 84.9125 19.8238 85.0444 19.9556C85.1763 20.0875 85.266 20.2556 85.3022 20.4385C85.3384 20.6215 85.3194 20.811 85.2477 20.9832C85.176 21.1554 85.0548 21.3023 84.8994 21.4055C84.744 21.5086 84.5615 21.5633 84.375 21.5625Z" fill="white"/>
<path d="M88.1254 21.5625C87.8769 21.5606 87.6386 21.4632 87.4598 21.2906C87.3025 21.1364 87.2037 20.9323 87.1802 20.7132C87.1567 20.4942 87.2101 20.2737 87.3311 20.0897C87.4522 19.9056 87.6334 19.7693 87.8439 19.704C88.0543 19.6388 88.2808 19.6486 88.4848 19.732C88.6888 19.8153 88.8574 19.9668 88.962 20.1607C89.0666 20.3547 89.1006 20.5789 89.0581 20.7951C89.0157 21.0112 88.8995 21.206 88.7294 21.346C88.5592 21.486 88.3458 21.5625 88.1254 21.5625Z" fill="white"/>
<path d="M91.8752 21.5625C91.6271 21.5589 91.3894 21.4618 91.2096 21.2907C91.1248 21.201 91.0578 21.096 91.0123 20.9812C90.9644 20.8685 90.9391 20.7475 90.9377 20.625C90.9338 20.4515 90.9775 20.2802 91.0642 20.1298C91.1508 19.9794 91.2771 19.8556 91.4292 19.772C91.5813 19.6883 91.7534 19.648 91.9269 19.6554C92.1003 19.6628 92.2683 19.7176 92.4128 19.8139C92.5572 19.9102 92.6725 20.0443 92.746 20.2015C92.8195 20.3587 92.8485 20.5331 92.8298 20.7057C92.8111 20.8783 92.7454 21.0424 92.6399 21.1803C92.5344 21.3181 92.3931 21.4244 92.2314 21.4875C92.1187 21.5355 91.9977 21.561 91.8752 21.5625Z" fill="white"/>
<path d="M95.6253 21.5625C95.5027 21.5611 95.3815 21.5355 95.2687 21.4874C95.1542 21.442 95.0493 21.3752 94.9597 21.2906C94.8025 21.1363 94.7037 20.9322 94.6802 20.7131C94.6568 20.494 94.7101 20.2736 94.8312 20.0896C94.9523 19.9055 95.1335 19.7692 95.344 19.704C95.5544 19.6388 95.781 19.6487 95.9849 19.732C96.1889 19.8153 96.3575 19.9669 96.4621 20.1608C96.5666 20.3548 96.6006 20.579 96.5581 20.7952C96.5157 21.0114 96.3994 21.2061 96.2293 21.346C96.0591 21.486 95.8457 21.5625 95.6253 21.5625Z" fill="white"/>
<path d="M99.3748 21.5626C99.2521 21.5611 99.131 21.5356 99.0182 21.4875C98.9025 21.4443 98.7972 21.3772 98.7092 21.2906C98.5988 21.1815 98.5172 21.0468 98.4715 20.8985C98.4257 20.7502 98.4174 20.5929 98.4472 20.4406C98.477 20.2883 98.5439 20.1457 98.6421 20.0256C98.7403 19.9054 98.8667 19.8114 99.0101 19.7519C99.1534 19.6924 99.3092 19.6692 99.4636 19.6845C99.6181 19.6998 99.7663 19.753 99.8952 19.8394C100.024 19.9258 100.13 20.0428 100.202 20.1799C100.275 20.3169 100.313 20.4699 100.312 20.6251C100.311 20.7475 100.285 20.8685 100.237 20.9812C100.192 21.0958 100.125 21.2008 100.04 21.2906C99.8605 21.4617 99.6229 21.5588 99.3748 21.5626Z" fill="white"/>
<path d="M103.125 21.5625C103.002 21.5611 102.881 21.5356 102.768 21.4875C102.652 21.4451 102.547 21.3779 102.459 21.2904C102.372 21.203 102.304 21.0974 102.262 20.9812C102.214 20.8685 102.189 20.7475 102.188 20.625C102.188 20.4713 102.227 20.3201 102.3 20.1848C102.373 20.0495 102.479 19.9343 102.607 19.8493C102.735 19.7643 102.882 19.7121 103.035 19.6973C103.188 19.6826 103.342 19.7057 103.484 19.7647C103.627 19.8236 103.752 19.9166 103.849 20.0355C103.947 20.1543 104.014 20.2953 104.044 20.4461C104.074 20.5969 104.067 20.7528 104.023 20.9C103.979 21.0473 103.899 21.1815 103.791 21.2907C103.612 21.4633 103.374 21.5606 103.125 21.5625Z" fill="white"/>
<path d="M106.875 21.5625C106.688 21.5633 106.506 21.5086 106.35 21.4055C106.195 21.3023 106.074 21.1554 106.002 20.9832C105.93 20.811 105.911 20.6215 105.948 20.4385C105.984 20.2556 106.074 20.0875 106.205 19.9556C106.337 19.8238 106.505 19.734 106.688 19.6978C106.871 19.6616 107.061 19.6806 107.233 19.7523C107.405 19.824 107.552 19.9453 107.655 20.1006C107.758 20.256 107.813 20.4385 107.812 20.625C107.811 20.7475 107.785 20.8685 107.737 20.9812C107.692 21.0958 107.625 21.2008 107.54 21.2906C107.449 21.3732 107.344 21.4398 107.231 21.4875C107.118 21.5355 106.997 21.561 106.875 21.5625Z" fill="white"/>
</g>
<path d="M107.812 22.5H62.8115C62.5629 22.5 62.3244 22.4012 62.1486 22.2254C61.9728 22.0496 61.874 21.8111 61.874 21.5625V15C61.874 14.7514 61.9728 14.5129 62.1486 14.3371C62.3244 14.1613 62.5629 14.0625 62.8115 14.0625H107.812C108.06 14.0625 108.299 14.1613 108.474 14.3371C108.65 14.5129 108.749 14.7514 108.749 15V21.5625C108.749 21.8111 108.65 22.0496 108.474 22.2254C108.299 22.4012 108.06 22.5 107.812 22.5ZM63.749 20.625H106.874V15.9375H63.749V20.625Z" fill="#2BC97E"/>
<path d="M33.75 115.313C43.5876 115.313 51.5625 107.338 51.5625 97.5001C51.5625 87.6625 43.5876 79.6876 33.75 79.6876C23.9124 79.6876 15.9375 87.6625 15.9375 97.5001C15.9375 107.338 23.9124 115.313 33.75 115.313Z" fill="white"/>
<path d="M33.75 116.25C30.0416 116.25 26.4165 115.15 23.3331 113.09C20.2496 111.03 17.8464 108.101 16.4273 104.675C15.0081 101.249 14.6368 97.4792 15.3603 93.8421C16.0838 90.2049 17.8695 86.864 20.4918 84.2418C23.114 81.6195 26.4549 79.8338 30.0921 79.1103C33.7292 78.3868 37.4992 78.7581 40.9253 80.1773C44.3514 81.5964 47.2798 83.9996 49.3401 87.0831C51.4003 90.1665 52.5 93.7916 52.5 97.5C52.4943 102.471 50.5171 107.237 47.002 110.752C43.4869 114.267 38.7211 116.244 33.75 116.25ZM33.75 80.625C30.4124 80.625 27.1498 81.6147 24.3748 83.469C21.5997 85.3232 19.4368 87.9587 18.1595 91.0422C16.8823 94.1257 16.5481 97.5187 17.1993 100.792C17.8504 104.066 19.4576 107.072 21.8176 109.432C24.1776 111.792 27.1844 113.4 30.4579 114.051C33.7313 114.702 37.1243 114.368 40.2078 113.09C43.2913 111.813 45.9268 109.65 47.7811 106.875C49.6353 104.1 50.625 100.838 50.625 97.5C50.62 93.026 48.8405 88.7367 45.6769 85.5731C42.5133 82.4096 38.224 80.63 33.75 80.625Z" fill="#2BC97E"/>
<path d="M33.75 111.563C41.5165 111.563 47.8125 105.267 47.8125 97.5001C47.8125 89.7336 41.5165 83.4376 33.75 83.4376C25.9835 83.4376 19.6875 89.7336 19.6875 97.5001C19.6875 105.267 25.9835 111.563 33.75 111.563Z" fill="white"/>
<path d="M33.75 99.375C33.3792 99.375 33.0166 99.265 32.7083 99.059C32.4 98.853 32.1596 98.5601 32.0177 98.2175C31.8758 97.8749 31.8387 97.4979 31.911 97.1342C31.9834 96.7705 32.162 96.4364 32.4242 96.1742C32.6864 95.912 33.0205 95.7334 33.3842 95.661C33.7479 95.5887 34.1249 95.6258 34.4675 95.7677C34.8101 95.9096 35.103 96.15 35.309 96.4583C35.515 96.7667 35.625 97.1292 35.625 97.5C35.6245 97.9971 35.4268 98.4738 35.0753 98.8253C34.7238 99.1768 34.2471 99.3745 33.75 99.375Z" fill="#2BC97E"/>
<path d="M33.75 98.4375C33.5014 98.4375 33.2629 98.3387 33.0871 98.1629C32.9113 97.9871 32.8125 97.7486 32.8125 97.5V90.9375C32.8125 90.6889 32.9113 90.4504 33.0871 90.2746C33.2629 90.0988 33.5014 90 33.75 90C33.9986 90 34.2371 90.0988 34.4129 90.2746C34.5887 90.4504 34.6875 90.6889 34.6875 90.9375V97.5C34.6875 97.7486 34.5887 97.9871 34.4129 98.1629C34.2371 98.3387 33.9986 98.4375 33.75 98.4375Z" fill="#2BC97E"/>
<path d="M33.75 98.4375H29.0625C28.8139 98.4375 28.5754 98.3387 28.3996 98.1629C28.2238 97.9871 28.125 97.7486 28.125 97.5C28.125 97.2514 28.2238 97.0129 28.3996 96.8371C28.5754 96.6613 28.8139 96.5625 29.0625 96.5625H33.75C33.9986 96.5625 34.2371 96.6613 34.4129 96.8371C34.5887 97.0129 34.6875 97.2514 34.6875 97.5C34.6875 97.7486 34.5887 97.9871 34.4129 98.1629C34.2371 98.3387 33.9986 98.4375 33.75 98.4375Z" fill="#2BC97E"/>
<g opacity="0.5">
<path d="M33.7505 88.1251C33.5361 88.123 33.329 88.0467 33.1644 87.9093C32.9998 87.7718 32.8879 87.5816 32.8476 87.371C32.8073 87.1604 32.8412 86.9423 32.9434 86.7539C33.0456 86.5654 33.21 86.4181 33.4085 86.337C33.607 86.2559 33.8274 86.246 34.0324 86.3091C34.2374 86.3721 34.4142 86.5041 34.5329 86.6827C34.6516 86.8612 34.7048 87.0754 34.6835 87.2888C34.6622 87.5021 34.5677 87.7016 34.4161 87.8532C34.2363 88.0243 33.9986 88.1214 33.7505 88.1251Z" fill="#2BC97E"/>
<path d="M33.75 108.75C33.5018 108.746 33.2642 108.649 33.0844 108.478C33.0469 108.431 33.0093 108.384 32.9718 108.338C32.9362 108.285 32.9077 108.228 32.8871 108.169C32.8601 108.115 32.8413 108.059 32.8312 108C32.8202 107.938 32.814 107.875 32.8125 107.812C32.8138 107.69 32.8392 107.569 32.8871 107.456C32.9348 107.342 33.0015 107.238 33.0844 107.147C33.2163 107.017 33.3837 106.929 33.5654 106.894C33.7472 106.859 33.9353 106.878 34.1061 106.95C34.2209 106.995 34.3259 107.062 34.4156 107.147C34.4982 107.238 34.5648 107.342 34.6125 107.456C34.6606 107.569 34.6861 107.69 34.6875 107.812C34.6858 107.875 34.6795 107.938 34.6687 108C34.6583 108.058 34.6394 108.115 34.6124 108.169C34.5918 108.228 34.5634 108.285 34.5278 108.338C34.4932 108.387 34.4558 108.434 34.4156 108.478C34.3258 108.563 34.2208 108.629 34.1062 108.675C33.9935 108.723 33.8725 108.749 33.75 108.75Z" fill="#2BC97E"/>
<path d="M23.4375 98.4376C23.3149 98.4361 23.1937 98.4106 23.0809 98.3625C22.9675 98.3148 22.8631 98.2482 22.7719 98.1656C22.6007 97.9859 22.5036 97.7482 22.5 97.5001C22.5015 97.4371 22.5077 97.3744 22.5188 97.3124C22.5288 97.2536 22.5476 97.1967 22.5746 97.1435C22.5935 97.0859 22.6221 97.032 22.6593 96.9842C22.6968 96.9279 22.7344 96.8812 22.7719 96.8345C22.8629 96.7516 22.9674 96.6849 23.0809 96.6372C23.3093 96.5438 23.5652 96.5438 23.7936 96.6372C23.9073 96.6848 24.0119 96.7516 24.1031 96.8344C24.2774 97.0121 24.375 97.2511 24.375 97.5C24.375 97.7489 24.2774 97.9879 24.1031 98.1656C24.0118 98.2482 23.9072 98.3148 23.7937 98.3625C23.681 98.4106 23.56 98.4361 23.4375 98.4376Z" fill="#2BC97E"/>
<path d="M44.063 98.4376C43.8486 98.4355 43.6415 98.3592 43.4769 98.2218C43.3123 98.0843 43.2004 97.8941 43.1601 97.6835C43.1198 97.4729 43.1537 97.2548 43.2559 97.0664C43.3581 96.8779 43.5225 96.7306 43.721 96.6495C43.9195 96.5684 44.1399 96.5585 44.3449 96.6216C44.5499 96.6846 44.7267 96.8166 44.8454 96.9952C44.9641 97.1737 45.0173 97.3879 44.996 97.6013C44.9747 97.8146 44.8802 98.0141 44.7286 98.1657C44.5488 98.3368 44.3111 98.4339 44.063 98.4376Z" fill="#2BC97E"/>
<path d="M28.5937 89.503C28.4717 89.5048 28.3505 89.4826 28.2371 89.4375C28.1233 89.3865 28.0188 89.3167 27.9281 89.2311C27.7553 89.0524 27.658 88.814 27.6562 88.5654C27.657 88.3804 27.7126 88.1997 27.816 88.0462C27.9193 87.8927 28.0659 87.7732 28.2372 87.703C28.4093 87.6349 28.5974 87.6182 28.7788 87.6548C28.9603 87.6915 29.1272 87.7799 29.2593 87.9095C29.3906 88.0402 29.4799 88.2071 29.5159 88.3888C29.552 88.5705 29.5331 88.7588 29.4617 88.9298C29.3903 89.1007 29.2696 89.2465 29.115 89.3486C28.9604 89.4507 28.779 89.5044 28.5937 89.503V89.503Z" fill="#2BC97E"/>
<path d="M38.9063 107.372C38.6561 107.369 38.417 107.268 38.2406 107.091C38.1986 107.047 38.1609 107 38.128 106.95C38.0907 106.902 38.062 106.848 38.0433 106.79C38.0149 106.734 37.9961 106.674 37.9875 106.612C37.9765 106.553 37.9702 106.494 37.9688 106.434C37.971 106.309 37.9963 106.185 38.0434 106.068C38.089 105.957 38.156 105.855 38.2407 105.769C38.3728 105.639 38.5396 105.551 38.721 105.514C38.9023 105.477 39.0903 105.494 39.2624 105.562C39.3763 105.613 39.4809 105.683 39.5718 105.769C39.6562 105.855 39.7231 105.957 39.7687 106.068C39.8159 106.185 39.8413 106.309 39.8438 106.434C39.8421 106.494 39.8358 106.553 39.825 106.612C39.8161 106.674 39.7971 106.734 39.7687 106.79C39.75 106.848 39.7214 106.902 39.684 106.95C39.6515 107 39.6139 107.048 39.5719 107.091C39.4834 107.179 39.3782 107.249 39.2624 107.297C39.1498 107.345 39.0288 107.37 38.9063 107.372Z" fill="#2BC97E"/>
<path d="M24.8154 103.594C24.5697 103.592 24.3345 103.494 24.1594 103.322C24.1161 103.277 24.0753 103.23 24.0372 103.181C24.0093 103.125 23.9809 103.069 23.953 103.012L23.8967 102.844C23.8859 102.782 23.8796 102.719 23.8779 102.656C23.8806 102.406 23.9817 102.167 24.1595 101.991C24.2681 101.882 24.402 101.802 24.5493 101.758C24.6966 101.713 24.8525 101.707 25.0031 101.738C25.1233 101.763 25.2377 101.811 25.3405 101.878L25.481 101.991C25.6559 102.168 25.7537 102.407 25.7529 102.656C25.756 102.719 25.7496 102.782 25.7341 102.844C25.7231 102.901 25.7075 102.958 25.6874 103.013C25.6597 103.071 25.6284 103.127 25.5936 103.181C25.562 103.233 25.5241 103.28 25.481 103.322C25.4343 103.359 25.3872 103.397 25.3405 103.434C25.2915 103.47 25.2379 103.498 25.1812 103.519C25.1247 103.546 25.0648 103.565 25.0031 103.575C24.9411 103.586 24.8783 103.592 24.8154 103.594Z" fill="#2BC97E"/>
<path d="M42.6846 93.2813C42.4992 93.2806 42.3182 93.2251 42.1642 93.1219C42.0102 93.0186 41.8901 92.8722 41.819 92.701C41.7479 92.5298 41.729 92.3414 41.7646 92.1594C41.8001 91.9774 41.8887 91.81 42.019 91.6782C42.1985 91.511 42.4347 91.418 42.68 91.418C42.9254 91.418 43.1616 91.511 43.341 91.6782C43.4727 91.8088 43.5627 91.9755 43.5996 92.1572C43.6365 92.3389 43.6187 92.5275 43.5484 92.6991C43.4782 92.8707 43.3586 93.0176 43.2048 93.1212C43.0511 93.2249 42.87 93.2806 42.6846 93.2813H42.6846Z" fill="#2BC97E"/>
<path d="M24.8155 93.2813C24.6295 93.2819 24.4475 93.227 24.2929 93.1236C24.1382 93.0201 24.018 92.8729 23.9475 92.7007C23.8771 92.5285 23.8596 92.3393 23.8974 92.1571C23.9351 91.9749 24.0264 91.8082 24.1595 91.6782C24.3389 91.511 24.575 91.418 24.8203 91.418C25.0655 91.418 25.3017 91.511 25.4811 91.6782C25.6133 91.8093 25.7034 91.9769 25.7401 92.1594C25.7767 92.342 25.7581 92.5314 25.6867 92.7033C25.6153 92.8753 25.4943 93.0221 25.3391 93.1251C25.184 93.228 25.0016 93.2824 24.8154 93.2813H24.8155Z" fill="#2BC97E"/>
<path d="M42.6844 103.594C42.4358 103.592 42.1976 103.495 42.0187 103.322C41.9757 103.277 41.935 103.23 41.897 103.181C41.8686 103.125 41.8407 103.069 41.8123 103.012C41.7925 102.957 41.7769 102.901 41.7656 102.844C41.7501 102.782 41.7438 102.719 41.7468 102.656C41.7461 102.407 41.8438 102.168 42.0187 101.991C42.1528 101.864 42.3201 101.779 42.501 101.744C42.6819 101.709 42.869 101.726 43.0405 101.793C43.1524 101.839 43.2545 101.906 43.3408 101.991C43.5183 102.167 43.6192 102.406 43.6219 102.656C43.6204 102.719 43.6141 102.782 43.6031 102.844L43.5468 103.012C43.5189 103.069 43.4905 103.125 43.4626 103.181C43.4245 103.23 43.3839 103.277 43.3408 103.322C43.1639 103.492 42.9296 103.589 42.6844 103.594L42.6844 103.594Z" fill="#2BC97E"/>
<path d="M28.5938 107.372C28.4711 107.371 28.3499 107.345 28.2372 107.297C28.1203 107.252 28.0148 107.181 27.9281 107.091C27.8833 107.05 27.8453 107.002 27.8155 106.95C27.7782 106.902 27.7495 106.848 27.7308 106.79C27.7024 106.735 27.6836 106.674 27.675 106.612C27.664 106.554 27.6577 106.494 27.6562 106.434C27.6585 106.309 27.6838 106.185 27.7309 106.069C27.7765 105.957 27.8435 105.855 27.9282 105.769C28.0173 105.681 28.1221 105.611 28.2372 105.562C28.4093 105.495 28.5974 105.478 28.7787 105.515C28.96 105.551 29.1269 105.64 29.2593 105.769C29.3437 105.855 29.4106 105.957 29.4562 106.069C29.5079 106.183 29.5336 106.308 29.5313 106.434C29.5296 106.494 29.5233 106.554 29.5125 106.612C29.5036 106.674 29.4846 106.735 29.4562 106.79C29.4375 106.848 29.4089 106.902 29.3715 106.95C29.3419 107.002 29.3041 107.05 29.2594 107.091C29.083 107.268 28.8439 107.369 28.5938 107.372Z" fill="#2BC97E"/>
<path d="M38.9062 89.5029C38.7842 89.5047 38.663 89.4825 38.5496 89.4374C38.4358 89.3864 38.3313 89.3166 38.2406 89.231C38.0678 89.0523 37.9705 88.8139 37.9688 88.5653C37.9695 88.3803 38.0251 88.1996 38.1285 88.0461C38.2318 87.8926 38.3784 87.7731 38.5497 87.7029C38.7218 87.6353 38.9099 87.6187 39.0912 87.6554C39.2725 87.692 39.4394 87.7802 39.5718 87.9094C39.7031 88.0401 39.7924 88.207 39.8285 88.3887C39.8645 88.5704 39.8456 88.7587 39.7742 88.9297C39.7028 89.1006 39.5821 89.2464 39.4275 89.3485C39.2729 89.4506 39.0915 89.5043 38.9062 89.5029V89.5029Z" fill="#2BC97E"/>
</g>
<path d="M33.75 112.5C30.7833 112.5 27.8832 111.62 25.4165 109.972C22.9497 108.324 21.0271 105.981 19.8918 103.24C18.7565 100.499 18.4594 97.4834 19.0382 94.5737C19.617 91.6639 21.0456 88.9912 23.1434 86.8934C25.2412 84.7956 27.9139 83.367 30.8237 82.7882C33.7334 82.2094 36.7494 82.5065 39.4903 83.6418C42.2312 84.7771 44.5738 86.6997 46.222 89.1665C47.8703 91.6332 48.75 94.5333 48.75 97.5C48.7455 101.477 47.1636 105.29 44.3516 108.102C41.5395 110.914 37.7269 112.495 33.75 112.5ZM33.75 84.375C31.1541 84.375 28.6165 85.1448 26.4581 86.587C24.2998 88.0292 22.6175 90.079 21.6241 92.4773C20.6307 94.8756 20.3708 97.5146 20.8772 100.061C21.3836 102.607 22.6337 104.945 24.4692 106.781C26.3048 108.616 28.6434 109.866 31.1894 110.373C33.7354 110.879 36.3744 110.619 38.7727 109.626C41.171 108.633 43.2209 106.95 44.663 104.792C46.1052 102.633 46.875 100.096 46.875 97.5C46.8711 94.0202 45.487 90.6841 43.0265 88.2235C40.5659 85.763 37.2298 84.3789 33.75 84.375Z" fill="#2BC97E"/>
</g>
<path d="M117.187 90.0005H81.5624V30.0004L117.187 30.0004C117.685 30.0004 118.162 30.1979 118.513 30.5496C118.865 30.9012 119.062 31.3781 119.062 31.8754L119.062 88.1255C119.062 88.6228 118.865 89.0997 118.513 89.4513C118.162 89.8029 117.685 90.0005 117.187 90.0005Z" fill="white"/>
<g opacity="0.3">
<path d="M111.562 84.375H90.9375C90.1916 84.375 89.4762 84.0787 88.9488 83.5512C88.4213 83.0238 88.125 82.3084 88.125 81.5625C88.125 80.8166 88.4213 80.1012 88.9488 79.5738C89.4762 79.0463 90.1916 78.75 90.9375 78.75H111.562C111.932 78.75 112.298 78.8227 112.639 78.9641C112.98 79.1054 113.29 79.3126 113.551 79.5737C113.812 79.8349 114.02 80.145 114.161 80.4862C114.302 80.8274 114.375 81.1932 114.375 81.5625C114.375 81.9318 114.302 82.2976 114.161 82.6388C114.02 82.98 113.812 83.2901 113.551 83.5513C113.29 83.8124 112.98 84.0196 112.639 84.1609C112.298 84.3023 111.932 84.375 111.562 84.375Z" fill="#2BC97E"/>
<path d="M111.562 85.3125H90.9375C89.9429 85.3125 88.9891 84.9174 88.2858 84.2142C87.5826 83.5109 87.1875 82.5571 87.1875 81.5625C87.1875 80.5679 87.5826 79.6141 88.2858 78.9108C88.9891 78.2076 89.9429 77.8125 90.9375 77.8125H111.562C112.557 77.8125 113.511 78.2076 114.214 78.9108C114.917 79.6141 115.312 80.5679 115.312 81.5625C115.312 82.5571 114.917 83.5109 114.214 84.2142C113.511 84.9174 112.557 85.3125 111.562 85.3125ZM90.9375 79.6875C90.4402 79.6875 89.9633 79.885 89.6117 80.2367C89.26 80.5883 89.0625 81.0652 89.0625 81.5625C89.0625 82.0598 89.26 82.5367 89.6117 82.8883C89.9633 83.24 90.4402 83.4375 90.9375 83.4375H111.562C112.06 83.4375 112.537 83.24 112.888 82.8883C113.24 82.5367 113.438 82.0598 113.438 81.5625C113.438 81.0652 113.24 80.5883 112.888 80.2367C112.537 79.885 112.06 79.6875 111.562 79.6875H90.9375Z" fill="#2BC97E"/>
<path d="M105 70.3125H97.5C97.2514 70.3125 97.0129 70.2137 96.8371 70.0379C96.6613 69.8621 96.5625 69.6236 96.5625 69.375C96.5625 69.1264 96.6613 68.8879 96.8371 68.7121C97.0129 68.5363 97.2514 68.4375 97.5 68.4375H105C105.249 68.4375 105.487 68.5363 105.663 68.7121C105.839 68.8879 105.938 69.1264 105.938 69.375C105.938 69.6236 105.839 69.8621 105.663 70.0379C105.487 70.2137 105.249 70.3125 105 70.3125Z" fill="#2BC97E"/>
<path d="M111.562 74.0625H90.9375C90.6889 74.0625 90.4504 73.9637 90.2746 73.7879C90.0988 73.6121 90 73.3736 90 73.125C90 72.8764 90.0988 72.6379 90.2746 72.4621C90.4504 72.2863 90.6889 72.1875 90.9375 72.1875H111.562C111.811 72.1875 112.05 72.2863 112.225 72.4621C112.401 72.6379 112.5 72.8764 112.5 73.125C112.5 73.3736 112.401 73.6121 112.225 73.7879C112.05 73.9637 111.811 74.0625 111.562 74.0625Z" fill="#2BC97E"/>
<path d="M99.6269 39.375L88.1102 50.8916C87.7033 51.2986 87.4746 51.8506 87.4746 52.4262C87.4746 53.0017 87.7033 53.5537 88.1102 53.9607L96.9774 62.8279C97.3844 63.2349 97.9364 63.4635 98.512 63.4635C99.0876 63.4635 99.6396 63.2349 100.047 62.8279L111.563 51.3113V39.375H99.6269ZM106.138 46.9708C105.708 46.9708 105.289 46.8435 104.932 46.605C104.575 46.3665 104.297 46.0276 104.133 45.631C103.968 45.2345 103.925 44.7981 104.009 44.3771C104.093 43.9562 104.3 43.5695 104.603 43.266C104.907 42.9625 105.293 42.7558 105.714 42.6721C106.135 42.5883 106.572 42.6313 106.968 42.7956C107.365 42.9598 107.704 43.238 107.942 43.5949C108.181 43.9518 108.308 44.3714 108.308 44.8006C108.308 45.0856 108.252 45.3678 108.143 45.6311C108.034 45.8944 107.874 46.1337 107.672 46.3352C107.471 46.5367 107.231 46.6966 106.968 46.8056C106.705 46.9147 106.423 46.9708 106.138 46.9708Z" fill="white"/>
<path d="M98.5115 64.3996C98.1035 64.4004 97.6993 64.3206 97.3222 64.1646C96.9451 64.0087 96.6025 63.7797 96.3143 63.4909L87.4469 54.6236C86.865 54.0403 86.5382 53.2501 86.5381 52.4262C86.538 51.6023 86.8647 50.812 87.4465 50.2286L98.9638 38.7122C99.1395 38.5364 99.378 38.4376 99.6266 38.4375H111.563C111.811 38.4375 112.05 38.5363 112.226 38.7121C112.402 38.8879 112.5 39.1264 112.5 39.375V51.3112C112.5 51.5598 112.401 51.7982 112.226 51.974L100.709 63.4909C100.421 63.7796 100.078 64.0084 99.701 64.1643C99.3238 64.3203 98.9196 64.4002 98.5115 64.3996ZM100.015 40.3125L88.7726 51.5543C88.5419 51.7857 88.4123 52.0992 88.4123 52.4261C88.4123 52.7529 88.5419 53.0664 88.7726 53.2979L97.6399 62.1652C97.8713 62.3962 98.1849 62.5259 98.5119 62.5258C98.8388 62.5257 99.1523 62.3959 99.3836 62.1648L110.625 50.923V40.3125H100.015ZM106.137 47.9081C105.522 47.908 104.922 47.7257 104.41 47.3842C103.899 47.0426 103.501 46.5572 103.266 45.9893C103.031 45.4215 102.969 44.7966 103.089 44.1938C103.209 43.591 103.505 43.0373 103.94 42.6027C104.375 42.1681 104.928 41.8722 105.531 41.7523C106.134 41.6324 106.759 41.694 107.327 41.9292C107.895 42.1645 108.38 42.5628 108.721 43.0738C109.063 43.5849 109.245 44.1857 109.245 44.8004C109.244 45.6244 108.916 46.4143 108.334 46.997C107.751 47.5796 106.961 47.9073 106.137 47.9082V47.9081ZM106.137 43.5676C105.893 43.5677 105.655 43.6401 105.452 43.7756C105.25 43.9111 105.092 44.1037 104.998 44.3289C104.905 44.5542 104.881 44.802 104.928 45.0411C104.976 45.2802 105.093 45.4999 105.266 45.6722C105.438 45.8446 105.658 45.9619 105.897 46.0095C106.136 46.057 106.384 46.0326 106.609 45.9392C106.835 45.8459 107.027 45.6879 107.162 45.4852C107.298 45.2825 107.37 45.0442 107.37 44.8004C107.37 44.4735 107.24 44.1601 107.009 43.9289C106.777 43.6978 106.464 43.5679 106.137 43.5677V43.5676Z" fill="#2BC97E"/>
<path opacity="0.5" d="M112.336 45.2385C112.087 45.2385 111.849 45.1397 111.673 44.9639C111.497 44.7881 111.398 44.5497 111.398 44.301C111.398 44.0524 111.497 43.8139 111.673 43.6381C111.849 43.4623 112.087 43.3635 112.336 43.3635C112.748 43.3625 113.146 43.2117 113.455 42.9392C113.647 42.7804 113.893 42.7041 114.141 42.7271C114.388 42.7501 114.617 42.8705 114.776 43.0618C114.934 43.2532 115.011 43.4998 114.988 43.7473C114.965 43.9949 114.844 44.2232 114.653 44.382C114.008 44.9356 113.186 45.2395 112.336 45.2385ZM106.707 44.6814L106.68 44.681C106.431 44.6738 106.196 44.5682 106.025 44.3874C105.855 44.2066 105.763 43.9654 105.77 43.7169C105.788 43.0575 105.842 42.3997 105.933 41.7463C105.949 41.6236 105.989 41.5053 106.052 41.3983C106.114 41.2912 106.196 41.1976 106.295 41.1227C106.394 41.0478 106.506 40.9931 106.626 40.9619C106.745 40.9306 106.87 40.9234 106.993 40.9407C107.115 40.9579 107.233 40.9992 107.34 41.0622C107.446 41.1253 107.539 41.2088 107.613 41.3079C107.687 41.4071 107.741 41.5199 107.771 41.64C107.802 41.76 107.808 41.8848 107.79 42.0072C107.709 42.592 107.66 43.1808 107.644 43.771C107.637 44.0148 107.535 44.2462 107.36 44.4162C107.186 44.5862 106.951 44.6813 106.707 44.6814ZM115.586 42.2736C115.433 42.2734 115.282 42.2356 115.147 42.1636C115.011 42.0916 114.896 41.9876 114.81 41.8606C114.724 41.7336 114.671 41.5875 114.655 41.4351C114.638 41.2827 114.659 41.1287 114.716 40.9864C114.915 40.4844 115.079 39.9698 115.209 39.446C115.262 39.198 115.409 38.98 115.618 38.8371C115.828 38.6943 116.084 38.6378 116.334 38.6793C116.453 38.6994 116.567 38.7432 116.669 38.8082C116.77 38.8733 116.858 38.9581 116.926 39.0577C116.994 39.1573 117.042 39.2696 117.065 39.3879C117.089 39.5062 117.089 39.6281 117.065 39.7463L117.026 39.9111C116.875 40.5142 116.685 41.1068 116.457 41.6849C116.387 41.8587 116.267 42.0076 116.112 42.1125C115.956 42.2174 115.773 42.2735 115.586 42.2736H115.586ZM107.532 40.0896C107.381 40.0894 107.232 40.0527 107.098 39.9826C106.964 39.9126 106.849 39.8113 106.763 39.6873C106.677 39.5633 106.622 39.4203 106.602 39.2705C106.583 39.1207 106.6 38.9684 106.652 38.8266C106.888 38.1864 107.18 37.5688 107.527 36.9814C107.654 36.7676 107.86 36.6129 108.101 36.5515C108.342 36.49 108.597 36.5267 108.811 36.6536C109.025 36.7805 109.18 36.9871 109.241 37.228C109.303 37.4689 109.266 37.7243 109.139 37.9381C108.851 38.428 108.607 38.9429 108.411 39.4766C108.345 39.6564 108.225 39.8115 108.068 39.921C107.91 40.0306 107.723 40.0894 107.532 40.0896ZM115.787 37.76C115.618 37.7602 115.452 37.7149 115.307 37.6287C115.162 37.5426 115.043 37.4189 114.962 37.2707C114.729 36.8472 114.401 36.4828 114.005 36.2054C113.904 36.1346 113.819 36.0445 113.753 35.9405C113.687 35.8365 113.642 35.7205 113.621 35.5992C113.6 35.4778 113.603 35.3535 113.63 35.2334C113.657 35.1132 113.707 34.9996 113.778 34.8989C113.849 34.7982 113.939 34.7125 114.043 34.6467C114.147 34.5808 114.263 34.5361 114.385 34.5151C114.506 34.4941 114.63 34.4973 114.751 34.5243C114.871 34.5514 114.984 34.6019 115.085 34.6728C115.716 35.1162 116.238 35.6982 116.609 36.3744C116.687 36.5171 116.726 36.6775 116.723 36.84C116.72 37.0025 116.675 37.1613 116.592 37.3011C116.509 37.4408 116.391 37.5565 116.25 37.637C116.109 37.7175 115.949 37.7598 115.787 37.76L115.787 37.76ZM110.15 36.275C109.95 36.2752 109.756 36.2114 109.595 36.0931C109.434 35.9748 109.314 35.8081 109.255 35.6173C109.195 35.4266 109.198 35.2217 109.263 35.0327C109.328 34.8437 109.452 34.6804 109.616 34.5666C110.264 34.1141 111.019 33.8388 111.806 33.7683C112.053 33.7464 112.299 33.8235 112.489 33.9826C112.68 34.1417 112.8 34.37 112.822 34.6172C112.845 34.8645 112.768 35.1106 112.61 35.3016C112.451 35.4925 112.223 35.6128 111.976 35.636C111.511 35.6779 111.065 35.8408 110.683 36.1084C110.526 36.217 110.341 36.2752 110.15 36.275V36.275Z" fill="#2BC97E"/>
<path d="M102.06 52.5284C101.937 52.5285 101.815 52.5043 101.701 52.4572C101.588 52.41 101.484 52.3409 101.397 52.2537L98.6847 49.5405C98.5977 49.4535 98.5286 49.3502 98.4815 49.2364C98.4344 49.1227 98.4102 49.0008 98.4102 48.8777C98.4102 48.7546 98.4344 48.6327 98.4815 48.519C98.5286 48.4052 98.5977 48.3019 98.6847 48.2149C98.7718 48.1278 98.8751 48.0588 98.9888 48.0117C99.1026 47.9646 99.2245 47.9403 99.3476 47.9403C99.4707 47.9403 99.5926 47.9646 99.7063 48.0117C99.82 48.0588 99.9234 48.1278 100.01 48.2149L102.723 50.928C102.854 51.0591 102.943 51.2261 102.98 51.408C103.016 51.5898 102.997 51.7783 102.926 51.9495C102.855 52.1208 102.735 52.2672 102.581 52.3702C102.427 52.4733 102.246 52.5283 102.06 52.5283L102.06 52.5284Z" fill="#2BC97E"/>
<path d="M97.9825 56.7512C97.8594 56.7514 97.7375 56.7272 97.6237 56.68C97.51 56.6329 97.4066 56.5637 97.3197 56.4765L94.6066 53.7638C94.5195 53.6768 94.4505 53.5734 94.4034 53.4597C94.3563 53.346 94.332 53.2241 94.332 53.101C94.332 52.9779 94.3563 52.856 94.4034 52.7422C94.4505 52.6285 94.5195 52.5252 94.6066 52.4381C94.6936 52.3511 94.797 52.282 94.9107 52.2349C95.0244 52.1878 95.1463 52.1636 95.2694 52.1636C95.3925 52.1636 95.5144 52.1878 95.6282 52.2349C95.7419 52.282 95.8452 52.3511 95.9323 52.4381L98.6454 55.1508C98.7765 55.282 98.8657 55.449 98.9019 55.6308C98.938 55.8126 98.9195 56.0011 98.8485 56.1724C98.7776 56.3437 98.6575 56.4901 98.5033 56.5931C98.3492 56.6961 98.168 56.7511 97.9826 56.7512L97.9825 56.7512Z" fill="#2BC97E"/>
<path d="M101.593 56.2501C101.47 56.2502 101.348 56.226 101.234 56.1789C101.121 56.1317 101.017 56.0626 100.93 55.9754L94.9621 50.0071C94.7863 49.8313 94.6875 49.5929 94.6875 49.3443C94.6875 49.0956 94.7863 48.8572 94.9621 48.6814C95.1379 48.5056 95.3763 48.4069 95.6249 48.4069C95.8735 48.4069 96.1119 48.5056 96.2877 48.6814L102.256 54.6497C102.387 54.7808 102.476 54.9479 102.513 55.1297C102.549 55.3115 102.53 55.5 102.459 55.6713C102.388 55.8426 102.268 55.989 102.114 56.092C101.96 56.195 101.779 56.25 101.593 56.2501L101.593 56.2501Z" fill="#2BC97E"/>
</g>
<path d="M2.8125 30.0004H38.4376V90.0005H2.8125C2.31522 90.0005 1.83831 89.8029 1.48667 89.4513C1.13504 89.0997 0.9375 88.6227 0.9375 88.1255V31.8754C0.9375 31.3781 1.13504 30.9012 1.48667 30.5495C1.83831 30.1979 2.31522 30.0004 2.8125 30.0004Z" fill="white"/>
<path d="M117.188 90.938H81.5625C81.3139 90.938 81.0754 90.8392 80.8996 90.6634C80.7238 90.4876 80.625 90.2491 80.625 90.0005V30.0005C80.625 29.7518 80.7238 29.5134 80.8996 29.3376C81.0754 29.1618 81.3139 29.063 81.5625 29.063H117.188C117.933 29.0638 118.648 29.3604 119.175 29.8876C119.703 30.4149 119.999 31.1298 120 31.8755V88.1255C119.999 88.8712 119.703 89.5861 119.175 90.1133C118.648 90.6406 117.933 90.9372 117.188 90.938ZM82.5 89.063H117.188C117.436 89.0627 117.674 88.9638 117.85 88.788C118.026 88.6123 118.125 88.374 118.125 88.1255V31.8755C118.125 31.6269 118.026 31.3887 117.85 31.2129C117.674 31.0372 117.436 30.9383 117.188 30.938H82.5V89.063Z" fill="#2BC97E"/>
<path d="M38.4375 90.938H2.8125C2.06683 90.9372 1.35193 90.6406 0.824661 90.1133C0.297391 89.5861 0.000813933 88.8712 0 88.1255V31.8755C0.000813933 31.1298 0.297391 30.4149 0.824661 29.8876C1.35193 29.3604 2.06683 29.0638 2.8125 29.063H38.4375C38.6861 29.063 38.9246 29.1618 39.1004 29.3376C39.2762 29.5134 39.375 29.7518 39.375 30.0005V90.0005C39.375 90.2491 39.2762 90.4876 39.1004 90.6634C38.9246 90.8392 38.6861 90.938 38.4375 90.938ZM2.8125 30.938C2.56396 30.9383 2.32569 31.0372 2.14994 31.2129C1.9742 31.3887 1.87532 31.6269 1.875 31.8755V88.1255C1.87532 88.374 1.9742 88.6123 2.14994 88.788C2.32569 88.9638 2.56396 89.0627 2.8125 89.063H37.5V30.938H2.8125Z" fill="#2BC97E"/>
<path d="M81.5626 24.3749H38.4375C37.402 24.3749 36.5625 25.2143 36.5625 26.2499V93.75C36.5625 94.7855 37.402 95.625 38.4375 95.625H81.5626C82.5981 95.625 83.4376 94.7855 83.4376 93.75V26.2499C83.4376 25.2143 82.5981 24.3749 81.5626 24.3749Z" fill="white"/>
<path d="M81.5625 96.563H38.4375C37.6918 96.5622 36.9769 96.2656 36.4497 95.7383C35.9224 95.2111 35.6258 94.4962 35.625 93.7505V26.2505C35.6258 25.5048 35.9224 24.7899 36.4497 24.2626C36.9769 23.7354 37.6918 23.4388 38.4375 23.438H81.5625C82.3082 23.4388 83.0231 23.7354 83.5503 24.2626C84.0776 24.7899 84.3742 25.5048 84.375 26.2505V93.7505C84.3742 94.4962 84.0776 95.2111 83.5503 95.7383C83.0231 96.2656 82.3082 96.5622 81.5625 96.563ZM38.4375 25.313C38.189 25.3133 37.9507 25.4122 37.7749 25.5879C37.5992 25.7637 37.5003 26.0019 37.5 26.2505V93.7505C37.5003 93.999 37.5992 94.2373 37.7749 94.413C37.9507 94.5888 38.189 94.6877 38.4375 94.688H81.5625C81.811 94.6877 82.0493 94.5888 82.2251 94.413C82.4008 94.2373 82.4997 93.999 82.5 93.7505V26.2505C82.4997 26.0019 82.4008 25.7637 82.2251 25.5879C82.0493 25.4122 81.811 25.3133 81.5625 25.313H38.4375Z" fill="#2BC97E"/>
<path d="M57.7865 35.6251L43.8919 49.5197C43.6488 49.7628 43.4559 50.0515 43.3243 50.3692C43.1927 50.6868 43.125 51.0273 43.125 51.3711C43.125 51.715 43.1927 52.0555 43.3243 52.3731C43.4559 52.6908 43.6488 52.9794 43.8919 53.2226L54.59 63.9207C54.8331 64.1638 55.1218 64.3567 55.4394 64.4882C55.7571 64.6198 56.0976 64.6876 56.4414 64.6876C56.7853 64.6876 57.1257 64.6198 57.4434 64.4882C57.7611 64.3567 58.0497 64.1638 58.2928 63.9207L72.1874 50.0261V35.6251H57.7865ZM65.6415 44.7894C65.1236 44.7894 64.6174 44.6358 64.1868 44.3481C63.7561 44.0604 63.4205 43.6515 63.2223 43.173C63.0241 42.6946 62.9723 42.1681 63.0733 41.6601C63.1743 41.1522 63.4237 40.6856 63.7899 40.3194C64.1561 39.9532 64.6227 39.7038 65.1306 39.6028C65.6386 39.5018 66.165 39.5536 66.6435 39.7518C67.122 39.95 67.5309 40.2857 67.8186 40.7163C68.1063 41.1469 68.2599 41.6531 68.2599 42.171C68.2598 42.8654 67.984 43.5314 67.4929 44.0224C67.0019 44.5135 66.3359 44.7893 65.6415 44.7894Z" fill="white"/>
<path d="M56.4418 65.6232C55.9749 65.624 55.5125 65.5326 55.0811 65.3542C54.6496 65.1758 54.2577 64.9139 53.9278 64.5836L43.2294 53.8852C42.8991 53.5551 42.637 53.1631 42.4583 52.7317C42.2795 52.3003 42.1875 51.8379 42.1875 51.3709C42.1875 50.9039 42.2795 50.4415 42.4583 50.0101C42.637 49.5787 42.8991 49.1868 43.2294 48.8567L57.1239 34.9622C57.2997 34.7864 57.5381 34.6876 57.7867 34.6875H72.188C72.4366 34.6875 72.6751 34.7863 72.8509 34.9621C73.0267 35.1379 73.1255 35.3764 73.1255 35.625V50.0262C73.1254 50.2749 73.0266 50.5133 72.8508 50.6891L58.9563 64.5836C58.6263 64.9139 58.2342 65.1758 57.8027 65.3542C57.3712 65.5326 56.9087 65.624 56.4418 65.6232ZM58.1749 36.5625L44.5551 50.1823C44.3989 50.3384 44.275 50.5237 44.1905 50.7276C44.106 50.9316 44.0625 51.1502 44.0625 51.3709C44.0625 51.5917 44.106 51.8103 44.1905 52.0142C44.275 52.2182 44.3989 52.4035 44.5551 52.5595L55.2534 63.2579C55.5692 63.5721 55.9966 63.7485 56.442 63.7485C56.8875 63.7485 57.3148 63.5721 57.6306 63.2579L71.2505 49.6381V36.5625H58.1749ZM65.6419 45.7269C64.9386 45.7269 64.2511 45.5184 63.6664 45.1276C63.0816 44.7369 62.6258 44.1816 62.3567 43.5318C62.0875 42.882 62.0171 42.167 62.1543 41.4773C62.2915 40.7875 62.6302 40.1539 63.1275 39.6566C63.6248 39.1593 64.2584 38.8206 64.9482 38.6834C65.638 38.5462 66.353 38.6166 67.0027 38.8857C67.6525 39.1549 68.2079 39.6106 68.5986 40.1954C68.9893 40.7802 69.1979 41.4677 69.1979 42.171C69.1968 43.1137 68.8218 44.0176 68.1551 44.6842C67.4885 45.3508 66.5847 45.7258 65.6419 45.7269ZM65.6419 40.4901C65.3095 40.4901 64.9845 40.5887 64.7081 40.7734C64.4316 40.9581 64.2162 41.2206 64.089 41.5278C63.9617 41.8349 63.9284 42.1729 63.9933 42.499C64.0582 42.8251 64.2183 43.1246 64.4533 43.3597C64.6884 43.5947 64.9879 43.7548 65.314 43.8197C65.6401 43.8845 65.9781 43.8513 66.2852 43.724C66.5924 43.5968 66.8549 43.3814 67.0396 43.1049C67.2243 42.8285 67.3229 42.5035 67.3229 42.171C67.3224 41.7254 67.1452 41.2981 66.83 40.9829C66.5149 40.6678 66.0876 40.4906 65.6419 40.4901Z" fill="#2BC97E"/>
<path opacity="0.5" d="M72.3287 42.9671C72.0801 42.9671 71.8416 42.8684 71.6658 42.6925C71.49 42.5167 71.3912 42.2783 71.3912 42.0296C71.3912 41.781 71.49 41.5425 71.6658 41.3667C71.8416 41.1909 72.0801 41.0921 72.3287 41.0921C72.7658 41.0941 73.1922 40.9573 73.5464 40.7012C73.6472 40.6292 73.7612 40.578 73.882 40.5504C74.0027 40.5228 74.1277 40.5194 74.2498 40.5404C74.3718 40.5614 74.4885 40.6063 74.5931 40.6727C74.6977 40.739 74.7881 40.8254 74.8591 40.9269C74.9301 41.0284 74.9803 41.1429 75.0067 41.2639C75.0332 41.3849 75.0355 41.5099 75.0133 41.6318C74.9912 41.7536 74.9452 41.8699 74.8779 41.9738C74.8106 42.0778 74.7233 42.1674 74.6212 42.2374C73.9521 42.7142 73.1503 42.9694 72.3287 42.9671ZM65.7832 42.9264H65.7818C65.6587 42.9262 65.5368 42.9018 65.4232 42.8545C65.3095 42.8072 65.2062 42.738 65.1193 42.6508C65.0324 42.5636 64.9635 42.4602 64.9165 42.3464C64.8696 42.2326 64.8455 42.1106 64.8457 41.9875C64.8466 41.3201 64.8764 40.6618 64.9336 40.0315C64.9448 39.9089 64.98 39.7896 65.0373 39.6806C65.0945 39.5716 65.1727 39.4749 65.2673 39.3961C65.3619 39.3173 65.4712 39.2579 65.5887 39.2213C65.7063 39.1847 65.8299 39.1716 65.9526 39.1828C66.0752 39.194 66.1944 39.2292 66.3035 39.2865C66.4125 39.3437 66.5092 39.4219 66.588 39.5165C66.6668 39.6111 66.7262 39.7204 66.7628 39.8379C66.7994 39.9555 66.8124 40.0791 66.8013 40.2018C66.7486 40.7767 66.7216 41.3782 66.7207 41.9903C66.7203 42.2387 66.6214 42.4768 66.4456 42.6523C66.2698 42.8278 66.0316 42.9264 65.7832 42.9264ZM75.7977 40.2155C75.6388 40.2154 75.4826 40.175 75.3437 40.0979C75.2047 40.0209 75.0876 39.9099 75.0034 39.7752C74.9192 39.6405 74.8705 39.4866 74.862 39.328C74.8536 39.1694 74.8855 39.0112 74.955 38.8683C75.2034 38.3467 75.4125 37.8071 75.5803 37.2542C75.6543 37.0173 75.8192 36.8194 76.039 36.7039C76.2587 36.5885 76.5153 36.5649 76.7524 36.6383C76.9895 36.7118 77.1878 36.8763 77.3038 37.0958C77.4198 37.3153 77.444 37.5718 77.371 37.8091C77.1755 38.4528 76.9315 39.0808 76.6413 39.6877C76.5644 39.846 76.4445 39.9795 76.2953 40.0728C76.1461 40.1662 75.9736 40.2156 75.7976 40.2155H75.7977ZM66.3435 38.2851C66.2001 38.2849 66.0586 38.2519 65.93 38.1885C65.8013 38.1252 65.6889 38.0332 65.6013 37.9197C65.5137 37.8062 65.4533 37.6741 65.4247 37.5336C65.396 37.3931 65.4 37.2479 65.4362 37.1091C65.605 36.4628 65.8178 35.8287 66.0729 35.2112C66.1685 34.9817 66.3513 34.7994 66.5812 34.7047C66.8111 34.6099 67.0692 34.6103 67.2988 34.7059C67.5284 34.8014 67.7106 34.9842 67.8054 35.2141C67.9002 35.444 67.8997 35.7022 67.8042 35.9318C67.5817 36.4695 67.3965 37.022 67.2498 37.5852C67.1973 37.7856 67.0799 37.963 66.9159 38.0896C66.7519 38.2162 66.5506 38.285 66.3435 38.2851ZM76.8189 35.7065C76.5958 35.7062 76.3802 35.6263 76.2107 35.4812C76.0412 35.3362 75.929 35.1354 75.8942 34.9151C75.8169 34.4263 75.6365 33.9596 75.3651 33.5459C75.2978 33.4428 75.2515 33.3275 75.2288 33.2065C75.2061 33.0855 75.2075 32.9612 75.2328 32.8407C75.2581 32.7203 75.3069 32.606 75.3764 32.5044C75.446 32.4028 75.5348 32.3159 75.6379 32.2486C75.741 32.1813 75.8563 32.135 75.9773 32.1123C76.0983 32.0896 76.2226 32.091 76.343 32.1163C76.4635 32.1417 76.5778 32.1905 76.6794 32.26C76.781 32.3295 76.8679 32.4183 76.9352 32.5214C77.3518 33.1564 77.6283 33.8728 77.7463 34.623C77.7655 34.7446 77.7606 34.8688 77.7318 34.9885C77.7029 35.1082 77.6508 35.2211 77.5784 35.3206C77.506 35.4202 77.4146 35.5045 77.3096 35.5687C77.2046 35.633 77.088 35.6759 76.9663 35.6951C76.9176 35.7027 76.8683 35.7066 76.8189 35.7065ZM68.3169 34.0673C68.143 34.0671 67.9726 34.0185 67.8248 33.927C67.6769 33.8355 67.5574 33.7047 67.4796 33.5492C67.4019 33.3937 67.3688 33.2197 67.3843 33.0465C67.3997 32.8733 67.463 32.7078 67.5671 32.5686C67.8032 32.2523 68.0561 31.9488 68.3247 31.6594C68.5386 31.4288 68.7708 31.2159 69.0191 31.0227C69.1164 30.9473 69.2276 30.8917 69.3464 30.8593C69.4652 30.8268 69.5892 30.8181 69.7114 30.8335C69.8336 30.849 69.9515 30.8884 70.0584 30.9494C70.1654 31.0105 70.2593 31.092 70.3347 31.1893C70.4101 31.2867 70.4657 31.3979 70.4981 31.5167C70.5306 31.6355 70.5393 31.7595 70.5239 31.8816C70.5084 32.0038 70.469 32.1217 70.408 32.2287C70.3469 32.3356 70.2654 32.4295 70.1681 32.5049C70.0002 32.6354 69.8433 32.7793 69.6989 32.9353C69.4756 33.1759 69.2651 33.4281 69.0685 33.691C68.9812 33.808 68.8678 33.9029 68.7373 33.9683C68.6068 34.0336 68.4628 34.0675 68.3169 34.0673ZM74.0252 32.1886C73.8971 32.1885 73.7704 32.162 73.653 32.1108C73.1957 31.9113 72.7027 31.8065 72.2037 31.8027C71.9551 31.8027 71.7166 31.7038 71.5409 31.528C71.3651 31.3521 71.2664 31.1136 71.2664 30.865C71.2665 30.6164 71.3653 30.3779 71.5412 30.2022C71.7171 30.0264 71.9555 29.9277 72.2042 29.9277H72.2046C72.9599 29.9297 73.7066 30.0872 74.3982 30.3905C74.5961 30.4763 74.7583 30.6277 74.8576 30.8191C74.9569 31.0105 74.9872 31.2303 74.9434 31.4414C74.8996 31.6526 74.7843 31.8422 74.6171 31.9783C74.4498 32.1144 74.2408 32.1887 74.0251 32.1887L74.0252 32.1886Z" fill="#2BC97E"/>
<path d="M59.0627 52.9605C58.9396 52.9606 58.8176 52.9365 58.7039 52.8893C58.5901 52.8422 58.4868 52.773 58.3999 52.6858L55.1268 49.4128C54.9529 49.2366 54.8557 48.9988 54.8565 48.7512C54.8572 48.5036 54.9559 48.2664 55.131 48.0913C55.3061 47.9162 55.5433 47.8176 55.7909 47.8168C56.0385 47.816 56.2763 47.9132 56.4525 48.0872L59.7255 51.3602C59.8566 51.4913 59.9458 51.6583 59.982 51.8401C60.0181 52.022 59.9996 52.2104 59.9286 52.3817C59.8577 52.553 59.7376 52.6994 59.5834 52.8024C59.4293 52.9054 59.2481 52.9604 59.0627 52.9605V52.9605Z" fill="#2BC97E"/>
<path d="M55.3129 57.1875C55.1898 57.1876 55.0678 57.1634 54.9541 57.1163C54.8404 57.0691 54.737 57 54.6501 56.9128L51.3771 53.6398C51.29 53.5527 51.221 53.4494 51.1739 53.3357C51.1268 53.2219 51.1025 53.1 51.1025 52.9769C51.1025 52.8538 51.1268 52.732 51.1739 52.6182C51.221 52.5045 51.29 52.4012 51.3771 52.3141C51.4641 52.2271 51.5675 52.158 51.6812 52.1109C51.7949 52.0638 51.9168 52.0396 52.0399 52.0396C52.163 52.0396 52.2849 52.0638 52.3987 52.1109C52.5124 52.158 52.6157 52.2271 52.7028 52.3141L55.9757 55.5872C56.1068 55.7183 56.1961 55.8853 56.2322 56.0671C56.2684 56.249 56.2498 56.4374 56.1789 56.6087C56.1079 56.78 55.9878 56.9264 55.8337 57.0294C55.6795 57.1324 55.4983 57.1874 55.3129 57.1875Z" fill="#2BC97E"/>
<path d="M59.0627 56.8881C58.9396 56.8883 58.8176 56.8641 58.7039 56.8169C58.5901 56.7698 58.4868 56.7006 58.3999 56.6134L51.1992 49.4128C51.1114 49.326 51.0416 49.2226 50.9938 49.1086C50.946 48.9947 50.9213 48.8724 50.9209 48.7489C50.9206 48.6253 50.9446 48.5029 50.9918 48.3887C51.0389 48.2745 51.1081 48.1707 51.1955 48.0834C51.2828 47.996 51.3866 47.9268 51.5008 47.8797C51.615 47.8326 51.7374 47.8085 51.861 47.8088C51.9845 47.8092 52.1068 47.834 52.2207 47.8817C52.3347 47.9295 52.4381 47.9993 52.5249 48.0872L59.7255 55.2878C59.8566 55.4189 59.9458 55.5859 59.982 55.7678C60.0182 55.9496 59.9996 56.1381 59.9286 56.3093C59.8577 56.4806 59.7376 56.627 59.5834 56.73C59.4293 56.8331 59.2481 56.8881 59.0627 56.8881V56.8881Z" fill="#2BC97E"/>
<path d="M83.4375 35.625C89.6507 35.625 94.6875 30.5882 94.6875 24.375C94.6875 18.1618 89.6507 13.125 83.4375 13.125C77.2243 13.125 72.1875 18.1618 72.1875 24.375C72.1875 30.5882 77.2243 35.625 83.4375 35.625Z" fill="#2BC97E"/>
<path d="M83.4375 36.5625C81.0271 36.5625 78.6707 35.8477 76.6665 34.5085C74.6623 33.1694 73.1002 31.2659 72.1777 29.039C71.2553 26.812 71.0139 24.3615 71.4842 21.9973C71.9544 19.6332 73.1152 17.4616 74.8196 15.7571C76.5241 14.0527 78.6957 12.8919 81.0598 12.4217C83.424 11.9514 85.8745 12.1928 88.1015 13.1152C90.3284 14.0377 92.2319 15.5998 93.571 17.604C94.9102 19.6082 95.625 21.9645 95.625 24.375C95.6214 27.6062 94.3362 30.7041 92.0514 32.9889C89.7666 35.2737 86.6687 36.5589 83.4375 36.5625ZM83.4375 14.0625C81.3979 14.0625 79.4041 14.6673 77.7082 15.8005C76.0123 16.9336 74.6905 18.5442 73.91 20.4286C73.1295 22.3129 72.9252 24.3864 73.3232 26.3869C73.7211 28.3873 74.7032 30.2248 76.1455 31.667C77.5877 33.1093 79.4252 34.0914 81.4256 34.4894C83.4261 34.8873 85.4996 34.683 87.3839 33.9025C89.2683 33.122 90.8789 31.8002 92.012 30.1043C93.1452 28.4084 93.75 26.4146 93.75 24.375C93.7469 21.6409 92.6594 19.0197 90.7261 17.0864C88.7928 15.1531 86.1716 14.0656 83.4375 14.0625Z" fill="#2BC97E"/>
<path d="M82.1877 30.4688C81.7056 30.4689 81.2419 30.2831 80.8932 29.9502L77.4554 26.6689C77.0978 26.3251 76.891 25.8535 76.8803 25.3576C76.8697 24.8616 77.056 24.3816 77.3985 24.0227C77.741 23.6638 78.2118 23.4553 78.7078 23.4429C79.2037 23.4304 79.6844 23.615 80.0445 23.9562L81.9071 25.7342L86.5914 19.0773C86.8776 18.6706 87.3136 18.3943 87.8035 18.309C88.2934 18.2238 88.7972 18.3366 89.2039 18.6228C89.6106 18.9089 89.887 19.3449 89.9722 19.8349C90.0575 20.3248 89.9446 20.8285 89.6584 21.2352L83.7213 29.6727C83.566 29.8933 83.365 30.0778 83.132 30.2136C82.8989 30.3494 82.6393 30.4333 82.3708 30.4596C82.31 30.4659 82.2489 30.4689 82.1877 30.4688Z" fill="white"/>
<path d="M70.3125 86.25H49.6875C48.9416 86.25 48.2262 85.9537 47.6988 85.4262C47.1713 84.8988 46.875 84.1834 46.875 83.4375C46.875 82.6916 47.1713 81.9762 47.6988 81.4488C48.2262 80.9213 48.9416 80.625 49.6875 80.625H70.3125C70.6818 80.625 71.0476 80.6977 71.3888 80.8391C71.73 80.9804 72.0401 81.1876 72.3013 81.4487C72.5624 81.7099 72.7696 82.02 72.9109 82.3612C73.0523 82.7024 73.125 83.0682 73.125 83.4375C73.125 83.8068 73.0523 84.1726 72.9109 84.5138C72.7696 84.855 72.5624 85.1651 72.3013 85.4263C72.0401 85.6874 71.73 85.8946 71.3888 86.0359C71.0476 86.1773 70.6818 86.25 70.3125 86.25Z" fill="#2BC97E"/>
<path d="M70.3125 87.1875H49.6875C48.6929 87.1875 47.7391 86.7924 47.0359 86.0892C46.3326 85.3859 45.9375 84.4321 45.9375 83.4375C45.9375 82.4429 46.3326 81.4891 47.0359 80.7858C47.7391 80.0826 48.6929 79.6875 49.6875 79.6875H70.3125C71.3071 79.6875 72.2609 80.0826 72.9642 80.7858C73.6674 81.4891 74.0625 82.4429 74.0625 83.4375C74.0625 84.4321 73.6674 85.3859 72.9642 86.0892C72.2609 86.7924 71.3071 87.1875 70.3125 87.1875ZM49.6875 81.5625C49.1902 81.5625 48.7133 81.76 48.3617 82.1117C48.01 82.4633 47.8125 82.9402 47.8125 83.4375C47.8125 83.9348 48.01 84.4117 48.3617 84.7633C48.7133 85.115 49.1902 85.3125 49.6875 85.3125H70.3125C70.8098 85.3125 71.2867 85.115 71.6383 84.7633C71.99 84.4117 72.1875 83.9348 72.1875 83.4375C72.1875 82.9402 71.99 82.4633 71.6383 82.1117C71.2867 81.76 70.8098 81.5625 70.3125 81.5625H49.6875Z" fill="#2BC97E"/>
<path opacity="0.5" d="M63.75 70.3125H56.25C56.0014 70.3125 55.7629 70.2137 55.5871 70.0379C55.4113 69.8621 55.3125 69.6236 55.3125 69.375C55.3125 69.1264 55.4113 68.8879 55.5871 68.7121C55.7629 68.5363 56.0014 68.4375 56.25 68.4375H63.75C63.9986 68.4375 64.2371 68.5363 64.4129 68.7121C64.5887 68.8879 64.6875 69.1264 64.6875 69.375C64.6875 69.6236 64.5887 69.8621 64.4129 70.0379C64.2371 70.2137 63.9986 70.3125 63.75 70.3125Z" fill="#2BC97E"/>
<path opacity="0.5" d="M70.3125 74.0625H49.6875C49.4389 74.0625 49.2004 73.9637 49.0246 73.7879C48.8488 73.6121 48.75 73.3736 48.75 73.125C48.75 72.8764 48.8488 72.6379 49.0246 72.4621C49.2004 72.2863 49.4389 72.1875 49.6875 72.1875H70.3125C70.5611 72.1875 70.7996 72.2863 70.9754 72.4621C71.1512 72.6379 71.25 72.8764 71.25 73.125C71.25 73.3736 71.1512 73.6121 70.9754 73.7879C70.7996 73.9637 70.5611 74.0625 70.3125 74.0625Z" fill="#2BC97E"/>
<g opacity="0.3">
<path d="M29.0625 84.375H8.4375C7.69158 84.375 6.97621 84.0787 6.44876 83.5512C5.92132 83.0238 5.625 82.3084 5.625 81.5625C5.625 80.8166 5.92132 80.1012 6.44876 79.5738C6.97621 79.0463 7.69158 78.75 8.4375 78.75H29.0625C29.4318 78.75 29.7976 78.8227 30.1388 78.9641C30.48 79.1054 30.7901 79.3126 31.0513 79.5737C31.3124 79.8349 31.5196 80.145 31.6609 80.4862C31.8023 80.8274 31.875 81.1932 31.875 81.5625C31.875 81.9318 31.8023 82.2976 31.6609 82.6388C31.5196 82.98 31.3124 83.2901 31.0513 83.5513C30.7901 83.8124 30.48 84.0196 30.1388 84.1609C29.7976 84.3023 29.4318 84.375 29.0625 84.375Z" fill="#2BC97E"/>
<path d="M29.0625 85.3125H8.4375C7.44294 85.3125 6.48911 84.9174 5.78585 84.2142C5.08259 83.5109 4.6875 82.5571 4.6875 81.5625C4.6875 80.5679 5.08259 79.6141 5.78585 78.9108C6.48911 78.2076 7.44294 77.8125 8.4375 77.8125H29.0625C30.0571 77.8125 31.0109 78.2076 31.7141 78.9108C32.4174 79.6141 32.8125 80.5679 32.8125 81.5625C32.8125 82.5571 32.4174 83.5109 31.7141 84.2142C31.0109 84.9174 30.0571 85.3125 29.0625 85.3125ZM8.4375 79.6875C7.94022 79.6875 7.46331 79.885 7.11167 80.2367C6.76004 80.5883 6.5625 81.0652 6.5625 81.5625C6.5625 82.0598 6.76004 82.5367 7.11167 82.8883C7.46331 83.24 7.94022 83.4375 8.4375 83.4375H29.0625C29.5598 83.4375 30.0367 83.24 30.3883 82.8883C30.74 82.5367 30.9375 82.0598 30.9375 81.5625C30.9375 81.0652 30.74 80.5883 30.3883 80.2367C30.0367 79.885 29.5598 79.6875 29.0625 79.6875H8.4375Z" fill="#2BC97E"/>
<path d="M22.5 70.3125H15C14.7514 70.3125 14.5129 70.2137 14.3371 70.0379C14.1613 69.8621 14.0625 69.6236 14.0625 69.375C14.0625 69.1264 14.1613 68.8879 14.3371 68.7121C14.5129 68.5363 14.7514 68.4375 15 68.4375H22.5C22.7486 68.4375 22.9871 68.5363 23.1629 68.7121C23.3387 68.8879 23.4375 69.1264 23.4375 69.375C23.4375 69.6236 23.3387 69.8621 23.1629 70.0379C22.9871 70.2137 22.7486 70.3125 22.5 70.3125Z" fill="#2BC97E"/>
<path d="M29.0625 74.0625H8.4375C8.18886 74.0625 7.9504 73.9637 7.77459 73.7879C7.59877 73.6121 7.5 73.3736 7.5 73.125C7.5 72.8764 7.59877 72.6379 7.77459 72.4621C7.9504 72.2863 8.18886 72.1875 8.4375 72.1875H29.0625C29.3111 72.1875 29.5496 72.2863 29.7254 72.4621C29.9012 72.6379 30 72.8764 30 73.125C30 73.3736 29.9012 73.6121 29.7254 73.7879C29.5496 73.9637 29.3111 74.0625 29.0625 74.0625Z" fill="#2BC97E"/>
<path d="M17.1269 39.375L5.61023 50.8916C5.20325 51.2986 4.97461 51.8506 4.97461 52.4262C4.97461 53.0017 5.20325 53.5537 5.61023 53.9607L14.4774 62.8279C14.8844 63.2349 15.4364 63.4635 16.012 63.4635C16.5876 63.4635 17.1396 63.2349 17.5466 62.8279L29.0631 51.3113V39.375H17.1269ZM23.6375 46.9708C23.2083 46.9708 22.7887 46.8435 22.4318 46.605C22.075 46.3665 21.7968 46.0276 21.6326 45.631C21.4683 45.2345 21.4254 44.7981 21.5091 44.3771C21.5928 43.9562 21.7996 43.5695 22.1031 43.266C22.4066 42.9625 22.7933 42.7558 23.2143 42.6721C23.6352 42.5883 24.0716 42.6313 24.4681 42.7956C24.8647 42.9598 25.2036 43.238 25.4421 43.5949C25.6805 43.9518 25.8078 44.3714 25.8078 44.8006C25.8078 45.0856 25.7517 45.3678 25.6426 45.6311C25.5335 45.8944 25.3737 46.1337 25.1721 46.3352C24.9706 46.5367 24.7314 46.6966 24.468 46.8056C24.2047 46.9147 23.9225 46.9708 23.6375 46.9708Z" fill="white"/>
<path d="M16.0115 64.3996C15.6035 64.4004 15.1993 64.3206 14.8222 64.1646C14.4451 64.0087 14.1025 63.7797 13.8143 63.4909L4.94692 54.6236C4.36501 54.0403 4.03817 53.2501 4.03809 52.4262C4.038 51.6023 4.36467 50.812 4.94646 50.2286L16.4638 38.7122C16.6395 38.5364 16.878 38.4376 17.1266 38.4375H29.0628C29.3115 38.4375 29.5499 38.5363 29.7257 38.7121C29.9016 38.8879 30.0003 39.1264 30.0003 39.375V51.3112C30.0003 51.5598 29.9015 51.7982 29.7256 51.974L18.2092 63.4909C17.9208 63.7796 17.5781 64.0084 17.201 64.1643C16.8238 64.3203 16.4196 64.4002 16.0115 64.3996ZM17.5148 40.3125L6.2726 51.5543C6.04185 51.7857 5.91228 52.0992 5.91228 52.4261C5.91228 52.7529 6.04185 53.0664 6.2726 53.2979L15.1399 62.1652C15.3713 62.3962 15.6849 62.5259 16.0119 62.5258C16.3388 62.5257 16.6523 62.3959 16.8836 62.1648L28.1253 50.923V40.3125H17.5148ZM23.6369 47.9081C23.0223 47.908 22.4215 47.7257 21.9105 47.3842C21.3995 47.0426 21.0012 46.5572 20.7661 45.9893C20.5309 45.4215 20.4695 44.7966 20.5894 44.1938C20.7094 43.591 21.0054 43.0373 21.4401 42.6027C21.8747 42.1681 22.4284 41.8722 23.0313 41.7523C23.6341 41.6324 24.259 41.694 24.8268 41.9292C25.3946 42.1645 25.88 42.5628 26.2214 43.0738C26.5629 43.5849 26.7452 44.1857 26.7452 44.8004C26.7442 45.6244 26.4164 46.4143 25.8337 46.997C25.251 47.5796 24.461 47.9073 23.6369 47.9082V47.9081ZM23.6369 43.5676C23.3932 43.5677 23.1549 43.6401 22.9522 43.7756C22.7495 43.9111 22.5916 44.1037 22.4984 44.3289C22.4051 44.5542 22.3808 44.802 22.4284 45.0411C22.476 45.2802 22.5935 45.4999 22.7659 45.6722C22.9383 45.8446 23.158 45.9619 23.3971 46.0095C23.6362 46.057 23.884 46.0326 24.1093 45.9392C24.3345 45.8459 24.527 45.6879 24.6624 45.4852C24.7979 45.2825 24.8702 45.0442 24.8702 44.8004C24.8698 44.4735 24.7397 44.1601 24.5085 43.9289C24.2773 43.6978 23.9639 43.5679 23.6369 43.5677V43.5676Z" fill="#2BC97E"/>
<path opacity="0.5" d="M29.8356 45.2385C29.587 45.2385 29.3485 45.1397 29.1727 44.9639C28.9969 44.7881 28.8981 44.5497 28.8981 44.301C28.8981 44.0524 28.9969 43.8139 29.1727 43.6381C29.3485 43.4623 29.587 43.3635 29.8356 43.3635C30.248 43.3625 30.6459 43.2117 30.9553 42.9392C31.1466 42.7804 31.3932 42.7041 31.6408 42.7271C31.8884 42.7501 32.1167 42.8705 32.2755 43.0618C32.4343 43.2532 32.5106 43.4998 32.4876 43.7473C32.4646 43.9949 32.3442 44.2232 32.1528 44.382C31.5078 44.9356 30.6856 45.2395 29.8356 45.2385ZM24.2074 44.6814L24.18 44.681C23.9314 44.6738 23.6959 44.5682 23.5253 44.3874C23.3546 44.2066 23.2628 43.9654 23.2699 43.7169C23.2881 43.0575 23.3425 42.3997 23.4329 41.7463C23.4491 41.6236 23.4894 41.5053 23.5516 41.3983C23.6137 41.2912 23.6965 41.1976 23.795 41.1227C23.8935 41.0478 24.0059 40.9931 24.1257 40.9619C24.2455 40.9306 24.3702 40.9234 24.4928 40.9407C24.6154 40.9579 24.7333 40.9992 24.8398 41.0622C24.9463 41.1253 25.0393 41.2088 25.1134 41.3079C25.1874 41.4071 25.2412 41.5199 25.2714 41.64C25.3016 41.76 25.3078 41.8848 25.2896 42.0072C25.2089 42.592 25.1603 43.1808 25.144 43.771C25.137 44.0148 25.0353 44.2462 24.8604 44.4162C24.6856 44.5862 24.4513 44.6813 24.2074 44.6814ZM33.0862 42.2736C32.9329 42.2734 32.7821 42.2356 32.6468 42.1636C32.5115 42.0916 32.3958 41.9876 32.31 41.8606C32.2242 41.7336 32.1708 41.5875 32.1545 41.4351C32.1382 41.2827 32.1595 41.1287 32.2165 40.9864C32.4146 40.4844 32.5793 39.9698 32.7095 39.446C32.7621 39.1979 32.9084 38.9797 33.1179 38.8369C33.3275 38.6941 33.5841 38.6376 33.8342 38.6793C33.9532 38.6994 34.0669 38.7432 34.1686 38.8082C34.2703 38.8733 34.3579 38.9581 34.4261 39.0577C34.4942 39.1573 34.5417 39.2696 34.5655 39.3879C34.5893 39.5062 34.5891 39.6281 34.5648 39.7463L34.5259 39.9111C34.3753 40.5142 34.1852 41.1068 33.9569 41.6849C33.887 41.8587 33.7668 42.0076 33.6116 42.1125C33.4565 42.2174 33.2735 42.2735 33.0862 42.2736ZM25.0319 40.0896C24.8808 40.0894 24.732 40.0527 24.5981 39.9826C24.4643 39.9126 24.3493 39.8113 24.263 39.6873C24.1767 39.5633 24.1215 39.4203 24.1023 39.2705C24.0831 39.1207 24.1003 38.9684 24.1525 38.8266C24.3877 38.1864 24.6803 37.5688 25.0268 36.9814C25.1542 36.7687 25.3607 36.6152 25.6011 36.5544C25.8414 36.4936 26.0961 36.5305 26.3093 36.657C26.5225 36.7835 26.6769 36.9894 26.7387 37.2295C26.8005 37.4696 26.7646 37.7244 26.639 37.9381C26.3506 38.428 26.107 38.9429 25.9112 39.4766C25.8447 39.6564 25.7248 39.8115 25.5676 39.921C25.4104 40.0306 25.2235 40.0894 25.0318 40.0896H25.0319ZM33.2867 37.76C33.118 37.7602 32.9523 37.7149 32.8072 37.6287C32.6621 37.5426 32.5429 37.4189 32.4623 37.2707C32.2287 36.8472 31.9013 36.4828 31.5051 36.2054C31.4044 36.1346 31.3186 36.0445 31.2527 35.9405C31.1868 35.8365 31.142 35.7205 31.121 35.5992C31.0999 35.4778 31.103 35.3535 31.13 35.2334C31.1569 35.1132 31.2073 34.9996 31.2783 34.8989C31.3492 34.7982 31.4393 34.7125 31.5433 34.6467C31.6474 34.5808 31.7634 34.5361 31.8848 34.5151C32.0061 34.4941 32.1304 34.4973 32.2506 34.5243C32.3707 34.5514 32.4843 34.6019 32.585 34.6728C33.2163 35.1162 33.7378 35.6982 34.1093 36.3744C34.187 36.5171 34.2262 36.6775 34.2232 36.84C34.2202 37.0025 34.175 37.1613 34.092 37.3011C34.0091 37.4408 33.8912 37.5565 33.75 37.637C33.6089 37.7175 33.4492 37.7598 33.2867 37.76L33.2867 37.76ZM27.6503 36.275C27.4504 36.2752 27.2557 36.2114 27.0946 36.0931C26.9335 35.9748 26.8145 35.8081 26.7548 35.6173C26.6952 35.4266 26.698 35.2217 26.763 35.0327C26.828 34.8437 26.9517 34.6804 27.1161 34.5666C27.7637 34.1141 28.5186 33.8388 29.3055 33.7683C29.5529 33.7464 29.7988 33.8235 29.9893 33.9826C30.1799 34.1417 30.2996 34.37 30.3221 34.6172C30.3447 34.8645 30.2683 35.1106 30.1096 35.3016C29.951 35.4925 29.723 35.6128 29.4758 35.636C29.0109 35.6779 28.5651 35.8408 28.1826 36.1084C28.0264 36.217 27.8406 36.2752 27.6503 36.275L27.6503 36.275Z" fill="#2BC97E"/>
<path d="M19.5602 52.5284C19.4371 52.5285 19.3152 52.5043 19.2014 52.4572C19.0877 52.41 18.9844 52.3409 18.8974 52.2537L16.1847 49.5405C16.0977 49.4535 16.0286 49.3502 15.9815 49.2364C15.9344 49.1227 15.9102 49.0008 15.9102 48.8777C15.9102 48.7546 15.9344 48.6327 15.9815 48.519C16.0286 48.4052 16.0977 48.3019 16.1847 48.2149C16.2718 48.1278 16.3751 48.0588 16.4888 48.0117C16.6026 47.9646 16.7245 47.9403 16.8476 47.9403C16.9707 47.9403 17.0926 47.9646 17.2063 48.0117C17.32 48.0588 17.4234 48.1278 17.5104 48.2149L20.2231 50.928C20.3542 51.0591 20.4434 51.2261 20.4796 51.408C20.5157 51.5898 20.4972 51.7783 20.4262 51.9495C20.3553 52.1208 20.2352 52.2672 20.081 52.3702C19.9269 52.4733 19.7457 52.5283 19.5603 52.5283L19.5602 52.5284Z" fill="#2BC97E"/>
<path d="M15.4825 56.7512C15.3594 56.7514 15.2375 56.7272 15.1237 56.68C15.01 56.6329 14.9066 56.5637 14.8197 56.4765L12.1066 53.7638C12.0195 53.6768 11.9505 53.5734 11.9034 53.4597C11.8563 53.346 11.832 53.2241 11.832 53.101C11.832 52.9779 11.8563 52.856 11.9034 52.7422C11.9505 52.6285 12.0195 52.5252 12.1066 52.4381C12.1936 52.3511 12.297 52.282 12.4107 52.2349C12.5244 52.1878 12.6463 52.1636 12.7694 52.1636C12.8925 52.1636 13.0144 52.1878 13.1282 52.2349C13.2419 52.282 13.3452 52.3511 13.4323 52.4381L16.1454 55.1508C16.2765 55.282 16.3657 55.449 16.4019 55.6308C16.438 55.8126 16.4195 56.0011 16.3485 56.1724C16.2776 56.3437 16.1575 56.4901 16.0033 56.5931C15.8492 56.6961 15.668 56.7511 15.4826 56.7512L15.4825 56.7512Z" fill="#2BC97E"/>
<path d="M19.0939 56.2501C18.9708 56.2502 18.8489 56.226 18.7351 56.1789C18.6214 56.1317 18.5181 56.0626 18.4311 55.9754L12.4628 50.0071C12.2888 49.8309 12.1916 49.5931 12.1924 49.3455C12.1932 49.0979 12.2919 48.8607 12.4669 48.6856C12.642 48.5105 12.8792 48.4118 13.1268 48.411C13.3744 48.4102 13.6122 48.5074 13.7884 48.6814L19.7568 54.6497C19.8878 54.7809 19.9771 54.9479 20.0133 55.1297C20.0494 55.3115 20.0308 55.5 19.9599 55.6713C19.889 55.8426 19.7688 55.989 19.6147 56.092C19.4606 56.195 19.2793 56.25 19.094 56.2501H19.0939Z" fill="#2BC97E"/>
</g>
<path d="M94.6875 107.812H25.3125C25.0639 107.812 24.8254 107.714 24.6496 107.538C24.4738 107.362 24.375 107.124 24.375 106.875C24.375 106.626 24.4738 106.388 24.6496 106.212C24.8254 106.036 25.0639 105.938 25.3125 105.938H94.6875C94.9361 105.938 95.1746 106.036 95.3504 106.212C95.5262 106.388 95.625 106.626 95.625 106.875C95.625 107.124 95.5262 107.362 95.3504 107.538C95.1746 107.714 94.9361 107.812 94.6875 107.812Z" fill="#2BC97E"/>
<path d="M72.1875 111.562C74.7763 111.562 76.875 109.464 76.875 106.875C76.875 104.286 74.7763 102.188 72.1875 102.188C69.5987 102.188 67.5 104.286 67.5 106.875C67.5 109.464 69.5987 111.562 72.1875 111.562Z" fill="white"/>
<path d="M72.1875 112.5C71.075 112.5 69.9874 112.17 69.0624 111.552C68.1374 110.934 67.4164 110.055 66.9907 109.028C66.5649 108 66.4535 106.869 66.6706 105.778C66.8876 104.686 67.4234 103.684 68.21 102.898C68.9967 102.111 69.999 101.575 71.0901 101.358C72.1813 101.141 73.3123 101.252 74.3401 101.678C75.3679 102.104 76.2464 102.825 76.8645 103.75C77.4826 104.675 77.8125 105.762 77.8125 106.875C77.8109 108.366 77.2177 109.796 76.1632 110.851C75.1086 111.905 73.6788 112.498 72.1875 112.5ZM72.1875 103.125C71.4458 103.125 70.7208 103.345 70.1041 103.757C69.4874 104.169 69.0068 104.755 68.723 105.44C68.4391 106.125 68.3649 106.879 68.5096 107.607C68.6543 108.334 69.0114 109.002 69.5358 109.527C70.0603 110.051 70.7285 110.408 71.4559 110.553C72.1833 110.698 72.9373 110.623 73.6226 110.34C74.3078 110.056 74.8935 109.575 75.3055 108.958C75.7176 108.342 75.9375 107.617 75.9375 106.875C75.9364 105.881 75.5409 104.928 74.8379 104.225C74.1349 103.522 73.1817 103.126 72.1875 103.125Z" fill="#2BC97E"/>
</svg>
