<svg width="120" height="120" viewBox="0 0 120 120" fill="none" xmlns="http://www.w3.org/2000/svg">
<g opacity="0.6" clip-path="url(#clip0_21975_75308)">
<g opacity="0.3">
<path d="M13.9144 24.4545C9.54109 28.2024 6.42382 33.2026 4.98393 38.7793C3.54403 44.356 3.85094 50.2403 5.86317 55.6369C7.2826 59.4754 7.38612 63.6769 6.15746 67.5806C4.23712 73.7057 4.05347 80.2433 5.62693 86.4665C7.20039 92.6897 10.4693 98.3544 15.07 102.831C19.6708 107.307 25.4231 110.419 31.6871 111.821C37.9511 113.224 44.4812 112.861 50.5513 110.773C53.2338 109.881 56.0769 109.577 58.8873 109.882C61.6978 110.186 64.4098 111.092 66.8391 112.538C79.7693 120.067 98.4575 116.111 106.184 96.8984C107.028 94.4958 107.27 91.9227 106.888 89.4048C106.385 84.6505 107.665 79.8788 110.48 76.0146C112.802 72.7559 114.361 69.0173 115.044 65.0748C115.727 61.1323 115.515 57.0869 114.425 53.2372C113.334 49.3876 111.392 45.8322 108.743 42.8338C106.094 39.8354 102.805 37.4705 99.1186 35.914C96.5977 34.8572 94.3375 33.2636 92.4955 31.2441C90.6534 29.2247 89.2737 26.8279 88.4525 24.2208C87.088 19.7816 84.6091 15.766 81.2522 12.5568C77.8953 9.34751 73.7723 7.05164 69.2763 5.88806C64.7803 4.72448 60.0612 4.73198 55.5689 5.90983C51.0766 7.08768 46.9609 9.39663 43.6142 12.6165C40.2331 15.7918 35.7987 17.607 31.1615 17.714C24.8139 17.9372 18.7313 20.3144 13.9144 24.4545Z" fill="#2BC97E"/>
<path d="M118.125 34.7032H0V117.202H118.125V34.7032Z" fill="white"/>
<path d="M65.625 34.7035H46.875L18.75 117.202H93.75L65.625 34.7035Z" fill="#2BC97E"/>
<path d="M93.75 118.139H18.75C18.6009 118.139 18.4539 118.104 18.3213 118.036C18.1886 117.968 18.0742 117.869 17.9874 117.747C17.9007 117.626 17.8441 117.486 17.8224 117.338C17.8008 117.191 17.8146 117.04 17.8629 116.899L45.9879 34.4005C46.051 34.2154 46.1705 34.0546 46.3296 33.9407C46.4887 33.8269 46.6794 33.7656 46.875 33.7656H65.625C65.8207 33.7656 66.0114 33.8269 66.1705 33.9407C66.3296 34.0546 66.4491 34.2154 66.5122 34.4005L94.6372 116.899C94.6854 117.04 94.6993 117.191 94.6776 117.338C94.656 117.486 94.5994 117.626 94.5126 117.747C94.4259 117.869 94.3114 117.968 94.1788 118.036C94.0461 118.104 93.8992 118.139 93.75 118.139ZM20.0602 116.264H92.4399L64.954 35.6406H47.5461L20.0602 116.264Z" fill="#2BC97E"/>
<path d="M56.25 42.6705C55.877 42.6705 55.5194 42.5223 55.2557 42.2586C54.9919 41.9949 54.8438 41.6372 54.8438 41.2643V38.4531C54.8438 38.0802 54.9919 37.7225 55.2556 37.4588C55.5194 37.195 55.877 37.0469 56.25 37.0469C56.623 37.0469 56.9806 37.195 57.2444 37.4588C57.5081 37.7225 57.6562 38.0802 57.6562 38.4531V41.2643C57.6562 41.6372 57.5081 41.9949 57.2443 42.2586C56.9806 42.5223 56.623 42.6705 56.25 42.6705Z" fill="white"/>
<path d="M56.25 54.858C55.877 54.858 55.5194 54.7098 55.2557 54.4461C54.9919 54.1824 54.8438 53.8247 54.8438 53.4518V45.0156C54.8438 44.6427 54.9919 44.285 55.2556 44.0213C55.5194 43.7575 55.877 43.6094 56.25 43.6094C56.623 43.6094 56.9806 43.7575 57.2444 44.0213C57.5081 44.285 57.6562 44.6427 57.6562 45.0156V53.4518C57.6562 53.8247 57.5081 54.1824 57.2443 54.4461C56.9806 54.7098 56.623 54.858 56.25 54.858Z" fill="white"/>
<path d="M56.25 82.983C55.877 82.983 55.5194 82.8348 55.2557 82.5711C54.9919 82.3074 54.8438 81.9497 54.8438 81.5768V58.1406C54.8438 57.7677 54.9919 57.41 55.2556 57.1463C55.5194 56.8825 55.877 56.7344 56.25 56.7344C56.623 56.7344 56.9806 56.8825 57.2444 57.1463C57.5081 57.41 57.6562 57.7677 57.6562 58.1406V81.5768C57.6562 81.9497 57.5081 82.3074 57.2443 82.5711C56.9806 82.8348 56.623 82.983 56.25 82.983Z" fill="white"/>
<path d="M118.125 35.6396H0C-0.123123 35.6397 -0.245046 35.6155 -0.358804 35.5683C-0.472561 35.5212 -0.575923 35.4522 -0.662984 35.3651C-0.750045 35.2781 -0.8191 35.1747 -0.866202 35.0609C-0.913305 34.9472 -0.937532 34.8253 -0.9375 34.7021C-0.937532 34.579 -0.913305 34.4571 -0.866202 34.3433C-0.8191 34.2296 -0.750045 34.1262 -0.662984 34.0392C-0.575923 33.9521 -0.472561 33.883 -0.358804 33.8359C-0.245046 33.7888 -0.123123 33.7646 0 33.7646H118.125C118.374 33.7646 118.612 33.8634 118.788 34.0392C118.964 34.2151 119.062 34.4535 119.062 34.7021C119.062 34.9508 118.964 35.1892 118.788 35.3651C118.612 35.5409 118.374 35.6396 118.125 35.6396Z" fill="#2BC97E"/>
<path d="M105 118.125H13.125C12.8764 118.125 12.6379 118.026 12.4621 117.85C12.2863 117.675 12.1875 117.436 12.1875 117.188C12.1875 116.939 12.2863 116.7 12.4621 116.525C12.6379 116.349 12.8764 116.25 13.125 116.25H105C105.249 116.25 105.487 116.349 105.663 116.525C105.839 116.7 105.938 116.939 105.938 117.188C105.938 117.436 105.839 117.675 105.663 117.85C105.487 118.026 105.249 118.125 105 118.125Z" fill="#2BC97E"/>
<path d="M37.5 111.562H22.5C22.2514 111.562 22.0129 111.464 21.8371 111.288C21.6613 111.112 21.5625 110.874 21.5625 110.625C21.5625 110.376 21.6613 110.138 21.8371 109.962C22.0129 109.786 22.2514 109.688 22.5 109.688H37.5C37.7486 109.688 37.9871 109.786 38.1629 109.962C38.3387 110.138 38.4375 110.376 38.4375 110.625C38.4375 110.874 38.3387 111.112 38.1629 111.288C37.9871 111.464 37.7486 111.562 37.5 111.562Z" fill="#2BC97E"/>
<path d="M93.75 111.562H79.6875C79.4389 111.562 79.2004 111.464 79.0246 111.288C78.8488 111.112 78.75 110.874 78.75 110.625C78.75 110.376 78.8488 110.138 79.0246 109.962C79.2004 109.786 79.4389 109.688 79.6875 109.688H93.75C93.9986 109.688 94.2371 109.786 94.4129 109.962C94.5887 110.138 94.6875 110.376 94.6875 110.625C94.6875 110.874 94.5887 111.112 94.4129 111.288C94.2371 111.464 93.9986 111.562 93.75 111.562Z" fill="#2BC97E"/>
<path d="M10.3125 118.125H9.375C9.12636 118.125 8.8879 118.026 8.71209 117.85C8.53627 117.675 8.4375 117.436 8.4375 117.188C8.4375 116.939 8.53627 116.7 8.71209 116.525C8.8879 116.349 9.12636 116.25 9.375 116.25H10.3125C10.5611 116.25 10.7996 116.349 10.9754 116.525C11.1512 116.7 11.25 116.939 11.25 117.188C11.25 117.436 11.1512 117.675 10.9754 117.85C10.7996 118.026 10.5611 118.125 10.3125 118.125Z" fill="#2BC97E"/>
<path d="M107.903 118.125C107.65 118.127 107.405 118.03 107.222 117.855C107.038 117.68 106.93 117.441 106.92 117.188C106.915 117.067 106.934 116.946 106.977 116.833C107.019 116.72 107.084 116.617 107.167 116.529C107.25 116.442 107.35 116.372 107.461 116.324C107.572 116.276 107.692 116.251 107.812 116.25H107.903C108.152 116.25 108.39 116.349 108.566 116.525C108.742 116.7 108.841 116.939 108.841 117.188C108.841 117.436 108.742 117.675 108.566 117.85C108.39 118.026 108.152 118.125 107.903 118.125Z" fill="#2BC97E"/>
<path d="M69.8516 21.5615H68.9141C68.6654 21.5615 68.427 21.4628 68.2511 21.2869C68.0753 21.1111 67.9766 20.8727 67.9766 20.624C67.9766 20.3754 68.0753 20.1369 68.2511 19.9611C68.427 19.7853 68.6654 19.6865 68.9141 19.6865H69.8516C70.1002 19.6865 70.3387 19.7853 70.5145 19.9611C70.6903 20.1369 70.7891 20.3754 70.7891 20.624C70.7891 20.8727 70.6903 21.1111 70.5145 21.2869C70.3387 21.4628 70.1002 21.5615 69.8516 21.5615Z" fill="white"/>
<path d="M70.7881 25.312H60.4756C60.2269 25.312 59.9885 25.2132 59.8127 25.0374C59.6369 24.8616 59.5381 24.6232 59.5381 24.3745C59.5381 24.1259 59.6369 23.8874 59.8127 23.7116C59.9885 23.5358 60.2269 23.437 60.4756 23.437H70.7881C71.0367 23.437 71.2752 23.5358 71.451 23.7116C71.6268 23.8874 71.7256 24.1259 71.7256 24.3745C71.7256 24.6232 71.6268 24.8616 71.451 25.0374C71.2752 25.2132 71.0367 25.312 70.7881 25.312Z" fill="white"/>
<path d="M65.1621 21.5615H60.4756C60.2269 21.5615 59.9885 21.4628 59.8127 21.2869C59.6369 21.1111 59.5381 20.8727 59.5381 20.624C59.5381 20.3754 59.6369 20.1369 59.8127 19.9611C59.9885 19.7853 60.2269 19.6865 60.4756 19.6865H65.1621C65.4108 19.6865 65.6492 19.7853 65.8251 19.9611C66.0009 20.1369 66.0996 20.3754 66.0996 20.624C66.0996 20.8727 66.0009 21.1111 65.8251 21.2869C65.6492 21.4628 65.4108 21.5615 65.1621 21.5615Z" fill="white"/>
<path d="M57.6621 25.3115H56.7256C56.4769 25.3115 56.2385 25.2128 56.0627 25.0369C55.8869 24.8611 55.7881 24.6227 55.7881 24.374C55.7881 24.1254 55.8869 23.8869 56.0627 23.7111C56.2385 23.5353 56.4769 23.4365 56.7256 23.4365H57.6621C57.9108 23.4365 58.1492 23.5353 58.3251 23.7111C58.5009 23.8869 58.5996 24.1254 58.5996 24.374C58.5996 24.6227 58.5009 24.8611 58.3251 25.0369C58.1492 25.2128 57.9108 25.3115 57.6621 25.3115Z" fill="white"/>
<path d="M67.038 29.0625H59.5371C59.2885 29.0625 59.05 28.9637 58.8742 28.7879C58.6984 28.6121 58.5996 28.3736 58.5996 28.125C58.5996 27.8764 58.6984 27.6379 58.8742 27.4621C59.05 27.2863 59.2885 27.1875 59.5371 27.1875H67.038C67.2867 27.1875 67.5251 27.2863 67.701 27.4621C67.8768 27.6379 67.9755 27.8764 67.9755 28.125C67.9755 28.3736 67.8768 28.6121 67.701 28.7879C67.5251 28.9637 67.2867 29.0625 67.038 29.0625Z" fill="white"/>
<path d="M61.2912 14.0625C60.8481 14.0625 59.5004 14.0625 59.2423 12.979C59.1754 12.697 59.0711 12.263 59.7604 11.5063C58.9136 10.9721 57.8543 10.372 56.7667 9.82497C56.5447 9.71314 56.3763 9.51777 56.2983 9.28179C56.2203 9.04582 56.2393 8.78855 56.3509 8.56651C56.4625 8.34447 56.6577 8.17583 56.8936 8.09765C57.1295 8.01946 57.3868 8.03813 57.609 8.14955C58.8789 8.76926 60.1085 9.46859 61.2903 10.2434C62.508 9.43813 63.7761 8.71199 65.087 8.06944C65.1969 8.01352 65.3168 7.97984 65.4398 7.97032C65.5627 7.96081 65.6864 7.97565 65.8036 8.01398C65.9208 8.05232 66.0293 8.11341 66.1229 8.19375C66.2165 8.27409 66.2933 8.37211 66.3489 8.48218C66.4045 8.59225 66.4379 8.71221 66.4471 8.8352C66.4563 8.95819 66.4412 9.08179 66.4025 9.19891C66.3639 9.31603 66.3025 9.42438 66.2219 9.51775C66.1413 9.61112 66.0431 9.68768 65.9329 9.74303C64.8004 10.3157 63.6981 10.9442 62.8256 11.4995C63.5233 12.2575 63.4198 12.6938 63.3521 12.9767C63.0948 14.0625 61.7371 14.0625 61.2912 14.0625Z" fill="white"/>
<path d="M46.75 22.5001C45.7768 22.5001 45.2055 22.1732 45.0517 21.5282C44.9975 21.3549 44.9878 21.1707 45.0234 20.9926C45.0591 20.8145 45.139 20.6483 45.2559 20.5092C44.7212 20.1833 44.094 19.8327 43.4697 19.5182C43.2476 19.4063 43.0791 19.2107 43.0013 18.9745C42.9234 18.7384 42.9425 18.4809 43.0545 18.2589C43.1664 18.0368 43.362 17.8683 43.5981 17.7905C43.8343 17.7126 44.0917 17.7318 44.3138 17.8437C45.1503 18.2556 45.963 18.7141 46.7482 19.217C47.5587 18.6929 48.3987 18.2159 49.264 17.7883C49.4858 17.6759 49.7432 17.6562 49.9796 17.7335C50.2159 17.8109 50.4118 17.9789 50.5243 18.2007C50.6367 18.4226 50.6564 18.6799 50.579 18.9163C50.5017 19.1526 50.3336 19.3485 50.1118 19.461C49.4581 19.7924 48.8017 20.1618 48.2478 20.5028C48.3661 20.6421 48.4472 20.809 48.4837 20.988C48.5202 21.1671 48.5109 21.3524 48.4565 21.5269C48.3027 22.1728 47.7287 22.5001 46.75 22.5001Z" fill="white"/>
<path d="M9.48167 15.5962C9.33517 14.2306 9.69147 12.8584 10.4839 11.7365C11.2763 10.6147 12.4504 9.8202 13.7864 9.50176C15.1225 9.18332 16.5287 9.3628 17.742 10.0066C18.9552 10.6504 19.8921 11.7143 20.3774 12.9992C20.8204 12.6482 21.3532 12.4289 21.9149 12.3664C22.4766 12.3039 23.0446 12.4006 23.5539 12.6456C24.0633 12.8906 24.4934 13.2739 24.7953 13.7518C25.0971 14.2296 25.2584 14.7827 25.2607 15.3479C25.2607 15.4346 25.2549 15.5199 25.2477 15.6048C26.2542 15.953 27.1044 16.6472 27.6467 17.5638C28.189 18.4804 28.3883 19.5598 28.209 20.6096C28.0297 21.6595 27.4835 22.6115 26.6677 23.2962C25.8519 23.9808 24.8195 24.3535 23.7545 24.3479H10.9514C9.8842 24.3535 8.84986 23.9792 8.03335 23.292C7.21685 22.6048 6.67145 21.6495 6.49471 20.5971C6.31796 19.5446 6.5214 18.4636 7.06864 17.5474C7.61588 16.6312 8.47122 15.9395 9.48167 15.5962Z" fill="white"/>
<path d="M23.7553 25.2856H10.9517C9.72491 25.291 8.53241 24.8811 7.56829 24.1225C6.60417 23.3639 5.92521 22.3014 5.64193 21.1077C5.35865 19.9141 5.48774 18.6598 6.00817 17.5488C6.5286 16.4379 7.40973 15.5359 8.50813 14.9895V14.9731C8.51322 13.5265 8.99441 12.122 9.87739 10.9762C10.7604 9.83044 11.996 9.00726 13.3935 8.6338C14.791 8.26034 16.2725 8.35737 17.6094 8.9099C18.9462 9.46244 20.0639 10.4397 20.7899 11.6909C21.3593 11.4639 21.9738 11.3726 22.5846 11.4243C23.1954 11.4759 23.7858 11.6691 24.309 11.9884C24.8322 12.3078 25.2739 12.7446 25.5991 13.2642C25.9242 13.7838 26.124 14.372 26.1824 14.9822C27.2838 15.5256 28.1686 16.4262 28.6923 17.5371C29.2161 18.648 29.3479 19.9036 29.0663 21.0991C28.7847 22.2945 28.1063 23.3592 27.1418 24.1195C26.1772 24.8799 24.9835 25.2909 23.7554 25.2855L23.7553 25.2856ZM15.0935 10.2856C13.8477 10.284 12.6521 10.7766 11.7691 11.6553C10.886 12.5341 10.3876 13.7273 10.3831 14.9731C10.3838 15.1464 10.3941 15.3195 10.4143 15.4917C10.4379 15.7037 10.3885 15.9174 10.2743 16.0976C10.1602 16.2777 9.98798 16.4136 9.78621 16.4828C8.98558 16.7541 8.3077 17.3016 7.87402 18.0272C7.44033 18.7529 7.27918 19.6092 7.41942 20.4429C7.55967 21.2765 7.99215 22.033 8.63938 22.5768C9.28662 23.1206 10.1063 23.4161 10.9517 23.4106H23.7553C24.5988 23.416 25.4168 23.1216 26.0633 22.5798C26.7098 22.0381 27.1428 21.2843 27.285 20.4528C27.4272 19.6214 27.2694 18.7665 26.8397 18.0407C26.41 17.3149 25.7364 16.7653 24.9391 16.4901C24.7441 16.4219 24.577 16.2912 24.4639 16.1182C24.3509 15.9453 24.2981 15.7399 24.3138 15.5338C24.3184 15.4725 24.3239 15.4107 24.3239 15.348C24.3215 14.9589 24.2098 14.5784 24.0015 14.2497C23.7933 13.9211 23.4968 13.6576 23.146 13.4894C22.7952 13.3211 22.4042 13.2549 22.0175 13.2982C21.6309 13.3415 21.2642 13.4927 20.9593 13.7344C20.8437 13.8259 20.7081 13.8889 20.5635 13.9181C20.419 13.9473 20.2695 13.9421 20.1274 13.9027C19.9853 13.8633 19.8545 13.7909 19.7456 13.6914C19.6367 13.5919 19.5529 13.4682 19.5009 13.3302C19.1599 12.4368 18.5562 11.6677 17.7695 11.1242C16.9827 10.5807 16.0497 10.2883 15.0935 10.2856Z" fill="#2BC97E"/>
<path d="M10.9517 15.3479C10.4474 15.3474 9.94649 15.431 9.46973 15.5955L10.9517 15.3479Z" fill="white"/>
<path d="M9.46897 16.5335C9.24724 16.5335 9.03268 16.455 8.86338 16.3118C8.69408 16.1686 8.58101 15.97 8.54424 15.7514C8.50746 15.5327 8.54937 15.3081 8.66252 15.1174C8.77566 14.9267 8.95273 14.7823 9.16227 14.7098C9.73769 14.5109 10.3424 14.4097 10.9512 14.4104C11.1998 14.4104 11.4383 14.5092 11.6141 14.685C11.7899 14.8608 11.8887 15.0993 11.8887 15.3479C11.8887 15.5965 11.7899 15.835 11.6141 16.0108C11.4383 16.1866 11.1998 16.2854 10.9512 16.2854C10.5512 16.2848 10.1539 16.351 9.77566 16.4813C9.67706 16.5157 9.5734 16.5334 9.46897 16.5335Z" fill="#2BC97E"/>
<path d="M25.2488 15.5996C24.7685 15.4325 24.2635 15.3474 23.7549 15.3479L25.2488 15.5996Z" fill="white"/>
<path d="M25.2481 16.5376C25.143 16.5376 25.0387 16.5198 24.9396 16.485C24.5587 16.3525 24.1582 16.285 23.7549 16.2854C23.5062 16.2854 23.2678 16.1866 23.092 16.0108C22.9162 15.835 22.8174 15.5965 22.8174 15.3479C22.8174 15.0993 22.9162 14.8608 23.092 14.685C23.2678 14.5092 23.5062 14.4104 23.7549 14.4104C24.3683 14.4099 24.9774 14.5126 25.5566 14.7144C25.7658 14.7873 25.9424 14.932 26.0551 15.1227C26.1678 15.3134 26.2094 15.5379 26.1724 15.7563C26.1355 15.9747 26.0224 16.173 25.8532 16.316C25.684 16.4591 25.4696 16.5376 25.2481 16.5376Z" fill="#2BC97E"/>
<path d="M20.3974 12.981C20.0578 13.2445 19.7785 13.5777 19.5781 13.958L20.3974 12.981Z" fill="white"/>
<path d="M19.5773 14.8956C19.4159 14.8956 19.2573 14.8539 19.1168 14.7745C18.9762 14.6952 18.8586 14.5808 18.7752 14.4426C18.6919 14.3044 18.6456 14.147 18.641 13.9857C18.6364 13.8244 18.6735 13.6646 18.7488 13.5219C19.0118 13.0239 19.3771 12.5873 19.8209 12.2406C20.0172 12.0882 20.266 12.0201 20.5126 12.051C20.7592 12.082 20.9834 12.2095 21.136 12.4057C21.2886 12.6018 21.3571 12.8505 21.3264 13.0971C21.2958 13.3437 21.1685 13.5681 20.9726 13.721C20.7391 13.9032 20.5466 14.1327 20.4077 14.3944C20.3282 14.5457 20.2088 14.6724 20.0624 14.7608C19.9161 14.8492 19.7483 14.8958 19.5773 14.8956Z" fill="#2BC97E"/>
<path d="M89.1402 18.5029C88.8559 17.4205 88.9017 16.2778 89.2716 15.2215C89.6415 14.1653 90.3186 13.2437 91.2161 12.5751C92.1135 11.9065 93.1903 11.5213 94.3082 11.4691C95.4262 11.4169 96.5342 11.7001 97.49 12.2821C98.383 11.1005 99.6111 10.2151 101.014 9.74128C102.418 9.26742 103.931 9.22705 105.358 9.6254C106.784 10.0238 108.058 10.8424 109.012 11.9747C109.967 13.107 110.559 14.5006 110.711 15.9739C111.89 16.3799 112.887 17.191 113.525 18.263C114.163 19.335 114.399 20.5984 114.193 21.8286C113.987 23.0587 113.352 24.176 112.399 24.9816C111.447 25.7873 110.24 26.2291 108.993 26.2286L89.3045 26.2287C88.2934 26.2293 87.3223 25.8336 86.5995 25.1265C85.8767 24.4194 85.4599 23.4572 85.4384 22.4463C85.4169 21.4354 85.7924 20.4563 86.4845 19.7191C87.1765 18.9819 88.1299 18.5453 89.1402 18.5029Z" fill="white"/>
<path d="M89.1404 16.3933C89.1067 16.2636 89.0869 16.1288 89.0617 15.996C89.0347 16.1331 89.0148 16.2727 88.998 16.4133C89.0463 16.4094 89.0915 16.3953 89.1404 16.3933Z" fill="white"/>
<path d="M108.992 27.166H89.3037C88.1394 27.1662 87.0147 26.7434 86.1388 25.9763C85.2628 25.2092 84.6954 24.1501 84.5419 22.9959C84.3885 21.8418 84.6594 20.6712 85.3045 19.7019C85.9495 18.7326 86.9247 18.0306 88.0486 17.7265C88.0267 17.5143 88.0157 17.3012 88.0156 17.0879C88.014 15.9929 88.2867 14.915 88.8089 13.9526C89.3312 12.9902 90.0863 12.174 91.0052 11.5787C91.9242 10.9833 92.9777 10.6277 94.0694 10.5444C95.1612 10.4611 96.2565 10.6527 97.2551 11.1017C98.3058 9.9593 99.6553 9.13383 101.151 8.71877C102.646 8.30371 104.228 8.31564 105.717 8.75321C107.206 9.19078 108.543 10.0365 109.577 11.1947C110.61 12.3528 111.298 13.7771 111.564 15.3063C112.855 15.8933 113.907 16.9047 114.543 18.1723C115.179 19.44 115.363 20.8873 115.062 22.2735C114.761 23.6597 113.995 24.9012 112.891 25.7913C111.786 26.6815 110.411 27.1666 108.992 27.166H108.992ZM94.5781 12.4004C93.8613 12.3972 93.1534 12.5592 92.5093 12.8738C91.8653 13.1884 91.3023 13.6471 90.8641 14.2144C90.4259 14.7817 90.1243 15.4423 89.9826 16.1449C89.8409 16.8476 89.863 17.5734 90.0472 18.2662C90.0824 18.4016 90.0869 18.5432 90.0603 18.6806C90.0337 18.818 89.9767 18.9477 89.8935 19.0602C89.8103 19.1727 89.7029 19.2651 89.5794 19.3307C89.4558 19.3964 89.319 19.4335 89.1792 19.4394C88.4141 19.4716 87.6921 19.8024 87.168 20.3607C86.6439 20.9191 86.3596 21.6606 86.3758 22.4262C86.3921 23.1918 86.7078 23.9205 87.2552 24.4561C87.8025 24.9917 88.538 25.2914 89.3037 25.291H108.992C110.018 25.2916 111.01 24.9285 111.794 24.266C112.577 23.6036 113.099 22.6849 113.269 21.6734C113.438 20.6618 113.243 19.6229 112.719 18.7416C112.194 17.8602 111.374 17.1934 110.404 16.8599C110.235 16.8016 110.086 16.6962 109.975 16.5562C109.864 16.4161 109.795 16.2472 109.777 16.0694C109.644 14.7832 109.128 13.5667 108.294 12.5783C107.461 11.5899 106.349 10.8755 105.104 10.5279C103.858 10.1804 102.537 10.216 101.312 10.63C100.087 11.044 99.0157 11.8173 98.2365 12.8491C98.0962 13.0339 97.8924 13.1601 97.6645 13.2034C97.4365 13.2467 97.2007 13.2039 97.0024 13.0834C96.2721 12.638 95.4335 12.4018 94.5781 12.4004Z" fill="#2BC97E"/>
<path d="M110.389 19.959C110.241 19.9587 110.096 19.9235 109.964 19.8563C109.832 19.789 109.718 19.6916 109.631 19.572C109.545 19.4524 109.487 19.3139 109.464 19.1679C109.441 19.0219 109.452 18.8724 109.498 18.7317C109.811 17.7641 109.891 16.7362 109.732 15.7316C109.572 14.7271 109.178 13.7746 108.58 12.9516C107.982 12.1287 107.198 11.4587 106.293 10.9963C105.387 10.5339 104.384 10.2923 103.367 10.291C103.119 10.291 102.88 10.1922 102.704 10.0164C102.528 9.84061 102.43 9.60216 102.43 9.35352C102.43 9.10488 102.528 8.86642 102.704 8.6906C102.88 8.51479 103.119 8.41602 103.367 8.41602C104.68 8.41725 105.974 8.7289 107.144 9.32555C108.313 9.9222 109.325 10.7869 110.097 11.8492C110.868 12.9114 111.378 14.141 111.584 15.4377C111.789 16.7344 111.686 18.0614 111.281 19.3103C111.22 19.4988 111.101 19.6631 110.941 19.7796C110.78 19.8961 110.587 19.9589 110.389 19.959Z" fill="#2BC97E"/>
<path d="M91.8526 20.3897C91.6252 20.3902 91.4054 20.3075 91.2346 20.1572C90.7006 19.6893 90.0147 19.4316 89.3047 19.4321C89.056 19.4321 88.8176 19.3334 88.6418 19.1575C88.466 18.9817 88.3672 18.7433 88.3672 18.4946C88.3672 18.246 88.466 18.0075 88.6418 17.8317C88.8176 17.6559 89.056 17.5571 89.3047 17.5571C90.4695 17.5564 91.5947 17.9795 92.4706 18.7473C92.614 18.873 92.7157 19.0394 92.762 19.2244C92.8084 19.4093 92.7972 19.604 92.7301 19.7824C92.663 19.9609 92.543 20.1146 92.3862 20.2232C92.2294 20.3317 92.0433 20.3898 91.8526 20.3898L91.8526 20.3897Z" fill="#2BC97E"/>
<path d="M99.1521 14.7501C99.0031 14.7503 98.8561 14.715 98.7235 14.647C98.5908 14.579 98.4763 14.4803 98.3895 14.3592C97.9548 13.7541 97.3825 13.2609 96.7199 12.9204C96.0573 12.5798 95.3232 12.4016 94.5781 12.4004C94.3295 12.4004 94.091 12.3016 93.9152 12.1258C93.7394 11.95 93.6406 11.7115 93.6406 11.4629C93.6406 11.2143 93.7394 10.9758 93.9152 10.8C94.091 10.6242 94.3295 10.5254 94.5781 10.5254C95.6209 10.5269 96.6483 10.7762 97.5758 11.2527C98.5034 11.7292 99.3044 12.4193 99.9129 13.266C100.013 13.4061 100.073 13.5711 100.086 13.7429C100.099 13.9148 100.064 14.0869 99.9855 14.2403C99.9068 14.3936 99.7875 14.5224 99.6404 14.6123C99.4934 14.7022 99.3245 14.7499 99.1521 14.7501V14.7501Z" fill="#2BC97E"/>
<path d="M27.7892 31.9736C27.6956 31.6565 27.5283 31.3659 27.3011 31.1257C27.074 30.8854 26.7932 30.7022 26.4818 30.591C26.1704 30.4798 25.8371 30.4437 25.5091 30.4858C25.1811 30.5278 24.8677 30.6467 24.5944 30.8329C24.2532 30.2308 23.7409 29.7436 23.1223 29.4333C22.5038 29.123 21.807 29.0034 21.1204 29.0898C20.4338 29.1763 19.7884 29.4648 19.2661 29.9187C18.7438 30.3726 18.3681 30.9716 18.1868 31.6394C17.7633 31.3587 17.2715 31.1982 16.7639 31.1749C16.2563 31.1515 15.7519 31.2663 15.3044 31.5069C14.8569 31.7475 14.4829 32.105 14.2225 32.5412C13.962 32.9775 13.8247 33.4763 13.8252 33.9844V34.6875H29.2939V33.9844C29.2929 33.5319 29.1459 33.0919 28.8748 32.7296C28.6037 32.3674 28.223 32.1022 27.7892 31.9736Z" fill="white"/>
<path d="M29.293 35.625H13.8242C13.7011 35.625 13.5792 35.6008 13.4654 35.5537C13.3517 35.5066 13.2483 35.4375 13.1612 35.3505C13.0742 35.2634 13.0051 35.1601 12.958 35.0463C12.9109 34.9326 12.8867 34.8106 12.8867 34.6875V33.9844C12.8865 33.4012 13.0223 32.8259 13.2834 32.3044C13.5446 31.783 13.9238 31.3296 14.3909 30.9804C14.8581 30.6312 15.4002 30.3959 15.9743 30.2931C16.5484 30.1903 17.1385 30.2228 17.6978 30.3882C18.0446 29.7678 18.5358 29.2402 19.1299 28.8501C19.724 28.4601 20.4034 28.219 21.1105 28.1475C21.8176 28.0759 22.5316 28.1759 23.1918 28.4391C23.852 28.7022 24.439 29.1206 24.903 29.659C25.5955 29.4516 26.3392 29.4979 27.0005 29.7897C27.6618 30.0814 28.1974 30.5994 28.5111 31.2506C29.0272 31.4966 29.4629 31.8842 29.7673 32.3682C30.0716 32.8521 30.2323 33.4126 30.2305 33.9844V34.6875C30.2305 34.8106 30.2063 34.9326 30.1592 35.0463C30.1121 35.1601 30.043 35.2634 29.956 35.3505C29.8689 35.4376 29.7655 35.5066 29.6518 35.5537C29.538 35.6008 29.4161 35.625 29.293 35.625ZM14.7764 33.75H28.3317C28.2884 33.5436 28.19 33.3529 28.0468 33.1981C27.9036 33.0433 27.7211 32.9303 27.5187 32.8711C27.3705 32.8266 27.2357 32.746 27.1263 32.6367C27.0168 32.5273 26.9362 32.3925 26.8916 32.2444C26.8343 32.0725 26.7387 31.9158 26.612 31.7861C26.4853 31.6565 26.3309 31.5573 26.1603 31.496C25.9897 31.4348 25.8075 31.413 25.6273 31.4324C25.4471 31.4519 25.2736 31.5119 25.12 31.6081C25.0134 31.6806 24.893 31.7302 24.7663 31.754C24.6396 31.7778 24.5094 31.7752 24.3838 31.7463C24.2582 31.7175 24.1399 31.6631 24.0362 31.5865C23.9326 31.5098 23.8459 31.4126 23.7815 31.301C23.56 30.9062 23.2372 30.5776 22.8465 30.3489C22.4558 30.1203 22.0113 29.9998 21.5586 30C20.9974 30.0032 20.4527 30.1895 20.0072 30.5307C19.5616 30.8719 19.2397 31.3492 19.0903 31.8901C19.0507 32.0325 18.978 32.1636 18.8782 32.2726C18.7783 32.3815 18.654 32.4654 18.5156 32.5172C18.3771 32.569 18.2284 32.5873 18.0815 32.5707C17.9346 32.5541 17.7937 32.503 17.6704 32.4216C17.4046 32.2453 17.0982 32.1398 16.7803 32.115C16.4624 32.0903 16.1434 32.1471 15.8535 32.2802C15.5637 32.4132 15.3127 32.618 15.1242 32.8752C14.9357 33.1325 14.8159 33.4336 14.7764 33.75Z" fill="#2BC97E"/>
<path d="M28.5558 39.9259C28.6338 39.6616 28.7731 39.4195 28.9625 39.2193C29.1518 39.0191 29.3858 38.8664 29.6453 38.7738C29.9048 38.6811 30.1825 38.6511 30.4558 38.6861C30.7291 38.7211 30.9903 38.8202 31.2181 38.9753C31.5024 38.4735 31.9294 38.0676 32.4448 37.809C32.9602 37.5504 33.5409 37.4508 34.113 37.5228C34.6852 37.5948 35.2231 37.8352 35.6583 38.2135C36.0936 38.5918 36.4066 39.0909 36.5577 39.6474C36.9107 39.4135 37.3205 39.2797 37.7434 39.2603C38.1664 39.2408 38.5868 39.3364 38.9597 39.537C39.3327 39.7375 39.6443 40.0354 39.8613 40.3989C40.0784 40.7625 40.1928 41.1781 40.1924 41.6016V42.1875H27.3018V41.6016C27.3027 41.2245 27.4252 40.8578 27.6511 40.5559C27.877 40.254 28.1943 40.0331 28.5558 39.9259Z" fill="white"/>
<path d="M40.1914 43.125H27.3008C27.1777 43.125 27.0557 43.1008 26.942 43.0537C26.8282 43.0066 26.7249 42.9376 26.6378 42.8505C26.5507 42.7634 26.4817 42.6601 26.4346 42.5463C26.3875 42.4326 26.3633 42.3106 26.3633 42.1875V41.6016C26.3617 41.1049 26.4987 40.6176 26.759 40.1946C27.0192 39.7716 27.3924 39.4295 27.8364 39.207C28.0589 38.7631 28.4009 38.3901 28.8238 38.1299C29.2468 37.8697 29.7339 37.7328 30.2305 37.7344C30.4593 37.7343 30.6873 37.7632 30.9089 37.8204C31.3111 37.3774 31.8113 37.0345 32.3696 36.8193C32.9279 36.6041 33.5288 36.5224 34.1243 36.5808C34.7199 36.6393 35.2934 36.8362 35.7992 37.1559C36.3051 37.4756 36.7291 37.9091 37.0374 38.4219C37.5219 38.2985 38.0281 38.2874 38.5175 38.3894C39.0068 38.4914 39.4664 38.7039 39.8611 39.0107C40.2559 39.3174 40.5753 39.7103 40.795 40.1593C41.0147 40.6084 41.1289 41.1017 41.1289 41.6016V42.1875C41.129 42.3106 41.1047 42.4326 41.0576 42.5463C41.0105 42.6601 40.9415 42.7634 40.8544 42.8505C40.7673 42.9376 40.664 43.0066 40.5502 43.0537C40.4365 43.1008 40.3145 43.125 40.1914 43.125ZM28.3188 41.25H39.2091C39.1534 41.0331 39.0466 40.8326 38.8977 40.6653C38.7487 40.4981 38.5619 40.3689 38.3528 40.2886C38.1437 40.2083 37.9185 40.1792 37.6958 40.2038C37.4732 40.2283 37.2597 40.3058 37.0731 40.4297C36.9498 40.5111 36.8089 40.5622 36.662 40.5788C36.5151 40.5955 36.3664 40.5771 36.2279 40.5253C36.0895 40.4735 35.9652 40.3897 35.8653 40.2807C35.7655 40.1717 35.6927 40.0407 35.6532 39.8982C35.5378 39.4803 35.2891 39.1114 34.9448 38.8477C34.6006 38.5841 34.1797 38.44 33.7461 38.4375C33.3964 38.4377 33.0531 38.531 32.7514 38.7078C32.4497 38.8847 32.2005 39.1386 32.0295 39.4437C31.965 39.5554 31.8782 39.6525 31.7745 39.7292C31.6707 39.8058 31.5523 39.8602 31.4266 39.889C31.3009 39.9177 31.1706 39.9203 31.0439 39.8964C30.9171 39.8726 30.7967 39.8229 30.69 39.7504C30.5826 39.6835 30.4613 39.6418 30.3354 39.6285C30.2095 39.6152 30.0823 39.6306 29.9632 39.6735C29.8441 39.7164 29.7362 39.7857 29.6477 39.8763C29.5593 39.9668 29.4924 40.0762 29.4523 40.1963C29.4076 40.3444 29.327 40.4793 29.2176 40.5887C29.1081 40.6981 28.9733 40.7788 28.8251 40.8234C28.7159 40.8557 28.6145 40.9103 28.5273 40.9837C28.4402 41.0571 28.3692 41.1478 28.3188 41.25Z" fill="#2BC97E"/>
<path d="M92.3058 84.9259C92.3838 84.6616 92.5231 84.4195 92.7125 84.2193C92.9018 84.0191 93.1358 83.8664 93.3953 83.7738C93.6548 83.6811 93.9325 83.6511 94.2058 83.6861C94.4791 83.7211 94.7403 83.8202 94.9681 83.9752C95.2524 83.4735 95.6794 83.0676 96.1948 82.809C96.7102 82.5504 97.2909 82.4508 97.863 82.5228C98.4352 82.5948 98.9731 82.8352 99.4083 83.2135C99.8436 83.5918 100.157 84.0909 100.308 84.6474C100.661 84.4135 101.07 84.2797 101.493 84.2603C101.916 84.2408 102.337 84.3364 102.71 84.537C103.083 84.7375 103.394 85.0354 103.611 85.3989C103.828 85.7625 103.943 86.1781 103.942 86.6016V87.1875H91.0518V86.6016C91.0527 86.2245 91.1752 85.8578 91.4011 85.5559C91.627 85.254 91.9443 85.0331 92.3058 84.9259Z" fill="white"/>
<path d="M103.941 88.125H91.0508C90.9277 88.125 90.8057 88.1008 90.692 88.0537C90.5782 88.0066 90.4749 87.9376 90.3878 87.8505C90.3007 87.7634 90.2317 87.6601 90.1846 87.5463C90.1375 87.4326 90.1133 87.3106 90.1133 87.1875V86.6016C90.1117 86.1049 90.2487 85.6176 90.509 85.1946C90.7692 84.7716 91.1423 84.4295 91.5864 84.207C91.8089 83.7631 92.1509 83.3901 92.5738 83.1299C92.9968 82.8698 93.4839 82.7328 93.9805 82.7344C94.2093 82.7343 94.4373 82.7632 94.6589 82.8204C95.0611 82.3774 95.5613 82.0345 96.1196 81.8193C96.6779 81.6041 97.2788 81.5224 97.8743 81.5808C98.4698 81.6393 99.0434 81.8362 99.5492 82.1559C100.055 82.4756 100.479 82.9091 100.787 83.4219C101.272 83.2985 101.778 83.2874 102.267 83.3894C102.757 83.4914 103.216 83.7039 103.611 84.0107C104.006 84.3174 104.325 84.7103 104.545 85.1593C104.765 85.6084 104.879 86.1017 104.879 86.6016V87.1875C104.879 87.3106 104.855 87.4326 104.808 87.5463C104.761 87.6601 104.691 87.7634 104.604 87.8505C104.517 87.9376 104.414 88.0066 104.3 88.0537C104.186 88.1008 104.065 88.125 103.941 88.125ZM92.0688 86.25H102.959C102.903 86.0331 102.797 85.8326 102.648 85.6653C102.499 85.4981 102.312 85.3689 102.103 85.2886C101.894 85.2083 101.668 85.1792 101.446 85.2038C101.223 85.2283 101.01 85.3058 100.823 85.4297C100.7 85.5111 100.559 85.5622 100.412 85.5788C100.265 85.5955 100.116 85.5771 99.9779 85.5253C99.8394 85.4735 99.7152 85.3897 99.6153 85.2807C99.5154 85.1717 99.4427 85.0407 99.4031 84.8982C99.2877 84.4803 99.039 84.1114 98.6948 83.8477C98.3506 83.5841 97.9297 83.44 97.4961 83.4375C97.1464 83.4377 96.8031 83.531 96.5014 83.7079C96.1997 83.8847 95.9506 84.1387 95.7795 84.4437C95.7151 84.5554 95.6283 84.6525 95.5245 84.7292C95.4208 84.8058 95.3024 84.8602 95.1767 84.889C95.051 84.9178 94.9207 84.9203 94.794 84.8964C94.6672 84.8726 94.5468 84.8229 94.4401 84.7504C94.3327 84.6833 94.2114 84.6414 94.0855 84.628C93.9595 84.6146 93.8321 84.6299 93.713 84.6728C93.5938 84.7157 93.4859 84.7852 93.3974 84.8758C93.309 84.9665 93.2422 85.0761 93.2023 85.1963C93.1576 85.3444 93.077 85.4793 92.9676 85.5887C92.8581 85.6981 92.7233 85.7788 92.5751 85.8234C92.4658 85.8557 92.3644 85.9103 92.2773 85.9837C92.1902 86.0571 92.1192 86.1478 92.0688 86.25Z" fill="#2BC97E"/>
<path d="M15.9375 61.875C15.8144 61.875 15.6925 61.8508 15.5787 61.8037C15.4649 61.7566 15.3616 61.6875 15.2745 61.6005C15.1875 61.5134 15.1184 61.4101 15.0713 61.2963C15.0242 61.1825 15 61.0606 15 60.9375V57.1875C15 56.9389 15.0988 56.7004 15.2746 56.5246C15.4504 56.3488 15.6889 56.25 15.9375 56.25C16.1861 56.25 16.4246 56.3488 16.6004 56.5246C16.7762 56.7004 16.875 56.9389 16.875 57.1875V60.9375C16.875 61.0606 16.8508 61.1825 16.8037 61.2963C16.7566 61.4101 16.6875 61.5134 16.6005 61.6005C16.5134 61.6875 16.4101 61.7566 16.2963 61.8037C16.1825 61.8508 16.0606 61.875 15.9375 61.875Z" fill="#2BC97E"/>
<path d="M18.75 54.6094C18.7176 55.3237 18.4034 55.9961 17.8762 56.4793C17.3491 56.9625 16.652 57.2172 15.9375 57.1875C15.223 57.2172 14.5259 56.9626 13.9988 56.4793C13.4716 55.9961 13.1574 55.3237 13.125 54.6094C13.125 53.1855 14.3842 46.875 15.9375 46.875C17.4908 46.875 18.75 53.1855 18.75 54.6094Z" fill="white"/>
<path d="M15.9375 58.125C14.9746 58.1541 14.0393 57.8004 13.3365 57.1416C12.6337 56.4827 12.2206 55.5722 12.1875 54.6094C12.1875 54.5229 12.9996 45.9375 15.9375 45.9375C18.8754 45.9375 19.6875 54.5229 19.6875 54.6094C19.6544 55.5722 19.2413 56.4827 18.5385 57.1416C17.8357 57.8004 16.9004 58.1541 15.9375 58.125ZM15.9375 47.8958C15.1456 48.7514 14.0625 53.0621 14.0625 54.6094C14.0962 55.0746 14.3119 55.5077 14.663 55.8149C15.014 56.122 15.4719 56.2784 15.9375 56.25C16.4031 56.2784 16.861 56.122 17.212 55.8149C17.5631 55.5077 17.7788 55.0746 17.8125 54.6094C17.8125 53.0621 16.7294 48.7514 15.9375 47.8958Z" fill="#2BC97E"/>
<path d="M14.4933 63.3634C14.5713 63.0991 14.7106 62.857 14.9 62.6568C15.0893 62.4566 15.3233 62.3039 15.5828 62.2113C15.8423 62.1186 16.12 62.0886 16.3933 62.1236C16.6666 62.1586 16.9278 62.2577 17.1556 62.4127C17.4399 61.911 17.8669 61.5051 18.3823 61.2465C18.8977 60.9879 19.4784 60.8883 20.0505 60.9603C20.6227 61.0323 21.1606 61.2727 21.5958 61.651C22.0311 62.0293 22.3441 62.5284 22.4952 63.0849C22.8482 62.851 23.258 62.7172 23.6809 62.6978C24.1039 62.6783 24.5243 62.7739 24.8972 62.9745C25.2702 63.175 25.5818 63.4729 25.7988 63.8364C26.0159 64.2 26.1303 64.6156 26.1299 65.0391V65.625H13.2393V65.0391C13.2402 64.662 13.3627 64.2953 13.5886 63.9934C13.8145 63.6915 14.1318 63.4706 14.4933 63.3634Z" fill="white"/>
<path d="M26.1289 66.5625H13.2383C13.1152 66.5625 12.9932 66.5383 12.8795 66.4912C12.7657 66.4441 12.6624 66.3751 12.5753 66.288C12.4882 66.2009 12.4192 66.0976 12.3721 65.9838C12.325 65.8701 12.3008 65.7481 12.3008 65.625V65.0391C12.2992 64.5424 12.4362 64.0551 12.6965 63.6321C12.9567 63.2091 13.3298 62.867 13.7739 62.6445C13.9964 62.2006 14.3384 61.8276 14.7613 61.5674C15.1843 61.3073 15.6714 61.1703 16.168 61.1719C16.3968 61.1718 16.6248 61.2007 16.8464 61.2579C17.2486 60.8149 17.7488 60.472 18.3071 60.2568C18.8654 60.0416 19.4663 59.9599 20.0618 60.0183C20.6574 60.0768 21.2309 60.2737 21.7367 60.5934C22.2426 60.9131 22.6666 61.3466 22.9749 61.8594C23.4594 61.736 23.9656 61.7249 24.455 61.8269C24.9443 61.9289 25.4039 62.1414 25.7986 62.4482C26.1934 62.7549 26.5128 63.1478 26.7325 63.5968C26.9522 64.0459 27.0664 64.5392 27.0664 65.0391V65.625C27.0665 65.7481 27.0422 65.8701 26.9951 65.9838C26.948 66.0976 26.879 66.2009 26.7919 66.288C26.7048 66.3751 26.6015 66.4441 26.4877 66.4912C26.374 66.5383 26.252 66.5625 26.1289 66.5625ZM14.2563 64.6875H25.1466C25.0909 64.4706 24.9841 64.2701 24.8352 64.1028C24.6862 63.9356 24.4994 63.8064 24.2903 63.7261C24.0812 63.6458 23.856 63.6167 23.6333 63.6413C23.4107 63.6658 23.1972 63.7433 23.0106 63.8672C22.8873 63.9486 22.7464 63.9997 22.5995 64.0163C22.4526 64.033 22.3039 64.0146 22.1654 63.9628C22.027 63.911 21.9027 63.8272 21.8028 63.7182C21.703 63.6092 21.6302 63.4782 21.5907 63.3357C21.4753 62.9178 21.2266 62.5489 20.8823 62.2852C20.5381 62.0216 20.1172 61.8775 19.6836 61.875C19.3339 61.8752 18.9906 61.9685 18.6889 62.1454C18.3872 62.3222 18.1381 62.5762 17.967 62.8812C17.9026 62.9929 17.8158 63.09 17.712 63.1667C17.6083 63.2433 17.4899 63.2977 17.3642 63.3265C17.2385 63.3553 17.1082 63.3578 16.9815 63.3339C16.8547 63.3101 16.7343 63.2604 16.6276 63.1879C16.5202 63.1207 16.3989 63.0789 16.273 63.0654C16.147 63.052 16.0196 63.0673 15.9004 63.1102C15.7812 63.1532 15.6734 63.2226 15.5849 63.3133C15.4964 63.404 15.4297 63.5135 15.3898 63.6338C15.3451 63.7819 15.2645 63.9168 15.1551 64.0262C15.0456 64.1356 14.9108 64.2163 14.7626 64.2609C14.6534 64.2932 14.5519 64.3478 14.4648 64.4212C14.3777 64.4946 14.3067 64.5853 14.2563 64.6875Z" fill="#2BC97E"/>
<path d="M38.4375 40.3125C38.3144 40.3125 38.1925 40.2883 38.0787 40.2412C37.9649 40.1941 37.8616 40.125 37.7745 40.038C37.6875 39.9509 37.6184 39.8476 37.5713 39.7338C37.5242 39.62 37.5 39.4981 37.5 39.375V35.625C37.5 35.3764 37.5988 35.1379 37.7746 34.9621C37.9504 34.7863 38.1889 34.6875 38.4375 34.6875C38.6861 34.6875 38.9246 34.7863 39.1004 34.9621C39.2762 35.1379 39.375 35.3764 39.375 35.625V39.375C39.375 39.4981 39.3508 39.62 39.3037 39.7338C39.2566 39.8476 39.1875 39.9509 39.1005 40.038C39.0134 40.125 38.9101 40.1941 38.7963 40.2412C38.6825 40.2883 38.5606 40.3125 38.4375 40.3125Z" fill="#2BC97E"/>
<path d="M41.25 33.0469C41.1887 33.7505 40.8659 34.4057 40.3452 34.883C39.8245 35.3603 39.1438 35.625 38.4375 35.625C37.7312 35.625 37.0505 35.3603 36.5298 34.883C36.0091 34.4057 35.6863 33.7505 35.625 33.0469C35.625 31.623 36.8842 25.3125 38.4375 25.3125C39.9908 25.3125 41.25 31.623 41.25 33.0469Z" fill="white"/>
<path d="M38.4375 36.5625C37.4746 36.5916 36.5393 36.2379 35.8365 35.5791C35.1337 34.9202 34.7206 34.0097 34.6875 33.0469C34.6875 32.9604 35.4996 24.375 38.4375 24.375C41.3754 24.375 42.1875 32.9604 42.1875 33.0469C42.1544 34.0097 41.7413 34.9202 41.0385 35.5791C40.3357 36.2379 39.4004 36.5916 38.4375 36.5625ZM38.4375 26.3333C37.6456 27.1889 36.5625 31.4996 36.5625 33.0469C36.6233 33.501 36.8469 33.9177 37.1918 34.2194C37.5366 34.5212 37.9793 34.6875 38.4375 34.6875C38.8957 34.6875 39.3384 34.5212 39.6832 34.2194C40.0281 33.9177 40.2517 33.501 40.3125 33.0469C40.3125 31.4996 39.2294 27.1889 38.4375 26.3333Z" fill="#2BC97E"/>
</g>
<path d="M19.6885 108.753V115.315C19.6885 115.812 19.886 116.289 20.2377 116.641C20.5893 116.993 21.0662 117.19 21.5635 117.19H29.0635C29.5608 117.19 30.0377 116.993 30.3893 116.641C30.7409 116.289 30.9385 115.812 30.9385 115.315V108.753H19.6885Z" fill="white"/>
<path d="M21.5762 112.5H19.7021C19.4535 112.5 19.2151 112.402 19.0392 112.226C18.8634 112.05 18.7646 111.812 18.7646 111.563C18.7646 111.314 18.8634 111.076 19.0392 110.9C19.2151 110.724 19.4535 110.625 19.7021 110.625H21.5762C21.8249 110.625 22.0633 110.724 22.2391 110.9C22.4149 111.076 22.5137 111.314 22.5137 111.563C22.5137 111.812 22.4149 112.05 22.2391 112.226C22.0633 112.402 21.8249 112.5 21.5762 112.5Z" fill="#2BC97E"/>
<path d="M21.5762 115.313H19.7021C19.4535 115.313 19.2151 115.215 19.0392 115.039C18.8634 114.863 18.7646 114.625 18.7646 114.376C18.7646 114.127 18.8634 113.889 19.0392 113.713C19.2151 113.537 19.4535 113.438 19.7021 113.438H21.5762C21.8249 113.438 22.0633 113.537 22.2391 113.713C22.4149 113.889 22.5137 114.127 22.5137 114.376C22.5137 114.625 22.4149 114.863 22.2391 115.039C22.0633 115.215 21.8249 115.313 21.5762 115.313Z" fill="#2BC97E"/>
<path d="M30.9522 115.313H29.0781C28.8295 115.313 28.591 115.215 28.4152 115.039C28.2394 114.863 28.1406 114.625 28.1406 114.376C28.1406 114.127 28.2394 113.889 28.4152 113.713C28.591 113.537 28.8295 113.438 29.0781 113.438H30.9522C31.2008 113.438 31.4393 113.537 31.6151 113.713C31.7909 113.889 31.8897 114.127 31.8897 114.376C31.8897 114.625 31.7909 114.863 31.6151 115.039C31.4393 115.215 31.2008 115.313 30.9522 115.313Z" fill="#2BC97E"/>
<path d="M30.9522 112.5H29.0781C28.8295 112.5 28.591 112.402 28.4152 112.226C28.2394 112.05 28.1406 111.812 28.1406 111.563C28.1406 111.314 28.2394 111.076 28.4152 110.9C28.591 110.724 28.8295 110.625 29.0781 110.625H30.9522C31.2008 110.625 31.4393 110.724 31.6151 110.9C31.7909 111.076 31.8897 111.314 31.8897 111.563C31.8897 111.812 31.7909 112.05 31.6151 112.226C31.4393 112.402 31.2008 112.5 30.9522 112.5Z" fill="#2BC97E"/>
<path d="M28.127 118.128H22.502C21.5077 118.127 20.5545 117.731 19.8515 117.028C19.1484 116.325 18.753 115.372 18.752 114.378V108.753C18.7519 108.63 18.7761 108.508 18.8232 108.394C18.8704 108.28 18.9394 108.177 19.0265 108.09C19.1135 108.003 19.2169 107.934 19.3306 107.886C19.4444 107.839 19.5663 107.815 19.6895 107.815H30.9395C31.0626 107.815 31.1845 107.839 31.2983 107.886C31.412 107.934 31.5154 108.003 31.6024 108.09C31.6895 108.177 31.7586 108.28 31.8057 108.394C31.8528 108.508 31.877 108.63 31.877 108.753V114.378C31.8759 115.372 31.4805 116.325 30.7774 117.028C30.0744 117.731 29.1212 118.127 28.127 118.128ZM20.627 109.69V114.378C20.6275 114.875 20.8252 115.351 21.1768 115.703C21.5283 116.054 22.0048 116.252 22.502 116.253H28.127C28.6241 116.252 29.1006 116.054 29.4522 115.703C29.8037 115.351 30.0014 114.875 30.002 114.378V109.69H20.627Z" fill="#2BC97E"/>
<path d="M81.5693 108.753V115.315C81.5693 115.812 81.7669 116.289 82.1185 116.641C82.4701 116.993 82.9471 117.19 83.4443 117.19H90.9443C91.4416 117.19 91.9185 116.993 92.2702 116.641C92.6218 116.289 92.8193 115.812 92.8193 115.315V108.753H81.5693Z" fill="white"/>
<path d="M83.458 112.5H81.583C81.3344 112.5 81.0959 112.402 80.9201 112.226C80.7443 112.05 80.6455 111.812 80.6455 111.563C80.6455 111.314 80.7443 111.076 80.9201 110.9C81.0959 110.724 81.3344 110.625 81.583 110.625H83.458C83.7066 110.625 83.9451 110.724 84.1209 110.9C84.2967 111.076 84.3955 111.314 84.3955 111.563C84.3955 111.812 84.2967 112.05 84.1209 112.226C83.9451 112.402 83.7066 112.5 83.458 112.5Z" fill="#2BC97E"/>
<path d="M83.458 115.313H81.583C81.3344 115.313 81.0959 115.215 80.9201 115.039C80.7443 114.863 80.6455 114.625 80.6455 114.376C80.6455 114.127 80.7443 113.889 80.9201 113.713C81.0959 113.537 81.3344 113.438 81.583 113.438H83.458C83.7066 113.438 83.9451 113.537 84.1209 113.713C84.2967 113.889 84.3955 114.127 84.3955 114.376C84.3955 114.625 84.2967 114.863 84.1209 115.039C83.9451 115.215 83.7066 115.313 83.458 115.313Z" fill="#2BC97E"/>
<path d="M92.834 115.313H90.959C90.7103 115.313 90.4719 115.215 90.2961 115.039C90.1203 114.863 90.0215 114.625 90.0215 114.376C90.0215 114.127 90.1203 113.889 90.2961 113.713C90.4719 113.537 90.7103 113.438 90.959 113.438H92.834C93.0826 113.438 93.3211 113.537 93.4969 113.713C93.6727 113.889 93.7715 114.127 93.7715 114.376C93.7715 114.625 93.6727 114.863 93.4969 115.039C93.3211 115.215 93.0826 115.313 92.834 115.313Z" fill="#2BC97E"/>
<path d="M92.834 112.5H90.959C90.7103 112.5 90.4719 112.402 90.2961 112.226C90.1203 112.05 90.0215 111.812 90.0215 111.563C90.0215 111.314 90.1203 111.076 90.2961 110.9C90.4719 110.724 90.7103 110.625 90.959 110.625H92.834C93.0826 110.625 93.3211 110.724 93.4969 110.9C93.6727 111.076 93.7715 111.314 93.7715 111.563C93.7715 111.812 93.6727 112.05 93.4969 112.226C93.3211 112.402 93.0826 112.5 92.834 112.5Z" fill="#2BC97E"/>
<path d="M90.0078 118.128H84.3828C83.3886 118.127 82.4354 117.731 81.7323 117.028C81.0293 116.325 80.6339 115.372 80.6328 114.378V108.753C80.6328 108.63 80.657 108.508 80.7041 108.394C80.7512 108.28 80.8203 108.177 80.9073 108.09C80.9944 108.003 81.0977 107.934 81.2115 107.886C81.3253 107.839 81.4472 107.815 81.5703 107.815H92.8203C92.9434 107.815 93.0654 107.839 93.1791 107.886C93.2929 107.934 93.3962 108.003 93.4833 108.09C93.5704 108.177 93.6394 108.28 93.6865 108.394C93.7336 108.508 93.7578 108.63 93.7578 108.753V114.378C93.7568 115.372 93.3613 116.325 92.6583 117.028C91.9553 117.731 91.002 118.127 90.0078 118.128ZM82.5078 109.69V114.378C82.5084 114.875 82.7061 115.351 83.0576 115.703C83.4091 116.054 83.8857 116.252 84.3828 116.253H90.0078C90.5049 116.252 90.9815 116.054 91.333 115.703C91.6845 115.351 91.8822 114.875 91.8828 114.378V109.69H82.5078Z" fill="#2BC97E"/>
<path d="M83.7572 69.5886L87.1885 77.8152L83.94 79.4464C82.375 80.2218 80.6523 80.626 78.9057 80.6277H33.5963C31.8497 80.626 30.127 80.2218 28.5619 79.4464L25.3135 77.8152L28.7447 69.5886C29.8132 67.027 31.6159 64.8389 33.9256 63.2999C36.2354 61.7609 38.9489 60.9399 41.7244 60.9402H70.7775C73.5531 60.9399 76.2666 61.7609 78.5763 63.2999C80.8861 64.8389 82.6887 67.027 83.7572 69.5886Z" fill="white"/>
<path d="M95.626 92.0746V102.19C95.626 102.688 95.4284 103.165 95.0768 103.516C94.7252 103.868 94.2483 104.065 93.751 104.065H18.751C18.2537 104.065 17.7768 103.868 17.4252 103.516C17.0735 103.165 16.876 102.688 16.876 102.19V92.0746C16.8757 90.2279 17.2394 88.3993 17.9464 86.6933C18.6534 84.9873 19.6898 83.4375 20.9963 82.1324L25.3135 77.8152L28.5619 79.4464C30.127 80.2218 31.8497 80.626 33.5963 80.6277H78.9057C80.6523 80.626 82.375 80.2218 83.94 79.4464L87.1885 77.8152L91.5057 82.1324C92.8121 83.4375 93.8485 84.9873 94.5555 86.6933C95.2625 88.3993 95.6263 90.2279 95.626 92.0746Z" fill="white"/>
<path d="M93.752 105.003H18.752C18.0063 105.002 17.2914 104.705 16.7642 104.178C16.2369 103.651 15.9403 102.936 15.9395 102.19V92.0778C15.9341 90.1072 16.3195 88.155 17.0735 86.3344C17.8275 84.5137 18.9351 82.8607 20.3322 81.4709L24.6517 77.1524C24.7387 77.0653 24.8421 76.9963 24.9558 76.9492C25.0695 76.902 25.1914 76.8778 25.3145 76.8778C25.4376 76.8778 25.5595 76.9021 25.6733 76.9492C25.787 76.9963 25.8903 77.0653 25.9774 77.1524C26.0644 77.2394 26.1335 77.3428 26.1806 77.4565C26.2277 77.5702 26.2519 77.6921 26.2519 77.8153C26.2519 77.9384 26.2277 78.0603 26.1806 78.174C26.1335 78.2877 26.0644 78.3911 25.9774 78.4781L21.6579 82.7967C20.4355 84.0128 19.4664 85.4592 18.8067 87.0523C18.147 88.6454 17.8098 90.3535 17.8145 92.0778V102.19C17.8148 102.439 17.9136 102.677 18.0894 102.853C18.2652 103.029 18.5035 103.128 18.752 103.128H93.752C94.0006 103.128 94.2389 103.029 94.4147 102.853C94.5904 102.677 94.6893 102.439 94.6895 102.19V92.0773C94.6941 90.353 94.3568 88.645 93.6969 87.0519C93.037 85.4589 92.0678 84.0126 90.8452 82.7966L86.5267 78.4781C86.3509 78.3023 86.2521 78.0639 86.2521 77.8153C86.2521 77.5666 86.3509 77.3282 86.5267 77.1524C86.7025 76.9766 86.9409 76.8778 87.1895 76.8778C87.4381 76.8778 87.6766 76.9766 87.8524 77.1524L92.1709 81.4709C93.5682 82.8605 94.6759 84.5134 95.4301 86.334C96.1843 88.1546 96.5699 90.1067 96.5645 92.0773V102.19C96.5637 102.936 96.2671 103.651 95.7399 104.178C95.2126 104.705 94.4977 105.002 93.752 105.003Z" fill="#2BC97E"/>
<path d="M87.1893 78.7532C87.0042 78.7531 86.8233 78.6982 86.6693 78.5955C86.5154 78.4928 86.3953 78.3468 86.3241 78.1759L82.8982 69.955C81.9055 67.5603 80.2242 65.5143 78.0674 64.0764C75.9105 62.6384 73.3753 61.8732 70.783 61.8778H41.7197C39.1274 61.8732 36.5922 62.6384 34.4353 64.0764C32.2785 65.5143 30.5971 67.5603 29.6045 69.955L26.1795 78.1759C26.0838 78.4054 25.9009 78.5874 25.671 78.682C25.4411 78.7767 25.183 78.7761 24.9536 78.6804C24.7241 78.5847 24.5421 78.4018 24.4475 78.1719C24.3529 77.942 24.3535 77.6839 24.4491 77.4545L27.8741 69.2335C29.0086 66.4969 30.9301 64.1587 33.395 62.5154C35.8599 60.872 38.7572 59.9975 41.7197 60.0027H70.7831C73.7456 59.9975 76.6429 60.872 79.1078 62.5154C81.5727 64.1587 83.4941 66.4969 84.6286 69.2335L88.0545 77.4544C88.1137 77.5969 88.1368 77.7518 88.1219 77.9054C88.1069 78.059 88.0544 78.2065 87.9688 78.3349C87.8833 78.4633 87.7674 78.5686 87.6314 78.6416C87.4955 78.7145 87.3436 78.7529 87.1893 78.7531L87.1893 78.7532Z" fill="#2BC97E"/>
<path d="M78.9054 81.5652H33.5968C31.7058 81.5621 29.8408 81.1246 28.1458 80.2862L24.8938 78.6529C24.7835 78.5979 24.6852 78.5217 24.6044 78.4286C24.5236 78.3355 24.462 78.2274 24.423 78.1105C24.3841 77.9935 24.3686 77.8701 24.3774 77.7471C24.3862 77.6242 24.4192 77.5042 24.4745 77.394C24.5298 77.2839 24.6062 77.1857 24.6995 77.1051C24.7927 77.0245 24.901 76.9631 25.018 76.9245C25.135 76.8858 25.2585 76.8705 25.3814 76.8796C25.5043 76.8887 25.6242 76.922 25.7343 76.9775L28.9825 78.6085C30.4176 79.3174 31.9962 79.6875 33.5968 79.6902H78.9054C80.5074 79.6874 82.0873 79.3165 83.5233 78.6062L86.7688 76.9775C86.8789 76.922 86.9988 76.8887 87.1217 76.8796C87.2446 76.8705 87.3681 76.8858 87.4851 76.9245C87.6021 76.9631 87.7104 77.0245 87.8036 77.1051C87.8969 77.1857 87.9733 77.2839 88.0286 77.394C88.0839 77.5042 88.1169 77.6242 88.1257 77.7471C88.1345 77.8701 88.119 77.9935 88.0801 78.1105C88.0411 78.2274 87.9795 78.3355 87.8987 78.4286C87.8179 78.5217 87.7196 78.5979 87.6093 78.6529L84.3601 80.2839C82.6641 81.1237 80.7978 81.5621 78.9054 81.5652Z" fill="#2BC97E"/>
<path d="M79.8755 93.75H88.8722C89.6347 93.781 90.3785 93.5086 90.9406 92.9924C91.5027 92.4762 91.8373 91.7583 91.8711 90.9959V89.9419C91.8505 89.5367 91.7455 89.1402 91.5629 88.7779C91.3803 88.4156 91.1241 88.0953 90.8107 87.8377C90.4972 87.58 90.1335 87.3906 89.7426 87.2816C89.3518 87.1726 88.9425 87.1464 88.541 87.2046L79.6656 88.1103C78.8601 88.185 78.1168 88.5748 77.5975 89.195L77.4763 89.3434C75.9936 91.1591 77.4042 93.75 79.8755 93.75Z" fill="white"/>
<path d="M88.872 94.6875H79.8751C79.1286 94.7035 78.3931 94.5055 77.7555 94.1169C77.1179 93.7283 76.6049 93.1653 76.277 92.4944C75.9848 91.8915 75.8739 91.2168 75.958 90.5521C76.042 89.8875 76.3173 89.2615 76.7504 88.7504L76.8703 88.603C77.548 87.7916 78.5179 87.2796 79.5702 87.178L88.4453 86.272C89.0134 86.2107 89.588 86.2691 90.1322 86.4433C90.6763 86.6175 91.178 86.9038 91.6048 87.2837C91.9822 87.6163 92.2846 88.0253 92.4922 88.4835C92.6997 88.9418 92.8076 89.4389 92.8087 89.9419V90.9961C92.774 92.007 92.3403 92.9629 91.6025 93.6547C90.8647 94.3465 89.8829 94.7179 88.872 94.6875ZM88.8756 88.125C88.7959 88.125 88.7154 88.1292 88.6357 88.137L79.7606 89.0429C79.2022 89.0933 78.6861 89.3611 78.3232 89.7886L78.2033 89.936C77.9964 90.1732 77.8639 90.4661 77.8226 90.7782C77.7812 91.0903 77.8328 91.4076 77.9708 91.6906C78.1477 92.0401 78.4211 92.3316 78.7586 92.5304C79.0961 92.7293 79.4836 92.8272 79.8751 92.8125H88.872C89.3856 92.8424 89.8903 92.6684 90.2763 92.3283C90.6624 91.9882 90.8986 91.5095 90.9337 90.9961V89.9419C90.9313 89.7013 90.8778 89.464 90.7768 89.2457C90.6758 89.0273 90.5296 88.8329 90.3478 88.6753C89.942 88.3161 89.4175 88.1201 88.8756 88.125Z" fill="#2BC97E"/>
<path d="M32.6168 93.7499H23.6201C22.8575 93.781 22.1137 93.5086 21.5516 92.9924C20.9895 92.4762 20.6549 91.7583 20.6211 90.9959V89.9419C20.6417 89.5367 20.7467 89.1402 20.9293 88.7779C21.1119 88.4156 21.3681 88.0953 21.6816 87.8377C21.995 87.58 22.3588 87.3906 22.7496 87.2816C23.1405 87.1726 23.5497 87.1464 23.9513 87.2046L32.8267 88.1103C33.6321 88.185 34.3754 88.5748 34.8947 89.195L35.0158 89.3434C36.4987 91.1591 35.088 93.7499 32.6168 93.7499Z" fill="white"/>
<path d="M32.6163 94.6875H23.6195C22.6086 94.7177 21.627 94.3462 20.8894 93.6544C20.1518 92.9626 19.7182 92.0068 19.6836 90.9961V89.9419C19.6846 89.4388 19.7925 88.9417 20 88.4834C20.2076 88.0252 20.5101 87.6162 20.8875 87.2836C21.3142 86.9038 21.8157 86.6176 22.3597 86.4434C22.9037 86.2691 23.4781 86.2107 24.0461 86.272L32.9212 87.1779C33.9735 87.2794 34.9435 87.7913 35.6211 88.6029L35.7402 88.7485C36.1739 89.2596 36.4497 89.8859 36.5339 90.5509C36.6181 91.216 36.5071 91.8912 36.2144 92.4943C35.8866 93.1652 35.3735 93.7282 34.7359 94.1169C34.0984 94.5055 33.3628 94.7035 32.6163 94.6875ZM23.6158 88.125C23.0743 88.1203 22.5502 88.3161 22.1445 88.6748C21.9627 88.8325 21.8165 89.027 21.7155 89.2454C21.6145 89.4639 21.561 89.7012 21.5586 89.9419V90.9961C21.5936 91.5093 21.8297 91.9879 22.2156 92.328C22.6014 92.6681 23.1059 92.8422 23.6195 92.8125H32.6163C33.0078 92.8272 33.3953 92.7293 33.7328 92.5304C34.0703 92.3315 34.3437 92.0401 34.5206 91.6905C34.6585 91.4078 34.7102 91.0907 34.6691 90.7787C34.6281 90.4668 34.4962 90.1739 34.2899 89.9364L34.17 89.7904C33.8072 89.3615 33.2902 89.093 32.7308 89.0428L23.8556 88.1369C23.7751 88.1291 23.6954 88.125 23.6158 88.125H23.6158Z" fill="#2BC97E"/>
<path d="M22.5017 75.0027V73.5964C22.5017 73.4118 22.4653 73.2289 22.3947 73.0583C22.324 72.8876 22.2204 72.7326 22.0898 72.602C21.9593 72.4715 21.8042 72.3679 21.6336 72.2972C21.463 72.2265 21.2801 72.1902 21.0954 72.1902H17.3486C16.9757 72.1902 16.618 72.3383 16.3543 72.6021C16.0905 72.8658 15.9424 73.2235 15.9424 73.5964V76.4089C15.9424 76.7819 16.0905 77.1396 16.3543 77.4033C16.618 77.667 16.9757 77.8152 17.3486 77.8152H25.3142C24.5683 77.8152 23.8529 77.5189 23.3255 76.9914C22.798 76.464 22.5017 75.7486 22.5017 75.0027Z" fill="white"/>
<path d="M90.001 75.0027V73.5964C90.001 73.2235 90.1491 72.8658 90.4129 72.6021C90.6766 72.3383 91.0343 72.1902 91.4072 72.1902H95.1553C95.3399 72.1902 95.5228 72.2265 95.6934 72.2972C95.864 72.3679 96.0191 72.4715 96.1497 72.602C96.2802 72.7326 96.3838 72.8877 96.4545 73.0583C96.5252 73.2289 96.5615 73.4118 96.5615 73.5964V76.4089C96.5615 76.7819 96.4134 77.1396 96.1496 77.4033C95.8859 77.667 95.5282 77.8152 95.1553 77.8152H87.1885C87.9344 77.8152 88.6498 77.5189 89.1772 76.9914C89.7047 76.464 90.001 75.7486 90.001 75.0027Z" fill="white"/>
<path d="M25.3147 78.7527H17.3486C16.7272 78.752 16.1315 78.5049 15.6921 78.0655C15.2527 77.6261 15.0055 77.0303 15.0049 76.4089V73.5964C15.0055 72.975 15.2527 72.3793 15.6921 71.9399C16.1315 71.5005 16.7272 71.2533 17.3486 71.2527H21.0959C21.7173 71.2533 22.3131 71.5005 22.7525 71.9399C23.1919 72.3793 23.439 72.975 23.4397 73.5964V75.0027C23.4403 75.4998 23.638 75.9764 23.9895 76.3279C24.341 76.6794 24.8176 76.8771 25.3147 76.8777C25.5633 76.8777 25.8018 76.9765 25.9776 77.1523C26.1534 77.3281 26.2522 77.5665 26.2522 77.8152C26.2522 78.0638 26.1534 78.3023 25.9776 78.4781C25.8018 78.6539 25.5633 78.7527 25.3147 78.7527ZM17.3487 73.1277C17.2244 73.1278 17.1053 73.1773 17.0174 73.2652C16.9295 73.353 16.8801 73.4722 16.8799 73.5964V76.4089C16.8801 76.5332 16.9295 76.6523 17.0174 76.7402C17.1053 76.8281 17.2244 76.8775 17.3487 76.8777H22.0682C21.7375 76.3082 21.5638 75.6612 21.5647 75.0027V73.5964C21.5645 73.4722 21.5151 73.353 21.4272 73.2652C21.3393 73.1773 21.2202 73.1278 21.0959 73.1277H17.3487Z" fill="#2BC97E"/>
<path d="M95.1554 78.7527H87.1895C86.9408 78.7527 86.7024 78.6539 86.5265 78.4781C86.3507 78.3023 86.252 78.0638 86.252 77.8152C86.252 77.5665 86.3507 77.3281 86.5265 77.1523C86.7024 76.9765 86.9408 76.8777 87.1895 76.8777C87.6866 76.8771 88.1631 76.6794 88.5147 76.3279C88.8662 75.9764 89.0639 75.4998 89.0645 75.0027V73.5964C89.0651 72.975 89.3122 72.3793 89.7516 71.9399C90.191 71.5005 90.7868 71.2533 91.4082 71.2527H95.1554C95.7768 71.2533 96.3726 71.5005 96.812 71.9399C97.2514 72.3793 97.4985 72.975 97.4992 73.5964V76.4089C97.4985 77.0303 97.2514 77.6261 96.812 78.0655C96.3726 78.5049 95.7768 78.752 95.1554 78.7527ZM90.4359 76.8777H95.1554C95.2797 76.8775 95.3988 76.8281 95.4867 76.7402C95.5746 76.6523 95.624 76.5332 95.6242 76.4089V73.5964C95.624 73.4722 95.5746 73.353 95.4867 73.2652C95.3988 73.1773 95.2797 73.1278 95.1554 73.1277H91.4082C91.2839 73.1278 91.1648 73.1773 91.0769 73.2652C90.9891 73.353 90.9396 73.4722 90.9395 73.5964V75.0027C90.9404 75.6612 90.7666 76.3082 90.4359 76.8777H90.4359Z" fill="#2BC97E"/>
<path d="M93.7539 108.749H18.7529C18.007 108.749 17.2916 108.453 16.7642 107.926C16.2367 107.398 15.9404 106.683 15.9404 105.937V105C15.9404 104.751 16.0392 104.513 16.215 104.337C16.3908 104.161 16.6293 104.062 16.8779 104.062H95.6289C95.8775 104.062 96.116 104.161 96.2918 104.337C96.4676 104.513 96.5664 104.751 96.5664 105V105.937C96.5664 106.306 96.4936 106.672 96.3523 107.013C96.211 107.355 96.0038 107.665 95.7426 107.926C95.4815 108.187 95.1714 108.394 94.8302 108.535C94.4889 108.677 94.1232 108.75 93.7539 108.749Z" fill="#2BC97E"/>
<path d="M93.7549 109.687H18.7539C17.7597 109.686 16.8065 109.291 16.1034 108.588C15.4004 107.884 15.005 106.931 15.0039 105.937V105C15.0045 104.503 15.2022 104.026 15.5537 103.675C15.9052 103.323 16.3818 103.126 16.8789 103.125H95.6299C96.127 103.126 96.6035 103.323 96.955 103.675C97.3066 104.026 97.5043 104.503 97.5049 105V105.937C97.5038 106.931 97.1084 107.884 96.4053 108.588C95.7023 109.291 94.7491 109.686 93.7549 109.687ZM16.8789 105V105.937C16.8795 106.434 17.0772 106.911 17.4287 107.262C17.7802 107.614 18.2568 107.811 18.7539 107.812H93.7549C94.252 107.811 94.7286 107.614 95.0801 107.262C95.4316 106.911 95.6293 106.434 95.6299 105.937V105H16.8789Z" fill="#2BC97E"/>
<path d="M64.6914 104.062H47.8154V108.749H64.6914V104.062Z" fill="white"/>
<path d="M64.6923 109.687H47.8164C47.6933 109.687 47.5714 109.663 47.4576 109.616C47.3438 109.569 47.2405 109.5 47.1534 109.413C47.0664 109.325 46.9973 109.222 46.9502 109.108C46.9031 108.995 46.8789 108.873 46.8789 108.75V104.062C46.8789 103.939 46.9031 103.817 46.9502 103.704C46.9973 103.59 47.0664 103.487 47.1534 103.4C47.2405 103.312 47.3438 103.243 47.4576 103.196C47.5714 103.149 47.6933 103.125 47.8164 103.125H64.6923C64.8155 103.125 64.9374 103.149 65.0511 103.196C65.1649 103.243 65.2683 103.312 65.3553 103.4C65.4424 103.487 65.5114 103.59 65.5585 103.704C65.6057 103.817 65.6299 103.939 65.6298 104.062V108.75C65.6299 108.873 65.6057 108.995 65.5585 109.108C65.5114 109.222 65.4424 109.325 65.3553 109.413C65.2683 109.5 65.1649 109.569 65.0511 109.616C64.9374 109.663 64.8155 109.687 64.6923 109.687ZM48.7539 107.812H63.7548V105H48.7539V107.812Z" fill="#2BC97E"/>
<path d="M65.0428 99.3749H47.461C46.6247 99.3749 45.8124 99.0954 45.1532 98.5807C44.494 98.066 44.0258 97.3458 43.823 96.5344L42.7718 92.3299C42.7027 92.0535 42.6975 91.7649 42.7566 91.4862C42.8157 91.2074 42.9376 90.9458 43.1129 90.7212C43.2883 90.4966 43.5125 90.315 43.7686 90.19C44.0247 90.0651 44.3059 90.0001 44.5908 90.0001H67.913C68.1979 90.0001 68.4791 90.0651 68.7351 90.19C68.9912 90.315 69.2155 90.4967 69.3908 90.7213C69.5662 90.9459 69.688 91.2075 69.7471 91.4862C69.8062 91.7649 69.8011 92.0535 69.732 92.3299L68.6808 96.5344C68.4779 97.3457 68.0097 98.066 67.3506 98.5807C66.6914 99.0954 65.8791 99.3749 65.0428 99.3749Z" fill="#2BC97E"/>
<path d="M56.252 100.313C56.1288 100.313 56.0069 100.288 55.8932 100.241C55.7794 100.194 55.676 100.125 55.589 100.038C55.5019 99.951 55.4329 99.8476 55.3858 99.7338C55.3387 99.6201 55.3144 99.4982 55.3145 99.375V90.0298C55.3145 89.7811 55.4132 89.5427 55.589 89.3669C55.7649 89.1911 56.0033 89.0923 56.252 89.0923C56.5006 89.0923 56.7391 89.1911 56.9149 89.3669C57.0907 89.5427 57.1895 89.7811 57.1895 90.0298V99.375C57.1895 99.4982 57.1653 99.6201 57.1182 99.7338C57.0711 99.8476 57.002 99.951 56.9149 100.038C56.8279 100.125 56.7245 100.194 56.6108 100.241C56.497 100.288 56.3751 100.313 56.252 100.313Z" fill="white"/>
<path d="M52.5003 100.313C52.268 100.312 52.0441 100.226 51.8719 100.07C51.6997 99.9139 51.5915 99.6996 51.5683 99.4684L50.6308 90.1232C50.6183 90.0005 50.6301 89.8766 50.6655 89.7585C50.7009 89.6404 50.7593 89.5305 50.8373 89.435C50.9152 89.3395 51.0113 89.2603 51.1199 89.202C51.2285 89.1436 51.3475 89.1073 51.4702 89.095C51.5928 89.0827 51.7167 89.0947 51.8347 89.1304C51.9528 89.1661 52.0626 89.2246 52.1579 89.3028C52.2533 89.381 52.3323 89.4771 52.3904 89.5859C52.4485 89.6946 52.4846 89.8137 52.4967 89.9364L53.4342 99.2816C53.4473 99.4121 53.433 99.5438 53.392 99.6684C53.3511 99.7929 53.2844 99.9075 53.1964 100.005C53.1084 100.102 53.001 100.179 52.881 100.232C52.7611 100.286 52.6314 100.313 52.5003 100.313Z" fill="white"/>
<path d="M48.75 100.313C48.5336 100.312 48.3239 100.237 48.1565 100.1C47.9892 99.9626 47.8744 99.7717 47.8318 99.5595L45.9558 90.2143C45.9316 90.0936 45.9314 89.9693 45.9552 89.8485C45.979 89.7277 46.0264 89.6128 46.0946 89.5103C46.1628 89.4078 46.2506 89.3198 46.3528 89.2512C46.4551 89.1826 46.5698 89.1348 46.6905 89.1106C46.8112 89.0864 46.9355 89.0862 47.0563 89.11C47.1771 89.1338 47.2921 89.1812 47.3945 89.2494C47.497 89.3176 47.5851 89.4054 47.6536 89.5076C47.7222 89.6099 47.77 89.7246 47.7942 89.8453L49.6701 99.1906C49.719 99.4343 49.6691 99.6874 49.5314 99.8944C49.3937 100.101 49.1795 100.245 48.9359 100.294C48.8747 100.306 48.8124 100.313 48.75 100.313Z" fill="white"/>
<path d="M60.003 100.313C59.8719 100.313 59.7422 100.286 59.6223 100.232C59.5024 100.179 59.395 100.102 59.307 100.005C59.2189 99.9075 59.1523 99.7929 59.1113 99.6684C59.0704 99.5438 59.056 99.4121 59.0692 99.2816L60.0067 89.9364C60.0187 89.8137 60.0548 89.6946 60.113 89.5859C60.1711 89.4771 60.2501 89.381 60.3454 89.3028C60.4408 89.2246 60.5506 89.1661 60.6686 89.1304C60.7866 89.0947 60.9105 89.0827 61.0332 89.095C61.1559 89.1073 61.2749 89.1436 61.3835 89.202C61.4921 89.2603 61.5881 89.3395 61.6661 89.435C61.7441 89.5305 61.8024 89.6404 61.8379 89.7585C61.8733 89.8766 61.8851 90.0005 61.8725 90.1232L60.935 99.4684C60.9118 99.6996 60.8037 99.9139 60.6315 100.07C60.4593 100.226 60.2353 100.312 60.003 100.313Z" fill="white"/>
<path d="M63.7529 100.313C63.6905 100.313 63.6282 100.306 63.567 100.294C63.3233 100.245 63.1092 100.101 62.9715 99.8944C62.8338 99.6874 62.7839 99.4343 62.8327 99.1906L64.7087 89.8453C64.7329 89.7246 64.7807 89.6099 64.8493 89.5076C64.9178 89.4054 65.0059 89.3176 65.1084 89.2494C65.2108 89.1812 65.3258 89.1338 65.4466 89.11C65.5673 89.0862 65.6916 89.0864 65.8124 89.1106C65.9331 89.1348 66.0478 89.1826 66.1501 89.2512C66.2523 89.3198 66.3401 89.4078 66.4083 89.5103C66.4765 89.6128 66.5239 89.7277 66.5477 89.8485C66.5715 89.9693 66.5713 90.0936 66.5471 90.2143L64.6711 99.5595C64.6285 99.7717 64.5137 99.9626 64.3464 100.1C64.179 100.237 63.9693 100.312 63.7529 100.313Z" fill="white"/>
<path d="M65.0427 100.312H47.4609C46.4152 100.314 45.3993 99.9648 44.5751 99.3213C43.7509 98.6778 43.1659 97.7768 42.9135 96.7621L41.8624 92.5575C41.7587 92.1428 41.7508 91.71 41.8394 91.2918C41.928 90.8737 42.1108 90.4812 42.3738 90.1443C42.6368 89.8074 42.9732 89.5348 43.3573 89.3474C43.7415 89.1599 44.1633 89.0625 44.5907 89.0625H67.9129C68.3402 89.0626 68.7619 89.1601 69.1459 89.3476C69.5299 89.5351 69.8661 89.8076 70.129 90.1445C70.392 90.4813 70.5746 90.8737 70.6632 91.2917C70.7518 91.7098 70.744 92.1425 70.6403 92.5571L69.5892 96.7621C69.3369 97.7767 68.7521 98.6776 67.928 99.3211C67.104 99.9646 66.0882 100.314 65.0427 100.312ZM44.5907 90.9375C44.4482 90.9375 44.3075 90.97 44.1794 91.0326C44.0513 91.0951 43.9392 91.1859 43.8515 91.2983C43.7637 91.4106 43.7028 91.5415 43.6732 91.6809C43.6436 91.8203 43.6461 91.9647 43.6807 92.103L44.7317 96.3071C44.8834 96.9159 45.2346 97.4565 45.7292 97.8426C46.2238 98.2287 46.8334 98.4381 47.4609 98.4375H65.0427C65.67 98.4381 66.2795 98.2286 66.774 97.8425C67.2685 97.4564 67.6194 96.9159 67.7709 96.3071L68.822 92.1025C68.8564 91.9643 68.859 91.8201 68.8294 91.6808C68.7998 91.5415 68.7389 91.4107 68.6513 91.2985C68.5637 91.1862 68.4517 91.0953 68.3237 91.0328C68.1958 90.9703 68.0553 90.9377 67.9129 90.9375H44.5907Z" fill="#2BC97E"/>
<path opacity="0.3" d="M89.1348 19.6932V79.6849L102.119 69.7918C105.334 67.3424 107.94 64.1838 109.734 60.5621C111.527 56.9403 112.461 52.9533 112.461 48.9117V28.5793L89.1348 19.6932Z" fill="white"/>
<path d="M111.617 28.5794L89.1186 19.6906L66.6173 28.5794V48.9819C66.6039 52.9783 67.4942 56.9259 69.2214 60.5298C70.9487 64.1336 73.4684 67.3003 76.592 69.7932L89.1186 79.6902L101.644 69.7932C104.767 67.3003 107.286 64.1337 109.014 60.53C110.741 56.9263 111.631 52.9789 111.617 48.9827V28.5794Z" fill="white"/>
<path d="M89.1181 80.6277C88.9071 80.6278 88.7023 80.5567 88.5367 80.4259L76.0105 70.529C72.7852 67.9401 70.1825 64.6599 68.3944 60.9306C66.6063 57.2012 65.6786 53.1179 65.6797 48.9821V28.5795C65.6797 28.3914 65.7363 28.2077 65.8421 28.0522C65.9479 27.8967 66.098 27.7766 66.273 27.7075L88.7739 18.8186C88.9951 18.7317 89.2411 18.7317 89.4624 18.8186L111.961 27.7075C112.136 27.7766 112.287 27.8967 112.392 28.0522C112.498 28.2077 112.555 28.3914 112.555 28.5795V48.983C112.555 53.1186 111.628 57.2015 109.84 60.9307C108.052 64.6598 105.45 67.9399 102.225 70.529L89.6995 80.4259C89.5339 80.5567 89.3291 80.6278 89.1181 80.6277ZM67.5547 29.2172V48.9821C67.5525 52.835 68.4157 56.6392 70.0805 60.1139C71.7453 63.5887 74.1692 66.6451 77.1732 69.0578L89.1181 78.4955L101.062 69.0578C104.066 66.645 106.489 63.5886 108.154 60.1141C109.818 56.6396 110.682 52.8357 110.68 48.983V29.2172L89.1181 20.6986L67.5547 29.2172Z" fill="#2BC97E"/>
<path d="M71.3047 31.9556V48.9882C71.3025 52.245 72.0304 55.4608 73.4349 58.3992C74.8395 61.3375 76.8848 63.9237 79.4206 65.9673L89.1184 73.6497L98.8147 65.9676C101.35 63.9239 103.395 61.3378 104.8 58.3994C106.204 55.4611 106.932 52.2454 106.93 48.9887V31.9556L89.1184 24.8997L71.3047 31.9556Z" fill="#2BC97E"/>
<path d="M89.1181 74.5871C88.9067 74.5872 88.7014 74.5157 88.5358 74.3843L78.8376 66.7021C76.1917 64.5701 74.0573 61.8722 72.5915 58.8066C71.1256 55.7411 70.3655 52.386 70.3672 48.988V31.9555C70.3671 31.7676 70.4235 31.5839 70.5292 31.4285C70.6348 31.2731 70.7848 31.153 70.9595 31.0839L88.773 24.028C88.9947 23.9401 89.2416 23.9401 89.4633 24.028L107.275 31.0839C107.45 31.153 107.6 31.2731 107.705 31.4285C107.811 31.584 107.867 31.7676 107.867 31.9555V48.9884C107.869 52.3864 107.109 55.7414 105.643 58.8069C104.177 61.8723 102.043 64.5702 99.3967 66.7021L89.7004 74.3843C89.5348 74.5157 89.3295 74.5872 89.1181 74.5871ZM72.2422 32.5927V48.988C72.2395 52.1035 72.9352 55.18 74.2782 57.9912C75.6211 60.8024 77.577 63.2769 80.0022 65.2327L89.1181 72.4534L98.2322 65.2327C100.657 63.277 102.613 60.8026 103.956 57.9914C105.299 55.1803 105.995 52.1039 105.992 48.9884V32.5927L89.1181 25.908L72.2422 32.5927Z" fill="#2BC97E"/>
<path d="M101.599 38.5418C101.569 38.3297 101.497 38.1258 101.386 37.9421C101.276 37.7584 101.13 37.5985 100.958 37.472L100.956 37.471C100.615 37.2219 100.192 37.1134 99.7733 37.168C99.3547 37.2225 98.9731 37.436 98.7075 37.7641L87.3134 49.7059L81.8179 46.8C80.7547 46.2961 80.197 46.2826 79.5928 46.8899C79.4403 47.0414 79.3195 47.2218 79.2377 47.4205C79.1558 47.6193 79.1146 47.8324 79.1163 48.0473C79.1145 48.4648 79.2783 48.8661 79.5718 49.1631L86.191 56.5753C86.5678 56.9454 87.0753 57.152 87.6034 57.1504L87.7518 57.1446C88.0398 57.1237 88.3201 57.0412 88.5735 56.9026C88.8269 56.764 89.0475 56.5725 89.2205 56.3413L101.29 39.7444C101.419 39.5747 101.513 39.3809 101.566 39.1744C101.619 38.9678 101.63 38.7528 101.599 38.5418Z" fill="white"/>
<path d="M87.6381 58.087C86.8533 58.0963 86.0969 57.7937 85.5351 57.2456L78.8719 49.7873C78.4229 49.3222 78.174 48.6997 78.1788 48.0533C78.1757 47.7142 78.2405 47.3779 78.3694 47.0643C78.4983 46.7506 78.6888 46.466 78.9296 46.2272C80.019 45.1332 81.1552 45.4486 82.2191 45.9525L87.1244 48.5453L98.0293 37.1168C98.4596 36.6066 99.0719 36.2843 99.736 36.2184C100.4 36.1526 101.064 36.3484 101.586 36.7643C102.108 37.1802 102.447 37.7832 102.532 38.4453C102.616 39.1074 102.439 39.7763 102.037 40.3097L89.9781 56.8927C89.7243 57.2336 89.4002 57.5159 89.0277 57.7207C88.6553 57.9255 88.2432 58.0479 87.8193 58.0797L87.6408 58.087H87.6381ZM80.5986 47.3657C80.5314 47.3689 80.4657 47.3872 80.4066 47.4193C80.3475 47.4514 80.2964 47.4965 80.2571 47.5511C80.1918 47.6149 80.1402 47.6912 80.1053 47.7755C80.0703 47.8597 80.0528 47.9502 80.0538 48.0414C80.0503 48.2074 80.1114 48.3682 80.2241 48.49L86.8901 55.9511C87.0874 56.1234 87.3414 56.2166 87.6033 56.213L87.714 56.2079C87.8633 56.193 88.0078 56.1469 88.1382 56.0727C88.2686 55.9985 88.3821 55.8979 88.4712 55.7772L100.531 39.1928C100.589 39.1208 100.631 39.0378 100.655 38.949C100.679 38.8603 100.684 38.7675 100.672 38.6764V38.676C100.659 38.5866 100.628 38.5008 100.582 38.4235C100.535 38.3463 100.474 38.2792 100.401 38.2264C100.255 38.1203 100.074 38.0739 99.8953 38.0969C99.7165 38.1199 99.5533 38.2105 99.4392 38.35L87.9915 50.3531C87.8503 50.5007 87.6649 50.5983 87.4634 50.631C87.2618 50.6637 87.0551 50.6298 86.8745 50.5344L81.3795 47.6285C81.1389 47.4906 80.8736 47.4013 80.5986 47.3657V47.3657Z" fill="#2BC97E"/>
</g>
<defs>
<clipPath id="clip0_21975_75308">
<rect width="120" height="120" fill="white"/>
</clipPath>
</defs>
</svg>
