<svg width="147" height="32" viewBox="0 0 147 32" fill="none" xmlns="http://www.w3.org/2000/svg">
<g clip-path="url(#clip0_21897_103565)">
<path d="M121.555 15.6496C120.642 14.7245 119.425 14.2234 118.132 14.2234C116.838 14.2234 115.621 14.7245 114.709 15.6496C113.795 16.5747 113.301 17.8081 113.301 19.1187C113.301 20.4292 113.795 21.6627 114.709 22.5878C115.621 23.5128 116.838 24.0139 118.132 24.0139C119.425 24.0139 120.642 23.5128 121.555 22.5878L119.634 20.6412C119.235 21.0459 118.702 21.2772 118.132 21.2772C117.561 21.2772 117.029 21.0459 116.629 20.6412C115.811 19.8125 115.811 18.4441 116.629 17.6154C117.029 17.2107 117.561 16.9794 118.132 16.9794C118.702 16.9794 119.235 17.2107 119.634 17.6154L121.555 15.6496Z" fill="#011B07"/>
<path d="M127.03 14.2041C124.367 14.2041 122.199 16.4012 122.199 19.0994C122.199 21.7976 124.367 23.9946 127.03 23.9946C129.693 23.9946 131.861 21.7976 131.861 19.0994C131.842 16.4012 129.693 14.2041 127.03 14.2041ZM127.03 21.2386C125.87 21.2386 124.919 20.275 124.919 19.0994C124.919 17.9237 125.87 16.9601 127.03 16.9601C128.19 16.9601 129.142 17.9237 129.142 19.0994C129.142 20.275 128.19 21.2386 127.03 21.2386Z" fill="#011B07"/>
<path d="M142.607 14.2041C141.58 14.2041 140.648 14.5896 139.925 15.2448C139.221 14.6088 138.27 14.2041 137.244 14.2041C135.018 14.2041 133.211 16.035 133.211 18.2899V23.879H135.912V18.2899C135.912 17.5576 136.501 16.9601 137.224 16.9601C137.947 16.9601 138.537 17.5576 138.537 18.2899V23.879H141.237V18.2899C141.237 17.5576 141.827 16.9601 142.55 16.9601C143.273 16.9601 143.862 17.5576 143.862 18.2899V23.879H146.563V18.2899C146.639 16.035 144.832 14.2041 142.607 14.2041Z" fill="#011B07"/>
<path d="M48.4445 8.63441H45.3063V4.54858H41.0078V23.8213H45.3063V13.0093H48.4445V8.63441Z" fill="#011B07"/>
<path d="M31.1337 8.46094C26.9113 8.46094 23.4688 11.9493 23.4688 16.2278C23.4688 20.5064 26.9113 23.9948 31.1337 23.9948C35.356 23.9948 38.7985 20.5064 38.7985 16.2278C38.7985 11.9493 35.356 8.46094 31.1337 8.46094ZM31.1337 19.6391C29.2887 19.6391 27.7672 18.1166 27.7672 16.2278C27.7672 14.3584 29.2697 12.8166 31.1337 12.8166C32.9786 12.8166 34.5001 14.3391 34.5001 16.2278C34.5001 18.0973 32.9975 19.6391 31.1337 19.6391Z" fill="#011B07"/>
<path d="M57.5165 8.46094C53.2941 8.46094 49.8516 11.9493 49.8516 16.2278C49.8516 20.5064 53.2941 23.9948 57.5165 23.9948C61.7388 23.9948 65.1813 20.5064 65.1813 16.2278C65.1813 11.9493 61.7388 8.46094 57.5165 8.46094ZM57.5165 19.6391C55.6715 19.6391 54.15 18.1166 54.15 16.2278C54.15 14.3584 55.6526 12.8166 57.5165 12.8166C59.3614 12.8166 60.8829 14.3391 60.8829 16.2278C60.8829 18.0973 59.3803 19.6391 57.5165 19.6391Z" fill="#011B07"/>
<path d="M14.8733 8.46094C13.2376 8.46094 11.7541 9.07767 10.6319 10.0991C9.50974 9.07767 8.02627 8.46094 6.39056 8.46094C2.85293 8.46094 0 11.3711 0 14.9366V23.8213H4.29841V14.9366C4.29841 13.7609 5.23037 12.8166 6.39056 12.8166C7.55073 12.8166 8.4827 13.7609 8.4827 14.9366V23.8213H12.7811V14.9366C12.7811 13.7609 13.7131 12.8166 14.8733 12.8166C16.0334 12.8166 16.9654 13.7609 16.9654 14.9366V23.8213H21.2638V14.9366C21.2828 11.3518 18.4109 8.46094 14.8733 8.46094Z" fill="#011B07"/>
<path d="M76.5731 8.67282V8.63428H75.2037C74.0813 8.63428 71.2287 8.84628 69.2316 10.7735C68.0144 11.9492 67.3867 13.3561 67.3867 15.2063V23.8212H71.7042V16.9408C71.7422 15.1485 72.6359 13.2405 74.5571 13.0863C74.7091 13.067 74.9372 13.067 75.1661 13.0477C75.4318 11.5252 75.9076 10.0412 76.5731 8.67282Z" fill="#011B07"/>
<path d="M109.231 19.0611C108.641 18.2323 107.728 17.7891 106.796 17.7891C106.739 17.7891 106.663 17.8083 106.606 17.8083C106.073 17.8469 105.522 18.0203 105.047 18.3672C103.867 19.2345 103.487 20.8149 104.095 22.1062C104.172 22.2796 104.267 22.4338 104.38 22.588C104.895 23.3011 105.655 23.7251 106.454 23.8214C106.568 23.8407 106.682 23.8407 106.815 23.8407C107.424 23.8407 108.032 23.648 108.565 23.2625C109.877 22.2989 110.181 20.4294 109.231 19.0611Z" fill="#011B07"/>
<path d="M102.971 24.9391C102.914 24.8812 102.857 24.8041 102.8 24.7463C100.499 27.0783 97.3224 28.5238 93.8234 28.5238C86.8622 28.5045 81.2132 22.742 81.232 15.6881C81.232 12.2769 82.5637 9.05833 84.9599 6.64926C86.8622 4.74126 89.2584 3.5078 91.8638 3.0838C92.5301 2.96817 93.2144 2.92962 93.9182 2.92962C97.2847 2.94889 100.461 4.27871 102.838 6.70708C105.102 9.01978 106.395 12.0649 106.509 15.322C107.517 15.2449 108.525 15.4376 109.419 15.8616C109.419 15.8423 109.419 15.8038 109.419 15.7845C109.438 11.5831 107.822 7.63215 104.911 4.64489C101.982 1.65762 98.1023 0.0194409 93.9559 0.000168144C89.8102 -0.0191046 85.9107 1.61908 82.9627 4.5678C80.0148 7.53578 78.3985 11.4674 78.3789 15.6689C78.3601 24.3416 85.3024 31.4147 93.861 31.4532C94.7169 31.4532 95.5345 31.3954 96.3528 31.2605C99.8714 30.7016 103.01 28.9092 105.33 26.3652C104.417 26.0761 103.618 25.5943 102.971 24.9391Z" fill="#011B07"/>
<path d="M92.1505 7.054L88.8984 8.4031L89.2214 9.21256L91.0281 8.46092V24.014H96.6771V5.146L92.1505 7.054Z" fill="#011B07"/>
</g>
<defs>
<clipPath id="clip0_21897_103565">
<rect width="147" height="32" fill="white"/>
</clipPath>
</defs>
</svg>
