<svg width="101" height="32" viewBox="0 0 101 32" fill="none" xmlns="http://www.w3.org/2000/svg">
<path fill-rule="evenodd" clip-rule="evenodd" d="M8.93676 0.168869L9.55167 0.783241C10.9852 4.47109 12.4187 8.15733 14.0576 11.6404L14.5707 11.2297L18.6665 0.578452L19.3838 0.16833H26.0411C26.247 0.372582 26.3483 0.57845 26.247 0.782702C25.6326 1.29522 24.5057 1.09097 24.0945 2.01199L23.8908 3.0354C24.4028 8.15625 24.7089 13.2776 25.1201 18.5014C25.2214 19.7307 26.7579 19.8331 27.3739 20.5499C27.3739 21.1637 26.5531 21.0624 26.0406 21.0624H16.9247C16.6186 20.9605 16.4122 20.6528 16.6186 20.3456C17.4383 20.0384 18.7683 19.6288 18.8713 18.3996C18.7689 14.6099 18.5652 10.8207 18.154 7.03098H18.0516L17.5396 7.74829L12.6241 20.6533C12.4187 20.8576 12.3163 21.3701 11.9078 21.2682C10.6786 20.9611 10.6786 19.3222 10.1655 18.502C8.62904 14.6099 7.09311 10.7178 5.35292 7.03152L5.0452 7.23577C5.0452 10.8212 4.53214 14.508 4.53214 18.0929C4.63454 18.7078 5.0452 19.5264 5.76143 19.8336C6.17155 20.1408 6.78592 19.8336 6.98909 20.3462C7.19442 21.1642 6.17155 20.9611 5.65903 20.9611C3.81537 20.8581 1.86878 21.1642 0.127523 20.7557C-0.076729 20.6539 0.0256663 20.4485 0.0256663 20.2443C0.84483 19.7318 1.97118 19.8336 2.58609 18.7073L2.89382 17.1714C3.3034 12.3566 3.40471 7.54349 3.71136 2.72875C3.71136 2.21678 3.50711 1.60348 2.99621 1.19336C2.48316 0.782703 1.25387 1.29522 1.35627 0.372581L1.97118 0.0664762C4.32789 0.0670152 6.78592 -0.137778 8.93676 0.168869ZM63.7571 7.70786C64.7811 9.34619 64.0643 11.4981 64.372 13.546L64.4739 19.589C64.372 20.614 66.2157 20.4087 64.7811 21.4332H57.3046C56.895 20.5111 58.2267 20.614 58.5339 19.8962L58.84 19.0764V9.75577C58.7381 9.03955 58.2261 8.32224 57.6118 7.91266C56.7921 7.60601 55.6668 7.81134 54.9479 8.21984C53.2077 9.65392 53.6162 11.8053 53.6162 14.058C53.6162 16.3112 52.7981 19.6924 55.4604 20.8182C55.87 21.0236 54.8455 21.3286 54.6407 21.4332H47.2682C47.0618 21.4332 46.857 21.3291 46.7557 21.126C46.9594 20.2039 48.1887 20.4092 48.394 19.4871C48.6996 17.1304 48.4964 14.4676 48.5999 11.9077C48.394 10.7808 49.0095 9.85925 47.985 9.03954C47.6767 9.03954 47.3706 8.93715 47.2682 8.6305L47.3706 8.22038C49.3156 7.09457 51.364 6.27433 53.3101 5.35331C53.7186 5.24984 54.0258 5.5581 54.0258 5.96822C54.1287 6.27487 53.8226 6.88978 54.2311 6.99164C55.9729 6.17086 57.407 5.35331 59.3519 5.24984C61.0948 5.35331 62.8361 5.96768 63.7571 7.70786ZM92.0166 6.64942C92.1196 6.64942 92.1196 7.06008 92.0166 7.16248C91.5052 7.67499 90.4818 7.57206 90.3788 8.49361L90.4818 9.6205L93.0427 16.6879L93.3478 16.9951L93.7584 16.5855L96.4212 9.21038C96.6266 8.69841 96.3194 8.18535 95.9098 7.77685C95.5013 7.4702 94.4752 7.57206 94.6805 6.75343C96.3194 6.13852 98.2654 6.64942 100.006 6.5481C100.416 6.5481 100.723 6.5481 100.825 6.85583C100.518 7.87871 98.7758 7.47074 98.3673 8.80026C95.8063 15.5605 93.3478 22.1149 90.6855 28.8757C89.7634 30.4116 88.3298 32.0516 86.4857 31.9481C85.2574 32.1534 84.1311 31.7438 83.3098 30.8217C82.9013 30.2068 82.3888 29.3871 82.7994 28.568C83.0037 27.9531 83.6186 27.3387 84.2329 27.1344C86.1779 26.4177 89.2509 29.4911 90.3778 26.3153C90.5831 25.1878 90.0706 24.0615 89.7628 23.0386L83.9241 7.9811C83.618 7.26379 82.3882 7.57206 82.5936 6.64942C83.3092 6.13852 84.4367 6.5481 85.2564 6.34385C87.5107 6.54756 89.8674 6.13852 92.0166 6.64942ZM44.6528 9.16457C46.393 11.3165 46.4949 14.7979 45.0613 17.1552C43.2187 20.2276 40.0429 22.0696 36.3566 21.7635C33.08 21.5571 29.6993 19.6143 28.3676 16.5397C26.933 13.4673 27.8551 9.98428 30.3126 7.73158C33.08 5.17169 37.6883 4.55678 40.965 6.09379C42.2966 6.81002 43.8331 7.83343 44.6528 9.16457ZM36.4116 6.7017C35.49 6.90649 34.6703 7.72511 34.3632 8.64667C33.4416 11.8215 32.7254 16.841 35.1829 19.707C35.7978 20.1176 36.4121 20.5278 37.2318 20.3219C38.2563 20.1176 39.2792 19.0926 39.484 17.9673C40.3037 14.7925 40.6109 10.4903 38.7667 7.5214C38.1518 6.90703 37.3337 6.7017 36.4116 6.7017Z" fill="#011B07"/>
<path fill-rule="evenodd" clip-rule="evenodd" d="M82.5352 9.59789C82.7405 10.7248 83.5581 12.2607 82.228 12.9769L73.0098 13.0804C72.3948 13.8996 72.9079 15.1289 73.0098 16.0499C73.4204 17.7911 75.1611 19.021 76.8 19.3271C78.8484 19.5313 80.4873 18.6092 81.9208 17.1768C82.1262 17.1768 82.5358 17.2786 82.4334 17.5853C81.7155 20.1473 78.9503 21.5809 76.5936 21.9904C73.1127 22.2976 69.6307 20.8652 67.8889 17.5853C66.2511 14.9235 66.7625 11.2368 68.5038 8.77711C70.5512 6.21776 73.6247 5.09088 76.9035 5.60339C79.1545 5.80764 81.4083 7.44705 82.5352 9.59789ZM75.0097 6.41717C73.269 7.13447 73.0636 9.07999 72.9602 10.6159L73.1666 10.8212C74.6001 10.7183 76.4432 11.3327 77.5696 10.5135C78.1845 9.59304 77.6714 8.56801 77.4677 7.54244C76.9568 6.72381 76.0326 6.2113 75.0097 6.41717Z" fill="#011B07"/>
</svg>
