<svg width="170" height="16" viewBox="0 0 170 16" fill="none" xmlns="http://www.w3.org/2000/svg">
<path fill-rule="evenodd" clip-rule="evenodd" d="M126.714 15.5061L127.252 15.3698C127.989 15.2063 128.045 15.0973 128.045 14.307V5.88631H126.629V5.7228L128.045 5.15052V4.36023C128.045 1.88034 129.632 0.245261 132.238 0.245261C133.598 0.245261 134.363 0.817543 134.363 1.49883C134.391 2.01661 133.909 2.45263 133.371 2.39813C132.691 2.39813 132.408 2.09836 132.266 1.25356C132.21 0.844792 132.125 0.599531 131.756 0.599531C130.935 0.599531 130.283 1.38982 130.283 3.40643V5.12327H133.739V4.11496C133.739 1.55333 135.637 0 138.187 0C139.575 0 140.368 0.54503 140.368 1.30807C140.397 1.8531 139.887 2.31637 139.32 2.26187C138.64 2.26187 138.357 1.9621 138.187 1.09006C138.102 0.654034 138.045 0.43602 137.677 0.43602C136.827 0.43602 136.006 1.19906 136.006 3.21567V5.15052H138.244L138.159 5.88631H136.006V14.3343C136.006 15.07 136.062 15.2063 136.686 15.3426L137.649 15.5606V15.7786H132.408V15.5606L133.003 15.4243C133.711 15.2608 133.768 15.1518 133.768 14.3615V5.91356H130.312V14.3343C130.312 15.1245 130.368 15.2336 130.992 15.3698L131.898 15.5606V15.7786H126.742H120.992V15.5606L121.501 15.4516C122.21 15.2881 122.351 15.0155 122.351 14.6068C122.323 14.198 122.21 13.7892 122.068 13.4077L121.133 10.6008H116.516L115.666 12.9717C115.467 13.4622 115.326 14.0072 115.297 14.5523C115.297 15.0428 115.524 15.2881 116.204 15.4516L116.799 15.5878V15.8058H112.975V15.5878L113.343 15.4788C114.108 15.2608 114.221 15.0155 114.929 13.1079L119.348 1.44433H120.51L124.788 13.3532C125.354 14.961 125.637 15.3153 126.261 15.4788L126.714 15.5061ZM0 8.66596C0 3.48818 3.90935 1.11731 8.83853 1.11731C10.2833 1.09005 11.6997 1.25357 13.0878 1.58058L13.5411 6.56759H13.2295C12.4646 5.31403 11.6147 4.08771 10.6799 2.9159C9.91502 1.98935 9.49009 1.66234 8.86686 1.66234C7.39377 1.66234 6.8272 3.21567 6.8272 8.22993C6.8272 13.8982 7.6204 15.3971 9.12181 15.3971C10 15.3971 10.5099 14.8793 11.2465 13.8982C12.068 12.7264 12.7762 11.5274 13.4278 10.2738H13.7394L13.4278 15.1518C11.813 15.6968 10.1416 15.9693 8.44193 15.9421C3.08782 15.9693 0 13.2987 0 8.66596ZM14.6742 10.301C14.6742 6.02257 18.1303 4.52374 21.3031 4.52374C24.5609 4.52374 27.9037 6.32233 27.9037 10.2193C27.9037 14.4978 24.5609 15.9693 21.3031 15.9693C17.8754 15.9693 14.6742 14.1707 14.6742 10.301ZM21.3314 15.3971C22.0113 15.3971 22.2663 14.7975 22.2663 10.4373C22.2663 5.7228 22.0113 5.12327 21.2465 5.12327C20.6232 5.12327 20.3116 5.7228 20.3116 10.083C20.3399 14.7975 20.5949 15.3971 21.3314 15.3971ZM27.9887 15.7241V15.3971L28.0453 15.3698C29.1218 15.0155 29.1785 14.9883 29.1785 14.0345V7.35788C29.1785 6.26783 29.1785 6.24058 28.3286 5.64105L27.9887 5.39579V5.17777L34.4759 4.52374L34.6459 4.65999L34.6176 6.29508H34.6742C35.8924 5.31403 37.3938 4.52374 38.9802 4.52374C40.7649 4.52374 42.0397 5.58655 42.0397 7.30339V14.0617C42.0397 14.9883 42.0963 15.07 43.0878 15.3698L43.2295 15.4243V15.7513H35.7507V15.4243L35.8924 15.3698C36.4023 15.2063 36.5156 15.07 36.5156 14.2252V8.12093C36.5156 7.11263 36.119 6.7311 35.3541 6.7311C35.1558 6.7311 34.9292 6.75835 34.7309 6.81286V14.2252C34.7309 15.07 34.8159 15.2336 35.3258 15.3698L35.4674 15.3971V15.7241H27.9887ZM47.1105 12.6719C44.051 11.8271 43.3428 10.4101 43.3428 8.4207C43.3428 6.18608 45.0992 4.52374 48.8952 4.52374C50.0283 4.52374 51.1615 4.65999 52.2663 4.93251L52.4646 8.03917H52.238C51.7281 7.41239 51.1898 6.84011 50.6232 6.26783C49.745 5.36853 49.2635 5.12327 48.4986 5.12327C47.8187 5.04152 47.2521 5.55929 47.2521 6.21333C47.2521 6.86736 47.7337 7.24888 49.3484 7.73941C52.2946 8.66596 53.3145 9.75601 53.3145 11.7454C53.3145 14.2525 51.4731 15.9966 47.4504 15.9966C46.1473 16.0238 44.8442 15.8876 43.5977 15.5878L43.4278 12.0724H43.6544C44.221 12.8627 44.9009 13.6257 45.6091 14.307C46.4589 15.1518 47.0822 15.3698 47.7904 15.3698C48.6969 15.3698 49.0935 14.9065 49.0935 14.198C49.0935 13.544 48.6402 13.1079 47.1105 12.6719ZM61.813 7.35788C61.813 6.29508 61.813 6.21333 61.0765 5.6683L60.7082 5.39579V5.17777L67.2238 4.52374L67.3654 4.63274V13.326C67.3654 14.416 67.4221 14.525 68.1586 14.7703L68.4986 14.9065V15.179L62.0113 15.9966L61.8697 15.8603L61.898 14.2798H61.8414C60.4816 15.4516 59.3201 15.9693 57.7337 15.9693C56.119 15.9693 54.5326 15.07 54.5326 13.0262V7.35788C54.5326 6.29508 54.5043 6.29508 53.7111 5.6683L53.3428 5.39579V5.17777L59.9433 4.52374L60.085 4.63274V12.2359C60.085 13.4077 60.3966 13.8165 61.2181 13.8165C61.4164 13.8165 61.6431 13.7892 61.8414 13.7075V7.35788H61.813ZM83.6827 8.12093C83.6827 7.11263 83.2861 6.7311 82.5779 6.7311C82.3796 6.7311 82.1813 6.75836 82.0113 6.78561C82.0397 7.05812 82.068 7.30339 82.0397 7.5759V14.2798C82.0397 15.0428 82.0963 15.1791 82.5779 15.3426L82.7196 15.3971V15.7241H75.8357V15.3971L75.9773 15.3426C76.4589 15.1791 76.5156 15.0428 76.5156 14.2798V8.09368C76.5156 7.08537 76.119 6.70385 75.4108 6.70385C75.2125 6.70385 75.0425 6.73111 74.8442 6.75836V14.2525C74.8442 15.0155 74.9292 15.1518 75.4108 15.3153L75.5524 15.3698V15.6968H68.1303V15.3698L68.187 15.3426C69.2918 14.9883 69.3201 14.961 69.3201 14.0072V7.33064C69.3201 6.21333 69.2918 6.21333 68.4703 5.61379L68.1303 5.36853V5.15052L74.6176 4.49648L74.7875 4.6055L74.7592 6.26783H74.8159C76.034 5.28677 77.5638 4.49648 79.0085 4.49648C80.4249 4.49648 81.5014 5.06876 81.8697 6.26783H81.9264C83.1445 5.28677 84.7875 4.49648 86.2606 4.49648C88.0453 4.49648 89.2635 5.55929 89.2635 7.27613V14.0345C89.2635 14.961 89.2918 15.0155 90.3116 15.3426L90.4533 15.3971V15.7241H83.0312V15.3971L83.1728 15.3426C83.6827 15.1791 83.7111 15.0428 83.7111 14.2798V8.12093H83.6827ZM90.3966 10.41C90.3966 7.08537 92.9462 4.52374 96.8272 4.52374C100.283 4.52374 102.266 6.04982 102.436 9.56525H95.779C95.8074 12.9717 96.9688 13.8437 99.3768 13.8437C100.283 13.8437 101.161 13.6257 101.983 13.2714V13.5712C101.105 14.7703 99.4051 15.9966 96.4873 15.9966C92.6629 15.9693 90.3966 14.1707 90.3966 10.41ZM95.779 9.04748L97.3938 8.85671C97.3938 5.85906 97.2521 5.06876 96.6006 5.06876C95.9773 5.06876 95.779 5.85906 95.779 9.04748ZM103.569 7.38514C103.569 6.29508 103.569 6.26783 102.72 5.6683L102.38 5.42304V5.20502L108.867 4.55099L109.037 4.68725L109.008 6.40408H109.037C109.773 5.39578 110.85 4.57824 112.125 4.57824C113.513 4.57824 114.419 5.42304 114.419 6.89461C114.419 8.31169 113.484 9.10198 112.21 9.10198C111.133 9.10198 110.453 8.63871 109.915 7.5759C109.688 7.08537 109.603 6.92187 109.348 6.92187C109.235 6.92187 109.15 6.97637 109.065 7.05812V14.089C109.065 15.0155 109.15 15.07 110.227 15.3698L110.453 15.4243V15.7513H102.351V15.4243L102.408 15.3971C103.513 15.0428 103.541 15.0155 103.541 14.0617V7.38514H103.569ZM116.714 10.0285H120.963L118.952 4.06047H118.895L116.714 10.0285ZM138.555 13.4622C138.555 11.5546 140.227 11.0368 141.841 10.6281L144.674 9.94677V7.6849C144.674 6.15882 144.533 5.25953 142.805 5.25953C141.841 5.25953 141.615 5.53204 141.501 6.21333C141.388 7.27613 141.048 7.6304 140.283 7.6304C139.575 7.6304 139.178 7.24888 139.178 6.64935C139.178 5.34128 141.275 4.79625 143.201 4.79625C145.779 4.79625 146.941 5.7228 146.941 7.52139V13.9527C146.941 14.6068 147.082 14.852 147.365 15.0428C147.705 15.2336 148.102 15.3153 148.499 15.3153V15.4788C147.932 15.8058 147.309 15.9693 146.657 15.9693C145.552 15.9693 144.958 15.5333 144.816 14.6613H144.759C143.994 15.5061 142.89 15.9966 141.728 15.9966C139.773 15.9966 138.555 15.0428 138.555 13.4622ZM144.703 14.198V10.5191L143.456 10.7371C141.728 11.0368 140.85 11.5546 140.85 13.0807C140.85 14.3343 141.501 15.0428 142.691 15.0428C143.456 15.0973 144.221 14.7975 144.703 14.198ZM148.669 15.5333L149.263 15.3971C150 15.2335 150.057 15.1518 150.057 14.3343V7.00362C150.057 6.24058 149.943 6.18608 149.207 5.83181L148.64 5.53204V5.36853L152.266 4.90525L152.38 4.95976C152.351 5.31403 152.295 6.04981 152.295 7.35788V14.3615C152.295 15.179 152.408 15.2608 153.144 15.4243L153.711 15.5606V15.7786H148.64V15.5333H148.669ZM151.105 0.926547C151.813 0.899296 152.408 1.44432 152.408 2.15286C152.436 3.29742 151.02 3.89696 150.17 3.10667C149.32 2.28912 149.915 0.926547 151.105 0.926547ZM154.108 15.5333L154.703 15.3971C155.439 15.2335 155.496 15.1245 155.496 14.307V7.00362C155.496 6.24058 155.411 6.18608 154.674 5.80456L154.136 5.50479V5.34128L157.592 4.87801L157.734 4.95976L157.705 6.45859H157.734C158.584 5.7228 159.688 4.8235 160.793 4.8235C161.671 4.8235 162.181 5.31403 162.181 6.07707C162.238 6.70385 161.7 7.27613 161.048 7.24888C160.538 7.24888 160.085 6.94912 159.943 6.48584C159.802 6.13157 159.717 6.02257 159.433 6.02257C159.065 6.02257 158.329 6.43134 157.734 6.86736V14.307C157.734 15.0428 157.819 15.2336 158.47 15.3698L159.405 15.5333V15.7513H154.108V15.5333ZM162.521 15.4516L162.465 12.4267H162.691C163.031 13.1079 163.286 13.653 163.598 14.1162C164.164 15.0973 164.816 15.5061 166.062 15.5061C167.365 15.5061 168.159 14.743 168.159 13.5712C168.159 12.4539 167.479 11.9361 165.609 11.2276C163.654 10.4918 162.578 9.61975 162.578 7.90291C162.578 6.04981 164.136 4.769 166.487 4.769C167.45 4.769 168.414 4.93251 169.32 5.23228L169.377 7.84841H169.15C168.782 7.16713 168.47 6.6221 168.215 6.21333C167.847 5.53204 167.082 5.15052 166.289 5.20502C164.958 5.20502 164.193 5.96806 164.193 6.97637C164.193 8.03917 164.986 8.55695 166.771 9.23824C168.725 10.0013 170 10.7916 170 12.5629C170 14.416 168.527 15.9148 165.892 15.9148C164.731 15.9421 163.598 15.7786 162.521 15.4516Z" fill="#011B07"/>
</svg>
