<svg width="36" height="36" viewBox="0 0 36 36" fill="none" xmlns="http://www.w3.org/2000/svg">
<g clip-path="url(#clip0_23486_77339)">
<g clip-path="url(#clip1_23486_77339)">
<path d="M28.5 6.00049H7.5C5.51161 6.00287 3.60534 6.79381 2.19933 8.19982C0.793323 9.60583 0.00238179 11.5121 0 13.5005L0 22.5005C0.00238179 24.4889 0.793323 26.3952 2.19933 27.8012C3.60534 29.2072 5.51161 29.9981 7.5 30.0005H28.5C30.4884 29.9981 32.3947 29.2072 33.8007 27.8012C35.2067 26.3952 35.9976 24.4889 36 22.5005V13.5005C35.9976 11.5121 35.2067 9.60583 33.8007 8.19982C32.3947 6.79381 30.4884 6.00287 28.5 6.00049V6.00049ZM6 25.5005C5.70333 25.5005 5.41332 25.4125 5.16664 25.2477C4.91997 25.0829 4.72771 24.8486 4.61418 24.5745C4.50065 24.3004 4.47094 23.9988 4.52882 23.7079C4.5867 23.4169 4.72956 23.1496 4.93934 22.9398C5.14912 22.73 5.41639 22.5872 5.70736 22.5293C5.99834 22.4714 6.29994 22.5011 6.57402 22.6147C6.84811 22.7282 7.08238 22.9205 7.2472 23.1671C7.41203 23.4138 7.5 23.7038 7.5 24.0005C7.5 24.3983 7.34196 24.7798 7.06066 25.0611C6.77936 25.3425 6.39782 25.5005 6 25.5005ZM6 13.5005C5.70333 13.5005 5.41332 13.4125 5.16664 13.2477C4.91997 13.0829 4.72771 12.8486 4.61418 12.5745C4.50065 12.3004 4.47094 11.9988 4.52882 11.7079C4.5867 11.4169 4.72956 11.1496 4.93934 10.9398C5.14912 10.73 5.41639 10.5872 5.70736 10.5293C5.99834 10.4714 6.29994 10.5011 6.57402 10.6147C6.84811 10.7282 7.08238 10.9205 7.2472 11.1671C7.41203 11.4138 7.5 11.7038 7.5 12.0005C7.5 12.3983 7.34196 12.7798 7.06066 13.0611C6.77936 13.3425 6.39782 13.5005 6 13.5005ZM18 24.0005C16.8133 24.0005 15.6533 23.6486 14.6666 22.9893C13.6799 22.33 12.9108 21.3929 12.4567 20.2966C12.0026 19.2002 11.8838 17.9938 12.1153 16.8299C12.3468 15.6661 12.9182 14.597 13.7574 13.7578C14.5965 12.9187 15.6656 12.3473 16.8295 12.1158C17.9933 11.8843 19.1997 12.0031 20.2961 12.4572C21.3925 12.9113 22.3295 13.6804 22.9888 14.6671C23.6481 15.6538 24 16.8138 24 18.0005C24 19.5918 23.3679 21.1179 22.2426 22.2431C21.1174 23.3683 19.5913 24.0005 18 24.0005ZM30 25.5005C29.7033 25.5005 29.4133 25.4125 29.1666 25.2477C28.92 25.0829 28.7277 24.8486 28.6142 24.5745C28.5006 24.3004 28.4709 23.9988 28.5288 23.7079C28.5867 23.4169 28.7296 23.1496 28.9393 22.9398C29.1491 22.73 29.4164 22.5872 29.7074 22.5293C29.9983 22.4714 30.2999 22.5011 30.574 22.6147C30.8481 22.7282 31.0824 22.9205 31.2472 23.1671C31.412 23.4138 31.5 23.7038 31.5 24.0005C31.5 24.3983 31.342 24.7798 31.0607 25.0611C30.7794 25.3425 30.3978 25.5005 30 25.5005ZM30 13.5005C29.7033 13.5005 29.4133 13.4125 29.1666 13.2477C28.92 13.0829 28.7277 12.8486 28.6142 12.5745C28.5006 12.3004 28.4709 11.9988 28.5288 11.7079C28.5867 11.4169 28.7296 11.1496 28.9393 10.9398C29.1491 10.73 29.4164 10.5872 29.7074 10.5293C29.9983 10.4714 30.2999 10.5011 30.574 10.6147C30.8481 10.7282 31.0824 10.9205 31.2472 11.1671C31.412 11.4138 31.5 11.7038 31.5 12.0005C31.5 12.3983 31.342 12.7798 31.0607 13.0611C30.7794 13.3425 30.3978 13.5005 30 13.5005ZM21 18.0005C21 18.5938 20.8241 19.1739 20.4944 19.6672C20.1648 20.1605 19.6962 20.5451 19.148 20.7721C18.5999 20.9992 17.9967 21.0586 17.4147 20.9428C16.8328 20.8271 16.2982 20.5414 15.8787 20.1218C15.4591 19.7023 15.1734 19.1677 15.0576 18.5858C14.9419 18.0038 15.0013 17.4006 15.2284 16.8524C15.4554 16.3043 15.8399 15.8357 16.3333 15.5061C16.8266 15.1764 17.4067 15.0005 18 15.0005C18.7956 15.0005 19.5587 15.3166 20.1213 15.8792C20.6839 16.4418 21 17.2048 21 18.0005Z" fill="#08E57B"/>
</g>
</g>
<defs>
<clipPath id="clip0_23486_77339">
<rect width="36" height="36" fill="white"/>
</clipPath>
<clipPath id="clip1_23486_77339">
<rect width="36" height="36" fill="white"/>
</clipPath>
</defs>
</svg>
