<svg width="36" height="36" viewBox="0 0 36 36" fill="none" xmlns="http://www.w3.org/2000/svg">
<g clip-path="url(#clip0_23486_77342)">
<path d="M27.7506 34.5003H27.7011C26.9346 34.4883 26.2056 34.1628 25.6836 33.6003L22.4316 30.2073L24.6006 28.1343L27.7596 31.4343L33.8811 25.3113L36.0006 27.4278L29.7591 33.6708C29.2281 34.2048 28.5036 34.5048 27.7506 34.5003V34.5003Z" fill="#08E57B"/>
<path d="M18.0256 0.00106031C8.10008 -0.0289397 0.0300839 8.00506 8.38855e-05 17.9456C-0.0299161 27.8861 7.99058 35.9711 17.9146 36.0011C19.5601 36.0056 21.1996 35.7851 22.7851 35.3426C19.8331 31.3556 20.6686 25.7261 24.6496 22.7696C27.8236 20.4131 32.1631 20.4131 35.3371 22.7696C37.9936 13.2191 32.4181 3.32056 22.8841 0.65956C21.3031 0.21856 19.6681 -0.00343969 18.0256 0.00106031V0.00106031ZM19.5256 17.1221L14.5861 22.0616L12.4651 19.9406L16.5256 15.8801V9.00106H19.5256V17.1221Z" fill="#08E57B"/>
</g>
<defs>
<clipPath id="clip0_23486_77342">
<rect width="36" height="36" fill="white"/>
</clipPath>
</defs>
</svg>
