<svg width="36" height="36" viewBox="0 0 36 36" fill="none" xmlns="http://www.w3.org/2000/svg">
<g clip-path="url(#clip0_23486_77345)">
<path d="M12.711 16.5C11.0793 16.5 9.48425 16.0162 8.12755 15.1096C6.77084 14.2031 5.71342 12.9146 5.08899 11.4071C4.46457 9.89965 4.30119 8.24085 4.61952 6.64051C4.93785 5.04017 5.72359 3.57016 6.87737 2.41637C8.03115 1.26259 9.50116 0.476853 11.1015 0.158525C12.7018 -0.159803 14.3606 0.00357462 15.8681 0.627998C17.3756 1.25242 18.6641 2.30984 19.5706 3.66655C20.4771 5.02325 20.961 6.61831 20.961 8.25C20.9586 10.4373 20.0887 12.5343 18.542 14.081C16.9953 15.6277 14.8983 16.4976 12.711 16.5V16.5ZM25.5 15C23.4233 15 21.3932 15.6158 19.6665 16.7696C17.9398 17.9233 16.594 19.5632 15.7993 21.4818C15.0045 23.4005 14.7966 25.5117 15.2018 27.5485C15.6069 29.5853 16.6069 31.4562 18.0754 32.9246C19.5438 34.3931 21.4148 35.3931 23.4516 35.7982C25.4884 36.2034 27.5996 35.9955 29.5182 35.2007C31.4368 34.406 33.0767 33.0602 34.2304 31.3335C35.3842 29.6068 36 27.5767 36 25.5C35.9968 22.7162 34.8896 20.0473 32.9211 18.0789C30.9527 16.1104 28.2838 15.0032 25.5 15ZM28.5 30.621L24 26.121V19.5H27V24.879L30.621 28.5L28.5 30.621ZM12 25.5C12.0009 23.4168 12.4873 21.3625 13.4205 19.5H7.5C5.51161 19.5024 3.60534 20.2933 2.19933 21.6993C0.793323 23.1053 0.00238179 25.0116 0 27L0 36H17.0235C15.4543 34.7368 14.1884 33.1378 13.319 31.3206C12.4497 29.5035 11.9989 27.5144 12 25.5V25.5Z" fill="#08E57B"/>
</g>
<defs>
<clipPath id="clip0_23486_77345">
<rect width="36" height="36" fill="white"/>
</clipPath>
</defs>
</svg>
