<?xml version="1.0" encoding="UTF-8"?>
<svg width="384px" height="511px" viewBox="0 0 384 511" version="1.1" xmlns="http://www.w3.org/2000/svg" xmlns:xlink="http://www.w3.org/1999/xlink">
    <title>Shape</title>
    <g id="Page-1" stroke="none" stroke-width="1" fill="none" fill-rule="evenodd">
        <g id="location-dot" fill="#08E57B" fill-rule="nonzero">
            <path d="M272,192 C272,236.2 236.2,272 192,272 C147.8,272 112,236.2 112,192 C112,147.8 147.8,112 192,112 C236.2,112 272,147.8 272,192 Z M192,160 C174.3,160 160,174.3 160,192 C160,209.7 174.3,224 192,224 C209.7,224 224,209.7 224,192 C224,174.3 209.7,160 192,160 Z M384,192 C384,279.4 267,435 215.7,499.2 C203.4,514.5 180.6,514.5 168.3,499.2 C116.1,435 0,279.4 0,192 C0,85.96 85.96,0 192,0 C298,0 384,85.96 384,192 L384,192 Z M192,48 C112.5,48 48,112.5 48,192 C48,204.4 52.49,223.6 63.3,249.2 C73.78,274 88.66,301.4 105.8,329.1 C134.2,375.3 167.2,419.1 192,451.7 C216.8,419.1 249.8,375.3 278.2,329.1 C295.3,301.4 310.2,274 320.7,249.2 C331.5,223.6 336,204.4 336,192 C336,112.5 271.5,48 192,48 L192,48 Z" id="Shape"></path>
        </g>
    </g>
</svg>