<?xml version="1.0" encoding="UTF-8"?>
<svg width="548px" height="384px" viewBox="0 0 548 384" version="1.1" xmlns="http://www.w3.org/2000/svg" xmlns:xlink="http://www.w3.org/1999/xlink">
    <title>Shape</title>
    <g id="Page-1" stroke="none" stroke-width="1" fill="none" fill-rule="evenodd">
        <g id="youtube" transform="translate(0.933000, 0.000000)" fill="#08E57B" fill-rule="nonzero">
            <path d="M534.722,60.083 C528.441,36.433 509.935,17.807 486.438,11.486 C443.848,0 273.067,0 273.067,0 C273.067,0 102.287,0 59.696,11.486 C36.199,17.808 17.693,36.433 11.412,60.083 C1.24344979e-14,102.95 1.24344979e-14,192.388 1.24344979e-14,192.388 C1.24344979e-14,192.388 1.24344979e-14,281.826 11.412,324.693 C17.693,348.343 36.199,366.193 59.696,372.514 C102.287,384 273.067,384 273.067,384 C273.067,384 443.847,384 486.438,372.514 C509.935,366.193 528.441,348.343 534.722,324.693 C546.134,281.826 546.134,192.388 546.134,192.388 C546.134,192.388 546.134,102.95 534.722,60.083 Z M217.212,273.591 L217.212,111.185 L359.951,192.39 L217.212,273.591 Z" id="Shape"></path>
        </g>
    </g>
</svg>