<?xml version="1.0" encoding="UTF-8"?>
<svg width="448px" height="448px" viewBox="0 0 448 448" version="1.1" xmlns="http://www.w3.org/2000/svg" xmlns:xlink="http://www.w3.org/1999/xlink">
    <title>Shape</title>
    <g id="Page-1" stroke="none" stroke-width="1" fill="none" fill-rule="evenodd">
        <g id="linkedin-in" transform="translate(0.000000, 0.010001)" fill="#08E57B" fill-rule="nonzero">
            <path d="M100.28,447.989999 L7.4,447.989999 L7.4,148.889999 L100.28,148.889999 L100.28,447.989999 Z M53.79,108.089999 C24.09,108.089999 0,83.4899992 0,53.7899992 C0,24.0826028 24.0826036,0 53.79,0 C83.4973964,0 107.58,24.0826028 107.58,53.7899992 C107.58,83.4899992 83.48,108.089999 53.79,108.089999 Z M447.9,447.989999 L355.22,447.989999 L355.22,302.389999 C355.22,267.689999 354.52,223.189999 306.93,223.189999 C258.64,223.189999 251.24,260.889999 251.24,299.889999 L251.24,447.989999 L158.46,447.989999 L158.46,148.889999 L247.54,148.889999 L247.54,189.689999 L248.84,189.689999 C261.24,166.189999 291.53,141.389999 336.72,141.389999 C430.72,141.389999 448,203.289999 448,283.689999 L448,447.989999 L447.9,447.989999 Z" id="Shape"></path>
        </g>
    </g>
</svg>