<?xml version="1.0" encoding="UTF-8"?>
<svg width="512px" height="512px" viewBox="0 0 512 512" version="1.1" xmlns="http://www.w3.org/2000/svg" xmlns:xlink="http://www.w3.org/1999/xlink">
    <title>Shape</title>
    <g id="Page-1" stroke="none" stroke-width="1" fill="none" fill-rule="evenodd">
        <g id="phone" transform="translate(0.000000, -0.005764)" fill="#08E57B" fill-rule="nonzero">
            <path d="M480.3,320.305764 L382.1,278.205764 C360.69,268.924764 335.46,275.096764 320.9,293.155764 L293.46,326.655764 C248.68,300.905764 211.17,263.405764 185.46,219.555764 L219.01,192.075764 C236.92,177.455764 243.1,152.375764 234.03,131.025764 L191.7,31.5357645 C181.54,8.33576448 156.36,-4.32423552 131.83,1.34576448 L40.58,22.4057645 C16.7,27.8657645 0,48.8357645 0,73.3957645 C0,315.295764 196.7,511.995764 438.6,511.995764 C463.16,511.995764 484.13,495.305764 488.7,471.465764 L509.76,380.125764 C516.4,355.505764 503.6,330.305764 480.3,320.305764 Z M463.9,369.305764 L442.81,460.715764 C442.3413,461.815764 440.701,463.996764 438.591,463.996764 C223.191,463.996764 47.991,288.796764 47.991,73.3967645 C47.991,71.3027645 49.288,69.6627645 51.335,69.1937645 L142.675,48.1137645 C142.9875,48.0356645 143.3156,48.0043645 143.6281,48.0043645 C145.3621,48.0043645 146.9871,49.0513645 147.6751,50.6133645 L189.8151,148.943364 C190.5651,150.709364 190.0651,152.771364 188.5651,154.005364 L139.8,193.105764 C131.175,200.167764 128.55,212.245764 133.456,222.245764 C166.466,289.475764 221.716,344.745764 288.956,377.745764 C298.056,382.651764 311.046,380.026764 318.116,371.401764 L358.126,322.531764 C359.235,321.125764 361.313,320.593764 363.048,321.406764 L461.308,363.496764 C463.2,365.205764 464.3,367.305764 463.9,369.305764 Z" id="Shape"></path>
        </g>
    </g>
</svg>