<?xml version="1.0" encoding="UTF-8"?>
<svg width="40px" height="15px" viewBox="0 0 40 15" version="1.1" xmlns="http://www.w3.org/2000/svg" xmlns:xlink="http://www.w3.org/1999/xlink">
    <title>Copy of Dark bg</title>
    <g id="Page-1" stroke="none" stroke-width="1" fill="none" fill-rule="evenodd">
        <g id="Copy-of-Dark-bg" fill-rule="nonzero">
            <rect id="Rectangle" x="0" y="0" width="39.5" height="15"></rect>
            <path d="M6.468,12.2224 C5.804,12.2224 5.208,12.0824 4.68,11.8024 C4.152,11.5224 3.74,11.1344 3.444,10.6384 C3.148,10.1344 3,9.5664 3,8.9344 C3,8.3024 3.148,7.7384 3.444,7.2424 C3.74,6.7464 4.148,6.3584 4.668,6.0784 C5.196,5.7984 5.796,5.6584 6.468,5.6584 C7.1,5.6584 7.652,5.7864 8.124,6.0424 C8.604,6.2984 8.964,6.6664 9.204,7.1464 L8.052,7.8184 C7.868,7.5224 7.636,7.3024 7.356,7.1584 C7.084,7.0064 6.784,6.9304 6.456,6.9304 C5.896,6.9304 5.432,7.1144 5.064,7.4824 C4.696,7.8424 4.512,8.3264 4.512,8.9344 C4.512,9.5424 4.692,10.0304 5.052,10.3984 C5.42,10.7584 5.888,10.9384 6.456,10.9384 C6.784,10.9384 7.084,10.8664 7.356,10.7224 C7.636,10.5704 7.868,10.3464 8.052,10.0504 L9.204,10.7224 C8.956,11.2024 8.592,11.5744 8.112,11.8384 C7.64,12.0944 7.092,12.2224 6.468,12.2224 Z" id="Path" fill="#FFFFFF"></path>
            <path d="M14.4021,5.6584 C15.2101,5.6584 15.8581,5.8944 16.3461,6.3664 C16.8341,6.8384 17.0781,7.5384 17.0781,8.4664 L17.0781,12.1384 L15.5781,12.1384 L15.5781,8.6584 C15.5781,8.0984 15.4461,7.6784 15.1821,7.3984 C14.9181,7.1104 14.5421,6.9664 14.0541,6.9664 C13.5021,6.9664 13.0661,7.1344 12.7461,7.4704 C12.4261,7.7984 12.2661,8.2744 12.2661,8.8984 L12.2661,12.1384 L10.7661,12.1384 L10.7661,3.2344 L12.2661,3.2344 L12.2661,6.4744 C12.5141,6.2104 12.8181,6.0104 13.1781,5.8744 C13.5461,5.7304 13.9541,5.6584 14.4021,5.6584 Z" id="Path" fill="#FFFFFF"></path>
            <path d="M21.7529,5.6584 C22.6969,5.6584 23.4169,5.8864 23.9129,6.3424 C24.4169,6.7904 24.6689,7.4704 24.6689,8.3824 L24.6689,12.1384 L23.2529,12.1384 L23.2529,11.3584 C23.0689,11.6384 22.8049,11.8544 22.4609,12.0064 C22.1249,12.1504 21.7169,12.2224 21.2369,12.2224 C20.7569,12.2224 20.3369,12.1424 19.9769,11.9824 C19.6169,11.8144 19.3369,11.5864 19.1369,11.2984 C18.9449,11.0024 18.8489,10.6704 18.8489,10.3024 C18.8489,9.7264 19.0609,9.2664 19.4849,8.9224 C19.9169,8.5704 20.5929,8.3944 21.5129,8.3944 L23.1689,8.3944 L23.1689,8.2984 C23.1689,7.8504 23.0329,7.5064 22.7609,7.2664 C22.4969,7.0264 22.1009,6.9064 21.5729,6.9064 C21.2129,6.9064 20.8569,6.9624 20.5049,7.0744 C20.1609,7.1864 19.8689,7.3424 19.6289,7.5424 L19.0409,6.4504 C19.3769,6.1944 19.7809,5.9984 20.2529,5.8624 C20.7249,5.7264 21.2249,5.6584 21.7529,5.6584 Z M21.5489,11.1304 C21.9249,11.1304 22.2569,11.0464 22.5449,10.8784 C22.8409,10.7024 23.0489,10.4544 23.1689,10.1344 L23.1689,9.3904 L21.6209,9.3904 C20.7569,9.3904 20.3249,9.6744 20.3249,10.2424 C20.3249,10.5144 20.4329,10.7304 20.6489,10.8904 C20.8649,11.0504 21.1649,11.1304 21.5489,11.1304 Z" id="Shape" fill="#FFFFFF"></path>
            <polygon id="Path" fill="#FFFFFF" points="26.918 5.7304 28.418 5.7304 28.418 12.1384 26.918 12.1384"></polygon>
            <polygon id="Path" fill="#FFFFFF" points="35.7147 10.9384 35.7147 12.1384 30.1827 12.1384 30.1827 11.1904 33.6987 6.9304 30.2547 6.9304 30.2547 5.7304 35.6187 5.7304 35.6187 6.6784 32.0907 10.9384"></polygon>
            <rect id="Rectangle" fill="#2DF38A" transform="translate(27.671286, 4.051826) rotate(8.000000) translate(-27.671286, -4.051826) " x="23.6712857" y="3.55182644" width="8" height="1"></rect>
        </g>
    </g>
</svg>