<svg width="560" height="381" viewBox="0 0 560 381" fill="none" xmlns="http://www.w3.org/2000/svg">
<path d="M336.682 32.5099C336.682 32.5099 428.311 88.2464 451.018 100.425L474.355 102.46L484.319 92.2296L457.432 64.1178C457.432 64.1178 435.985 56.4379 426.393 50.0189C416.8 43.5999 391.172 30.3607 383.04 29.1284C374.908 27.8962 350.913 26.8359 350.913 26.8359L336.682 32.5099Z" fill="#0A0035"/>
<path d="M271.912 227.115C245.969 187.14 207.657 193.874 207.37 193.931C173.009 171.665 151.19 150.145 151.19 150.145H144.576L130.545 161.12C130.545 161.12 108.926 186.28 110.73 195.049C112.534 203.846 146.208 223.018 151.19 227.115C156.172 231.213 196.69 244.109 197.52 245.14C198.322 246.172 250.35 253.737 250.35 253.737L276.837 244.109L284.196 231.442C280.044 230.096 275.949 228.634 271.912 227.115Z" fill="#0A0035"/>
<path d="M320.685 183.634L298.092 229.853L401.494 170.505L433.362 142.348L400.801 131.062L332.53 170.93C327.388 173.936 323.256 178.359 320.685 183.662V183.634Z" fill="black" fill-opacity="0.8"/>
<path d="M400.801 131.035L399.212 131.971L429.086 142.349L397.219 170.506L299.739 226.451L298.092 229.854L401.494 170.506L433.362 142.349L400.801 131.035Z" fill="#0A0035"/>
<path d="M298.091 230.562C297.918 230.562 297.745 230.506 297.6 230.364C297.369 230.165 297.311 229.825 297.427 229.542L299.103 226.139C299.103 226.139 299.276 225.912 299.392 225.827L396.843 169.882L427.699 142.604L398.952 132.623C398.692 132.537 398.489 132.311 398.461 132.027C398.461 131.744 398.576 131.488 398.807 131.347L400.396 130.411C400.57 130.297 400.801 130.269 401.003 130.354L433.564 141.64C433.795 141.725 433.968 141.923 434.026 142.178C434.084 142.434 433.997 142.689 433.795 142.831L401.928 170.988L298.409 230.421C298.409 230.421 298.178 230.506 298.034 230.506L298.091 230.562ZM300.316 226.961L299.767 228.096L401.119 169.91L431.975 142.632L429.49 141.781C429.634 141.895 429.75 142.037 429.808 142.235C429.866 142.49 429.779 142.745 429.577 142.887L397.709 171.044L300.316 226.961Z" fill="#0A0035"/>
<path d="M189.429 113.679L135.286 157.885C140.602 168.462 154.557 184.454 190.18 204.076C246.807 235.267 265.76 238.67 275.237 239.974L306.642 180.825C252.094 157.063 205.492 124.652 189.4 113.65L189.429 113.679Z" fill="black" fill-opacity="0.8"/>
<path d="M194.487 204.075C158.864 184.453 144.909 168.461 139.593 157.884L191.771 115.266C190.934 114.699 190.153 114.16 189.46 113.678L135.317 157.884C140.633 168.461 154.588 184.453 190.211 204.075C246.839 235.266 265.791 238.669 275.268 239.973L275.586 239.349C264.867 237.421 244.181 231.438 194.487 204.075Z" fill="#0A0035"/>
<path d="M275.267 240.685C275.267 240.685 275.209 240.685 275.18 240.685C267.206 239.58 248.513 236.999 189.863 204.702C153.489 184.655 139.765 168.351 134.652 158.199C134.507 157.916 134.594 157.547 134.825 157.349L188.968 113.142C189.228 112.944 189.574 112.915 189.834 113.114L192.146 114.702C192.319 114.815 192.435 115.042 192.464 115.241C192.464 115.467 192.377 115.666 192.204 115.808L140.459 158.086C145.659 168.095 159.354 183.918 194.804 203.455C250.449 234.107 269.431 237.538 275.7 238.672C275.931 238.7 276.104 238.871 276.22 239.069C276.307 239.268 276.307 239.494 276.22 239.721L275.902 240.345C275.787 240.572 275.527 240.714 275.267 240.714V240.685ZM136.212 158.086C141.412 168.095 155.107 183.918 190.557 203.455C223.349 221.517 243.544 230.251 256.372 234.617C243.862 229.995 224.36 221.347 194.11 204.702C157.736 184.655 144.013 168.351 138.899 158.199C138.754 157.916 138.841 157.547 139.072 157.349L190.528 115.326L189.43 114.588L136.154 158.086H136.212Z" fill="#0A0035"/>
<path d="M471.728 101.971L448.442 81.6401L392.941 49.3999L344.866 29.3242L329.438 35.0237L434.92 95.0806L471.728 101.971Z" fill="black" fill-opacity="0.8"/>
<path d="M344.866 31.7627L392.941 51.8385L448.442 84.0503L468.203 101.29L471.728 101.971L448.442 81.6401L392.941 49.3999L344.866 29.3242L329.438 35.0237L332.009 36.4982L344.866 31.7627Z" fill="#0A0035"/>
<path d="M471.73 102.678C471.73 102.678 471.643 102.678 471.585 102.678L468.06 102.026C468.06 102.026 467.8 101.941 467.714 101.856L447.952 84.6158L392.567 52.4607L344.838 32.5551L332.241 37.2054C332.039 37.2905 331.808 37.2622 331.635 37.1488L329.063 35.6742C328.832 35.5324 328.688 35.2773 328.717 34.9937C328.717 34.7102 328.919 34.4833 329.179 34.3983L344.607 28.6988C344.78 28.6421 344.982 28.6421 345.156 28.6988L393.231 48.7744L448.819 81.043L472.221 101.459C472.452 101.657 472.538 102.026 472.394 102.31C472.278 102.565 472.018 102.707 471.758 102.707L471.73 102.678ZM468.523 100.637L469.274 100.778L447.952 82.1489L392.567 49.9938L344.838 30.0882L331.086 35.1638L332.039 35.7026L344.578 31.0806C344.751 31.0239 344.954 31.0239 345.127 31.0806L393.202 51.1564L448.79 83.4248L468.523 100.608V100.637Z" fill="#0A0035"/>
<path d="M260.772 324.204L234.143 308.816V282.137L260.772 297.525V324.204Z" fill="#0A0035"/>
<path d="M513.813 161.349L476.217 162.552L487.184 119.281L513.813 134.67V161.349Z" fill="#0A0035"/>
<path d="M548.317 73.6895L473.754 105.469L434.811 99.1936L315.836 168.886L279.414 242.303L151.161 331.138L155.571 350.911L287.918 269.126L413.135 195.794L493.511 135.558L559.227 96.7005L548.26 73.6895H548.317ZM400.479 171.465L297.997 231.442L320.418 184.647C322.966 179.345 327.004 174.904 332.015 171.866L432.005 111.516L462.73 115.356L400.479 171.436V171.465Z" fill="#10F688"/>
<path d="M155.599 351.627C155.599 351.627 155.399 351.627 155.313 351.57C155.112 351.484 154.941 351.283 154.883 351.054L150.474 331.281C150.416 330.995 150.531 330.708 150.76 330.536L278.841 241.816L315.177 168.571C315.177 168.571 315.349 168.341 315.464 168.284L434.439 98.5918C434.582 98.5059 434.754 98.4772 434.926 98.5059L473.668 104.753L548.031 73.0591C548.374 72.9158 548.804 73.0591 548.947 73.4029L559.914 96.414C560.086 96.7578 559.942 97.159 559.627 97.331L493.912 136.189L413.593 196.367L288.319 269.756L156 351.541C156 351.541 155.742 351.656 155.628 351.656L155.599 351.627ZM151.991 331.453L156.086 349.764L287.574 268.495L412.82 195.135L493.139 134.957L558.368 96.3853L547.973 74.6065L474.04 106.128C474.04 106.128 473.782 106.214 473.639 106.186L434.954 99.9387L316.409 169.402L280.101 242.647C280.101 242.647 279.957 242.848 279.871 242.905L152.02 331.453H151.991ZM297.968 232.159C297.796 232.159 297.625 232.102 297.481 231.958C297.252 231.758 297.195 231.414 297.31 231.127L319.73 184.332C322.336 178.887 326.431 174.359 331.613 171.264L431.604 110.914C431.604 110.914 431.89 110.799 432.062 110.828L462.787 114.668C463.073 114.697 463.302 114.897 463.388 115.155C463.474 115.413 463.388 115.728 463.188 115.9L400.937 171.981C400.937 171.981 400.851 172.038 400.822 172.067L298.341 232.044C298.341 232.044 298.111 232.13 297.968 232.13V232.159ZM432.148 112.261L332.358 172.468C327.433 175.448 323.51 179.747 321.047 184.933L299.629 229.608L400.021 170.863L461.069 115.872L432.148 112.261Z" fill="#0A0035"/>
<path d="M149.386 332.799L148.068 329.933L84.0424 304.773L47.2189 283.796L8.87768 249.781L8.4768 250.383C6.24333 253.764 5.06934 257.719 5.06934 261.76V264.281C17.6111 273.939 42.5515 299.758 67.0051 313.14C95.5247 328.758 138.333 344.691 152.163 349.82V345.809C152.163 341.31 151.19 336.896 149.357 332.799H149.386Z" fill="#0A0035"/>
<path d="M152.192 350.509C152.192 350.509 152.02 350.509 151.934 350.452C105.804 333.43 80.1196 321.108 66.6901 313.743C49.4237 304.286 31.6992 288.497 18.7565 276.948C13.1728 271.962 8.3623 267.692 4.63985 264.827C4.46805 264.683 4.35352 264.483 4.35352 264.254V261.732C4.35352 257.548 5.58478 253.479 7.87552 249.954L8.2764 249.352C8.39093 249.18 8.56274 249.066 8.79181 249.037C8.99225 249.037 9.19269 249.066 9.3645 249.209L47.7057 283.224L84.4147 304.115L148.355 329.217C148.527 329.275 148.67 329.418 148.756 329.59L150.073 332.456C151.991 336.668 152.965 341.138 152.965 345.752V349.764C152.965 349.993 152.85 350.223 152.65 350.366C152.535 350.452 152.392 350.48 152.249 350.48L152.192 350.509ZM5.81386 263.91C9.5363 266.804 14.2609 271.017 19.7301 275.888C32.6155 287.379 50.2827 303.112 67.406 312.482C80.6923 319.761 106.062 331.94 151.505 348.761V345.781C151.505 341.368 150.588 337.098 148.756 333.086L147.582 330.478L83.8134 305.433L46.9039 284.428L9.07816 250.871C6.95923 254.109 5.84249 257.892 5.84249 261.761V263.91H5.81386Z" fill="#0A0035"/>
<path d="M31.2693 283.225C24.3685 277.092 17.2672 270.788 13.1152 267.521V264.34C13.1152 261.274 13.8597 257.176 15.2914 254.482C15.2914 254.482 33.2379 268.308 36.2803 278.84C37.861 284.312 36.2803 287.695 36.2803 287.695C34.6481 286.262 32.9587 284.744 31.2693 283.253V283.225Z" fill="white"/>
<path d="M144.26 342.542C137.416 340.02 123.901 334.919 109.068 328.787C109.068 328.787 111.672 323.813 117.399 322.382C123.125 320.951 140.681 327.354 140.681 327.354L141.625 329.446C143.372 333.286 144.26 337.355 144.26 341.568V342.542Z" fill="white"/>
<path d="M541.99 69.1624C509.748 46.0654 475.587 25.7481 439.88 8.49697L417.374 0.759766L345.187 24.7738L324.828 32.1098L201.586 101.802L187.498 112.09L135.413 155.934L122.842 163.155C84.8162 185.048 48.8803 210.381 15.5215 238.865L5.90039 247.089L47.2195 283.769L84.0431 304.746L151.19 331.138L279.443 242.304L308.907 182.985C313.432 173.787 320.59 166.107 329.438 160.92L427.739 103.321C432.321 100.627 437.704 99.624 442.944 100.484L473.783 105.441L548.347 73.6614L542.047 69.1337L541.99 69.1624ZM275.348 241.702C265.985 240.384 247.172 236.945 191.049 205.423C155.743 185.593 141.913 169.431 136.644 158.742L190.305 114.067C206.254 125.185 252.441 157.911 306.502 181.954L275.377 241.731L275.348 241.702ZM433.581 95.2396L329.037 34.5742L344.328 28.8143L391.975 49.103L446.981 81.6852L469.746 101.945L433.552 95.2683L433.581 95.2396Z" fill="white"/>
<path d="M151.19 331.854C151.19 331.854 151.018 331.854 150.932 331.797L83.7851 305.405L46.8756 284.4L5.44196 247.634C5.29879 247.49 5.21289 247.29 5.21289 247.089C5.21289 246.888 5.29879 246.688 5.4706 246.545L15.0917 238.32C48.4219 209.893 84.5582 184.389 122.527 162.524L135.098 155.303L187.097 111.545L201.243 101.228L324.541 31.479L345.015 24.0856L417.202 0.0429845C417.345 -0.0143282 417.517 -0.0143282 417.66 0.0429845L440.166 7.78019C475.873 25.0313 510.263 45.4632 542.447 68.5316L548.747 73.0593C548.947 73.2025 549.062 73.4605 549.033 73.7184C549.033 73.9763 548.833 74.2055 548.604 74.2915L474.04 106.071C474.04 106.071 473.783 106.129 473.64 106.129L442.8 101.171C437.732 100.369 432.521 101.343 428.083 103.922L329.781 161.521C321.019 166.651 314.033 174.187 309.537 183.271L280.072 242.59C280.072 242.59 279.929 242.791 279.843 242.848L151.591 331.682C151.591 331.682 151.333 331.797 151.19 331.797V331.854ZM6.98821 247.118L47.706 283.253L84.4151 304.144L151.133 330.336L278.898 241.845L308.277 182.698C312.887 173.356 320.074 165.619 329.094 160.346L427.395 102.747C432.12 99.9962 437.675 98.9359 443.058 99.8243L473.697 104.753L546.886 73.5464L541.617 69.7638C509.49 46.7241 475.186 26.3495 439.622 9.15569L417.431 1.53311L345.473 25.4898L325.114 32.8258L201.987 102.489L187.956 112.72L135.899 156.535L123.243 163.842C85.36 185.65 49.2809 211.097 16.008 239.466L7.01684 247.146L6.98821 247.118ZM275.376 242.418C275.376 242.418 275.319 242.418 275.291 242.418C267.387 241.3 248.861 238.693 190.734 206.053C154.683 185.793 141.082 169.316 136.014 159.057C135.871 158.77 135.957 158.398 136.186 158.197L189.846 113.522C190.104 113.321 190.447 113.293 190.705 113.493L192.48 114.726C209.489 126.589 254.645 158.14 306.788 181.294C306.96 181.38 307.103 181.523 307.16 181.724C307.218 181.925 307.218 182.125 307.132 182.297L276.006 242.074C275.892 242.303 275.634 242.447 275.376 242.447V242.418ZM137.56 158.942C142.714 169.058 156.287 185.048 191.421 204.792C248.088 236.629 266.843 239.782 274.976 240.928L305.528 182.297C253.557 159.114 208.659 127.736 191.679 115.9L190.362 114.983L137.56 158.942ZM469.803 102.661C469.803 102.661 469.717 102.661 469.659 102.661L433.466 95.9843C433.466 95.9843 433.294 95.927 433.237 95.8983L328.693 35.2329C328.464 35.0897 328.321 34.8317 328.35 34.5452C328.35 34.2586 328.55 34.0294 328.808 33.9434L344.098 28.1835C344.27 28.1262 344.471 28.1262 344.643 28.1835L392.29 48.4721L447.382 81.083L470.261 101.429C470.49 101.63 470.576 102.002 470.433 102.289C470.318 102.547 470.06 102.69 469.803 102.69V102.661ZM433.867 94.5802L467.397 100.77L446.552 82.2006L391.66 49.7044L344.356 29.5876L330.726 34.7171L433.867 94.5802Z" fill="#0A0035"/>
<path d="M399.792 131.605L398.217 132.551L427.824 143.039L396.241 171.495L299.629 228.034L297.997 231.473L400.479 171.495L432.062 143.039L399.792 131.605Z" fill="#0A0035"/>
<path d="M297.997 232.189C297.825 232.189 297.654 232.131 297.51 231.988C297.281 231.787 297.224 231.444 297.339 231.157L298.999 227.718C298.999 227.718 299.171 227.489 299.286 227.403L395.869 170.864L426.45 143.297L397.959 133.21C397.701 133.124 397.501 132.894 397.472 132.608C397.472 132.321 397.587 132.063 397.816 131.92L399.391 130.974C399.563 130.86 399.792 130.831 399.992 130.917L432.263 142.322C432.492 142.408 432.664 142.609 432.721 142.867C432.778 143.125 432.692 143.383 432.492 143.526L400.908 171.982L298.312 232.045C298.312 232.045 298.083 232.131 297.94 232.131L297.997 232.189ZM300.202 228.549L299.658 229.695L400.107 170.893L430.688 143.325L428.225 142.466C428.369 142.58 428.483 142.724 428.54 142.924C428.598 143.182 428.512 143.44 428.311 143.583L396.728 172.039L300.202 228.549Z" fill="#0A0035"/>
<path d="M432.034 111.545L399.792 131.604L432.063 143.038L462.73 115.414L432.034 111.545Z" fill="#10F688"/>
<path d="M432.062 143.755C432.062 143.755 431.891 143.755 431.833 143.726L399.563 132.321C399.305 132.235 399.133 132.006 399.076 131.719C399.047 131.433 399.19 131.175 399.419 131.031L431.662 110.972C431.662 110.972 431.948 110.857 432.12 110.857L462.844 114.697C463.131 114.726 463.36 114.927 463.446 115.185C463.531 115.442 463.446 115.729 463.245 115.93L432.578 143.554C432.578 143.554 432.263 143.726 432.091 143.726L432.062 143.755ZM401.424 131.433L431.891 142.207L461.069 115.93L432.148 112.319L401.395 131.461L401.424 131.433Z" fill="#0A0035"/>
<path d="M1.66218 261.618V262.42L1.03223 271.418C1.03223 271.418 20.4176 297.381 58.1861 319.933C80.578 333.316 117.688 349.192 142.628 354.522C145.377 355.123 148.241 354.694 150.76 353.404L155.628 350.882C145.664 348.303 98.3885 330.25 67.0627 313.085C39.9175 298.212 10.7392 268.61 1.71945 261.561L1.66218 261.618Z" fill="white"/>
<path d="M145.119 355.525C144.232 355.525 143.344 355.439 142.485 355.238C116.571 349.679 79.0887 333.259 57.8422 320.564C20.3887 298.212 0.68834 272.135 0.487901 271.877C0.373364 271.734 0.344727 271.562 0.344727 271.39L0.974682 262.392V261.646C0.974682 261.36 1.11785 261.131 1.37556 261.016C1.63327 260.901 1.91961 260.93 2.12005 261.102C4.41078 262.907 7.99006 266.117 12.4856 270.186C25.4569 281.878 47.1616 301.479 67.3774 312.54C98.1591 329.39 145.062 347.472 155.8 350.252C156.086 350.338 156.287 350.567 156.344 350.854C156.372 351.14 156.229 351.427 155.972 351.57L151.104 354.092C149.243 355.037 147.209 355.553 145.148 355.553L145.119 355.525ZM1.77644 271.218C3.72356 273.739 23.1375 298.183 58.558 319.332C79.7187 331.969 117 348.332 142.771 353.834C145.32 354.378 148.04 354.006 150.417 352.802L153.652 351.111C140.223 347.1 96.0975 329.877 66.6615 313.744C46.3026 302.596 24.512 282.938 11.5121 271.189C7.70372 267.75 4.58259 264.913 2.32049 263.079L1.74781 271.218H1.77644Z" fill="#0A0035"/>
<path d="M413.164 195.793L287.947 269.125L155.6 350.91L150.732 353.432C148.241 354.721 145.377 355.122 142.6 354.549C117.66 349.219 80.5497 333.315 58.1577 319.961C20.3892 297.409 1.00389 271.446 1.00389 271.446C1.00389 271.446 -2.14588 288.84 10.2814 303.512C23.5104 319.13 66.8052 355.323 142.342 379.308C146.151 380.455 151.992 380.913 155.571 378.85L188.873 359.45L193.826 357.042C197.062 339.849 210.663 320.477 226.928 311.049C245.225 300.475 260.086 306.435 260.716 324.202L440.653 222.845L451.248 213.961C451.964 195.478 466.796 172.467 485.036 161.95C497.177 154.929 507.8 155.216 513.756 161.377L548.031 130.314C555.133 123.866 559.199 114.696 559.199 105.096V96.7285L493.483 135.586L413.107 195.822L413.164 195.793Z" fill="#10F688"/>
<path d="M149.042 381C146.666 381 144.203 380.599 142.17 379.997C68.7233 356.671 24.3689 321.223 9.76547 303.972C-2.71903 289.214 0.316191 271.504 0.344825 271.304C0.402093 271.017 0.602534 270.788 0.888876 270.731C1.17522 270.673 1.46156 270.759 1.63337 270.988C1.8338 271.246 21.391 297.123 58.5868 319.303C79.7474 331.94 117.029 348.303 142.8 353.805C145.348 354.35 148.069 353.977 150.445 352.774L155.313 350.252L287.603 268.495L412.792 195.164L493.139 134.957L558.912 96.0704C559.141 95.9271 559.399 95.9271 559.628 96.0704C559.857 96.185 560 96.4429 560 96.7008V105.068C560 114.869 555.848 124.24 548.604 130.802L514.328 161.865C514.042 162.123 513.613 162.123 513.326 161.837C507.342 155.647 496.919 155.933 485.465 162.524C467.454 172.927 452.765 195.536 452.049 213.934C452.049 214.134 451.935 214.335 451.791 214.45L441.197 223.333L261.174 324.776C260.945 324.891 260.687 324.891 260.486 324.776C260.257 324.662 260.143 324.433 260.114 324.175C259.856 316.753 256.964 311.165 252.011 308.414C245.826 304.975 236.835 306.15 227.385 311.623C211.636 320.707 197.863 339.85 194.628 357.129C194.599 357.359 194.427 357.531 194.227 357.645L189.273 360.052L156 379.424C154.11 380.513 151.619 380.971 149.071 380.971L149.042 381ZM1.54746 273.224C1.14658 277.866 1.00341 291.42 10.8536 303.026C25.3711 320.163 69.4391 355.381 142.599 378.593C146.379 379.711 151.963 380.083 155.256 378.192L188.557 358.791L193.253 356.499C196.689 338.961 210.663 319.59 226.641 310.362C236.548 304.631 246.026 303.456 252.669 307.153C257.823 310.018 260.916 315.578 261.431 322.942L440.366 222.129L450.617 213.504C451.505 194.705 466.452 171.78 484.749 161.206C496.489 154.415 507.313 154.071 513.87 160.26L547.659 129.656C554.617 123.351 558.597 114.353 558.597 104.982V97.8757L493.97 136.103L413.651 196.281L413.593 196.339L288.376 269.67L156.058 351.455L151.161 353.977C148.498 355.353 145.434 355.754 142.571 355.152C116.657 349.593 79.1748 333.173 57.9282 320.478C25.3997 301.049 6.24347 278.812 1.662 273.138L1.54746 273.224Z" fill="#0A0035"/>
<path d="M195.315 205.421C160.009 185.591 146.178 169.428 140.91 158.74L192.623 115.669C191.793 115.096 191.02 114.552 190.332 114.064L136.672 158.74C141.941 169.428 155.771 185.591 191.077 205.421C247.2 236.943 265.984 240.381 275.376 241.7L275.691 241.069C265.068 239.121 244.565 233.074 195.315 205.421Z" fill="#0A0035"/>
<path d="M275.376 242.417C275.376 242.417 275.319 242.417 275.29 242.417C267.387 241.3 248.861 238.692 190.733 206.052C154.683 185.792 141.082 169.315 136.013 159.056C135.87 158.769 135.956 158.397 136.185 158.196L189.846 113.521C190.103 113.32 190.447 113.292 190.705 113.492L192.995 115.097C193.167 115.212 193.282 115.441 193.31 115.642C193.31 115.871 193.224 116.071 193.053 116.215L141.769 158.941C146.923 169.057 160.496 185.047 195.63 204.791C250.751 235.769 269.592 239.236 275.805 240.383C276.035 240.411 276.206 240.583 276.321 240.784C276.407 240.984 276.407 241.214 276.321 241.443L276.006 242.073C275.891 242.302 275.634 242.446 275.376 242.446V242.417ZM137.56 158.941C142.714 169.057 156.286 185.047 191.421 204.791C223.92 223.045 243.936 231.872 256.649 236.285C244.251 231.614 224.922 222.873 194.942 206.052C158.892 185.792 145.291 169.315 140.223 159.056C140.079 158.769 140.165 158.397 140.394 158.196L191.392 115.728L190.304 114.982L137.502 158.941H137.56Z" fill="#0A0035"/>
<path d="M344.356 31.2789L392.003 51.5676L447.01 84.1211L466.595 101.544L470.089 102.232L447.01 81.6853L392.003 49.1031L344.356 28.8145L329.065 34.5744L331.614 36.0645L344.356 31.2789Z" fill="#0A0035"/>
<path d="M470.089 102.948C470.089 102.948 470.003 102.948 469.945 102.948L466.452 102.289C466.452 102.289 466.194 102.203 466.108 102.117L446.523 84.6939L391.631 52.1976L344.327 32.0809L331.843 36.7805C331.642 36.8665 331.413 36.8378 331.241 36.7232L328.693 35.2331C328.464 35.0898 328.321 34.8319 328.349 34.5453C328.349 34.2587 328.55 34.0295 328.807 33.9435L344.098 28.1836C344.27 28.1263 344.47 28.1263 344.642 28.1836L392.289 48.4723L447.382 81.0832L470.575 101.716C470.804 101.945 470.89 102.289 470.747 102.575C470.633 102.833 470.375 102.977 470.117 102.977L470.089 102.948ZM466.91 100.885L467.655 101.028L446.523 82.2008L391.631 49.7045L344.327 29.5878L330.697 34.7173L331.642 35.2617L344.07 30.5907C344.241 30.5334 344.442 30.5334 344.614 30.5907L392.261 50.8794L447.353 83.4903L466.91 100.856V100.885Z" fill="#0A0035"/>
<path d="M8.47704 250.384L8.87793 249.782L5.87133 247.117L5.21275 248.12C2.89338 251.645 1.66211 255.8 1.66211 260.013V261.589C2.54977 262.276 3.69514 263.193 5.06958 264.225V261.703C5.06958 257.663 6.24358 253.708 8.47704 250.327V250.384Z" fill="#10F688"/>
<path d="M5.09793 264.999C4.95476 264.999 4.78295 264.942 4.66842 264.856C3.29398 263.795 2.14861 262.907 1.26095 262.191C1.08915 262.047 0.974609 261.847 0.974609 261.618V260.041C0.974609 255.657 2.23451 251.416 4.66842 247.748L5.32701 246.745C5.44154 246.573 5.61334 246.458 5.84242 246.43C6.04286 246.43 6.27193 246.458 6.4151 246.602L9.42169 249.267C9.6794 249.496 9.73667 249.897 9.53623 250.184L9.13535 250.785C6.98779 254.052 5.84242 257.835 5.84242 261.761V264.283C5.84242 264.569 5.69925 264.798 5.44154 264.913C5.327 264.97 5.2411 264.999 5.12656 264.999H5.09793ZM2.40632 261.274C2.979 261.703 3.63759 262.248 4.38208 262.821V261.761C4.38208 257.577 5.61335 253.508 7.90408 249.983L7.96135 249.897L6.04286 248.206L5.84242 248.522C3.58032 251.932 2.40632 255.915 2.40632 260.013V261.245V261.274Z" fill="#0A0035"/>
<path d="M155.599 350.911L155.914 348.39C156.572 342.83 155.255 337.242 152.163 332.571L151.218 331.138L148.097 329.906L149.414 332.772C151.275 336.87 152.22 341.283 152.22 345.782V349.794C153.594 350.31 154.74 350.682 155.627 350.911H155.599Z" fill="#10F688"/>
<path d="M155.599 351.628C155.599 351.628 155.485 351.628 155.428 351.628C154.54 351.399 153.366 350.997 151.934 350.482C151.648 350.367 151.476 350.109 151.476 349.823V345.811C151.476 341.398 150.56 337.128 148.727 333.116L147.41 330.25C147.295 329.992 147.353 329.677 147.553 329.448C147.754 329.247 148.069 329.161 148.326 329.276L151.447 330.508C151.447 330.508 151.705 330.651 151.791 330.766L152.736 332.199C155.914 336.985 157.289 342.773 156.602 348.504L156.287 351.026C156.287 351.227 156.143 351.427 155.972 351.542C155.857 351.628 155.714 351.657 155.571 351.657L155.599 351.628ZM152.908 349.307C153.681 349.593 154.397 349.823 154.998 349.994L155.198 348.304C155.828 342.916 154.54 337.472 151.562 332.973L150.732 331.74L149.443 331.225L150.016 332.485C151.934 336.698 152.908 341.168 152.908 345.782V349.278V349.307Z" fill="#0A0035"/>
</svg>
