<svg width="21" height="21" viewBox="0 0 21 21" fill="none" xmlns="http://www.w3.org/2000/svg">
<path d="M19.3475 7.29422C19.0344 7.291 18.7782 7.54765 18.7749 7.86787L18.769 8.44733L17.6358 8.43568L17.6477 7.27675L2.84078 7.12454L2.82887 8.28347L12.4987 8.38288C13.4393 8.39255 14.1905 9.1769 14.1806 10.1388L14.1687 11.2977C14.1653 11.6223 13.9135 11.8746 13.5961 11.8713C13.2788 11.8681 13.0322 11.6106 13.0355 11.286L13.0474 10.1271C13.0507 9.80266 12.8042 9.54508 12.4868 9.54181L11.8182 9.53494C11.8842 9.7211 11.9164 9.90691 11.9142 10.1155L11.9023 11.2744C11.899 11.599 11.6471 11.8513 11.3298 11.848C11.0124 11.8448 10.7658 11.5873 10.7691 11.2627L10.781 10.1038C10.7844 9.77937 10.5378 9.52178 10.2204 9.51852L9.55187 9.51164C9.61783 9.6978 9.65001 9.88361 9.64787 10.0922L9.63595 11.2511C9.63262 11.5757 9.38078 11.828 9.0634 11.8247C8.74602 11.8215 8.49943 11.564 8.50277 11.2394L8.51468 10.0805C8.51802 9.75607 8.27143 9.49848 7.95405 9.49522L7.2855 9.48835C7.35147 9.6745 7.38365 9.86031 7.3815 10.0689L7.36959 11.2278C7.36625 11.5524 7.11442 11.8047 6.79704 11.8014C6.47966 11.7982 6.23307 11.5407 6.23641 11.2161L6.24832 10.0572C6.25165 9.73277 6.00506 9.47518 5.68769 9.47192L2.81696 9.44241L2.78122 12.9192L17.5881 13.0714L17.6 11.9125L18.7332 11.9241L18.7273 12.5036C18.724 12.8238 18.9748 13.0857 19.2879 13.0889C19.601 13.0921 19.8572 12.8355 19.8604 12.5153L19.9081 7.87951C19.9114 7.5593 19.6606 7.29744 19.3475 7.29422V7.29422Z" fill="#B3B2B2"/>
<path d="M1.13538 8.25816C0.818003 8.2549 0.56617 8.50736 0.562835 8.8318C0.559498 9.1564 0.80609 9.41383 1.12347 9.4171L2.82324 9.43457L2.83516 8.27563L1.13538 8.25816Z" fill="#B3B2B2"/>
<path d="M17.5755 14.8055L17.5814 14.2261L2.77453 14.0739L2.76858 14.6533C2.75872 15.6119 3.51324 16.3996 4.45048 16.4092L15.8578 16.5265C16.7951 16.5361 17.5656 15.7641 17.5755 14.8055Z" fill="#B3B2B2"/>
<path d="M1.15118 5.94437L1.71777 5.9502L1.7416 3.63232L1.17501 3.6265C0.862056 3.62328 0.605752 3.88008 0.602462 4.20014L0.590548 5.35908C0.587258 5.67914 0.838229 5.94115 1.15118 5.94437Z" fill="#B3B2B2"/>
<path d="M9.17801 1.39467L4.60751 1.34768C3.6688 1.33803 2.89973 2.10857 2.88986 3.06861L2.86008 5.96595L17.667 6.11816L17.6729 5.5387C17.6828 4.57865 16.9298 3.79247 15.991 3.78282L10.854 3.73001L10.8599 3.15054C10.8698 2.1905 10.1167 1.40432 9.17801 1.39467Z" fill="#B3B2B2"/>
<path d="M14.6653 18.8361C15.403 18.8437 16.031 18.3642 16.2727 17.6936L13.0817 17.6608C13.3096 18.3362 13.9275 18.8286 14.6653 18.8361Z" fill="#B3B2B2"/>
<path d="M10.1223 18.7932C10.8601 18.8008 11.488 18.3212 11.7297 17.6506L8.53878 17.6178C8.76661 18.2933 9.38457 18.7856 10.1223 18.7932Z" fill="#B3B2B2"/>
<path d="M5.59107 18.7346C6.32882 18.7422 6.95677 18.2627 7.19844 17.592L4.00753 17.5592C4.23536 18.2347 4.85332 18.727 5.59107 18.7346Z" fill="#B3B2B2"/>
</svg>
