<svg width="20" height="20" viewBox="0 0 20 20" fill="none" xmlns="http://www.w3.org/2000/svg">
<g clip-path="url(#clip0_28847_148738)">
<path d="M15.3159 6.2908C15.354 5.99658 15.1835 5.71503 14.9048 5.61218C14.6262 5.50929 14.3133 5.6124 14.1507 5.86073L9.22093 13.3897C9.09696 13.579 9.083 13.8199 9.18426 14.0223C9.28552 14.2248 9.48683 14.3583 9.71293 14.373L11.9763 14.5201L11.4335 18.7975C11.3962 19.0913 11.5668 19.372 11.845 19.4746C12.1176 19.5766 12.4356 19.4762 12.5982 19.2269L17.5072 11.7593C17.6316 11.57 17.6459 11.3289 17.5447 11.1262C17.4435 10.9234 17.2421 10.7897 17.0158 10.775L14.7542 10.628L15.3159 6.2908Z" fill="#B3B2B2"/>
<path d="M5.60285 -0.000976562C5.297 0.471756 4.97706 0.978641 4.6583 1.50311C2.05185 5.7922 1.97656 7.18656 1.97656 7.33145C1.97656 9.34767 3.60324 10.988 5.60285 10.988C7.60246 10.988 9.22931 9.34767 9.22931 7.33145C9.22931 7.18656 9.15402 5.7922 6.54757 1.50311C6.22864 0.978641 5.9087 0.471756 5.60285 -0.000976562Z" fill="#B3B2B2"/>
<rect x="14.9805" y="1.62793" width="0.586671" height="19.3453" transform="rotate(35.2604 14.9805 1.62793)" fill="#B3B2B2"/>
</g>
<defs>
<clipPath id="clip0_28847_148738">
<rect width="20" height="20" fill="white" transform="translate(0 -0.000976562)"/>
</clipPath>
</defs>
</svg>
