<svg width="20" height="20" viewBox="0 0 20 20" fill="none" xmlns="http://www.w3.org/2000/svg">
<g clip-path="url(#clip0_28847_148717)">
<path d="M5.74917 9.07715C5.40636 9.60459 5.22266 10.2202 5.22266 10.8636C5.22266 11.5075 5.40636 12.1226 5.74917 12.6505L7.53978 10.8636L5.74917 9.07715Z" fill="#B3B2B2"/>
<path d="M6.73438 13.6326C7.81941 14.3308 9.22824 14.3308 10.3133 13.6326L8.52359 11.8467L6.73438 13.6326Z" fill="#B3B2B2"/>
<path d="M10.3133 8.08916C9.77052 7.73985 9.14706 7.56543 8.52359 7.56543C7.90059 7.56543 7.27712 7.73985 6.73438 8.08916L8.52359 9.87466L10.3133 8.08916Z" fill="#B3B2B2"/>
<path d="M9.50391 10.8636L11.294 12.6505C11.6373 12.1226 11.821 11.5075 11.821 10.8636C11.821 10.2202 11.6373 9.60459 11.294 9.07715L9.50391 10.8636Z" fill="#B3B2B2"/>
<path d="M19.2166 1.42871C18.8325 1.42871 18.5207 1.74044 18.5207 2.12454V2.35463H8.52626C3.82475 2.35463 0 6.17243 0 10.8647C0 15.5573 3.82475 19.3751 8.52626 19.3751C13.2282 19.3751 17.053 15.5573 17.053 10.8647C17.053 10.1568 16.9667 9.45954 16.796 8.78226H18.5207V9.01235C18.5207 9.39645 18.8325 9.70818 19.2166 9.70818C19.6007 9.70818 19.9124 9.39645 19.9124 9.01235V2.12454C19.9124 1.74044 19.6007 1.42871 19.2166 1.42871ZM12.865 12.6594C12.6321 13.2207 12.2884 13.7357 11.8449 14.1782C10.9301 15.0916 9.72819 15.5481 8.52626 15.5481C7.32479 15.5481 6.12286 15.0916 5.20807 14.1782C4.32112 13.2936 3.83264 12.1167 3.83264 10.8647C3.83264 9.61308 4.32112 8.4362 5.20807 7.5511C7.03764 5.72524 10.0153 5.72524 11.8449 7.5511C12.7319 8.4362 13.2203 9.61308 13.2203 10.8647C13.2203 11.4904 13.0983 12.0981 12.865 12.6594Z" fill="#B3B2B2"/>
</g>
<defs>
<clipPath id="clip0_28847_148717">
<rect width="20" height="20" fill="white" transform="translate(0 -0.000976562)"/>
</clipPath>
</defs>
</svg>
