<svg width="20" height="20" viewBox="0 0 20 20" fill="none" xmlns="http://www.w3.org/2000/svg">
<g clip-path="url(#clip0_28847_148764)">
<path d="M4.89062 10.5039L6.46126 8.93327L11.1121 13.5842L9.5415 15.1548L4.89062 10.5039Z" fill="#B3B2B2"/>
<path d="M4.05528 11.3281L2.15765 13.2257L3.05296 14.1211L2.20744 14.9666L3.04226 15.8014L3.88778 14.9559L5.06247 16.1306L2.86776 18.3252L1.69312 17.1506L2.09272 16.7509L1.2579 15.9162L0.0234375 17.1506L2.86776 19.9949L5.89729 16.9654L6.8092 17.8773L8.70686 15.9797L4.05528 11.3281Z" fill="#B3B2B2"/>
<path d="M15.8841 0.804688L10.0898 6.11727L13.8674 9.8948L19.18 4.10056L15.8841 0.804688Z" fill="#B3B2B2"/>
<path d="M17.9492 1.19531L19.1483 -0.00379378L19.983 0.830909L18.7839 2.03002L17.9492 1.19531Z" fill="#B3B2B2"/>
<path d="M6.36328 7.16797L7.91421 5.61704L14.3681 12.0709L12.8172 13.6219L6.36328 7.16797Z" fill="#B3B2B2"/>
</g>
<defs>
<clipPath id="clip0_28847_148764">
<rect width="20" height="20" fill="white"/>
</clipPath>
</defs>
</svg>
