<svg width="21" height="22" viewBox="0 0 21 22" fill="none" xmlns="http://www.w3.org/2000/svg">
<path d="M3.14439 14.8669L3.24665 4.91935L17.1732 5.06251L17.0709 15.0101L3.14439 14.8669ZM1.25965 4.6305L1.15187 15.1149C0.554449 15.4531 0.147015 16.0901 0.13945 16.826C0.128155 17.9248 1.00968 18.8246 2.10846 18.8359L4.09791 18.8564C4.08662 19.9552 4.96844 20.855 6.06722 20.8663C7.16601 20.8776 8.06583 19.9961 8.07712 18.8973L13.0511 18.9484C13.0398 20.0472 13.9213 20.947 15.0201 20.9583C16.1189 20.9696 17.0187 20.0881 17.03 18.9893L18.0247 18.9995C19.1235 19.0108 20.0233 18.1293 20.0346 17.0305C20.0422 16.2946 19.6485 15.6494 19.0579 15.2989L19.1657 4.81456C19.7634 4.47663 20.1702 3.83963 20.1778 3.10372C20.1891 2.00494 19.3076 1.1051 18.2088 1.09381L2.29253 0.930193C1.19375 0.918898 0.293908 1.80042 0.282613 2.89921C0.275048 3.63511 0.669301 4.28035 1.25965 4.6305" fill="#B3B2B2"/>
<path d="M15.1542 9.02874C15.1599 8.47921 14.719 8.02914 14.1697 8.02349C13.6202 8.01785 13.1704 8.45875 13.1648 9.00829C12.6152 9.00264 12.1652 9.44326 12.1595 9.9925C12.1539 10.542 12.5948 10.9921 13.1443 10.9978C13.1387 11.547 13.5793 11.9971 14.1288 12.0027C14.6781 12.0084 15.1281 11.5675 15.1338 11.0182C15.6833 11.0239 16.1331 10.5829 16.1387 10.0334C16.1444 9.48416 15.7037 9.03439 15.1542 9.02874Z" fill="#B3B2B2"/>
<path d="M5.18579 10.909L7.17525 10.9294C7.72479 10.9351 8.17456 10.4942 8.18021 9.94464C8.18585 9.39539 7.74524 8.94562 7.1957 8.93997L5.20624 8.91952C4.6567 8.91387 4.20664 9.35449 4.201 9.90373C4.19535 10.4533 4.63625 10.9033 5.18579 10.909Z" fill="#B3B2B2"/>
</svg>
