<svg width="20" height="20" viewBox="0 0 20 20" fill="none" xmlns="http://www.w3.org/2000/svg">
<g clip-path="url(#clip0_28847_148743)">
<path d="M9.56641 7.36647L14.0664 8.99972L15.8664 7.19966L11.3664 5.56641L9.56641 7.36647Z" fill="#B3B2B2"/>
<path d="M4.13281 12.7961L8.63276 14.4294L10.4328 12.6293L5.93288 10.9961L4.13281 12.7961Z" fill="#B3B2B2"/>
<path d="M6.84766 10.0813L11.3476 11.7145L13.1477 9.9145L8.64772 8.28125L6.84766 10.0813Z" fill="#B3B2B2"/>
<path d="M2.16739 14.7639L1.83888 14.4354C1.61007 14.2066 1.23901 14.2066 1.01016 14.4354C0.78131 14.6643 0.78131 15.0353 1.01016 15.2641L1.51084 15.7648C1.18998 15.8662 0.888039 16.0433 0.634107 16.2973C-0.211369 17.1427 -0.211369 18.5184 0.634107 19.3639C1.05685 19.7866 1.61214 19.998 2.16743 19.998C2.72272 19.998 3.27801 19.7866 3.70075 19.3639C3.95468 19.11 4.13177 18.808 4.23314 18.4872L4.73382 18.9878C4.84825 19.1023 4.99822 19.1595 5.14816 19.1595C5.2981 19.1595 5.44811 19.1023 5.5625 18.9878C5.79135 18.759 5.79135 18.388 5.5625 18.1591L5.23399 17.8306L7.72033 15.3443L3.22035 13.7109L2.16739 14.7639ZM2.87195 18.5351C2.48344 18.9236 1.8513 18.9236 1.46279 18.5351C1.07427 18.1466 1.07427 17.5145 1.46279 17.126C1.65706 16.9317 1.91217 16.8346 2.16739 16.8346C2.42237 16.8346 2.6774 16.9316 2.8716 17.1256L2.87234 17.1263C3.26043 17.5149 3.26035 18.1467 2.87195 18.5351Z" fill="#B3B2B2"/>
<path d="M19.3675 0.634078C18.522 -0.211359 17.1464 -0.211359 16.3009 0.634078C16.0469 0.88801 15.8699 1.18995 15.7685 1.51081L15.2678 1.01013C15.039 0.781281 14.6679 0.781281 14.4391 1.01013C14.2102 1.23898 14.2102 1.61 14.4391 1.83885L14.7676 2.16736L12.2812 4.65371L16.7812 6.28696L17.8342 5.23396L18.1627 5.56247C18.2771 5.67689 18.4271 5.73413 18.577 5.73413C18.727 5.73413 18.877 5.67693 18.9914 5.56247C19.2202 5.33362 19.2202 4.9626 18.9914 4.73375L18.4907 4.23308C18.8116 4.13166 19.1135 3.95461 19.3675 3.70068C20.213 2.85524 20.213 1.47955 19.3675 0.634078ZM18.5388 2.87196C18.1504 3.26036 17.5185 3.26048 17.13 2.87235L17.1293 2.87161C16.7412 2.48305 16.7413 1.85119 17.1296 1.46283C17.3239 1.26856 17.579 1.17148 17.8342 1.17148C18.0894 1.17148 18.3446 1.26863 18.5388 1.46283C18.9273 1.85131 18.9273 2.48345 18.5388 2.87196Z" fill="#B3B2B2"/>
</g>
<defs>
<clipPath id="clip0_28847_148743">
<rect width="20" height="20" fill="white"/>
</clipPath>
</defs>
</svg>
