<svg width="20" height="20" viewBox="0 0 20 20" fill="none" xmlns="http://www.w3.org/2000/svg">
<g clip-path="url(#clip0_28847_148771)">
<path d="M3.52734 11.7637H5.29492C6.06426 11.7637 6.72043 11.2696 6.9627 10.582H3.52734V11.7637Z" fill="#B3B2B2"/>
<path d="M3.52734 3.52734V7.0625H14.4712L10.936 3.52734H3.52734Z" fill="#B3B2B2"/>
<path d="M19.8235 7.2273L12.7679 0.171641C12.658 0.0617188 12.5089 0 12.3536 0H0.585938C0.262344 0 0 0.262344 0 0.585938V19.4141C0 19.7377 0.262344 20 0.585938 20H12.3511C12.6747 20 12.937 19.7352 12.937 19.4116C12.937 15.8429 15.8404 12.9394 19.4092 12.9394C19.7328 12.9394 19.9952 12.6771 19.9952 12.3535V7.6416C19.9952 7.48617 19.9334 7.33715 19.8235 7.2273ZM5.29055 12.9395H2.93703C2.61344 12.9395 2.35109 12.6771 2.35109 12.3535V10C2.35109 9.67641 2.61344 9.41406 2.93703 9.41406H7.64406C7.96766 9.41406 8.23 9.67641 8.23 10C8.23 11.6208 6.91137 12.9395 5.29055 12.9395ZM2.93703 8.23242C2.61344 8.23242 2.35109 7.97008 2.35109 7.64648V2.93945C2.35109 2.61586 2.61344 2.35352 2.93703 2.35352H11.1743C11.3298 2.35352 11.4788 2.41523 11.5886 2.52516L16.2957 7.23219C16.4632 7.39977 16.5134 7.65176 16.4227 7.87074C16.332 8.08969 16.1184 8.23246 15.8814 8.23246H2.93703V8.23242Z" fill="#B3B2B2"/>
</g>
<defs>
<clipPath id="clip0_28847_148771">
<rect width="20" height="20" fill="white"/>
</clipPath>
</defs>
</svg>
