<svg width="20" height="20" viewBox="0 0 20 20" fill="none" xmlns="http://www.w3.org/2000/svg">
<g clip-path="url(#clip0_28847_148750)">
<path fill-rule="evenodd" clip-rule="evenodd" d="M16.9379 18.756L16.461 19.1357L10.6137 13.8664L6.96102 17.158C6.3806 17.6811 5.62067 17.9697 4.84279 17.9697C4.75492 17.9697 4.66681 17.966 4.57871 17.9586C3.71626 17.8857 2.91574 17.4562 2.38232 16.7803C1.6096 15.801 0.973382 14.7218 0.491405 13.5726L0 12.4011L7.85252 9.2726C7.88315 9.20886 7.91646 9.14664 7.95135 9.08541L7.11919 3.60684C6.98653 2.73345 7.23176 1.8397 7.79198 1.15484C8.35125 0.471165 9.17857 0.0523028 10.0618 0.0056249C11.3598 -0.0637484 13.7454 0.531002 13.8463 0.55632L14.478 0.714805L13.2106 9.08513C13.24 9.13667 13.2682 9.18893 13.2945 9.24228L18.1471 11.4237C18.9963 11.8056 19.6284 12.5369 19.8812 13.4302C20.1345 14.3253 19.9785 15.2801 19.4531 16.0497C18.7546 17.073 17.9084 17.9835 16.9379 18.756ZM12.8732 18.8637C12.0881 19.1448 11.274 19.2857 10.457 19.2857C9.75592 19.2857 9.05275 19.1819 8.36412 18.974L8.78053 17.6051C9.97401 17.9655 11.2213 17.9352 12.3876 17.5176L12.8732 18.8637ZM2.98719 9.2788C3.26252 7.75903 4.00896 6.39469 5.14582 5.33325L6.12758 6.377C5.21756 7.22659 4.6202 8.31788 4.4001 9.53284L2.98719 9.2788ZM18.4901 9.25549L17.0919 9.58066C16.8084 8.3707 16.1585 7.30965 15.2123 6.51222L16.1397 5.42027C17.3232 6.41772 18.1359 7.74396 18.4901 9.25549ZM9.22102 7.87927C9.63035 7.67273 10.0924 7.55558 10.5818 7.55558C11.0709 7.55558 11.5328 7.67263 11.9419 7.87899L12.8629 1.79664C12.0398 1.6189 10.8204 1.39781 10.1386 1.43352C9.65188 1.45927 9.21403 1.68102 8.90564 2.05802C8.59628 2.43621 8.4662 2.9101 8.53947 3.39237L9.22102 7.87927ZM8.99609 10.5733C8.99609 9.70146 9.70798 8.99219 10.5831 8.99219C11.4581 8.99219 12.1701 9.70146 12.1701 10.5733C12.1701 11.4451 11.4581 12.1544 10.5831 12.1544C9.70798 12.1544 8.99609 11.4451 8.99609 10.5733ZM17.5608 12.7252L13.5841 10.9375C13.4621 11.918 12.866 12.754 12.0312 13.209L16.5102 17.2451C17.1762 16.652 17.7666 15.9806 18.2702 15.243C18.5565 14.8236 18.6416 14.3035 18.5036 13.816C18.3662 13.3304 18.0226 12.9328 17.5608 12.7252ZM1.88672 13.1934L7.5785 10.9258C7.69724 11.9302 8.31365 12.7846 9.17504 13.237L5.99647 16.1013C5.63935 16.423 5.17824 16.578 4.69861 16.5373C4.22438 16.4973 3.80213 16.271 3.50958 15.9003C2.85479 15.0705 2.30935 14.1606 1.88672 13.1934Z" fill="#B3B2B2"/>
</g>
<defs>
<clipPath id="clip0_28847_148750">
<rect width="20" height="19.2857" fill="white"/>
</clipPath>
</defs>
</svg>
