<svg width="21" height="21" viewBox="0 0 21 21" fill="none" xmlns="http://www.w3.org/2000/svg">
<path d="M3.03872 16.0283C3.59111 16.0339 4.03401 16.4863 4.02833 17.0387C4.02265 17.5908 3.57055 18.034 3.01816 18.0283C2.46606 18.0227 2.02286 17.5703 2.02854 17.0182C2.03422 16.4658 2.48662 16.0226 3.03872 16.0283ZM8.31829 7.59564C8.84184 9.69893 10.4759 11.3669 12.568 11.9333L5.92646 16.2628C5.65751 15.2434 4.86714 14.4363 3.85351 14.1468L8.31829 7.59564ZM11.3416 3.28493C12.9196 1.73909 15.4522 1.76513 16.9981 3.34308C18.544 4.92104 18.518 7.45369 16.94 8.99954C15.3619 10.5454 12.8293 10.5193 11.2835 8.94139C9.73764 7.36343 9.76367 4.83078 11.3416 3.28493ZM2.9976 20.0281C3.82647 20.0367 4.58014 19.7084 5.1285 19.1704L17.1596 11.3273C18.9236 10.2982 20.118 8.39468 20.1405 6.20377C20.1745 2.8903 17.5161 0.17649 14.2023 0.142425C12.0114 0.119903 10.0829 1.27549 9.01802 3.01891L0.930135 14.8845C0.381194 15.422 0.0369807 16.1687 0.0284601 16.9976C0.011431 18.6542 1.34101 20.0111 2.9976 20.0281" fill="#B3B2B2"/>
<path d="M12.6708 7.47737C11.8932 6.6837 11.9063 5.41022 12.7 4.633C13.4934 3.85548 14.7671 3.86857 15.5445 4.66224C16.3219 5.45561 16.3088 6.72909 15.5153 7.50661C14.7217 8.28384 13.448 8.27074 12.6708 7.47737Z" fill="#B3B2B2"/>
</svg>
