<svg width="21" height="21" viewBox="0 0 21 21" fill="none" xmlns="http://www.w3.org/2000/svg">
<path d="M15.6005 4.29797L12.6562 7.18269C12.5111 7.14623 12.3607 7.12371 12.2046 7.1221L8.04872 7.07938C7.89285 7.07778 7.74172 7.0972 7.59597 7.13067L4.71126 4.18603C6.15311 2.87302 8.07448 2.07951 10.178 2.10113C12.2816 2.12276 14.1863 2.9556 15.6005 4.29797V4.29797ZM10.0136 18.1004C5.93436 18.0585 2.6021 14.97 2.15028 11.0191L6.35535 11.0624C6.69505 11.6632 7.33538 12.0724 8.07512 12.08L12.0751 12.1212C12.8151 12.1288 13.4637 11.7328 13.8154 11.139L18.0208 11.1823C17.4877 15.123 14.0928 18.1424 10.0136 18.1004ZM16.8727 5.85159C17.4928 6.83875 17.9027 7.96944 18.0414 9.18214L14.1058 9.14168L14.1066 9.0639C14.1082 8.90802 14.0893 8.75659 14.0559 8.61113L16.8727 5.85159ZM6.16722 8.53004C6.13077 8.67478 6.10852 8.82579 6.10692 8.98166L6.10612 9.05945L2.17084 9.019C2.3345 7.8094 2.76737 6.68738 3.40765 5.71317L6.16722 8.53004ZM9.99301 20.1003C15.5158 20.157 20.0387 15.7261 20.0955 10.2036C20.1522 4.68101 15.7213 0.15808 10.1986 0.101309C4.67574 0.0445354 0.152812 4.47542 0.0960423 9.99799C0.0392721 15.5206 4.47016 20.0435 9.99301 20.1003Z" fill="#B3B2B2"/>
</svg>
