<svg width="21" height="22" viewBox="0 0 21 22" fill="none" xmlns="http://www.w3.org/2000/svg">
<path d="M11.1424 9.11368C12.2532 9.1251 13.1444 10.0348 13.133 11.1457C13.1216 12.2565 12.2119 13.1477 11.101 13.1363C9.99015 13.1249 9.09865 12.2152 9.11007 11.1043C9.12149 9.99347 10.0315 9.10226 11.1424 9.11368ZM3.14092 4.73669L3.01128 17.3476C2.40701 17.6895 1.99538 18.3335 1.98774 19.0775C1.97632 20.1884 2.86753 21.0981 3.97838 21.1095C5.08924 21.121 5.99896 20.2297 6.01038 19.1189C6.01803 18.3749 5.61973 17.7226 5.02261 17.3683L5.07709 12.0686L7.22027 12.0907C7.56998 13.5065 8.66768 14.6267 10.076 15.0054L10.0512 17.42C9.44693 17.7619 9.03501 18.4059 9.02736 19.1499C9.01594 20.2608 9.90745 21.1705 11.0183 21.1819C12.1292 21.1933 13.0389 20.3021 13.0503 19.1913C13.0579 18.4473 12.6597 17.7949 12.0625 17.4406L12.0873 15.0261C13.5032 14.6764 14.6237 13.579 15.0024 12.1707L17.1458 12.1927L17.0913 17.4923C16.487 17.8343 16.0751 18.4783 16.0675 19.2223C16.0561 20.3331 16.9473 21.2429 18.0581 21.2543C19.169 21.2657 20.0789 20.3745 20.0903 19.2636C20.0979 18.5196 19.6997 17.8673 19.1026 17.513L19.2322 4.9021C19.8365 4.56045 20.248 3.91645 20.2557 3.17246C20.2671 2.0616 19.3758 1.15187 18.2649 1.14046C17.154 1.12904 16.2443 2.02025 16.2329 3.13111C16.2253 3.8751 16.6238 4.52743 17.2209 4.88142L17.1664 10.1811L15.0231 10.159C14.6734 8.74322 13.5757 7.62301 12.1673 7.24427L12.1922 4.82973C12.7964 4.48809 13.2081 3.84408 13.2157 3.10009C13.2271 1.98923 12.3359 1.07951 11.2251 1.06809C10.1142 1.05667 9.20419 1.94788 9.19277 3.05874C9.18513 3.80273 9.58372 4.45506 10.1808 4.80905L10.156 7.22359C8.74019 7.5733 7.61969 8.67071 7.24095 10.0791L5.09776 10.057L5.15224 4.75736C5.75652 4.41572 6.16814 3.77171 6.17579 3.02772C6.18721 1.91687 5.296 1.00714 4.18515 0.99572C3.07429 0.984301 2.16457 1.87551 2.15315 2.98637C2.1455 3.73036 2.5438 4.38269 3.14092 4.73669Z" fill="#B3B2B2"/>
</svg>
