<svg width="20" height="20" viewBox="0 0 20 20" fill="none" xmlns="http://www.w3.org/2000/svg">
<g clip-path="url(#clip0_28847_148778)">
<path d="M5.63381 4.8488C5.57104 4.79982 5.50678 4.75357 5.44112 4.71009C5.6185 4.57068 5.74374 4.43423 5.82862 4.32443C6.19057 3.85611 6.32655 3.2838 6.2328 2.6233C6.13495 1.83088 5.73471 1.1242 5.1053 0.632906C4.47452 0.140641 3.68999 -0.0756874 2.89631 0.0235704L2.18444 0.112711C1.84131 0.15568 1.53549 0.329781 1.32327 0.602906C1.11116 0.875953 1.01803 1.21533 1.06104 1.55841L1.50108 5.06826L2.91585 16.9761C3.12077 18.7 4.58366 20 6.31877 20H8.35772L6.76209 6.84568C6.66561 6.0506 6.26495 5.34142 5.63381 4.8488Z" fill="#B3B2B2"/>
<path d="M18.2445 14.8931C17.689 14.2266 16.8879 13.8516 16.0506 13.8636C13.7446 13.899 11.3029 13.9742 8.83984 14.247L9.53766 19.9999H17.1528C17.8529 19.9999 18.4601 19.5013 18.5964 18.8143L18.8851 17.3602C19.0581 16.4886 18.8247 15.5894 18.2445 14.8931Z" fill="#B3B2B2"/>
</g>
<defs>
<clipPath id="clip0_28847_148778">
<rect width="20" height="20" fill="white"/>
</clipPath>
</defs>
</svg>
