<svg width="21" height="22" viewBox="0 0 21 22" fill="none" xmlns="http://www.w3.org/2000/svg">
<path d="M8.09078 18.9647L8.0701 20.9761C9.73653 20.9932 11.1013 19.6562 11.1184 17.9898L11.1522 14.7015C11.7565 14.3598 12.1681 13.7158 12.1757 12.9718L12.2171 8.9489C12.2247 8.20461 11.8264 7.55258 11.2293 7.19858L11.2631 3.90996C11.2688 3.35468 11.7236 2.90922 12.2791 2.91493L12.2998 0.90332C10.6334 0.88619 9.26893 2.22315 9.25181 3.88929L9.218 7.17791C8.61372 7.51955 8.20181 8.16326 8.19416 8.90754L8.15281 12.9305C8.14516 13.6745 8.54375 14.3268 9.14087 14.6808L9.10707 17.9691C9.10136 18.5247 8.64635 18.9705 8.09078 18.9647Z" fill="#B3B2B2"/>
</svg>
