<svg width="21" height="21" viewBox="0 0 21 21" fill="none" xmlns="http://www.w3.org/2000/svg">
<path d="M11.0143 12.9743C9.91553 12.963 9.03372 12.0632 9.04501 10.9644C9.05631 9.86561 9.95643 8.98408 11.0552 8.99538C12.154 9.00667 13.0355 9.90651 13.0242 11.0053C13.0129 12.1041 12.1131 12.9856 11.0143 12.9743ZM11.0757 7.00563C8.8781 6.98304 7.07814 8.74637 7.05555 10.9439C7.03296 13.1415 8.79629 14.9412 10.9939 14.9638C13.1914 14.9863 14.9911 13.2233 15.0137 11.0257C15.0363 8.82818 13.2732 7.02822 11.0757 7.00563Z" fill="#B3B2B2"/>
<path d="M10.9696 17.9557C7.80687 17.9232 5.16028 15.7872 4.34132 12.8908C5.30674 12.7631 6.05694 11.9438 6.06725 10.9415C6.09549 8.19441 8.34521 5.99045 11.0923 6.01869C12.0946 6.02899 12.9288 5.29551 13.077 4.33292C15.9556 5.21183 18.0371 7.90178 18.0046 11.0642C17.965 14.9101 14.8152 17.9953 10.9696 17.9557V17.9557ZM5.39022 4.21911C5.93975 4.22476 6.38038 4.67454 6.37473 5.22408C6.36908 5.77332 5.9193 6.21423 5.36977 6.20858C4.82052 6.20293 4.37962 5.75287 4.38527 5.20363C4.39092 4.65409 4.84097 4.21347 5.39022 4.21911ZM3.08306 10.9108C2.53352 10.9052 2.09291 10.4551 2.09856 9.90559C2.10421 9.35634 2.55397 8.91572 3.10351 8.92137C3.65275 8.92702 4.09366 9.37679 4.08801 9.92604C4.08236 10.4756 3.6323 10.9165 3.08306 10.9108ZM10.1385 2.02926C10.6877 2.0349 11.1286 2.48497 11.123 3.0345C11.1173 3.58375 10.6673 4.02466 10.118 4.01902C9.5685 4.01337 9.1276 3.5633 9.13324 3.01405C9.13889 2.46451 9.58896 2.02361 10.1385 2.02926ZM13.1204 2.28486L13.1227 2.05993C13.134 0.96115 12.2525 0.0613265 11.1537 0.0500314C5.11022 -0.0120932 0.160993 4.83671 0.0988683 10.8802C0.0875731 11.9789 0.969099 12.8788 2.06788 12.8901L2.29221 12.8924C3.1564 16.8881 6.68851 19.9017 10.9491 19.9455C15.8935 19.9963 19.9432 16.0293 19.994 11.0847C20.0378 6.82432 17.0978 3.23072 13.1204 2.28486" fill="#B3B2B2"/>
</svg>
