<svg width="21" height="21" viewBox="0 0 21 21" fill="none" xmlns="http://www.w3.org/2000/svg">
<path d="M8.40231 16.0329L6.14446 16.0097C6.15576 14.9109 5.27394 14.0108 4.17515 13.9995C3.07637 13.9882 2.17655 14.87 2.16525 15.9688L2.1448 17.9582C2.1335 19.057 3.01501 19.9568 4.1138 19.9681C5.21258 19.9794 6.11272 19.0979 6.12401 17.9991L8.38186 18.0223C8.71979 18.62 9.3568 19.0272 10.0927 19.0348C10.8289 19.0423 11.4738 18.6484 11.8243 18.0577L14.0821 18.0809C14.0708 19.1797 14.9524 20.0796 16.0511 20.0908C17.1499 20.1021 18.0498 19.2206 18.061 18.1218L18.0815 16.1324C18.0928 15.0336 17.2113 14.1335 16.1125 14.1222C15.0137 14.1109 14.1139 14.9927 14.1026 16.0915L11.8447 16.0683C11.6734 15.765 11.4252 15.5117 11.1259 15.3345L11.2336 4.85008C11.5366 4.6784 11.7899 4.43027 11.9674 4.13092L14.2253 4.15413C14.214 5.25291 15.0955 6.15275 16.1943 6.16405C17.2931 6.17534 18.1929 5.29381 18.2042 4.19503L18.2247 2.20557C18.236 1.10679 17.3544 0.206665 16.2557 0.195369C15.1569 0.184074 14.257 1.06588 14.2457 2.16467L11.9879 2.14146C11.6497 1.54374 11.013 1.1366 10.2768 1.12904C9.54086 1.12147 8.89562 1.51543 8.54547 2.10607L6.28762 2.08286C6.29892 0.984076 5.4171 0.0839525 4.31832 0.0726574C3.21953 0.0613623 2.31971 0.943171 2.30841 2.04195L2.28796 4.03142C2.27667 5.1302 3.15818 6.03004 4.25696 6.04133C5.35574 6.05263 6.25588 5.17111 6.26717 4.07232L8.52502 4.09553C8.69641 4.39847 8.94455 4.65175 9.24389 4.82962L9.13612 15.314C8.83318 15.4851 8.57989 15.7332 8.40231 16.0329Z" fill="#B3B2B2"/>
</svg>
