<svg width="910" height="640" viewBox="0 0 910 640" fill="none" xmlns="http://www.w3.org/2000/svg">
<g clip-path="url(#clip0_29058_191456)">
<path d="M458.801 639.829C383.982 639.829 309.15 640.048 234.331 639.708C208.889 639.598 183.411 638.711 158.03 637.035C127.609 635.019 97.2857 631.703 66.9013 629.103C57.854 628.326 48.746 628.18 39.6866 627.609C27.2147 626.832 14.7428 625.933 2.27087 625.07C1.5058 625.022 0.752866 624.718 -0.012207 624.536C0.740722 624.342 1.48151 624.026 2.24658 623.977C9.70301 623.455 17.1473 622.993 24.6037 622.483C30.2021 622.107 32.048 620.321 31.3315 614.855C29.5828 601.445 27.4576 588.095 25.5874 574.709C23.8475 562.274 24.2027 571.986 23.3286 559.768C22.6242 550.099 22.2356 540.418 21.8592 530.737C21.3851 518.296 21.7499 526.087 21.7499 512.966C21.7742 491.332 21.4584 469.698 21.9199 448.077C22.1992 434.995 23.8022 421.937 24.5551 408.854C24.8102 404.457 24.1422 400.011 24.0572 395.59C23.7051 376.41 23.1222 357.23 23.28 338.049C23.3165 333.191 25.3567 328.174 27.2025 323.522C38.0714 296.082 50.6526 269.468 67.8729 245.332C77.0052 232.541 86.4289 219.957 95.7798 207.324C98.2086 204.044 97.6621 202.72 93.1446 202.064C73.9813 199.27 54.818 196.525 35.6426 193.78C34.0396 193.549 32.4245 193.44 30.8336 193.148C19.7825 191.095 19.2846 190.986 18.3131 179.932C17.6088 171.915 17.7302 163.765 18.1188 155.711C18.4346 149.176 21.3248 146.844 27.9312 146.856C48.9646 146.893 69.9859 147.038 91.0194 147.208C93.436 147.233 95.8405 147.621 98.2572 147.913C105.216 148.727 106.357 149.869 106.964 156.926C107.183 159.538 106.977 162.186 107.256 164.797C107.39 166.036 108.191 167.214 108.677 168.417C109.855 167.761 111.3 167.348 112.162 166.401C113.364 165.077 114.178 163.388 115.077 161.809C125.496 143.601 135.6 125.21 146.384 107.22C156.743 89.9353 167.551 72.9053 178.638 56.0817C185.075 46.3277 192.641 37.3268 199.368 27.755C207.845 15.7295 220.584 12.0975 233.93 9.99608C253.288 6.95933 272.73 5.25876 292.404 4.97938C315.404 4.65141 338.369 2.28275 361.37 1.51749C388.232 0.618614 415.119 0.314939 442.006 0.0962935C464.424 -0.0737642 486.854 -0.122352 509.259 0.484997C539.753 1.29884 570.235 2.69575 600.716 3.99547C616.443 4.66356 632.23 5.01582 647.871 6.66781C661.679 8.12544 675.353 10.9557 689.015 13.6037C699.398 15.6201 706.442 22.7868 712.295 30.9496C721.573 43.8983 730.827 56.8956 739.425 70.2937C750.525 87.6031 761.26 105.155 771.607 122.927C779.318 136.167 786.131 149.929 793.369 163.437C794.037 164.676 794.729 165.951 795.64 167.008C796.356 167.846 797.413 168.381 798.311 169.036C798.688 167.968 799.307 166.923 799.404 165.83C799.684 162.611 799.453 159.331 799.987 156.161C800.995 150.16 803.23 148.132 809.29 148.01C833.335 147.524 857.38 147.135 881.437 146.844C886.938 146.771 889.95 148.69 890.072 154.023C890.327 164.858 889.647 175.742 889.015 186.577C888.796 190.221 886.185 191.946 882.421 192.444C868.212 194.314 854.016 196.379 839.832 198.444C831.853 199.61 823.875 200.825 815.932 202.198C810.662 203.097 810.2 204.639 813.71 208.842C828.344 226.382 841.459 245.004 853.518 264.402C865.286 283.339 874.649 303.443 882.409 324.226C885.238 331.818 886.61 340.345 886.708 348.472C886.89 363.789 885.287 379.106 885.141 394.436C885.032 405.696 886.015 416.981 886.574 428.253C887.06 438.128 887.959 448.004 888.092 457.879C888.335 475.663 888.092 493.458 888.177 511.241C888.177 528.145 885.356 544.097 884.364 561.007C883.951 568.04 882.445 574.867 882.044 581.864C881.644 588.885 879.81 595.808 878.887 602.805C878.255 607.603 878.061 612.45 877.745 617.284C877.515 620.88 879.421 622.277 882.894 622.434C890.958 622.823 899.022 623.394 907.073 623.929C908.045 623.989 909.016 624.22 909.988 624.366C909.138 624.585 908.288 624.937 907.425 625.01C876.446 627.488 845.454 629.966 814.475 632.395C802.185 633.355 789.871 633.926 777.606 635.128C699.35 642.829 620.887 638.784 542.51 639.695C514.603 640.023 486.696 639.744 458.789 639.744V639.78L458.801 639.829ZM42.4797 455.341C41.1317 451.587 39.808 447.822 38.4236 444.08C38.2293 443.558 37.7557 443.133 37.4157 442.659C37.2942 443.157 36.9299 443.777 37.1121 444.141C38.8729 447.882 40.7188 451.575 42.5283 455.28C44.0584 460.285 45.1757 465.459 47.1916 470.245C53.7008 485.647 60.5986 500.892 67.2535 516.246C71.0303 524.943 74.4792 533.786 78.341 542.447C80.0776 546.358 82.1785 550.196 87.8255 547.293C89.2828 546.552 91.408 547.05 93.2296 547.087C120.493 547.585 147.756 548.302 175.032 548.557C231.016 549.067 287 549.638 342.983 549.626C422.211 549.613 501.451 549.164 580.678 548.763C636.456 548.472 692.233 547.937 748.011 547.512C770.247 547.342 792.482 547.16 814.718 547.16C817.596 547.16 820.45 548.496 823.352 548.678C824.773 548.763 826.947 548.034 827.615 546.953C830.153 542.848 832.509 538.572 834.403 534.138C839.127 523.024 843.414 511.715 848.163 500.612C853.554 488.016 859.371 475.602 864.776 463.005C865.796 460.625 865.759 457.782 866.196 455.158C864.715 457.175 862.881 459.021 861.812 461.232C855.935 473.488 849.134 485.101 839.407 494.77C828.902 505.216 817.56 513.525 801.627 513.792C777.8 514.193 753.986 515.565 730.159 516.258C725.69 516.391 723.152 517.533 721.828 522.149C720.152 528.028 716.303 530.385 710.049 530.567C696.921 530.944 683.805 531.49 670.678 531.624C619.746 532.11 568.826 532.753 517.894 532.79C467.168 532.826 416.443 532.243 365.717 531.879C310.948 531.478 256.178 531.041 201.409 530.579C191.851 530.494 188.839 528.077 186.872 518.833C186.374 516.476 185.427 516.051 183.241 516.015C173.55 515.845 163.859 515.456 154.18 515.165C137.822 514.654 121.452 514.375 105.106 513.525C99.5688 513.233 93.7032 512.395 88.6756 510.209C77.4666 505.338 69.4151 496.155 61.9101 486.947C57.0282 480.947 53.883 473.549 49.839 466.844C47.4952 462.945 44.9207 459.191 42.4433 455.365L42.4797 455.341ZM207.505 40.4607C209.861 38.0556 212.69 35.942 214.5 33.1725C220.183 24.4753 228.38 20.3575 238.351 19.6408C261.716 17.9766 285.069 16.0453 308.47 15.2314C337.555 14.2111 366.676 13.8345 395.774 13.871C440.439 13.9196 485.105 14.4905 529.771 14.9399C557.253 15.2193 584.759 15.3165 612.229 16.1546C632.205 16.7619 652.146 18.2925 672.086 19.7744C679.3 20.3089 685.87 23.1391 690.545 29.0547C694.917 34.5816 699.593 39.9748 703.236 45.9633C714.542 64.5239 725.86 83.1087 736.353 102.131C746.092 119.78 755.018 137.892 763.834 156.027C768.583 165.805 772.724 175.936 776.452 186.152C779.403 194.241 776.707 197.703 768.133 197.29C754.824 196.647 741.55 195.456 728.253 194.569C699.641 192.662 671.054 190.524 642.431 188.994C619.43 187.767 596.393 187.05 573.368 186.54C543.251 185.884 513.133 185.386 483.004 185.313C452.474 185.241 421.956 185.69 391.426 186.091C358.674 186.516 325.933 187.075 293.193 187.718C282.895 187.925 272.597 188.484 262.311 189.043C244.168 190.026 226.024 191.095 207.893 192.225C198.421 192.808 188.961 193.598 179.489 194.302C165.997 195.31 152.517 196.574 139 197.266C130.718 197.691 127.779 193.221 130.937 185.714C134.835 176.422 138.624 167.056 142.996 157.983C151.387 140.54 159.742 123.048 168.911 106.006C176.926 91.0893 186.034 76.7559 194.644 62.1552C195.154 61.2806 195.822 60.4668 196.138 59.5315C196.478 58.4747 196.502 57.2964 196.66 56.1789C195.725 56.7255 194.486 57.0535 193.916 57.8673C192.143 60.321 190.588 62.9205 189.022 65.5199C185.087 72.0914 181.104 78.6265 177.303 85.283C168.802 100.163 160.107 114.934 152.067 130.069C145.255 142.884 139.146 156.063 132.953 169.194C128.484 178.669 123.529 188.01 122.885 198.821C122.812 199.963 122.132 201.092 121.647 202.186C121.513 202.501 121.088 202.696 120.797 202.939C120.517 202.514 119.971 202.064 120.019 201.675C120.529 196.914 120.068 191.703 121.889 187.476C129.37 170.069 137.325 152.845 145.57 135.79C150.926 124.724 156.986 113.998 162.936 103.224C166.919 95.9967 171.316 89 175.408 81.8333C176.137 80.5579 176.246 78.9423 176.647 77.4725C175.53 78.3593 174.072 79.0152 173.368 80.157C166.13 91.806 158.832 103.431 151.922 115.274C147.04 123.631 142.68 132.28 138.175 140.855C132.637 151.399 127.051 161.918 121.78 172.583C115.72 184.828 111.336 197.995 101.791 208.295C99.3259 210.956 96.6663 213.507 94.5654 216.446C81.8871 234.169 69.2087 251.879 56.8097 269.796C48.576 281.675 52.1706 292.17 66.2213 294.6C77.4545 296.543 89.1128 296.094 100.589 296.41C106.321 296.568 108.385 294.199 105.993 288.927C103.661 283.777 100.018 278.821 95.8284 275.007C91.9302 271.448 90.6915 268.253 92.2581 263.406C93.3146 260.151 93.8003 256.713 94.5897 253.373C95.6098 249.049 96.6299 244.724 97.7957 240.449C98.0143 239.659 98.9616 239.052 99.5688 238.371C99.9452 239.21 100.565 240.023 100.637 240.874C100.722 241.833 100.346 242.854 100.103 243.825C98.5001 250.275 96.8242 256.713 95.2941 263.188C94.2983 267.403 94.9297 270.792 99.0101 273.67C105.252 278.08 109.49 284.093 110.911 291.964C111.215 293.652 113.462 295.657 115.235 296.264C118.028 297.223 121.185 297.357 124.185 297.418C151.873 297.964 179.561 298.414 207.238 298.9C222.393 299.167 237.549 299.361 252.705 299.75C263.804 300.029 274.491 301.584 282.688 310.354C283.453 311.168 286.404 311.46 286.672 311.01C290.181 304.961 296.01 306.188 301.329 306.176C372.311 306.127 443.293 306.152 514.275 306.139C547.039 306.139 579.792 306.115 612.556 306.103C616.394 306.103 620.256 305.799 622.794 309.856C623.207 310.512 626.401 310.476 627.226 309.674C635.739 301.268 646.56 300.066 657.574 299.823C698.597 298.936 739.619 298.244 780.642 297.454C783.666 297.394 786.714 297.369 789.713 297.017C797.17 296.13 797.146 296.057 798.919 288.83C799.21 287.664 799.392 286.291 800.121 285.429C804.736 279.926 803.448 273.622 802.586 267.463C801.833 262.082 800.558 256.774 799.708 251.405C799.489 250.032 800.036 248.551 800.23 247.117C800.898 248.526 801.882 249.887 802.161 251.369C803.315 257.515 804.116 263.734 805.318 269.868C805.731 271.958 806.97 273.889 807.82 275.893C809.86 273.743 812.192 271.8 813.807 269.37C814.548 268.277 814.147 266.176 813.807 264.633C811.718 255.195 810.006 245.623 807.164 236.416C804.092 226.419 799.902 216.762 796.247 206.935C795.154 204.008 793.247 201.202 796.138 197.946C796.915 197.072 796.38 194.436 795.7 192.954C791.195 183.248 786.556 173.604 781.808 164.02C777.97 156.258 773.95 148.593 769.955 140.916C765.219 131.818 760.92 122.453 755.564 113.719C743.02 93.2393 729.989 73.0632 717.08 52.802C716.169 51.3687 714.724 50.2876 713.522 49.0365C714.044 50.8464 714.202 52.8871 715.161 54.4297C721.731 65.0462 728.556 75.4926 735.102 86.109C740.797 95.3407 746.541 104.56 751.69 114.084C756.754 123.461 761.187 133.166 765.717 142.823C771.267 154.679 776.416 166.741 782.16 178.499C786.046 186.455 788.317 194.654 788.596 203.449C788.645 204.919 788.73 206.388 788.803 207.858C787.952 206.437 787.09 205.004 786.24 203.57C786.143 203.412 786.143 203.169 786.143 202.975C786.325 192.893 781.808 184.135 777.727 175.45C769.166 157.23 760.203 139.179 750.913 121.323C743.384 106.868 735.6 92.4984 727.062 78.6144C716.946 62.1673 705.883 46.2912 695.269 30.1479C694.674 29.249 694.456 28.0951 694.055 27.0626C694.978 27.5728 696.022 27.9493 696.787 28.6417C697.832 29.577 698.597 30.8039 699.593 31.7878C699.933 32.1157 700.637 32.0671 701.171 32.1886C701.184 31.6298 701.451 30.7917 701.171 30.5488C698.305 27.9736 697.82 22.3374 691.954 23.5035C691.116 23.6736 689.975 22.4224 688.991 21.8029C685.991 19.9202 683.222 17.1628 679.956 16.3004C673.179 14.5148 666.184 13.1907 659.214 12.6563C635.071 10.7856 610.893 9.27941 586.726 7.77318C580.885 7.40877 574.995 7.71245 569.142 7.44521C548.57 6.5099 528.01 4.80932 507.426 4.59067C461.752 4.09265 416.078 3.15733 370.405 6.24266C347.647 7.77318 324.755 7.33589 301.912 7.79748C300.297 7.83392 298.67 7.83392 297.067 7.96753C278.365 9.61952 259.651 11.2351 240.949 12.9842C231.878 13.8345 222.709 15.7902 215.799 21.6936C209.934 26.6982 205.732 33.6705 200.911 39.8776C200.316 40.6429 200.461 41.9791 200.267 43.048C201.178 42.3556 202.271 41.8333 202.951 40.9587C206.545 36.3672 210.006 31.6541 213.613 27.0747C214.063 26.5038 215.18 26.4674 215.993 26.188C215.775 26.9047 215.714 27.7185 215.326 28.338C212.775 32.4073 210.164 36.4279 207.566 40.4607C204.724 43.8011 201.834 47.1051 199.077 50.5184C198.713 50.9678 199.04 51.9517 199.04 52.6927C199.696 52.4012 200.656 52.2919 200.959 51.7817C203.218 48.0404 205.343 44.2141 207.505 40.4121V40.4607ZM454.551 481.845V482.295C549.371 481.809 644.192 481.299 739.012 480.874C771.971 480.728 804.942 480.716 837.901 480.947C843.451 480.983 847.191 479.307 849.717 474.509C853.482 467.366 857.331 460.26 861.132 453.142C862.177 451.186 862.25 449.656 859.432 449.352C858.072 449.206 856.736 448.866 855.388 448.611C856.761 448.405 858.133 448.186 859.505 447.992C859.906 447.931 860.319 447.992 860.719 447.919C864.132 447.372 866.913 443.85 866.719 440.011C866.488 435.529 862.893 437.387 860.707 437.254C856.481 436.987 852.219 437.254 847.968 437.254C690.242 437.315 532.503 437.387 374.777 437.4C270.229 437.4 165.681 437.315 61.1329 437.205C55.6924 437.205 50.2397 436.61 44.7871 436.489C43.5848 436.464 41.5446 436.987 41.2896 437.728C40.2938 440.704 46.6208 447.737 50.1304 447.992C52.4378 448.162 54.733 448.478 57.0404 448.721C54.8666 448.927 52.6807 449.17 50.5069 449.328C48.3088 449.498 46.0743 449.607 47.7624 452.778C51.9278 460.6 56.0932 468.435 60.3193 476.221C62.2502 479.793 65.2862 480.886 69.3666 480.91C108.58 481.117 147.793 481.736 186.994 481.797C276.179 481.943 365.353 481.845 454.538 481.845H454.551ZM672.366 149.2C679.652 149.589 683.575 144.548 680.915 137.989C679.324 134.065 677.624 130.154 675.499 126.51C670.423 117.813 664.994 109.322 659.845 100.673C653.275 89.6317 643.961 82.6229 631.04 81.1531C624.033 80.3635 616.953 80.0841 609.909 79.7197C597.607 79.0881 585.317 78.5415 573.016 78.007C557.884 77.3389 542.753 76.7559 527.633 76.0513C523.942 75.8813 521.804 77.4968 519.849 80.5943C518.513 82.72 516.024 84.7972 513.643 85.4531C509.612 86.5585 505.276 86.8136 501.05 86.9107C480.648 87.4331 460.246 88.1983 439.856 88.0526C425.15 87.9432 410.431 86.6435 395.749 85.5503C393.612 85.3924 390.454 84.0076 389.726 82.3313C386.775 75.5533 381.395 75.8448 375.542 76.1485C344.708 77.8005 313.85 79.2339 283.016 80.9587C270.131 81.6875 258.255 85.1737 250.604 96.7012C244.593 105.763 238.751 114.934 233.25 124.311C229.376 130.907 226.073 137.843 222.782 144.755C220.827 148.872 221.434 149.613 226.146 149.322C229.158 149.14 232.145 148.107 235.12 148.192C240.828 148.35 242.431 145.192 243.743 140.26C246.572 129.559 250.13 119.052 253.482 108.496C256.445 99.1427 263.622 95.9359 272.67 95.9116C293.059 95.8388 313.461 95.8145 333.851 95.9116C342.704 95.9602 346.457 98.3653 349.189 106.856C352.14 116.027 354.277 125.465 356.694 134.794C358.564 141.985 358.589 142.204 366.057 142.216C424.288 142.24 482.518 142.216 540.749 142.155C548.339 142.155 548.812 141.669 550.488 134.345C552.152 127.081 553.476 119.732 555.322 112.504C558.261 101.038 563.203 96.5554 573.258 95.9359C580.108 95.5108 586.981 95.0492 593.843 95.0978C607.784 95.1828 621.725 95.6201 635.654 95.8995C644.957 96.0817 650.846 101.171 653.773 109.456C657.599 120.303 660.914 131.332 664.169 142.362C665.82 147.961 666.561 148.897 672.378 149.2H672.366ZM454.466 432.14C588.123 432.14 721.78 432.14 855.437 432.14C857.659 432.14 859.894 432.249 862.104 432.019C863.197 431.909 865.164 431.168 865.164 430.707C865.164 425.969 865.443 421.062 864.241 416.58C863.889 415.256 859.092 414.442 856.372 414.539C839.225 415.146 822.089 416.616 804.942 416.798C768.546 417.163 732.151 416.908 695.755 416.92C637.925 416.932 580.096 416.896 522.278 417.005C495.027 417.053 467.763 417.527 440.512 417.576C424.567 417.612 408.622 417.041 392.677 417.005C338.891 416.908 285.105 417.272 231.319 416.835C171.109 416.337 110.851 419.118 50.7012 414.333C44.6656 413.847 44.0827 414.588 43.8034 420.503C43.4472 428.237 47.2928 432.116 55.3402 432.14C188.39 432.14 321.44 432.14 454.49 432.14H454.466ZM452.972 411.247C570.453 411.247 687.922 411.284 805.404 411.186C817.317 411.186 829.23 410.506 841.131 409.887C847.373 409.559 853.579 408.672 859.809 408.077C864.423 407.64 865.067 404.469 865.055 400.716C865.055 396.391 862.165 395.942 858.886 395.966C854.842 396.003 850.786 395.893 846.766 396.148C835.484 396.865 824.227 398.226 812.945 398.469C785.062 399.064 757.167 399.209 729.273 399.465C679.349 399.926 629.412 400.691 579.488 400.691C490.74 400.691 401.991 400.303 313.231 399.914C262.894 399.695 212.557 399.112 162.232 398.76C144.647 398.639 127.051 398.857 109.454 398.651C98.3544 398.517 87.2426 397.971 76.1551 397.485C67.0835 397.084 58.0241 396.44 48.9646 396.003C46.2808 395.881 44.1313 396.853 43.9127 399.975C43.6941 403.097 43.7184 406.243 47.4466 407.433C49.3654 408.04 51.3813 408.502 53.385 408.623C67.8971 409.547 82.4093 411.089 96.9214 411.114C215.605 411.32 334.301 411.223 452.984 411.223L452.972 411.247ZM756.827 374.065V373.98C772.396 373.98 787.965 373.907 803.533 374.041C807.164 374.077 808.379 373.021 808.33 369.194C808.087 350.403 808.209 331.599 808.136 312.808C808.112 306.735 807.687 306.176 801.517 306.273C792.033 306.419 782.548 307.038 773.064 307.269C753.063 307.743 733.074 308.083 713.073 308.508C706.745 308.642 706.575 308.872 706.442 314.995C706.065 332.559 705.689 350.124 705.276 367.688C705.142 373.361 705.616 374.017 711.336 374.041C726.504 374.114 741.66 374.065 756.827 374.065ZM152.626 374.017V374.065C167.369 374.065 182.112 374.102 196.854 374.053C203.485 374.029 203.789 373.774 203.655 367.239C203.339 351.508 202.854 335.778 202.514 320.048C202.259 308.302 204.505 308.314 190.43 307.743C163.009 306.637 135.539 306.735 108.094 306.212C103.758 306.127 101.925 307.609 101.961 312.152C102.095 330.725 101.925 349.298 101.985 367.87C101.998 373.494 102.568 373.968 108.41 373.992C123.152 374.053 137.895 374.017 152.638 374.017H152.626ZM722.642 376.543V376.434C699.192 376.434 675.73 376.434 652.28 376.434C647.628 376.434 642.977 376.434 638.326 376.373C637.549 376.373 636.784 376.13 636.007 375.997C636.832 375.766 637.658 375.341 638.496 375.316C651.818 374.879 665.14 374.454 678.45 374.126C684.315 373.98 690.181 374.138 696.034 374.041C702.106 373.944 702.459 373.507 702.58 367.372C702.944 350.209 703.309 333.057 703.685 315.893C703.843 308.97 703.515 308.411 696.751 308.557C682.822 308.86 668.905 309.419 654.976 309.844C643.597 310.184 638.63 313.707 636.128 324.821C632.375 341.475 626.048 357.655 626.474 375.134C626.486 375.875 625.441 377.309 625.053 377.248C624.033 377.102 622.539 376.519 622.247 375.742C621.798 374.515 621.992 372.948 622.26 371.599C624.615 360.157 627.008 348.727 629.473 337.309C630.833 331.004 632.254 324.724 633.845 318.481C634.319 316.622 635.424 314.91 636.237 313.136C634.598 314.861 632.497 316.355 631.416 318.384C629.364 322.246 627.761 326.376 626.243 330.482C625.417 332.729 625.186 335.195 624.615 337.551C621.834 349.091 618.726 360.558 616.333 372.17C614.803 379.616 615.277 379.75 623.122 379.714C682.955 379.459 742.789 379.203 802.622 378.924C817.985 378.851 833.347 378.681 848.721 378.487C855.85 378.39 856.688 377.491 856.761 370.348C856.821 362.866 856.773 355.395 856.882 347.913C856.882 347.087 857.586 346.285 857.963 345.459C858.315 346.297 858.959 347.135 858.971 347.986C859.104 353.646 859.092 359.307 859.153 364.955C859.153 365.538 859.384 366.109 859.517 366.68C859.784 366.109 860.294 365.526 860.294 364.955C860.27 344.184 860.222 323.425 860.088 302.653C860.088 301.924 859.238 301.208 858.776 300.491C858.57 301.232 858.169 301.985 858.206 302.726C858.424 307.548 858.764 312.371 858.983 317.205C859.007 317.715 858.558 318.262 858.315 318.784C857.854 318.25 857.064 317.764 856.991 317.181C856.348 312.589 855.91 307.974 855.255 303.382C855.133 302.52 854.283 301.038 853.895 301.086C852.814 301.196 851.429 301.694 850.846 302.52C850.263 303.358 850.361 304.767 850.385 305.933C850.871 327.117 851.441 348.314 851.866 369.498C851.976 375.037 850.737 376.313 845.187 376.458C837.707 376.653 830.226 376.361 822.745 376.628C818.155 376.798 816.163 375.256 816.03 370.47C815.507 351.29 814.779 332.122 813.977 312.954C813.904 311.156 812.836 309.395 812.228 307.609C811.755 309.346 810.82 311.107 810.868 312.82C811.488 330.98 812.398 349.115 812.957 367.275C813.236 376.288 812.738 376.555 803.91 376.568C776.816 376.568 749.723 376.568 722.63 376.568L722.642 376.543ZM184.504 376.41V376.495C177.63 376.495 170.757 376.495 163.883 376.495C144.077 376.495 124.258 376.495 104.451 376.507C100.941 376.507 97.8443 376.215 97.9415 371.514C98.3544 352.541 98.7794 333.567 99.0587 314.594C99.0951 312.274 98.2815 309.954 97.8686 307.621C97.2735 309.82 96.2656 311.994 96.1684 314.217C95.3305 333.179 94.5897 352.14 93.9825 371.101C93.8611 374.952 92.2459 376.568 88.457 376.519C80.5755 376.422 72.6819 376.616 64.8126 376.398C59.3599 376.252 58.0241 374.855 58.0969 369.352C58.3034 351.982 58.6677 334.624 59.032 317.266C59.117 313.027 60.0035 308.715 59.4449 304.597C59.1777 302.677 56.336 301.111 54.648 299.398C54.2108 300.953 53.4336 302.507 53.4093 304.062C53.2879 312.747 53.385 321.445 53.3608 330.13C53.3365 343.248 53.5551 356.367 53.13 369.474C52.875 377.612 53.13 378.462 60.8536 378.511C135.843 378.924 210.82 379.325 285.809 379.738C287.631 379.738 289.55 380.066 291.226 379.568C292.331 379.24 293.861 377.685 293.861 376.689C293.824 372.474 293.8 368.138 292.841 364.056C289.926 351.703 286.623 339.434 283.344 327.166C282.773 325.04 281.838 322.963 280.709 321.08C280.077 320.023 278.693 319.428 277.649 318.614C277.491 319.914 276.944 321.299 277.224 322.489C280.685 337.175 285.409 351.508 287.242 366.656C288.518 377.187 290.206 376.434 278.584 376.762C278.183 376.762 277.77 376.713 277.382 376.616C276.325 376.349 275.268 376.045 274.224 375.754C275.208 375.62 276.191 375.462 277.175 375.353C283.162 374.685 284.061 373.762 283.939 367.737C283.891 365.538 283.636 363.291 283.138 361.153C280.296 348.97 277.224 336.823 274.467 324.615C272.16 314.411 267.909 310.33 257.526 309.893C242.795 309.285 228.065 308.909 213.322 308.605C205.185 308.435 205.015 308.678 205.173 316.586C205.525 333.336 206.011 350.099 206.363 366.85C206.509 373.749 206.679 373.98 213.54 374.126C230.093 374.503 246.645 374.903 263.185 375.341C264.424 375.377 265.638 375.802 266.865 376.033C265.687 376.167 264.509 376.422 263.331 376.422C237.051 376.446 210.772 376.434 184.492 376.434L184.504 376.41ZM830.177 394.764L830.226 394.035C839.48 393.33 848.733 392.662 857.975 391.885C858.825 391.812 859.614 391.059 860.428 390.622C859.809 389.905 859.299 388.739 858.546 388.544C856.433 387.998 854.198 387.548 852.036 387.597C840.33 387.889 828.611 388.654 816.904 388.69C751.18 388.909 685.469 388.957 619.746 389.067C612.229 389.067 604.76 389.225 598.178 393.707C597.231 394.351 595.907 394.606 594.729 394.679C588.487 395.116 582.233 395.772 575.991 395.772C500.164 395.845 424.324 395.845 348.497 395.772C339.413 395.772 330.329 395.177 321.246 394.764C319.667 394.691 317.882 394.472 316.582 393.683C309.685 389.419 301.997 389.103 294.322 389.067C258.728 388.909 223.134 389.03 187.552 388.775C145.109 388.484 102.665 387.901 60.2221 387.536C56.8461 387.512 53.4336 388.083 50.094 388.702C49.2075 388.872 48.5517 390.257 47.7988 391.083C48.6732 391.399 49.5475 391.934 50.434 391.982C66.5492 392.857 82.6764 394.169 98.8037 394.399C144.89 395.055 190.989 395.225 237.075 395.687C260.319 395.918 283.563 396.695 306.806 396.659C432.157 396.513 557.508 398.396 682.858 394.995C731.932 393.658 781.079 394.776 830.189 394.776L830.177 394.764ZM849.292 152.104V151.691C836.589 152.225 823.899 152.82 811.208 153.233C807.249 153.367 805.403 155.067 805.003 159.003C804.226 166.607 804.893 168.247 808.889 170.275C811.269 171.478 813.771 173.215 815.192 175.377C818.483 180.418 821.3 185.787 824.008 191.18C825.635 194.424 827.676 195.298 831.27 194.654C840.184 193.075 849.158 191.824 858.133 190.658C865.116 189.747 872.135 189.188 879.13 188.423C883.83 187.913 885.688 185.01 885.7 180.552C885.7 173.288 885.821 166.024 885.736 158.76C885.663 152.954 884.898 152.176 878.96 152.104C869.075 151.982 859.177 152.067 849.292 152.067V152.104ZM59.4813 151.739V152.116C50.179 152.116 40.901 152.055 31.623 152.14C25.3081 152.189 23.5593 153.537 23.4743 159.914C23.3772 167.749 24.0937 175.584 24.4337 183.431C24.5551 186.322 26.0731 187.852 28.9148 188.144C35.9098 188.86 42.929 189.419 49.9119 190.33C58.8863 191.496 67.8243 192.942 76.7744 194.254C80.7212 194.837 83.2593 193.172 84.8988 189.541C86.6354 185.69 88.4327 181.791 90.7522 178.28C92.586 175.511 94.8569 172.632 97.6257 170.956C102.568 167.98 103.698 166.279 102.75 159.416C102.07 154.533 98.6822 153.391 94.5047 153.221C82.8343 152.735 71.1517 152.249 59.4813 151.763V151.739ZM821.713 296.446V296.312C826.352 296.312 831.064 296.811 835.618 296.179C840.524 295.486 845.467 294.175 850.069 292.316C855.06 290.3 857.514 285.866 856.493 280.546C855.838 277.12 854.186 273.707 852.279 270.731C847.616 263.431 842.771 256.227 837.622 249.279C826.23 233.913 814.609 218.73 803.035 203.497C802.319 202.562 801.323 201.76 800.303 201.153C799.72 200.801 798.578 200.643 798.141 200.983C797.692 201.335 797.498 202.477 797.692 203.121C798.712 206.388 799.611 209.729 801.08 212.802C808.44 228.229 811.694 244.858 815.981 261.22C818.058 269.14 815.434 273.901 809.593 278.784C806.302 281.542 803.934 286.024 802.489 290.203C800.728 295.256 801.894 296.276 807.176 296.422C812.022 296.543 816.867 296.446 821.713 296.446ZM171.012 507.148V507.245C174.242 507.245 177.473 507.269 180.715 507.245C183.229 507.208 184.504 505.884 184.14 503.382C183.593 499.604 183.18 495.766 182.172 492.11C180.108 484.591 179.95 484.712 172.311 484.615C138.405 484.19 104.487 483.704 70.581 483.279C69.4516 483.267 68.31 483.704 67.1685 483.935C67.6786 484.943 67.9943 486.121 68.7108 486.947C77.4909 497.138 88.967 502.337 102.083 503.261C125.035 504.876 148.036 505.884 171.012 507.135V507.148ZM782.864 484.578V484.603C766.518 484.603 750.173 484.651 733.815 484.566C729.928 484.542 727.16 485.076 726.99 489.96C726.856 493.737 725.739 497.479 725.168 501.256C724.342 506.722 724.804 507.245 730.22 507.33C731.835 507.354 733.45 507.293 735.065 507.208C757.811 505.945 780.569 504.864 803.29 503.309C816.892 502.374 829.364 498.171 839.03 487.846C840.075 486.728 840.864 485.368 841.775 484.117C840.281 484.02 838.787 483.777 837.306 483.85C834.294 484.008 831.294 484.542 828.283 484.554C813.151 484.627 798.008 484.591 782.876 484.591L782.864 484.578ZM187.139 551.144V551.047C155.188 551.047 123.25 551.047 91.2987 551.071C90.4486 551.071 89.5985 551.448 88.7484 551.654C89.5378 551.763 90.315 551.958 91.1044 551.982C103.224 552.359 115.344 552.82 127.464 553.063C151.096 553.549 174.716 553.974 198.348 554.314C230.287 554.776 262.214 555.48 294.152 555.456C408.379 555.371 522.606 555.116 636.832 554.703C676.847 554.557 716.874 553.841 756.888 553.258C776.282 552.978 795.676 552.383 815.082 551.933C816.09 551.909 817.11 551.982 818.106 551.861C818.616 551.8 819.078 551.435 819.576 551.205C819.151 550.877 818.762 550.342 818.3 550.269C817.317 550.111 816.285 550.148 815.277 550.172C797.911 550.476 780.533 550.925 763.167 551.059C715.465 551.423 667.763 551.52 620.061 551.982C594.207 552.237 568.352 553.209 542.498 553.5C511.567 553.853 480.624 554.205 449.693 553.877C389.471 553.221 329.261 551.958 269.039 551.205C241.751 550.865 214.451 551.144 187.151 551.144H187.139ZM61.5823 341.827H61.9223C61.9223 350.512 61.9952 359.185 61.8859 367.858C61.8373 371.94 63.756 373.834 67.6907 373.883C73.9449 373.944 80.199 373.92 86.4532 374.005C88.9913 374.041 89.9264 373.033 89.9871 370.397C90.1086 364.36 90.5943 358.335 90.9222 352.31C91.6387 339.252 92.2945 326.182 93.1081 313.124C93.4603 307.536 92.3431 305.933 86.5382 305.435C80.7212 304.937 74.8557 304.827 69.063 304.184C64.9826 303.734 63.1003 304.864 62.9788 309.237C62.6752 320.108 62.068 330.968 61.5944 341.827H61.5823ZM848.235 343.297L848.648 343.273C848.114 331.806 847.446 320.339 847.118 308.872C846.997 304.633 845.005 303.831 841.362 304.147C835.339 304.682 829.303 304.973 823.279 305.326C817.875 305.641 817.365 306.322 817.705 312.079C818.24 320.922 818.701 329.777 819.102 338.62C819.563 348.678 820.013 358.736 820.268 368.806C820.365 372.753 822.138 374.26 825.89 373.968C831.707 373.519 837.524 372.984 843.366 372.753C846.985 372.608 848.333 371.004 848.284 367.482C848.163 359.416 848.248 351.35 848.248 343.285L848.235 343.297ZM654.903 24.4024V24.6453C658.133 24.6453 661.363 24.6696 664.606 24.6453C666.221 24.6332 667.836 24.5117 669.451 24.4267C668.067 24.1595 666.658 24.0015 665.322 23.6128C663.246 22.9933 661.254 21.6815 659.177 21.5843C629.315 20.1388 599.453 17.758 569.591 17.7094C486.72 17.5636 403.837 17.9159 320.979 19.1306C294.092 19.5315 266.901 17.6365 240.306 23.9408C239.541 24.123 238.751 24.1959 237.986 24.3295C238.788 24.4024 239.577 24.5482 240.379 24.5239C250.47 24.1959 260.55 23.8072 270.642 23.5157C299.726 22.6654 328.811 21.4264 357.896 21.0984C401.542 20.6125 445.2 20.7219 488.845 20.7097C512.708 20.7097 536.571 20.6611 560.422 21.232C591.924 21.9851 623.413 23.3213 654.903 24.4024ZM455.741 308.557C404.809 308.557 353.865 308.557 302.932 308.557C301.317 308.557 299.69 308.508 298.087 308.715C297.456 308.8 296.921 309.553 296.338 310.002C296.812 310.585 297.176 311.435 297.783 311.703C298.67 312.091 299.739 312.176 300.734 312.189C315.077 312.444 329.419 312.857 343.761 312.857C358.686 312.857 373.611 312.261 388.548 312.298C409.557 312.346 430.566 312.735 451.575 312.954C457.829 313.015 457.878 312.978 457.89 319.489C457.914 334.636 457.89 349.796 457.902 364.955C457.902 367.98 458.024 371.004 458.097 374.029C458.631 370.798 459.651 367.555 459.627 364.323C459.53 349.796 459.19 335.268 458.813 320.74C458.643 314.059 459.736 312.711 466.67 312.529C473.52 312.359 480.369 312.274 487.218 312.261C525.824 312.249 564.43 312.249 603.036 312.31C606.861 312.31 610.686 312.881 614.524 312.978C615.301 313.002 616.09 312.079 616.88 311.581C616.297 310.84 615.811 309.577 615.107 309.431C612.556 308.933 609.933 308.593 607.347 308.593C556.815 308.544 506.284 308.557 455.753 308.544L455.741 308.557ZM448.879 529.231V529.935C511.749 529.292 574.619 528.696 637.488 527.98C661.339 527.712 685.19 527.154 709.041 526.729C710.656 526.704 712.295 526.753 713.874 526.498C714.712 526.364 715.465 525.647 716.254 525.198C715.489 525.076 714.724 524.834 713.959 524.858C706.284 525.101 698.621 525.562 690.946 525.647C649.304 526.097 607.65 526.814 566.008 526.789C465.917 526.729 365.826 526.364 265.748 525.987C245.734 525.915 225.733 525.271 205.72 524.906C202.684 524.846 199.648 524.858 196.624 524.906C196.15 524.906 195.677 525.283 195.215 525.49C195.689 525.781 196.126 526.243 196.636 526.34C197.62 526.534 198.64 526.558 199.66 526.583C231.368 527.469 263.076 528.854 294.796 529.121C346.153 529.547 397.522 529.231 448.892 529.231H448.879ZM454.466 495.037V494.952C537.579 494.952 620.705 494.952 703.819 494.952C706.041 494.952 708.276 495.013 710.486 494.867C711.312 494.818 712.101 494.247 712.915 493.919C712.198 493.689 711.482 493.3 710.753 493.276C708.13 493.166 705.495 493.166 702.872 493.166C538.454 493.179 374.036 493.203 209.618 493.264C205.586 493.264 201.566 493.786 197.535 494.114C196.818 494.175 196.138 494.527 195.434 494.745C196.223 494.843 197.024 494.988 197.814 495.013C199.429 495.061 201.044 495.049 202.671 495.049C286.599 495.049 370.526 495.049 454.453 495.049L454.466 495.037ZM31.2101 350.124L31.7565 350.148C31.7565 353.986 31.3194 357.886 31.8416 361.651C33.0317 370.203 34.659 378.693 36.2013 387.196C36.7963 390.464 38.6543 389.881 40.3788 388.168C41.496 387.063 42.7833 385.726 43.1112 384.293C44.2892 379.264 45.7586 374.162 45.9043 369.049C46.2929 356.124 45.9043 343.188 46.0622 330.251C46.1472 322.999 46.6573 315.748 47.0944 308.508C47.4102 303.078 47.9567 297.673 48.2724 292.243C48.321 291.429 47.6652 290.591 47.3252 289.753C46.9244 290.421 46.4387 291.053 46.1108 291.745C42.7712 298.851 39.2616 305.896 36.2134 313.136C34.659 316.817 33.4324 320.801 32.9952 324.761C32.0723 333.179 31.7444 341.657 31.1858 350.111L31.2101 350.124ZM450.786 505.811V505.787C535.102 505.787 619.418 505.787 703.734 505.751C705.58 505.751 707.426 505.204 709.271 504.913C707.353 504.694 705.422 504.281 703.503 504.293C653.98 504.487 604.456 504.888 554.933 504.913C510.68 504.925 466.427 504.5 422.187 504.342C400.182 504.257 378.165 504.342 356.16 504.342C306.418 504.342 256.676 504.317 206.934 504.366C202.902 504.366 198.87 504.876 194.839 505.168C194.256 505.216 193.685 505.423 193.102 505.544C193.661 505.629 194.231 505.787 194.79 505.799C196.199 505.836 197.62 505.824 199.04 505.824C282.956 505.824 366.859 505.824 450.774 505.824L450.786 505.811ZM455.036 515.019V515.14C399.235 515.14 343.421 515.14 287.619 515.14C259.311 515.14 231.003 515.092 202.696 515.092C201.919 515.092 201.129 515.335 200.352 515.468C201.056 515.65 201.761 515.954 202.465 515.978C212.569 516.258 222.661 516.683 232.764 516.695C272.755 516.768 312.745 516.78 352.735 516.695C452.814 516.501 552.893 516.246 652.96 516.015C669.524 515.978 686.088 515.942 702.665 515.857C705.021 515.857 707.389 515.578 709.745 515.432C707.341 515.286 704.936 515.031 702.531 515.031C620.037 515.007 537.543 515.019 455.048 515.019H455.036ZM877.843 349.188L877.357 349.164C877.357 345.739 877.26 342.301 877.369 338.876C877.794 326.291 875.535 314.411 868.577 303.674C867.714 302.337 867.387 300.673 866.646 299.252C865.383 296.835 863.974 294.478 862.638 292.097C862.408 294.976 861.8 297.879 862.007 300.734C863.488 321.238 864.836 341.718 863.197 362.307C862.735 368.065 863.27 373.992 864.096 379.726C864.46 382.216 866.464 384.633 868.188 386.698C870.216 389.128 872.159 388.265 873.07 385.496C874.26 381.876 875.742 378.232 876.13 374.49C877.017 366.085 877.308 357.63 877.843 349.188ZM703.199 94.1989C703.442 96.3004 703.309 97.4057 703.709 98.2682C706.6 104.5 709.745 110.597 712.514 116.877C718.95 131.466 725.314 146.103 731.483 160.801C733.013 164.457 735.272 166.158 739.17 166.449C741.757 166.643 744.319 167.457 746.857 168.15C749.444 168.854 750.464 168.575 748.946 165.72C746.104 160.376 743.59 154.861 740.542 149.638C736.68 143.03 732.503 136.592 728.313 130.19C721.148 119.234 713.874 108.35 706.6 97.4786C705.968 96.5311 704.936 95.8388 703.212 94.1868L703.199 94.1989ZM158.504 168.733C162.912 167.712 166.021 166.765 169.215 166.303C173.599 165.672 175.615 163.169 177.072 159.1C180.934 148.265 184.99 137.479 189.544 126.923C194.329 115.796 199.781 104.949 204.906 93.956C205.21 93.3 205.197 92.5105 205.319 91.7695C204.748 92.219 204.032 92.5712 203.631 93.1421C196.381 103.552 189.046 113.901 182.014 124.445C177.205 131.648 172.651 139.046 168.316 146.54C164.794 152.638 161.71 158.991 158.564 165.307C158.127 166.182 158.504 167.457 158.504 168.733ZM388.949 388.168V388.642C407.954 388.642 426.959 388.642 445.965 388.642C447.981 388.642 450.021 388.666 452.025 388.435C452.85 388.338 453.603 387.621 454.393 387.184C453.531 386.868 452.668 386.309 451.794 386.273C442.115 385.86 432.424 385.289 422.733 385.228C391.195 385.034 359.657 385.046 328.119 384.961C325.69 384.961 323.274 384.84 320.845 384.84C320.298 384.84 319.752 385.131 319.206 385.289C319.655 385.848 320.031 386.832 320.553 386.917C323.735 387.439 326.941 388.095 330.135 388.107C349.748 388.217 369.348 388.156 388.961 388.156L388.949 388.168ZM290.667 316.209C290.922 317.497 291.068 318.286 291.25 319.076C292.804 325.951 294.432 332.814 295.901 339.701C298.014 349.553 299.714 359.513 302.204 369.255C303.103 372.766 305.641 375.936 307.79 379.009C308.422 379.908 310.292 379.92 311.591 380.345C311.591 379.046 311.871 377.685 311.567 376.47C309.029 366.316 306.345 356.197 303.783 346.042C301.864 338.414 300.297 330.688 298.075 323.157C297.249 320.376 295.051 317.983 293.339 315.517C292.974 314.995 292.039 314.873 291.371 314.557C291.08 315.225 290.788 315.906 290.655 316.197L290.667 316.209ZM526.674 389.176C526.674 388.654 526.674 388.144 526.674 387.621C546.469 387.621 566.263 387.658 586.046 387.548C587.88 387.548 589.713 386.589 591.547 386.079C589.701 385.714 587.855 385.022 586.022 385.022C553.488 385.022 520.954 385.058 488.42 385.24C481.972 385.277 475.523 385.848 469.087 386.334C468.079 386.407 467.144 387.354 466.172 387.901C467.156 388.326 468.128 389.103 469.111 389.115C488.299 389.188 507.486 389.164 526.674 389.164V389.176ZM154.363 572.231C154.363 575.669 154.205 577.892 154.423 580.09C154.557 581.366 155.298 582.568 155.759 583.807C156.804 583.297 158.139 583.042 158.844 582.228C164.272 576.033 169.785 569.899 174.825 563.4C177.315 560.193 176.246 558.189 172.129 557.825C167.927 557.46 163.628 557.412 159.451 557.885C158.006 558.043 155.953 559.987 155.626 561.445C154.751 565.344 154.654 569.413 154.363 572.231ZM741.55 557.497V557.63C740.142 557.63 738.721 557.533 737.324 557.643C733.28 557.958 731.422 560.412 733.729 563.522C738.599 570.081 744.149 576.13 749.614 582.228C750.294 582.993 752.249 583.054 753.403 582.738C753.901 582.592 754.119 580.625 754.071 579.495C753.84 574.49 753.269 569.498 753.196 564.493C753.136 560.509 751.12 558.59 747.525 557.983C745.558 557.655 743.542 557.643 741.538 557.485L741.55 557.497ZM812.168 198.019C814.269 197.57 815.252 197.363 816.224 197.145C821.446 195.918 821.458 195.881 819.175 190.913C817.754 187.816 816.527 184.621 814.912 181.633C813.589 179.179 812.301 176.155 810.115 174.891C807.881 173.592 804.578 174.102 801.748 173.822C801.59 176.033 800.728 178.499 801.432 180.394C803.254 185.265 805.573 189.978 808.099 194.521C809.01 196.161 811.099 197.157 812.156 198.043L812.168 198.019ZM96.3627 197.764C97.0307 197.242 98.7672 196.537 99.4352 195.262C102.143 190.124 104.584 184.84 107.013 179.556C109.102 175.013 108.604 173.677 103.771 173.373C101.573 173.239 98.3544 174.405 97.1521 176.094C93.5696 181.135 90.7036 186.71 87.6676 192.128C86.2953 194.569 87.5462 195.906 89.9628 196.452C91.7359 196.853 93.5089 197.181 96.3627 197.764ZM882.882 360.291L882.032 360.242C882.032 353.792 882.105 347.33 881.996 340.88C881.959 338.681 881.461 336.495 881.085 334.308C881 333.786 880.575 333.312 880.308 332.814C880.223 333.409 880.065 334.005 880.077 334.588C880.186 343.261 880.781 351.946 880.32 360.582C879.883 368.951 879.688 377.734 876.944 385.471C874.26 393.015 876.519 400.327 875.025 407.664C874.26 411.442 874.527 416.021 878.061 419.203C878.887 419.944 879.567 420.843 880.32 421.669C880.405 420.479 880.599 419.288 880.563 418.11C880.369 411.077 879.652 404.02 880.004 397.023C880.624 384.767 881.887 372.535 882.894 360.291H882.882ZM28.0648 354.108L29.0484 353.998C29.0484 348.945 29.0727 343.892 29.0484 338.839C29.0484 337.236 28.8906 335.632 28.8056 334.029C28.2712 335.657 27.6397 337.26 27.2268 338.912C26.9839 339.872 27.0204 340.928 27.0447 341.937C27.5061 358.882 27.9555 375.839 28.4777 392.784C28.6963 399.635 29.0241 406.486 29.4735 413.324C29.5463 414.405 30.5543 416.349 31.1008 416.337C34.2704 416.252 36.6749 410.664 35.1569 407.834C34.1003 405.866 33.0924 403.692 32.8617 401.517C32.1937 395.322 32.0966 389.055 31.4651 382.848C30.4814 373.251 29.2306 363.692 28.0891 354.12L28.0648 354.108ZM537.652 349.358V349.322C558.673 349.322 579.695 349.322 600.716 349.322C602.125 349.322 603.546 349.358 604.954 349.237C605.404 349.2 605.804 348.678 606.229 348.374C605.744 348.119 605.282 347.682 604.784 347.646C603.376 347.548 601.955 347.597 600.546 347.621C581.152 347.901 561.77 348.399 542.376 348.399C521.586 348.399 500.795 347.913 480.004 347.706C477.394 347.682 474.77 347.986 472.159 348.277C471.334 348.362 470.556 348.872 469.767 349.188C470.569 349.249 471.37 349.346 472.172 349.346C494.007 349.346 515.829 349.346 537.664 349.346L537.652 349.358ZM373.611 322.331C351.181 322.319 328.751 322.307 306.333 322.331C305.386 322.331 304.426 322.574 303.479 322.708C304.463 322.854 305.434 323.109 306.418 323.109C322.776 323.206 339.146 323.254 355.504 323.34C383.957 323.485 412.423 323.667 440.876 323.765C441.86 323.765 442.856 323.097 443.84 322.744C442.856 322.611 441.872 322.356 440.889 322.356C418.459 322.331 396.029 322.343 373.611 322.343V322.331ZM549.723 322.307C529.746 322.319 509.769 322.307 489.793 322.356C488.906 322.356 488.02 322.817 487.133 323.072C488.007 323.267 488.894 323.643 489.768 323.619C494.602 323.51 499.435 323.182 504.268 323.169C539.146 323.109 574.023 323.109 608.901 323.06C609.739 323.06 610.577 322.72 611.415 322.538C610.626 322.465 609.836 322.319 609.047 322.319C589.276 322.307 569.506 322.319 549.723 322.319V322.307ZM26.7896 456.227L27.6397 456.13C27.2025 454.661 26.7654 453.179 26.3282 451.709C26.2067 453.227 25.9517 454.745 25.976 456.264C26.3646 485.137 26.6561 514.011 27.2633 542.872C27.4211 550.111 28.6112 557.339 29.4006 564.554C29.4735 565.222 30.0564 565.83 30.4086 566.461C30.7365 565.83 31.4044 565.149 31.3315 564.566C30.9915 562.003 30.1657 559.489 30.02 556.926C28.8784 537.09 27.579 517.266 26.8868 497.406C26.401 483.692 26.7896 469.954 26.7896 456.215V456.227ZM884.157 485.077L883.004 485.016C883.004 476.331 883.028 467.646 882.992 458.96C882.992 456.555 882.785 454.162 882.676 451.757C882.482 454.272 882.178 456.798 882.117 459.313C881.692 478.869 881.619 498.438 880.842 517.983C880.271 532.268 878.79 546.516 877.806 560.776C877.733 561.773 878.377 562.805 878.693 563.825C878.96 562.926 879.409 562.052 879.458 561.141C881.049 535.79 882.603 510.427 884.17 485.064L884.157 485.077ZM385.293 349.37C405.914 349.37 426.534 349.37 447.155 349.358C448.139 349.358 449.134 349.164 450.118 349.055C449.183 348.897 448.248 348.593 447.313 348.593C424.871 348.569 402.428 348.678 379.998 348.532C365.863 348.447 351.727 347.986 337.579 347.743C332.527 347.658 327.476 347.694 322.424 347.743C321.926 347.743 321.44 348.18 320.954 348.423C321.379 348.715 321.792 349.225 322.229 349.261C323.832 349.383 325.46 349.37 327.075 349.37C346.481 349.37 365.887 349.37 385.293 349.383V349.37ZM381.796 362.003V361.797C404.032 361.797 426.255 361.797 448.491 361.773C449.438 361.773 450.373 361.493 451.32 361.347C450.325 361.25 449.341 361.056 448.345 361.056C411.561 361.019 374.789 361.007 338.004 360.983C330.524 360.983 323.055 360.922 315.574 360.947C314.858 360.947 314.154 361.396 313.437 361.639C314.202 361.76 314.955 361.979 315.72 361.979C337.749 362.003 359.779 361.991 381.796 361.991V362.003ZM535.442 360.461V361.129C514.639 361.129 493.836 361.129 473.034 361.129C471.819 361.129 470.605 361.08 469.403 361.153C468.711 361.19 468.043 361.432 467.363 361.578C467.945 361.688 468.516 361.858 469.111 361.894C470.119 361.943 471.127 361.894 472.135 361.894C514.141 361.845 556.147 361.809 598.154 361.76C599.162 361.76 600.182 361.809 601.177 361.688C601.712 361.627 602.21 361.25 602.72 361.019C602.1 360.825 601.469 360.473 600.85 360.473C579.051 360.449 557.24 360.449 535.442 360.449V360.461ZM47.3495 341.56H47.5559C47.5559 346.2 47.5073 350.828 47.5923 355.468C47.6166 356.501 48.1388 357.533 48.4424 358.566C48.831 357.497 49.5232 356.44 49.5718 355.359C49.8876 348.945 50.0819 342.532 50.2519 336.118C50.5312 325.465 50.7862 314.812 50.9441 304.147C50.9562 303.333 50.2276 302.507 49.839 301.694C49.4747 302.52 48.8432 303.321 48.8067 304.159C48.2724 316.622 47.8231 329.097 47.3495 341.56ZM790.806 509.978V509.856C796.053 509.856 801.311 510.172 806.521 509.747C810.03 509.468 813.467 508.192 816.904 507.245C817.426 507.099 817.754 506.249 818.167 505.739C817.572 505.702 816.977 505.605 816.394 505.653C801.955 506.795 787.527 507.949 773.088 509.103C772.299 509.164 771.522 509.298 770.732 509.395C771.582 509.601 772.432 509.966 773.27 509.966C779.112 510.014 784.965 509.99 790.806 509.99V509.978ZM115.902 509.844V509.929C121.149 509.929 126.395 509.954 131.641 509.917C133.026 509.917 134.41 509.686 135.794 509.565C134.507 509.407 133.22 509.188 131.933 509.091C119.473 508.241 107.001 507.415 94.5411 506.565C92.7802 506.443 91.0437 506.152 89.2828 505.933C90.9222 507.026 92.4402 508.411 94.2254 509.115C95.8527 509.747 97.7714 509.796 99.5688 509.82C105.009 509.905 110.462 509.844 115.915 509.844H115.902ZM873.349 436.246C872.402 439.088 871.37 442.088 870.435 445.113C869.985 446.571 869.706 448.089 869.342 449.583C870.168 448.186 871.285 446.899 871.771 445.392C874.758 436.124 874.709 426.892 871.09 417.77C870.593 416.507 870.107 415.219 869.621 413.944C869.463 415.389 869.075 416.859 869.196 418.28C869.354 420.066 869.925 421.803 870.338 423.564C871.297 427.646 872.268 431.727 873.337 436.234L873.349 436.246ZM26.8868 440.934C26.9961 441.845 27.2268 443.692 27.4454 445.538C27.6397 443.789 27.834 442.028 28.004 440.278C28.0648 439.683 27.834 438.821 28.1498 438.529C32.388 434.582 30.1657 430.124 29.2184 425.775C29.0727 425.119 28.7448 424.5 28.502 423.856C28.4412 424.451 28.3562 425.046 28.3076 425.641C27.8583 430.415 27.4211 435.189 26.8868 440.934ZM35.0354 430.682C35.4119 432.504 35.6183 433.537 35.8369 434.569C36.0677 433.622 36.3106 432.662 36.5413 431.715C36.5899 431.521 36.6263 431.326 36.6992 431.132C37.0756 430.002 37.6828 428.885 37.8043 427.731C38.0229 425.568 37.9743 423.382 38.035 421.196C36.9785 424.56 35.9219 427.913 35.0476 430.682H35.0354ZM118.404 168.308L118.271 167.166C117.809 167.348 117.08 167.397 116.91 167.725C115.259 171.114 113.704 174.551 112.126 177.977C112.454 178.098 113.049 178.365 113.073 178.329C114.603 175.535 116.097 172.717 117.578 169.899C117.858 169.364 118.125 168.83 118.392 168.32L118.404 168.308ZM180.205 71.7756C180.812 71.6177 181.092 71.6298 181.164 71.5084C182.937 68.8968 184.71 66.273 186.423 63.625C186.532 63.4428 186.253 62.7747 186.01 62.6654C185.767 62.5561 185.208 62.7747 185.014 63.0298C183.338 65.2284 181.65 67.427 180.108 69.7349C179.816 70.1722 180.144 71.0346 180.205 71.7756ZM704.839 35.1646C704.39 36.6465 703.977 37.3025 704.159 37.5576C705.677 39.8169 707.292 42.0155 708.944 44.1777C709.016 44.2748 709.757 43.8497 710.194 43.6796C708.567 41.0923 706.94 38.505 704.839 35.1768V35.1646ZM875.001 590.743C875.001 592.808 874.964 595.432 875.025 598.068C875.025 598.602 875.389 599.137 875.584 599.659C875.729 599.088 875.972 598.529 875.997 597.958C876.07 595.335 876.106 592.699 876.082 590.075C876.057 587.269 875.948 584.463 875.863 581.657C875.596 584.499 875.329 587.33 875.013 590.743H875.001ZM190.564 57.6851C192.604 54.9278 194.365 52.5712 196.065 50.1783C196.187 50.0082 195.834 49.5102 195.701 49.1701C194.244 50.6277 192.738 52.0489 191.365 53.5794C190.722 54.2961 190.26 55.2071 189.872 56.106C189.762 56.3732 190.187 56.8834 190.564 57.6851ZM312.854 349.686C313.984 349.249 315.113 348.812 316.255 348.374C314.785 348.119 313.316 347.682 311.846 347.658C310.875 347.658 309.903 348.241 308.919 348.569C310.158 348.921 311.385 349.261 312.854 349.674V349.686Z" fill="black"/>
<path d="M207.554 40.5093C210.152 36.4765 212.763 32.4437 215.314 28.3866C215.702 27.7671 215.763 26.9654 215.982 26.2366C215.168 26.516 214.051 26.5524 213.601 27.1233C209.982 31.7027 206.533 36.4157 202.939 41.0073C202.259 41.8697 201.154 42.4042 200.255 43.0966C200.449 42.0276 200.304 40.6915 200.899 39.9262C205.72 33.7313 209.922 26.7589 215.787 21.7422C222.697 15.8388 231.866 13.8952 240.937 13.0328C259.639 11.2715 278.341 9.66809 297.055 8.0161C298.658 7.87034 300.285 7.87034 301.9 7.84604C324.731 7.38446 347.623 7.82175 370.393 6.29123C416.054 3.2059 461.74 4.14122 507.414 4.63924C527.998 4.85789 548.558 6.55846 569.13 7.49378C574.983 7.76102 580.873 7.45734 586.714 7.82175C610.881 9.32798 635.06 10.8342 659.202 12.7048C666.185 13.2393 673.18 14.5755 679.944 16.3489C683.211 17.2114 685.979 19.9566 688.979 21.8515C689.963 22.471 691.104 23.7221 691.942 23.5521C697.808 22.386 698.293 28.0222 701.159 30.5973C701.427 30.8403 701.159 31.6784 701.159 32.2372C700.625 32.1157 699.921 32.1643 699.581 31.8363C698.573 30.8524 697.808 29.6256 696.775 28.6903C696.01 27.9979 694.966 27.6213 694.043 27.1112C694.444 28.1436 694.662 29.2976 695.257 30.1965C705.871 46.3398 716.934 62.2159 727.05 78.6629C735.588 92.5348 743.372 106.905 750.901 121.372C760.204 139.228 769.154 157.278 777.715 175.499C781.796 184.184 786.301 192.942 786.131 203.024C786.131 203.218 786.131 203.461 786.228 203.619C787.066 205.052 787.928 206.473 788.791 207.907C788.718 206.437 788.633 204.967 788.584 203.497C788.317 194.691 786.034 186.492 782.148 178.548C776.404 166.789 771.267 154.727 765.705 142.872C761.187 133.215 756.743 123.51 751.678 114.132C746.529 104.597 740.785 95.3772 735.09 86.1576C728.544 75.5412 721.707 65.0826 715.149 54.4783C714.19 52.9356 714.044 50.8949 713.51 49.085C714.712 50.3362 716.157 51.4173 717.068 52.8506C729.965 73.1118 743.008 93.2879 755.552 113.768C760.896 122.501 765.207 131.867 769.943 140.965C773.938 148.642 777.958 156.306 781.796 164.068C786.544 173.652 791.183 183.297 795.688 193.002C796.381 194.484 796.903 197.12 796.126 197.995C793.235 201.25 795.154 204.056 796.235 206.984C799.89 216.81 804.08 226.467 807.152 236.464C809.994 245.684 811.694 255.244 813.795 264.682C814.135 266.224 814.536 268.314 813.795 269.419C812.168 271.848 809.848 273.792 807.808 275.942C806.946 273.938 805.719 272.006 805.306 269.917C804.092 263.783 803.291 257.564 802.149 251.417C801.87 249.935 800.874 248.575 800.218 247.166C800.024 248.599 799.477 250.081 799.696 251.454C800.546 256.823 801.833 262.131 802.574 267.512C803.436 273.671 804.724 279.975 800.109 285.477C799.38 286.34 799.198 287.712 798.907 288.879C797.134 296.106 797.158 296.179 789.701 297.066C786.702 297.418 783.654 297.442 780.63 297.503C739.607 298.292 698.585 298.985 657.562 299.872C646.548 300.114 635.727 301.317 627.214 309.723C626.389 310.537 623.195 310.573 622.782 309.905C620.244 305.848 616.382 306.152 612.544 306.152C579.78 306.152 547.028 306.188 514.263 306.188C443.281 306.188 372.299 306.176 301.318 306.224C296.011 306.224 290.169 304.998 286.66 311.059C286.405 311.496 283.442 311.217 282.676 310.403C274.491 301.633 263.793 300.078 252.693 299.799C237.537 299.41 222.381 299.216 207.226 298.948C179.537 298.462 151.849 298.013 124.173 297.466C121.161 297.406 118.016 297.272 115.223 296.312C113.437 295.705 111.203 293.701 110.899 292.012C109.478 284.141 105.24 278.128 98.9982 273.719C94.9178 270.84 94.2863 267.463 95.2821 263.236C96.8123 256.762 98.4881 250.336 100.091 243.874C100.334 242.902 100.71 241.882 100.625 240.922C100.553 240.06 99.9333 239.246 99.5568 238.42C98.9496 239.112 98.0024 239.708 97.7838 240.497C96.6058 244.773 95.5978 249.109 94.5778 253.422C93.7884 256.762 93.3026 260.2 92.2461 263.455C90.6795 268.302 91.9182 271.496 95.8164 275.055C99.994 278.882 103.637 283.825 105.981 288.976C108.373 294.247 106.309 296.616 100.577 296.458C89.1008 296.155 77.4425 296.592 66.2093 294.648C52.1587 292.219 48.5641 281.724 56.7977 269.844C69.1968 251.94 81.8751 234.217 94.5535 216.495C96.6544 213.555 99.3018 211.004 101.779 208.344C111.324 198.043 115.708 184.888 121.768 172.632C127.051 161.967 132.637 151.448 138.163 140.904C142.656 132.328 147.028 123.68 151.91 115.323C158.82 103.479 166.118 91.8545 173.356 80.2056C174.06 79.0759 175.53 78.4078 176.635 77.5211C176.234 78.9787 176.125 80.6064 175.396 81.8819C171.304 89.0486 166.92 96.0453 162.924 103.273C156.974 114.035 150.914 124.773 145.558 135.839C137.313 152.905 129.358 170.118 121.878 187.524C120.056 191.751 120.517 196.962 120.007 201.724C119.971 202.113 120.517 202.562 120.785 202.987C121.076 202.744 121.501 202.55 121.635 202.234C122.12 201.141 122.8 200.011 122.873 198.869C123.505 188.059 128.472 178.718 132.941 169.243C139.134 156.112 145.243 142.933 152.055 130.118C160.095 114.995 168.802 100.212 177.291 85.3316C181.092 78.6872 185.075 72.14 189.01 65.5685C190.564 62.969 192.131 60.3696 193.904 57.9159C194.487 57.1142 195.713 56.7862 196.648 56.2275C196.49 57.345 196.478 58.5232 196.126 59.58C195.822 60.5153 195.155 61.3413 194.632 62.2038C186.01 76.7923 176.914 91.1379 168.899 106.054C159.743 123.097 151.387 140.588 142.984 158.031C138.612 167.105 134.823 176.47 130.925 185.763C127.78 193.27 130.706 197.74 138.988 197.315C152.493 196.622 165.972 195.359 179.477 194.351C188.949 193.646 198.409 192.869 207.881 192.274C226.012 191.144 244.156 190.087 262.299 189.091C272.585 188.532 282.883 187.961 293.181 187.767C325.921 187.123 358.674 186.565 391.414 186.139C421.932 185.739 452.462 185.289 482.992 185.362C513.109 185.423 543.239 185.921 573.356 186.589C596.381 187.099 619.418 187.816 642.419 189.043C671.042 190.573 699.641 192.699 728.241 194.618C741.538 195.505 754.824 196.695 768.121 197.339C776.683 197.752 779.391 194.29 776.44 186.2C772.712 175.985 768.571 165.854 763.822 156.076C755.006 137.94 746.08 119.829 736.341 102.179C725.848 83.1573 714.53 64.5724 703.224 46.0119C699.569 40.0234 694.905 34.6301 690.533 29.1033C685.858 23.1877 679.3 20.3574 672.074 19.823C652.146 18.341 632.194 16.8227 612.217 16.2032C584.747 15.365 557.253 15.2557 529.759 14.9885C485.093 14.539 440.427 13.9681 395.762 13.9195C366.665 13.8952 337.543 14.2718 308.458 15.28C285.069 16.0938 261.704 18.0374 238.339 19.6893C228.368 20.3939 220.171 24.5238 214.488 33.2211C212.678 35.9906 209.849 38.1042 207.493 40.5093L207.541 40.5579L207.554 40.5093ZM725.083 274.509V274.545C741.052 274.545 757.034 274.545 773.003 274.533C773.781 274.533 774.546 274.278 775.323 274.144C774.521 273.901 773.708 273.452 772.906 273.44C747.052 273.015 721.197 272.602 695.342 272.237C664.824 271.812 634.307 271.521 603.789 270.998C562.973 270.294 522.157 268.933 481.34 268.751C450.033 268.605 418.714 269.905 387.407 270.452C358.504 270.95 329.601 271.314 300.698 271.715C261.121 272.261 221.543 272.857 181.966 273.318C165.79 273.513 149.614 273.403 133.439 273.44C132.018 273.44 130.609 273.428 129.188 273.5C128.617 273.525 128.059 273.78 127.488 273.926C127.986 274.108 128.484 274.448 128.982 274.46C130.998 274.533 133.026 274.545 135.042 274.521C167.175 274.169 199.308 273.658 231.441 273.464C291.481 273.087 351.521 272.759 411.573 272.674C446.548 272.626 481.511 273.087 516.485 273.33C572.469 273.719 628.453 274.144 684.437 274.509C697.99 274.594 711.53 274.521 725.083 274.521V274.509ZM724.124 212.62C724.027 212.365 723.942 212.097 723.844 211.842C723.164 211.988 722.436 212.037 721.816 212.304C715.55 215.086 709.029 217.418 703.115 220.807C688.602 229.128 674.382 237.995 662.007 249.352C657.732 253.276 654.223 258.037 650.446 262.507C649.912 263.151 649.9 264.244 649.644 265.119C650.47 264.645 651.345 264.22 652.122 263.674C652.608 263.333 652.936 262.787 653.361 262.35C665.614 249.692 679.179 238.639 694.31 229.626C703.309 224.269 712.526 219.288 721.634 214.138C722.484 213.664 723.286 213.118 724.124 212.608V212.62ZM258.971 261.305C257.125 259.046 255.547 256.312 253.264 254.43C244.107 246.886 235.291 238.736 225.308 232.456C213.249 224.876 200.146 218.973 187.467 212.377C186.824 212.049 185.974 212.122 185.221 212C185.767 212.644 186.204 213.519 186.897 213.907C196.539 219.349 206.509 224.281 215.812 230.245C226.122 236.853 235.934 244.263 245.759 251.612C249.778 254.612 253.239 258.353 256.98 261.718C257.393 262.094 258.012 262.252 258.522 262.52C258.643 262.179 258.765 261.827 258.959 261.305H258.971ZM100.771 234.922C101.342 234.035 101.718 233.598 101.913 233.1C105.896 222.811 109.904 212.523 113.741 202.173C114.032 201.396 113.134 200.193 112.782 199.185C112.077 199.999 111.057 200.691 110.717 201.627C107.912 209.34 105.179 217.09 102.544 224.864C101.646 227.512 101.038 230.257 100.37 232.978C100.261 233.415 100.553 233.962 100.771 234.922ZM110.365 245.064C110.365 245.064 110.11 243.923 109.855 242.805C109.236 243.777 108.228 244.688 108.045 245.732C106.491 254.648 105.07 263.601 103.686 272.541C103.589 273.16 104.111 273.877 104.354 274.557C104.827 274.011 105.629 273.525 105.738 272.917C107.268 264.014 108.713 255.086 110.353 245.064H110.365ZM800.036 238.76C797.753 232.189 795.215 224.852 792.616 217.527C792.47 217.102 791.802 216.859 791.377 216.531C791.256 217.078 790.916 217.685 791.062 218.159C793.187 225.459 795.336 232.759 797.583 240.023C797.826 240.801 798.7 241.372 799.271 242.052C799.453 241.287 799.623 240.534 800.036 238.772V238.76ZM110.438 232.577C110.766 233.513 111.081 234.387 111.385 235.25C111.932 234.509 112.721 233.853 112.976 233.027C115.113 226.127 117.19 219.216 119.194 212.28C119.364 211.697 118.902 210.919 118.744 210.239C118.344 210.616 117.724 210.931 117.566 211.393C115.162 218.414 112.83 225.459 110.45 232.577H110.438Z" fill="white"/>
<path d="M454.538 481.846C365.353 481.846 276.179 481.943 186.994 481.797C147.78 481.737 108.567 481.117 69.3665 480.911C65.2862 480.886 62.2501 479.793 60.3192 476.222C56.0931 468.423 51.9277 460.601 47.7623 452.778C46.0743 449.608 48.3088 449.499 50.5069 449.328C52.6928 449.158 54.8666 448.928 57.0404 448.721C54.733 448.466 52.4378 448.162 50.1304 447.992C46.6208 447.737 40.2938 440.692 41.2896 437.728C41.5324 436.987 43.5848 436.465 44.787 436.489C50.2397 436.611 55.6802 437.194 61.1329 437.206C165.681 437.303 270.229 437.4 374.776 437.4C532.503 437.4 690.242 437.315 847.968 437.254C852.219 437.254 856.469 436.999 860.707 437.254C862.905 437.4 866.488 435.529 866.719 440.012C866.913 443.838 864.132 447.373 860.719 447.919C860.319 447.98 859.906 447.932 859.505 447.992C858.133 448.187 856.761 448.405 855.388 448.612C856.736 448.867 858.072 449.207 859.432 449.353C862.25 449.656 862.165 451.199 861.132 453.143C857.331 460.273 853.494 467.367 849.717 474.509C847.179 479.307 843.438 480.983 837.901 480.947C804.942 480.716 771.971 480.728 739.012 480.874C644.192 481.287 549.371 481.809 454.551 482.295V481.846H454.538ZM101.439 449.28V449.243C89.9142 449.243 78.3896 449.231 66.8649 449.28C66.0634 449.28 65.274 449.766 64.4846 450.021C65.2619 450.154 66.0391 450.385 66.8163 450.422C77.3087 450.859 87.789 451.588 98.2815 451.636C191.487 452.098 284.692 452.523 377.91 452.778C438.156 452.948 498.403 452.875 558.649 452.766C578.456 452.73 598.251 451.976 618.058 452.013C646.147 452.062 674.248 452.596 702.337 452.778C722.302 452.912 742.267 453.094 762.219 452.73C789.276 452.232 816.333 451.236 843.39 450.434C844.969 450.385 846.547 450.118 848.126 449.96C846.487 449.705 844.835 449.219 843.196 449.231C808.221 449.511 773.258 449.972 738.283 450.094C721.537 450.154 704.778 449.401 688.019 449.377C616.843 449.268 545.655 449.28 474.479 449.28C350.136 449.28 225.794 449.28 101.451 449.28H101.439Z" fill="white"/>
<path d="M42.48 455.341C44.9574 459.168 47.5319 462.921 49.8757 466.82C53.9196 473.525 57.0528 480.935 61.9468 486.923C69.4518 496.131 77.5033 505.302 88.7123 510.185C93.7399 512.371 99.5933 513.209 105.143 513.501C121.477 514.363 137.847 514.631 154.217 515.141C163.908 515.445 173.587 515.833 183.278 515.991C185.464 516.028 186.399 516.453 186.909 518.809C188.864 528.053 191.888 530.47 201.445 530.555C256.215 531.029 310.984 531.466 365.754 531.855C416.479 532.219 467.205 532.803 517.93 532.766C568.862 532.73 619.782 532.098 670.714 531.6C683.842 531.479 696.958 530.932 710.085 530.543C716.339 530.361 720.189 528.004 721.865 522.125C723.189 517.509 725.727 516.368 730.196 516.234C754.022 515.542 777.837 514.181 801.663 513.768C817.596 513.501 828.939 505.192 839.443 494.746C849.171 485.077 855.984 473.477 861.849 461.208C862.906 458.998 864.752 457.151 866.233 455.135C865.784 457.759 865.832 460.601 864.812 462.982C859.408 475.578 853.591 487.992 848.199 500.589C843.439 511.691 839.164 523 834.44 534.114C832.546 538.548 830.19 542.824 827.652 546.929C826.984 548.011 824.81 548.739 823.389 548.654C820.487 548.472 817.633 547.136 814.755 547.136C792.519 547.136 770.283 547.33 748.048 547.488C692.27 547.901 636.493 548.448 580.715 548.739C501.487 549.152 422.248 549.59 343.02 549.602C287.036 549.602 231.052 549.043 175.068 548.533C147.805 548.278 120.53 547.561 93.2663 547.063C91.4447 547.027 89.3195 546.529 87.8622 547.27C82.2152 550.173 80.1143 546.334 78.3777 542.423C74.528 533.762 71.067 524.919 67.2902 516.222C60.6353 500.88 53.7375 485.636 47.2283 470.221C45.2002 465.423 44.0951 460.249 42.565 455.256L42.5164 455.305L42.48 455.341Z" fill="white"/>
<path d="M454.465 432.141C321.416 432.141 188.366 432.141 55.3158 432.141C47.2684 432.141 43.4228 428.262 43.779 420.504C44.0583 414.589 44.6291 413.848 50.6768 414.334C110.826 419.12 171.085 416.35 231.295 416.836C285.081 417.273 338.867 416.921 392.652 417.006C408.597 417.03 424.543 417.601 440.488 417.577C467.739 417.528 495.002 417.055 522.253 417.006C580.083 416.897 637.913 416.933 695.731 416.921C732.126 416.921 768.522 417.176 804.918 416.8C822.065 416.63 839.2 415.16 856.347 414.54C859.068 414.443 863.865 415.257 864.217 416.581C865.419 421.063 865.14 425.958 865.14 430.708C865.14 431.169 863.185 431.91 862.079 432.02C859.881 432.238 857.635 432.141 855.412 432.141C721.755 432.141 588.098 432.141 454.441 432.141H454.465Z" fill="white"/>
<path d="M452.972 411.248C334.289 411.248 215.593 411.333 96.9095 411.138C82.3974 411.114 67.8731 409.571 53.3732 408.648C51.3694 408.527 49.3535 408.065 47.4347 407.458C43.6944 406.267 43.6822 403.121 43.9008 400C44.1194 396.878 46.2689 395.894 48.9527 396.028C58.0243 396.453 67.0838 397.109 76.1432 397.509C87.2428 397.995 98.3425 398.554 109.442 398.676C127.027 398.882 144.623 398.663 162.22 398.785C212.557 399.137 262.894 399.72 313.219 399.939C401.967 400.328 490.716 400.716 579.476 400.716C629.4 400.716 679.337 399.951 729.261 399.489C757.156 399.234 785.05 399.089 812.933 398.493C824.215 398.25 835.472 396.89 846.754 396.173C850.786 395.918 854.842 396.015 858.874 395.991C862.153 395.967 865.043 396.416 865.043 400.741C865.043 404.494 864.399 407.664 859.797 408.102C853.567 408.697 847.361 409.584 841.119 409.912C829.218 410.531 817.305 411.199 805.392 411.211C687.91 411.308 570.441 411.272 452.96 411.272L452.972 411.248Z" fill="white"/>
<path d="M756.815 374.065C741.647 374.065 726.492 374.114 711.324 374.041C705.616 374.017 705.142 373.349 705.264 367.688C705.665 350.124 706.053 332.559 706.43 314.995C706.563 308.872 706.733 308.642 713.06 308.508C733.062 308.083 753.051 307.743 773.052 307.269C782.536 307.038 792.021 306.419 801.505 306.273C807.674 306.176 808.099 306.735 808.124 312.808C808.197 331.599 808.087 350.403 808.318 369.194C808.367 373.033 807.152 374.077 803.521 374.041C787.952 373.907 772.384 373.98 756.815 373.98V374.065Z" fill="white"/>
<path d="M152.614 374.018C137.871 374.018 123.128 374.054 108.386 373.994C102.544 373.969 101.973 373.483 101.961 367.872C101.901 349.299 102.071 330.726 101.937 312.153C101.901 307.61 103.734 306.141 108.07 306.214C135.515 306.736 162.985 306.639 190.406 307.744C204.481 308.315 202.235 308.303 202.49 320.049C202.83 335.779 203.315 351.51 203.631 367.24C203.765 373.775 203.473 374.03 196.83 374.054C182.088 374.103 167.345 374.067 152.602 374.067V374.018H152.614Z" fill="white"/>
<path d="M722.63 376.543C749.723 376.543 776.816 376.543 803.909 376.543C812.738 376.543 813.236 376.276 812.957 367.251C812.398 349.091 811.487 330.956 810.868 312.796C810.807 311.071 811.742 309.322 812.228 307.585C812.835 309.371 813.904 311.12 813.977 312.93C814.778 332.098 815.507 351.265 816.029 370.446C816.163 375.231 818.154 376.774 822.745 376.604C830.213 376.325 837.706 376.628 845.187 376.434C850.749 376.288 851.988 375.013 851.866 369.474C851.441 348.277 850.87 327.093 850.385 305.909C850.36 304.755 850.251 303.333 850.846 302.495C851.429 301.669 852.813 301.171 853.894 301.062C854.283 301.026 855.133 302.507 855.254 303.358C855.91 307.949 856.347 312.565 856.991 317.157C857.076 317.74 857.853 318.226 858.315 318.76C858.545 318.238 858.995 317.691 858.983 317.181C858.764 312.359 858.424 307.536 858.205 302.702C858.169 301.973 858.582 301.208 858.776 300.467C859.225 301.183 860.076 301.912 860.088 302.629C860.221 323.4 860.27 344.159 860.294 364.931C860.294 365.502 859.796 366.085 859.517 366.656C859.396 366.085 859.165 365.502 859.153 364.931C859.08 359.27 859.092 353.61 858.97 347.961C858.946 347.111 858.315 346.273 857.963 345.435C857.586 346.249 856.894 347.063 856.882 347.889C856.785 355.371 856.833 362.842 856.76 370.324C856.7 377.466 855.849 378.378 848.721 378.463C833.359 378.669 817.997 378.827 802.622 378.9C742.789 379.191 682.955 379.446 623.121 379.689C615.276 379.726 614.803 379.592 616.333 372.146C618.725 360.534 621.822 349.067 624.615 337.527C625.186 335.171 625.417 332.705 626.242 330.458C627.76 326.34 629.364 322.222 631.416 318.359C632.497 316.331 634.598 314.849 636.237 313.112C635.423 314.885 634.318 316.586 633.845 318.456C632.266 324.7 630.833 330.992 629.473 337.284C627.008 348.702 624.615 360.133 622.259 371.575C621.98 372.924 621.798 374.503 622.247 375.717C622.539 376.495 624.02 377.09 625.052 377.224C625.441 377.284 626.498 375.839 626.473 375.11C626.048 357.643 632.375 341.451 636.128 324.797C638.629 313.695 643.584 310.172 654.975 309.82C668.904 309.395 682.821 308.836 696.751 308.532C703.515 308.387 703.831 308.933 703.685 315.869C703.308 333.033 702.932 350.184 702.58 367.348C702.446 373.47 702.106 373.907 696.034 374.017C690.169 374.114 684.303 373.956 678.45 374.102C665.128 374.43 651.806 374.855 638.496 375.292C637.658 375.316 636.832 375.729 636.006 375.972C636.783 376.106 637.549 376.349 638.326 376.349C642.977 376.398 647.628 376.41 652.279 376.41C675.729 376.41 699.192 376.41 722.642 376.41V376.519L722.63 376.543Z" fill="white"/>
<path d="M184.48 376.397C210.759 376.397 237.039 376.397 263.319 376.385C264.497 376.385 265.674 376.13 266.852 375.997C265.626 375.754 264.399 375.329 263.173 375.304C246.621 374.867 230.068 374.466 213.528 374.09C206.667 373.932 206.497 373.701 206.351 366.814C205.999 350.063 205.501 333.3 205.161 316.549C205.003 308.642 205.161 308.399 213.309 308.569C228.04 308.872 242.783 309.249 257.514 309.856C267.897 310.294 272.159 314.375 274.455 324.578C277.211 336.786 280.284 348.921 283.125 361.117C283.623 363.254 283.891 365.502 283.927 367.7C284.048 373.725 283.15 374.648 277.163 375.316C276.179 375.426 275.195 375.584 274.212 375.717C275.268 376.009 276.313 376.312 277.369 376.58C277.758 376.677 278.171 376.738 278.571 376.725C290.193 376.397 288.505 377.151 287.23 366.619C285.396 351.484 280.672 337.151 277.211 322.453C276.932 321.262 277.466 319.878 277.636 318.578C278.681 319.38 280.065 319.987 280.697 321.044C281.826 322.926 282.761 325.016 283.332 327.129C286.599 339.398 289.902 351.666 292.829 364.02C293.788 368.089 293.812 372.425 293.849 376.653C293.849 377.649 292.331 379.203 291.213 379.531C289.537 380.029 287.619 379.714 285.797 379.701C210.808 379.301 135.831 378.9 60.8413 378.475C53.1056 378.426 52.8505 377.576 53.1177 369.437C53.5306 356.331 53.312 343.212 53.3484 330.093C53.3606 321.408 53.2756 312.711 53.397 304.026C53.4213 302.471 54.1985 300.916 54.6357 299.361C56.3116 301.086 59.1654 302.653 59.4326 304.56C59.9912 308.69 59.1168 312.99 59.0197 317.23C58.6554 334.588 58.2911 351.958 58.0846 369.316C58.0239 374.818 59.3597 376.203 64.8003 376.361C72.6817 376.58 80.5632 376.385 88.4447 376.482C92.2336 376.531 93.8366 374.916 93.9702 371.065C94.5895 352.104 95.3182 333.142 96.1561 314.181C96.2533 311.958 97.2734 309.783 97.8563 307.585C98.2692 309.905 99.0828 312.237 99.0464 314.557C98.7671 333.531 98.342 352.504 97.9291 371.478C97.832 376.179 100.929 376.482 104.438 376.47C124.245 376.446 144.064 376.458 163.871 376.458C170.745 376.458 177.618 376.458 184.492 376.458V376.373L184.48 376.397Z" fill="white"/>
<path d="M830.153 394.752C781.042 394.752 731.896 393.635 682.822 394.971C557.471 398.372 432.12 396.489 306.77 396.635C283.526 396.659 260.283 395.894 237.039 395.663C190.952 395.202 144.854 395.044 98.7671 394.376C82.6398 394.145 66.5126 392.833 50.3975 391.958C49.4988 391.91 48.6366 391.363 47.7622 391.059C48.5273 390.233 49.1709 388.849 50.0574 388.679C53.397 388.059 56.7974 387.488 60.1855 387.512C102.629 387.877 145.072 388.46 187.516 388.751C223.11 388.994 258.692 388.885 294.286 389.043C301.973 389.079 309.66 389.395 316.546 393.659C317.833 394.461 319.63 394.667 321.209 394.74C330.293 395.165 339.377 395.748 348.46 395.748C424.288 395.833 500.127 395.821 575.954 395.748C582.208 395.748 588.45 395.092 594.692 394.655C595.87 394.57 597.206 394.315 598.141 393.683C604.723 389.189 612.192 389.055 619.709 389.043C685.432 388.946 751.144 388.885 816.867 388.666C828.574 388.63 840.281 387.865 852 387.573C854.174 387.525 856.396 387.974 858.509 388.521C859.262 388.715 859.772 389.881 860.391 390.598C859.578 391.035 858.788 391.788 857.938 391.861C848.697 392.639 839.443 393.307 830.189 394.011L830.141 394.74L830.153 394.752Z" fill="white"/>
<path d="M849.268 152.091C859.153 152.091 869.05 152.006 878.936 152.128C884.874 152.201 885.627 152.978 885.712 158.784C885.809 166.048 885.688 173.312 885.675 180.576C885.675 185.034 883.805 187.937 879.106 188.447C872.111 189.2 865.091 189.771 858.109 190.682C849.134 191.848 840.148 193.087 831.246 194.679C827.651 195.322 825.611 194.448 823.984 191.205C821.276 185.811 818.458 180.442 815.167 175.401C813.746 173.227 811.245 171.502 808.865 170.3C804.869 168.271 804.201 166.631 804.978 159.027C805.379 155.092 807.225 153.391 811.184 153.258C823.875 152.845 836.565 152.237 849.243 151.715V152.128L849.268 152.091Z" fill="white"/>
<path d="M59.4452 151.727C71.1156 152.213 82.7981 152.699 94.4685 153.185C98.6461 153.355 102.034 154.497 102.714 159.38C103.662 166.243 102.532 167.944 97.5896 170.92C94.8207 172.596 92.5498 175.475 90.716 178.244C88.3965 181.755 86.5992 185.654 84.8626 189.505C83.2232 193.136 80.6851 194.801 76.7383 194.218C67.7881 192.906 58.8501 191.46 49.8757 190.294C42.905 189.383 35.8858 188.824 28.8787 188.108C26.037 187.816 24.519 186.298 24.3975 183.395C24.0575 175.56 23.341 167.713 23.4382 159.878C23.511 153.501 25.2719 152.153 31.5868 152.104C40.8648 152.019 50.1429 152.08 59.433 152.08V151.703L59.4452 151.727Z" fill="white"/>
<path d="M821.676 296.435C816.831 296.435 811.985 296.532 807.14 296.411C801.869 296.277 800.704 295.257 802.452 290.191C803.898 286.025 806.266 281.531 809.557 278.773C815.398 273.878 818.021 269.129 815.944 261.209C811.658 244.847 808.403 228.218 801.044 212.791C799.574 209.718 798.676 206.377 797.656 203.11C797.449 202.466 797.655 201.312 798.105 200.972C798.542 200.632 799.684 200.79 800.266 201.142C801.287 201.749 802.282 202.551 802.999 203.486C814.572 218.719 826.194 233.915 837.585 249.268C842.746 256.216 847.592 263.42 852.243 270.72C854.137 273.696 855.789 277.109 856.457 280.535C857.477 285.855 855.024 290.289 850.033 292.305C845.43 294.164 840.5 295.488 835.581 296.168C831.027 296.812 826.315 296.301 821.676 296.301V296.435Z" fill="white"/>
<path d="M171.012 507.149C148.035 505.885 125.035 504.889 102.083 503.274C88.9548 502.351 77.4909 497.152 68.7107 486.96C67.9943 486.134 67.6664 484.956 67.1685 483.948C68.31 483.717 69.4515 483.268 70.5809 483.292C104.487 483.717 138.405 484.191 172.311 484.628C179.962 484.725 180.108 484.604 182.172 492.123C183.18 495.791 183.581 499.618 184.14 503.395C184.504 505.898 183.229 507.222 180.715 507.258C177.485 507.294 174.254 507.258 171.012 507.258V507.161V507.149Z" fill="white"/>
<path d="M782.864 484.579C797.996 484.579 813.139 484.615 828.271 484.542C831.282 484.53 834.282 483.996 837.294 483.838C838.775 483.765 840.281 484.008 841.763 484.105C840.852 485.356 840.063 486.716 839.018 487.834C829.364 498.159 816.892 502.362 803.278 503.297C780.557 504.852 757.799 505.933 735.053 507.196C733.438 507.281 731.823 507.342 730.208 507.318C724.792 507.233 724.33 506.71 725.156 501.244C725.727 497.467 726.844 493.737 726.978 489.948C727.16 485.064 729.929 484.542 733.802 484.554C750.148 484.639 766.494 484.591 782.852 484.591V484.566L782.864 484.579Z" fill="white"/>
<path d="M187.139 551.156C214.439 551.156 241.739 550.877 269.026 551.217C329.249 551.97 389.459 553.233 449.681 553.889C480.612 554.229 511.555 553.865 542.485 553.513C568.34 553.221 594.195 552.25 620.049 551.994C667.751 551.533 715.453 551.436 763.154 551.071C780.533 550.938 797.899 550.488 815.264 550.185C816.272 550.172 817.305 550.124 818.288 550.282C818.75 550.355 819.138 550.889 819.563 551.217C819.078 551.448 818.604 551.812 818.094 551.873C817.098 551.982 816.078 551.922 815.07 551.946C795.676 552.395 776.282 552.978 756.876 553.27C716.861 553.853 676.835 554.57 636.82 554.715C522.594 555.128 408.367 555.383 294.14 555.469C262.202 555.493 230.263 554.788 198.336 554.327C174.704 553.987 151.084 553.561 127.451 553.076C115.332 552.833 103.212 552.371 91.0923 551.994C90.3029 551.97 89.5257 551.776 88.7363 551.666C89.5864 551.46 90.4365 551.083 91.2866 551.083C123.237 551.059 155.176 551.059 187.127 551.059V551.156H187.139Z" fill="white"/>
<path d="M61.5825 341.829C62.0682 330.969 62.6754 320.11 62.9669 309.239C63.0883 304.866 64.9706 303.736 69.051 304.185C74.8559 304.829 80.7093 304.938 86.5263 305.436C92.3433 305.935 93.4484 307.526 93.0962 313.126C92.2704 326.184 91.6268 339.254 90.9103 352.312C90.5824 358.337 90.0966 364.361 89.9752 370.399C89.9266 373.034 88.9794 374.043 86.4413 374.006C80.1871 373.921 73.9329 373.958 67.6788 373.885C63.7441 373.848 61.8253 371.941 61.8739 367.86C61.9832 359.187 61.9103 350.514 61.9103 341.853H61.5703L61.5825 341.829Z" fill="white"/>
<path d="M848.223 343.299C848.223 351.364 848.138 359.43 848.26 367.495C848.308 371.018 846.948 372.622 843.341 372.767C837.512 372.998 831.695 373.533 825.866 373.982C822.114 374.273 820.341 372.767 820.243 368.819C820.001 358.75 819.539 348.692 819.078 338.634C818.677 329.779 818.215 320.936 817.681 312.093C817.341 306.348 817.851 305.655 823.255 305.339C829.291 304.987 835.326 304.683 841.338 304.161C844.981 303.845 846.985 304.647 847.094 308.886C847.422 320.353 848.09 331.82 848.624 343.287L848.211 343.311L848.223 343.299Z" fill="white"/>
<path d="M654.903 24.4036C623.413 23.3225 591.924 21.9864 560.422 21.2332C536.571 20.6623 512.708 20.7109 488.845 20.7109C445.2 20.7109 401.542 20.6138 357.896 21.0996C328.799 21.4155 299.727 22.6544 270.642 23.5169C260.55 23.8084 250.458 24.1971 240.379 24.5251C239.589 24.5494 238.788 24.4036 237.986 24.3307C238.764 24.2093 239.553 24.1242 240.306 23.942C266.901 17.6377 294.092 19.5205 320.979 19.1318C403.837 17.9171 486.72 17.5649 569.591 17.7106C599.453 17.7592 629.315 20.14 659.177 21.5855C661.254 21.6827 663.246 22.9946 665.322 23.6141C666.658 24.0149 668.079 24.1728 669.451 24.4279C667.836 24.5008 666.221 24.6223 664.606 24.6466C661.375 24.683 658.133 24.6466 654.903 24.6466V24.4036Z" fill="white"/>
<path d="M455.728 308.559C506.26 308.559 556.791 308.559 607.322 308.595C609.921 308.595 612.544 308.935 615.082 309.433C615.787 309.567 616.272 310.83 616.855 311.583C616.066 312.069 615.277 312.992 614.499 312.98C610.662 312.883 606.849 312.324 603.011 312.312C564.405 312.251 525.799 312.251 487.194 312.263C480.344 312.263 473.495 312.348 466.646 312.531C459.724 312.713 458.619 314.061 458.789 320.742C459.165 335.27 459.505 349.798 459.602 364.325C459.627 367.556 458.607 370.8 458.072 374.031C458.012 371.006 457.89 367.982 457.878 364.957C457.866 349.798 457.89 334.65 457.866 319.491C457.854 312.98 457.805 313.016 451.551 312.956C430.542 312.737 409.533 312.348 388.523 312.3C373.598 312.263 358.673 312.871 343.736 312.859C329.394 312.859 315.052 312.446 300.71 312.19C299.714 312.178 298.646 312.093 297.759 311.705C297.152 311.437 296.788 310.599 296.314 310.004C296.897 309.555 297.431 308.801 298.063 308.716C299.654 308.498 301.281 308.559 302.908 308.559C353.84 308.559 404.784 308.559 455.716 308.559H455.728Z" fill="white"/>
<path d="M448.88 529.22C397.51 529.22 346.153 529.536 294.784 529.111C263.064 528.844 231.356 527.459 199.648 526.572C198.64 526.548 197.62 526.524 196.624 526.329C196.114 526.232 195.677 525.771 195.203 525.479C195.677 525.273 196.138 524.908 196.612 524.896C199.648 524.847 202.684 524.847 205.708 524.896C225.721 525.26 245.722 525.904 265.736 525.977C365.827 526.342 465.918 526.718 565.996 526.779C607.638 526.803 649.292 526.086 690.934 525.637C698.609 525.552 706.272 525.09 713.947 524.847C714.7 524.823 715.477 525.066 716.242 525.188C715.453 525.637 714.7 526.341 713.862 526.487C712.271 526.742 710.644 526.694 709.029 526.718C685.178 527.155 661.327 527.702 637.476 527.969C574.607 528.686 511.737 529.281 448.88 529.925V529.22Z" fill="white"/>
<path d="M454.453 495.025C370.526 495.025 286.599 495.025 202.671 495.025C201.056 495.025 199.429 495.037 197.814 494.989C197.012 494.965 196.223 494.819 195.434 494.722C196.138 494.503 196.818 494.151 197.535 494.09C201.554 493.75 205.586 493.24 209.618 493.24C374.036 493.179 538.454 493.167 702.871 493.143C705.495 493.143 708.13 493.143 710.753 493.252C711.482 493.276 712.198 493.677 712.915 493.896C712.101 494.224 711.312 494.795 710.486 494.843C708.276 494.989 706.041 494.928 703.819 494.928C620.705 494.928 537.579 494.928 454.466 494.928V495.013L454.453 495.025Z" fill="white"/>
<path d="M31.21 350.124C31.7807 341.67 32.0965 333.179 33.0194 324.773C33.4566 320.825 34.6831 316.841 36.2376 313.149C39.2857 305.909 42.7954 298.876 46.135 291.758C46.4628 291.053 46.9365 290.422 47.3494 289.766C47.6773 290.592 48.333 291.442 48.2966 292.256C47.9809 297.685 47.4344 303.091 47.1186 308.521C46.6936 315.76 46.1835 323.012 46.0864 330.264C45.9285 343.2 46.3171 356.137 45.9285 369.061C45.7706 374.175 44.3134 379.265 43.1354 384.306C42.7954 385.739 41.5202 387.075 40.403 388.18C38.6785 389.881 36.8084 390.476 36.2254 387.209C34.6953 378.706 33.068 370.215 31.8657 361.664C31.3435 357.898 31.7807 353.999 31.7807 350.16L31.2342 350.136L31.21 350.124Z" fill="white"/>
<path d="M450.786 505.812C366.871 505.812 282.968 505.812 199.053 505.812C197.632 505.812 196.223 505.824 194.802 505.788C194.232 505.775 193.673 505.617 193.114 505.532C193.697 505.399 194.268 505.192 194.851 505.156C198.883 504.852 202.914 504.354 206.946 504.354C256.688 504.306 306.43 504.33 356.172 504.33C378.177 504.33 400.194 504.257 422.199 504.33C466.452 504.488 510.705 504.925 554.945 504.901C604.469 504.876 653.992 504.476 703.515 504.281C705.434 504.281 707.365 504.682 709.284 504.901C707.438 505.192 705.592 505.739 703.746 505.739C619.43 505.775 535.114 505.775 450.798 505.775V505.8L450.786 505.812Z" fill="white"/>
<path d="M455.036 515.02C537.531 515.02 620.025 515.02 702.519 515.032C704.924 515.032 707.328 515.299 709.733 515.433C707.377 515.578 705.009 515.846 702.653 515.858C686.088 515.943 669.524 515.979 652.947 516.016C552.869 516.246 452.79 516.501 352.723 516.696C312.733 516.769 272.742 516.769 232.752 516.696C222.648 516.672 212.557 516.246 202.453 515.979C201.749 515.955 201.044 515.651 200.34 515.469C201.117 515.335 201.906 515.092 202.684 515.092C230.991 515.092 259.299 515.129 287.607 515.141C343.409 515.141 399.222 515.141 455.024 515.141V515.02H455.036Z" fill="white"/>
<path d="M877.831 349.188C877.296 357.631 877.005 366.085 876.118 374.491C875.73 378.232 874.248 381.876 873.058 385.496C872.147 388.265 870.204 389.128 868.176 386.698C866.452 384.633 864.448 382.204 864.084 379.726C863.258 373.993 862.723 368.065 863.185 362.307C864.824 341.718 863.476 321.238 861.995 300.734C861.788 297.88 862.396 294.976 862.626 292.098C863.974 294.478 865.371 296.835 866.634 299.252C867.375 300.673 867.702 302.338 868.565 303.674C875.535 314.412 877.794 326.291 877.357 338.876C877.236 342.301 877.345 345.739 877.345 349.164L877.831 349.188Z" fill="white"/>
<path d="M388.936 388.17C369.324 388.17 349.711 388.218 330.111 388.121C326.905 388.109 323.699 387.453 320.529 386.931C320.007 386.846 319.63 385.874 319.181 385.303C319.728 385.145 320.274 384.854 320.821 384.854C323.249 384.854 325.666 384.963 328.095 384.975C359.633 385.048 391.171 385.048 422.709 385.242C432.4 385.303 442.079 385.874 451.77 386.287C452.644 386.323 453.506 386.882 454.368 387.198C453.579 387.635 452.826 388.364 452 388.449C449.997 388.68 447.968 388.656 445.94 388.656C426.935 388.656 407.93 388.656 388.924 388.656V388.182L388.936 388.17Z" fill="white"/>
<path d="M290.643 316.222C290.776 315.93 291.068 315.25 291.359 314.582C292.027 314.886 292.974 315.019 293.326 315.542C295.027 318.02 297.237 320.413 298.063 323.182C300.285 330.713 301.852 338.439 303.77 346.067C306.333 356.222 309.016 366.34 311.555 376.495C311.858 377.71 311.579 379.082 311.579 380.37C310.279 379.945 308.397 379.933 307.778 379.034C305.628 375.961 303.09 372.79 302.192 369.28C299.69 359.526 297.99 349.577 295.889 339.726C294.419 332.839 292.792 325.976 291.238 319.101C291.055 318.311 290.922 317.522 290.655 316.234L290.643 316.222Z" fill="white"/>
<path d="M526.65 389.177C507.462 389.177 488.275 389.202 469.087 389.129C468.104 389.129 467.132 388.339 466.148 387.914C467.12 387.367 468.055 386.42 469.063 386.347C475.499 385.861 481.948 385.29 488.396 385.254C520.93 385.084 553.464 385.047 585.998 385.035C587.844 385.035 589.69 385.715 591.523 386.092C589.69 386.602 587.856 387.55 586.022 387.562C566.227 387.671 546.433 387.635 526.65 387.635C526.65 388.157 526.65 388.667 526.65 389.189V389.177Z" fill="white"/>
<path d="M812.156 198.032C811.099 197.157 809.01 196.161 808.1 194.509C805.574 189.966 803.242 185.253 801.433 180.382C800.728 178.499 801.603 176.021 801.748 173.811C804.578 174.09 807.881 173.58 810.116 174.879C812.302 176.155 813.589 179.18 814.912 181.621C816.528 184.609 817.742 187.816 819.175 190.901C821.458 195.869 821.458 195.906 816.224 197.133C815.252 197.364 814.269 197.558 812.168 198.007L812.156 198.032Z" fill="white"/>
<path d="M96.3509 197.765C93.497 197.182 91.7118 196.842 89.951 196.453C87.5343 195.906 86.2835 194.57 87.6557 192.129C90.6917 186.711 93.5577 181.148 97.1402 176.095C98.3425 174.406 101.561 173.24 103.759 173.374C108.592 173.677 109.102 175.014 107.001 179.557C104.572 184.84 102.131 190.124 99.4233 195.263C98.7554 196.538 97.0188 197.243 96.3509 197.765Z" fill="white"/>
<path d="M882.87 360.305C881.874 372.549 880.599 384.781 879.98 397.037C879.627 404.034 880.344 411.091 880.538 418.124C880.575 419.302 880.38 420.493 880.295 421.683C879.542 420.857 878.862 419.971 878.037 419.217C874.515 416.023 874.236 411.456 875.001 407.678C876.482 400.353 874.236 393.041 876.919 385.485C879.676 377.76 879.858 368.965 880.295 360.596C880.757 351.96 880.162 343.262 880.053 334.602C880.053 334.006 880.21 333.423 880.283 332.828C880.55 333.326 880.975 333.8 881.061 334.322C881.437 336.497 881.923 338.695 881.971 340.894C882.093 347.344 882.008 353.806 882.008 360.256L882.858 360.305H882.87Z" fill="white"/>
<path d="M28.0527 354.12C29.1942 363.692 30.445 373.264 31.4287 382.848C32.0723 389.055 32.1573 395.311 32.8253 401.518C33.056 403.692 34.0761 405.867 35.1205 407.834C36.6385 410.665 34.234 416.252 31.0644 416.337C30.53 416.349 29.5099 414.418 29.4371 413.325C28.9877 406.486 28.6599 399.635 28.4413 392.784C27.9191 375.839 27.4697 358.882 27.0083 341.937C26.984 340.929 26.9475 339.884 27.1904 338.912C27.6033 337.26 28.2348 335.657 28.7691 334.029C28.8542 335.633 28.9999 337.236 29.012 338.84C29.0485 343.893 29.012 348.946 29.012 353.999L28.0284 354.108L28.0527 354.12Z" fill="white"/>
<path d="M537.64 349.372C515.805 349.372 493.982 349.372 472.147 349.372C471.346 349.372 470.544 349.263 469.743 349.214C470.544 348.898 471.321 348.388 472.135 348.303C474.746 348.024 477.369 347.708 479.98 347.732C500.771 347.939 521.561 348.425 542.352 348.425C561.746 348.425 581.128 347.927 600.522 347.647C601.93 347.623 603.351 347.574 604.76 347.671C605.258 347.708 605.719 348.145 606.205 348.4C605.78 348.704 605.379 349.214 604.93 349.263C603.521 349.384 602.1 349.348 600.692 349.348C579.67 349.348 558.649 349.348 537.628 349.348V349.384L537.64 349.372Z" fill="white"/>
<path d="M373.599 322.344C396.029 322.344 418.459 322.344 440.876 322.356C441.86 322.356 442.844 322.611 443.827 322.745C442.844 323.097 441.848 323.777 440.864 323.765C412.411 323.668 383.945 323.486 355.492 323.34C339.134 323.255 322.764 323.206 306.406 323.109C305.422 323.109 304.45 322.842 303.467 322.708C304.414 322.575 305.373 322.332 306.321 322.332C328.751 322.307 351.181 322.319 373.599 322.319V322.344Z" fill="white"/>
<path d="M549.711 322.32C569.482 322.32 589.252 322.32 609.035 322.32C609.824 322.32 610.614 322.466 611.403 322.539C610.565 322.721 609.727 323.061 608.889 323.061C574.012 323.11 539.134 323.11 504.256 323.171C499.423 323.171 494.59 323.511 489.756 323.62C488.882 323.644 488.008 323.268 487.121 323.073C488.008 322.818 488.894 322.357 489.781 322.357C509.758 322.32 529.734 322.32 549.711 322.32Z" fill="white"/>
<path d="M26.7899 456.229C26.7899 469.955 26.4013 483.706 26.887 497.42C27.5914 517.268 28.8786 537.104 30.0202 556.94C30.1659 559.503 31.0039 562.017 31.3317 564.58C31.4046 565.163 30.7367 565.844 30.4088 566.475C30.0566 565.844 29.4737 565.224 29.4008 564.568C28.6115 557.341 27.4214 550.125 27.2635 542.886C26.6442 514.024 26.3527 485.151 25.9762 456.278C25.9519 454.759 26.207 453.241 26.3284 451.723C26.7656 453.192 27.2028 454.674 27.64 456.144L26.7899 456.241V456.229Z" fill="black"/>
<path d="M884.158 485.09C882.603 510.453 881.049 535.804 879.446 561.167C879.385 562.078 878.948 562.952 878.681 563.851C878.365 562.831 877.721 561.786 877.794 560.802C878.79 546.53 880.272 532.281 880.83 518.009C881.607 498.464 881.68 478.895 882.105 459.339C882.154 456.812 882.47 454.298 882.664 451.783C882.773 454.188 882.968 456.581 882.968 458.986C883.004 467.671 882.98 476.357 882.98 485.042L884.133 485.102L884.158 485.09Z" fill="black"/>
<path d="M385.293 349.383C365.887 349.383 346.481 349.383 327.075 349.383C325.46 349.383 323.832 349.395 322.229 349.273C321.78 349.237 321.379 348.727 320.954 348.435C321.44 348.204 321.938 347.767 322.424 347.755C327.475 347.719 332.527 347.682 337.579 347.755C351.715 347.998 365.851 348.459 379.998 348.545C402.44 348.678 424.883 348.569 447.313 348.605C448.248 348.605 449.183 348.909 450.118 349.067C449.134 349.176 448.138 349.371 447.155 349.371C426.534 349.383 405.914 349.383 385.293 349.371V349.383Z" fill="white"/>
<path d="M381.796 362.016C359.766 362.016 337.737 362.016 315.72 362.004C314.955 362.004 314.202 361.785 313.437 361.664C314.154 361.421 314.858 360.972 315.574 360.972C323.055 360.947 330.524 360.996 338.004 361.008C374.789 361.032 411.561 361.044 448.345 361.081C449.341 361.081 450.324 361.275 451.32 361.372C450.373 361.518 449.438 361.798 448.491 361.798C426.255 361.822 404.031 361.822 381.796 361.822V362.028V362.016Z" fill="white"/>
<path d="M535.442 360.475C557.241 360.475 579.051 360.475 600.85 360.499C601.469 360.499 602.101 360.851 602.72 361.046C602.21 361.276 601.712 361.641 601.178 361.714C600.182 361.835 599.162 361.786 598.154 361.786C556.148 361.835 514.142 361.872 472.135 361.92C471.127 361.92 470.119 361.957 469.112 361.92C468.529 361.896 467.946 361.714 467.363 361.604C468.043 361.459 468.723 361.228 469.403 361.179C470.605 361.106 471.82 361.155 473.034 361.155C493.837 361.155 514.639 361.155 535.442 361.155V360.487V360.475Z" fill="white"/>
<path d="M47.3374 341.562C47.811 329.099 48.2603 316.624 48.7947 304.161C48.8311 303.323 49.4747 302.521 49.8269 301.695C50.2155 302.509 50.9442 303.335 50.932 304.149C50.762 314.802 50.507 325.455 50.2398 336.12C50.0698 342.533 49.8755 348.947 49.5598 355.361C49.5112 356.442 48.819 357.499 48.4304 358.567C48.1389 357.535 47.6046 356.515 47.5803 355.47C47.4831 350.842 47.5439 346.202 47.5439 341.574H47.3374V341.562Z" fill="white"/>
<path d="M790.794 509.991C784.953 509.991 779.1 510.016 773.258 509.967C772.408 509.967 771.558 509.59 770.72 509.396C771.51 509.299 772.287 509.165 773.076 509.105C787.515 507.951 801.942 506.797 816.382 505.655C816.965 505.606 817.56 505.716 818.155 505.74C817.742 506.262 817.414 507.113 816.892 507.246C813.455 508.206 810.018 509.469 806.509 509.748C801.299 510.174 796.04 509.858 790.794 509.858V509.979V509.991Z" fill="white"/>
<path d="M115.891 509.845C110.438 509.845 104.997 509.893 99.5448 509.821C97.7475 509.796 95.8287 509.748 94.2014 509.116C92.4162 508.412 90.8982 507.027 89.2588 505.934C91.0075 506.152 92.7563 506.444 94.5172 506.565C106.977 507.428 119.449 508.241 131.909 509.092C133.196 509.177 134.483 509.395 135.77 509.566C134.386 509.687 133.002 509.906 131.617 509.918C126.371 509.954 121.125 509.93 115.878 509.93V509.845H115.891Z" fill="white"/>
<path d="M873.337 436.247C872.268 431.752 871.297 427.671 870.338 423.577C869.925 421.816 869.354 420.079 869.196 418.293C869.075 416.872 869.463 415.403 869.621 413.957C870.107 415.232 870.593 416.508 871.09 417.783C874.709 426.906 874.758 436.137 871.771 445.406C871.285 446.912 870.167 448.199 869.342 449.596C869.694 448.102 869.973 446.584 870.435 445.126C871.382 442.102 872.414 439.101 873.349 436.259L873.337 436.247Z" fill="white"/>
<path d="M26.8745 440.936C27.4088 435.191 27.846 430.417 28.2954 425.643C28.3561 425.048 28.4289 424.453 28.4897 423.857C28.7325 424.501 29.0726 425.121 29.2062 425.777C30.1534 430.125 32.3879 434.571 28.1375 438.531C27.8217 438.822 28.0525 439.685 27.9918 440.28C27.8096 442.029 27.6153 443.791 27.4331 445.54C27.2024 443.693 26.9838 441.847 26.8745 440.936Z" fill="white"/>
<path d="M207.505 40.4609C205.343 44.2629 203.218 48.0771 200.959 51.8305C200.655 52.3407 199.696 52.45 199.04 52.7415C199.04 52.0006 198.712 51.0045 199.077 50.5672C201.833 47.1539 204.724 43.8499 207.565 40.5095L207.517 40.4609H207.505Z" fill="white"/>
<path d="M35.0234 430.696C35.8977 427.938 36.9543 424.574 38.0108 421.209C37.9501 423.383 38.0108 425.582 37.7801 427.744C37.6586 428.898 37.0636 430.016 36.675 431.145C36.6142 431.34 36.5657 431.534 36.5171 431.728C36.2864 432.676 36.0435 433.623 35.8127 434.583C35.6063 433.55 35.3877 432.518 35.0112 430.696H35.0234Z" fill="white"/>
<path d="M118.404 168.308C118.137 168.818 117.87 169.365 117.59 169.887C116.097 172.705 114.615 175.524 113.085 178.317C113.061 178.366 112.466 178.099 112.138 177.965C113.716 174.54 115.271 171.102 116.922 167.713C117.08 167.385 117.809 167.337 118.283 167.154L118.416 168.296L118.404 168.308Z" fill="white"/>
<path d="M180.205 71.7773C180.157 71.0363 179.817 70.1739 180.108 69.7366C181.65 67.4408 183.326 65.2422 185.014 63.0315C185.208 62.7764 185.767 62.5699 186.01 62.6671C186.253 62.7764 186.544 63.4445 186.423 63.6267C184.711 66.2869 182.938 68.8985 181.165 71.5101C181.079 71.6315 180.8 71.6194 180.205 71.7773Z" fill="white"/>
<path d="M704.839 35.1528C706.94 38.481 708.567 41.0683 710.194 43.6557C709.757 43.8379 709.016 44.2509 708.944 44.1537C707.292 41.9915 705.677 39.7929 704.159 37.5336C703.989 37.2785 704.402 36.6226 704.839 35.1406V35.1528Z" fill="white"/>
<path d="M875.001 590.744C875.317 587.331 875.584 584.488 875.851 581.658C875.924 584.464 876.033 587.27 876.07 590.076C876.094 592.7 876.058 595.336 875.985 597.959C875.973 598.53 875.717 599.089 875.572 599.66C875.377 599.126 875.025 598.603 875.013 598.069C874.952 595.445 874.989 592.821 874.989 590.744H875.001Z" fill="black"/>
<path d="M42.5286 455.304C40.707 451.599 38.8611 447.907 37.1124 444.166C36.9423 443.801 37.3067 443.182 37.416 442.684C37.756 443.157 38.2296 443.57 38.4239 444.105C39.8083 447.846 41.132 451.612 42.48 455.365L42.5286 455.316V455.304Z" fill="white"/>
<path d="M190.564 57.6869C190.199 56.8852 189.762 56.375 189.872 56.1078C190.248 55.2089 190.722 54.2979 191.365 53.5812C192.738 52.0507 194.256 50.6295 195.701 49.1719C195.834 49.512 196.174 50.0222 196.065 50.1801C194.365 52.573 192.604 54.9174 190.564 57.6869Z" fill="white"/>
<path d="M312.854 349.687C311.385 349.274 310.146 348.921 308.919 348.581C309.891 348.253 310.875 347.658 311.846 347.67C313.316 347.682 314.785 348.12 316.254 348.387C315.113 348.824 313.983 349.261 312.854 349.699V349.687Z" fill="white"/>
<path d="M725.083 274.51C711.53 274.51 697.99 274.583 684.437 274.497C628.453 274.133 572.469 273.708 516.485 273.319C481.51 273.076 446.548 272.615 411.573 272.663C351.533 272.748 291.493 273.088 231.441 273.453C199.308 273.647 167.174 274.157 135.041 274.51C133.025 274.534 130.997 274.51 128.982 274.449C128.471 274.425 127.986 274.097 127.488 273.914C128.059 273.769 128.617 273.526 129.188 273.489C130.597 273.416 132.018 273.429 133.438 273.429C149.614 273.392 165.79 273.489 181.966 273.307C221.543 272.846 261.121 272.262 300.698 271.704C329.601 271.303 358.503 270.938 387.406 270.44C418.726 269.894 450.033 268.594 481.34 268.74C522.156 268.922 562.972 270.282 603.788 270.987C634.306 271.521 664.824 271.801 695.342 272.226C721.197 272.59 747.051 273.003 772.906 273.429C773.72 273.441 774.521 273.89 775.323 274.133C774.545 274.267 773.78 274.51 773.003 274.522C757.034 274.546 741.052 274.534 725.083 274.534V274.497V274.51Z" fill="black"/>
<path d="M724.124 212.621C723.298 213.131 722.484 213.665 721.634 214.151C712.526 219.302 703.309 224.282 694.31 229.639C679.167 238.652 665.614 249.705 653.361 262.363C652.936 262.8 652.608 263.347 652.122 263.687C651.345 264.233 650.47 264.658 649.645 265.132C649.9 264.245 649.9 263.152 650.446 262.521C654.211 258.063 657.72 253.289 662.007 249.365C674.394 238.008 688.603 229.128 703.115 220.82C709.029 217.431 715.55 215.099 721.816 212.317C722.436 212.038 723.164 212.001 723.844 211.855C723.942 212.111 724.027 212.378 724.124 212.633V212.621Z" fill="black"/>
<path d="M258.971 261.307C258.789 261.829 258.656 262.169 258.534 262.521C258.012 262.266 257.405 262.096 256.992 261.72C253.252 258.355 249.778 254.614 245.771 251.613C235.946 244.276 226.134 236.867 215.824 230.247C206.521 224.283 196.551 219.351 186.909 213.909C186.217 213.52 185.792 212.646 185.233 212.002C185.986 212.123 186.836 212.051 187.48 212.379C200.158 218.962 213.261 224.878 225.32 232.457C235.303 238.737 244.119 246.888 253.276 254.431C255.559 256.314 257.138 259.047 258.984 261.307H258.971Z" fill="black"/>
<path d="M100.759 234.922C100.552 233.962 100.261 233.428 100.358 232.978C101.026 230.258 101.633 227.512 102.532 224.864C105.167 217.09 107.9 209.34 110.705 201.627C111.045 200.692 112.065 199.987 112.769 199.186C113.121 200.194 114.008 201.408 113.729 202.174C109.891 212.523 105.884 222.811 101.9 233.1C101.706 233.598 101.318 234.035 100.759 234.922Z" fill="black"/>
<path d="M110.353 245.066C108.713 255.087 107.268 264.015 105.738 272.919C105.629 273.526 104.839 274.012 104.354 274.559C104.111 273.891 103.589 273.162 103.686 272.542C105.07 263.59 106.491 254.65 108.045 245.734C108.228 244.689 109.223 243.778 109.855 242.807C110.11 243.924 110.353 245.042 110.365 245.066H110.353Z" fill="black"/>
<path d="M800.024 238.761C799.611 240.522 799.429 241.287 799.259 242.04C798.676 241.372 797.813 240.789 797.571 240.012C795.324 232.748 793.174 225.448 791.049 218.147C790.916 217.673 791.256 217.066 791.365 216.52C791.79 216.847 792.446 217.09 792.604 217.516C795.202 224.84 797.741 232.177 800.024 238.749V238.761Z" fill="black"/>
<path d="M110.426 232.579C112.806 225.46 115.15 218.415 117.542 211.394C117.7 210.933 118.319 210.617 118.72 210.24C118.89 210.92 119.339 211.698 119.169 212.281C117.166 219.217 115.101 226.141 112.952 233.028C112.697 233.854 111.907 234.51 111.361 235.251C111.057 234.388 110.741 233.514 110.414 232.579H110.426Z" fill="black"/>
<path d="M101.451 449.281C225.794 449.281 350.136 449.281 474.479 449.281C545.655 449.281 616.843 449.281 688.02 449.378C704.778 449.403 721.525 450.156 738.284 450.095C773.258 449.961 808.221 449.5 843.196 449.233C844.835 449.22 846.487 449.706 848.126 449.961C846.548 450.119 844.969 450.387 843.39 450.435C816.333 451.237 789.289 452.233 762.22 452.731C742.267 453.095 722.29 452.901 702.337 452.78C674.248 452.597 646.147 452.051 618.058 452.014C598.251 451.978 578.456 452.731 558.649 452.767C498.403 452.877 438.156 452.95 377.91 452.78C284.705 452.524 191.499 452.099 98.2817 451.638C87.7892 451.589 77.309 450.86 66.8165 450.423C66.0393 450.387 65.2621 450.156 64.4849 450.022C65.2742 449.767 66.0757 449.281 66.8651 449.281C78.3898 449.233 89.9144 449.245 101.439 449.245V449.281H101.451Z" fill="black"/>
</g>
<defs>
<clipPath id="clip0_29058_191456">
<rect width="910" height="640" fill="white"/>
</clipPath>
</defs>
</svg>
